%TF.GenerationSoftware,KiCad,Pcbnew,(6.0.7-1)-1*%
%TF.CreationDate,2022-09-14T15:44:29-04:00*%
%TF.ProjectId,phocuser,70686f63-7573-4657-922e-6b696361645f,rev?*%
%TF.SameCoordinates,Original*%
%TF.FileFunction,Legend,Top*%
%TF.FilePolarity,Positive*%
%FSLAX46Y46*%
G04 Gerber Fmt 4.6, Leading zero omitted, Abs format (unit mm)*
G04 Created by KiCad (PCBNEW (6.0.7-1)-1) date 2022-09-14 15:44:29*
%MOMM*%
%LPD*%
G01*
G04 APERTURE LIST*
%ADD10C,0.100000*%
%ADD11C,0.150000*%
%ADD12C,0.127000*%
%ADD13C,0.120000*%
%ADD14C,0.200000*%
%ADD15C,0.152400*%
G04 APERTURE END LIST*
D10*
%TO.C,C19*%
X196578571Y-82121428D02*
X196602380Y-82145238D01*
X196626190Y-82216666D01*
X196626190Y-82264285D01*
X196602380Y-82335714D01*
X196554761Y-82383333D01*
X196507142Y-82407142D01*
X196411904Y-82430952D01*
X196340476Y-82430952D01*
X196245238Y-82407142D01*
X196197619Y-82383333D01*
X196150000Y-82335714D01*
X196126190Y-82264285D01*
X196126190Y-82216666D01*
X196150000Y-82145238D01*
X196173809Y-82121428D01*
X196626190Y-81645238D02*
X196626190Y-81930952D01*
X196626190Y-81788095D02*
X196126190Y-81788095D01*
X196197619Y-81835714D01*
X196245238Y-81883333D01*
X196269047Y-81930952D01*
X196626190Y-81407142D02*
X196626190Y-81311904D01*
X196602380Y-81264285D01*
X196578571Y-81240476D01*
X196507142Y-81192857D01*
X196411904Y-81169047D01*
X196221428Y-81169047D01*
X196173809Y-81192857D01*
X196150000Y-81216666D01*
X196126190Y-81264285D01*
X196126190Y-81359523D01*
X196150000Y-81407142D01*
X196173809Y-81430952D01*
X196221428Y-81454761D01*
X196340476Y-81454761D01*
X196388095Y-81430952D01*
X196411904Y-81407142D01*
X196435714Y-81359523D01*
X196435714Y-81264285D01*
X196411904Y-81216666D01*
X196388095Y-81192857D01*
X196340476Y-81169047D01*
%TO.C,R21*%
X196626190Y-76721428D02*
X196388095Y-76888095D01*
X196626190Y-77007142D02*
X196126190Y-77007142D01*
X196126190Y-76816666D01*
X196150000Y-76769047D01*
X196173809Y-76745238D01*
X196221428Y-76721428D01*
X196292857Y-76721428D01*
X196340476Y-76745238D01*
X196364285Y-76769047D01*
X196388095Y-76816666D01*
X196388095Y-77007142D01*
X196173809Y-76530952D02*
X196150000Y-76507142D01*
X196126190Y-76459523D01*
X196126190Y-76340476D01*
X196150000Y-76292857D01*
X196173809Y-76269047D01*
X196221428Y-76245238D01*
X196269047Y-76245238D01*
X196340476Y-76269047D01*
X196626190Y-76554761D01*
X196626190Y-76245238D01*
X196626190Y-75769047D02*
X196626190Y-76054761D01*
X196626190Y-75911904D02*
X196126190Y-75911904D01*
X196197619Y-75959523D01*
X196245238Y-76007142D01*
X196269047Y-76054761D01*
%TO.C,R20*%
X197626190Y-82121428D02*
X197388095Y-82288095D01*
X197626190Y-82407142D02*
X197126190Y-82407142D01*
X197126190Y-82216666D01*
X197150000Y-82169047D01*
X197173809Y-82145238D01*
X197221428Y-82121428D01*
X197292857Y-82121428D01*
X197340476Y-82145238D01*
X197364285Y-82169047D01*
X197388095Y-82216666D01*
X197388095Y-82407142D01*
X197173809Y-81930952D02*
X197150000Y-81907142D01*
X197126190Y-81859523D01*
X197126190Y-81740476D01*
X197150000Y-81692857D01*
X197173809Y-81669047D01*
X197221428Y-81645238D01*
X197269047Y-81645238D01*
X197340476Y-81669047D01*
X197626190Y-81954761D01*
X197626190Y-81645238D01*
X197126190Y-81335714D02*
X197126190Y-81288095D01*
X197150000Y-81240476D01*
X197173809Y-81216666D01*
X197221428Y-81192857D01*
X197316666Y-81169047D01*
X197435714Y-81169047D01*
X197530952Y-81192857D01*
X197578571Y-81216666D01*
X197602380Y-81240476D01*
X197626190Y-81288095D01*
X197626190Y-81335714D01*
X197602380Y-81383333D01*
X197578571Y-81407142D01*
X197530952Y-81430952D01*
X197435714Y-81454761D01*
X197316666Y-81454761D01*
X197221428Y-81430952D01*
X197173809Y-81407142D01*
X197150000Y-81383333D01*
X197126190Y-81335714D01*
%TO.C,R16*%
X180868571Y-82026190D02*
X180701904Y-81788095D01*
X180582857Y-82026190D02*
X180582857Y-81526190D01*
X180773333Y-81526190D01*
X180820952Y-81550000D01*
X180844761Y-81573809D01*
X180868571Y-81621428D01*
X180868571Y-81692857D01*
X180844761Y-81740476D01*
X180820952Y-81764285D01*
X180773333Y-81788095D01*
X180582857Y-81788095D01*
X181344761Y-82026190D02*
X181059047Y-82026190D01*
X181201904Y-82026190D02*
X181201904Y-81526190D01*
X181154285Y-81597619D01*
X181106666Y-81645238D01*
X181059047Y-81669047D01*
X181773333Y-81526190D02*
X181678095Y-81526190D01*
X181630476Y-81550000D01*
X181606666Y-81573809D01*
X181559047Y-81645238D01*
X181535238Y-81740476D01*
X181535238Y-81930952D01*
X181559047Y-81978571D01*
X181582857Y-82002380D01*
X181630476Y-82026190D01*
X181725714Y-82026190D01*
X181773333Y-82002380D01*
X181797142Y-81978571D01*
X181820952Y-81930952D01*
X181820952Y-81811904D01*
X181797142Y-81764285D01*
X181773333Y-81740476D01*
X181725714Y-81716666D01*
X181630476Y-81716666D01*
X181582857Y-81740476D01*
X181559047Y-81764285D01*
X181535238Y-81811904D01*
%TO.C,R15*%
X181278571Y-84026190D02*
X181111904Y-83788095D01*
X180992857Y-84026190D02*
X180992857Y-83526190D01*
X181183333Y-83526190D01*
X181230952Y-83550000D01*
X181254761Y-83573809D01*
X181278571Y-83621428D01*
X181278571Y-83692857D01*
X181254761Y-83740476D01*
X181230952Y-83764285D01*
X181183333Y-83788095D01*
X180992857Y-83788095D01*
X181754761Y-84026190D02*
X181469047Y-84026190D01*
X181611904Y-84026190D02*
X181611904Y-83526190D01*
X181564285Y-83597619D01*
X181516666Y-83645238D01*
X181469047Y-83669047D01*
X182207142Y-83526190D02*
X181969047Y-83526190D01*
X181945238Y-83764285D01*
X181969047Y-83740476D01*
X182016666Y-83716666D01*
X182135714Y-83716666D01*
X182183333Y-83740476D01*
X182207142Y-83764285D01*
X182230952Y-83811904D01*
X182230952Y-83930952D01*
X182207142Y-83978571D01*
X182183333Y-84002380D01*
X182135714Y-84026190D01*
X182016666Y-84026190D01*
X181969047Y-84002380D01*
X181945238Y-83978571D01*
%TO.C,D4*%
X179226190Y-78069047D02*
X178726190Y-78069047D01*
X178726190Y-77950000D01*
X178750000Y-77878571D01*
X178797619Y-77830952D01*
X178845238Y-77807142D01*
X178940476Y-77783333D01*
X179011904Y-77783333D01*
X179107142Y-77807142D01*
X179154761Y-77830952D01*
X179202380Y-77878571D01*
X179226190Y-77950000D01*
X179226190Y-78069047D01*
X178892857Y-77354761D02*
X179226190Y-77354761D01*
X178702380Y-77473809D02*
X179059523Y-77592857D01*
X179059523Y-77283333D01*
%TO.C,D3*%
X177626190Y-78069047D02*
X177126190Y-78069047D01*
X177126190Y-77950000D01*
X177150000Y-77878571D01*
X177197619Y-77830952D01*
X177245238Y-77807142D01*
X177340476Y-77783333D01*
X177411904Y-77783333D01*
X177507142Y-77807142D01*
X177554761Y-77830952D01*
X177602380Y-77878571D01*
X177626190Y-77950000D01*
X177626190Y-78069047D01*
X177126190Y-77616666D02*
X177126190Y-77307142D01*
X177316666Y-77473809D01*
X177316666Y-77402380D01*
X177340476Y-77354761D01*
X177364285Y-77330952D01*
X177411904Y-77307142D01*
X177530952Y-77307142D01*
X177578571Y-77330952D01*
X177602380Y-77354761D01*
X177626190Y-77402380D01*
X177626190Y-77545238D01*
X177602380Y-77592857D01*
X177578571Y-77616666D01*
D11*
%TO.C,J1*%
X196266666Y-98852380D02*
X196266666Y-99566666D01*
X196219047Y-99709523D01*
X196123809Y-99804761D01*
X195980952Y-99852380D01*
X195885714Y-99852380D01*
X197266666Y-99852380D02*
X196695238Y-99852380D01*
X196980952Y-99852380D02*
X196980952Y-98852380D01*
X196885714Y-98995238D01*
X196790476Y-99090476D01*
X196695238Y-99138095D01*
%TO.C,U2*%
X191338095Y-85852380D02*
X191338095Y-86661904D01*
X191385714Y-86757142D01*
X191433333Y-86804761D01*
X191528571Y-86852380D01*
X191719047Y-86852380D01*
X191814285Y-86804761D01*
X191861904Y-86757142D01*
X191909523Y-86661904D01*
X191909523Y-85852380D01*
X192338095Y-85947619D02*
X192385714Y-85900000D01*
X192480952Y-85852380D01*
X192719047Y-85852380D01*
X192814285Y-85900000D01*
X192861904Y-85947619D01*
X192909523Y-86042857D01*
X192909523Y-86138095D01*
X192861904Y-86280952D01*
X192290476Y-86852380D01*
X192909523Y-86852380D01*
D10*
%TO.C,C10*%
X181378571Y-78478571D02*
X181354761Y-78502380D01*
X181283333Y-78526190D01*
X181235714Y-78526190D01*
X181164285Y-78502380D01*
X181116666Y-78454761D01*
X181092857Y-78407142D01*
X181069047Y-78311904D01*
X181069047Y-78240476D01*
X181092857Y-78145238D01*
X181116666Y-78097619D01*
X181164285Y-78050000D01*
X181235714Y-78026190D01*
X181283333Y-78026190D01*
X181354761Y-78050000D01*
X181378571Y-78073809D01*
X181854761Y-78526190D02*
X181569047Y-78526190D01*
X181711904Y-78526190D02*
X181711904Y-78026190D01*
X181664285Y-78097619D01*
X181616666Y-78145238D01*
X181569047Y-78169047D01*
X182164285Y-78026190D02*
X182211904Y-78026190D01*
X182259523Y-78050000D01*
X182283333Y-78073809D01*
X182307142Y-78121428D01*
X182330952Y-78216666D01*
X182330952Y-78335714D01*
X182307142Y-78430952D01*
X182283333Y-78478571D01*
X182259523Y-78502380D01*
X182211904Y-78526190D01*
X182164285Y-78526190D01*
X182116666Y-78502380D01*
X182092857Y-78478571D01*
X182069047Y-78430952D01*
X182045238Y-78335714D01*
X182045238Y-78216666D01*
X182069047Y-78121428D01*
X182092857Y-78073809D01*
X182116666Y-78050000D01*
X182164285Y-78026190D01*
D11*
%TO.C,J2*%
X176366666Y-74552380D02*
X176366666Y-75266666D01*
X176319047Y-75409523D01*
X176223809Y-75504761D01*
X176080952Y-75552380D01*
X175985714Y-75552380D01*
X176795238Y-74647619D02*
X176842857Y-74600000D01*
X176938095Y-74552380D01*
X177176190Y-74552380D01*
X177271428Y-74600000D01*
X177319047Y-74647619D01*
X177366666Y-74742857D01*
X177366666Y-74838095D01*
X177319047Y-74980952D01*
X176747619Y-75552380D01*
X177366666Y-75552380D01*
%TO.C,J3*%
X185866666Y-79252380D02*
X185866666Y-79966666D01*
X185819047Y-80109523D01*
X185723809Y-80204761D01*
X185580952Y-80252380D01*
X185485714Y-80252380D01*
X186247619Y-79252380D02*
X186866666Y-79252380D01*
X186533333Y-79633333D01*
X186676190Y-79633333D01*
X186771428Y-79680952D01*
X186819047Y-79728571D01*
X186866666Y-79823809D01*
X186866666Y-80061904D01*
X186819047Y-80157142D01*
X186771428Y-80204761D01*
X186676190Y-80252380D01*
X186390476Y-80252380D01*
X186295238Y-80204761D01*
X186247619Y-80157142D01*
D10*
%TO.C,C11*%
X179178571Y-94921428D02*
X179202380Y-94945238D01*
X179226190Y-95016666D01*
X179226190Y-95064285D01*
X179202380Y-95135714D01*
X179154761Y-95183333D01*
X179107142Y-95207142D01*
X179011904Y-95230952D01*
X178940476Y-95230952D01*
X178845238Y-95207142D01*
X178797619Y-95183333D01*
X178750000Y-95135714D01*
X178726190Y-95064285D01*
X178726190Y-95016666D01*
X178750000Y-94945238D01*
X178773809Y-94921428D01*
X179226190Y-94445238D02*
X179226190Y-94730952D01*
X179226190Y-94588095D02*
X178726190Y-94588095D01*
X178797619Y-94635714D01*
X178845238Y-94683333D01*
X178869047Y-94730952D01*
X179226190Y-93969047D02*
X179226190Y-94254761D01*
X179226190Y-94111904D02*
X178726190Y-94111904D01*
X178797619Y-94159523D01*
X178845238Y-94207142D01*
X178869047Y-94254761D01*
%TO.C,C12*%
X173278571Y-94821428D02*
X173302380Y-94845238D01*
X173326190Y-94916666D01*
X173326190Y-94964285D01*
X173302380Y-95035714D01*
X173254761Y-95083333D01*
X173207142Y-95107142D01*
X173111904Y-95130952D01*
X173040476Y-95130952D01*
X172945238Y-95107142D01*
X172897619Y-95083333D01*
X172850000Y-95035714D01*
X172826190Y-94964285D01*
X172826190Y-94916666D01*
X172850000Y-94845238D01*
X172873809Y-94821428D01*
X173326190Y-94345238D02*
X173326190Y-94630952D01*
X173326190Y-94488095D02*
X172826190Y-94488095D01*
X172897619Y-94535714D01*
X172945238Y-94583333D01*
X172969047Y-94630952D01*
X172873809Y-94154761D02*
X172850000Y-94130952D01*
X172826190Y-94083333D01*
X172826190Y-93964285D01*
X172850000Y-93916666D01*
X172873809Y-93892857D01*
X172921428Y-93869047D01*
X172969047Y-93869047D01*
X173040476Y-93892857D01*
X173326190Y-94178571D01*
X173326190Y-93869047D01*
%TO.C,C13*%
X175578571Y-97778571D02*
X175554761Y-97802380D01*
X175483333Y-97826190D01*
X175435714Y-97826190D01*
X175364285Y-97802380D01*
X175316666Y-97754761D01*
X175292857Y-97707142D01*
X175269047Y-97611904D01*
X175269047Y-97540476D01*
X175292857Y-97445238D01*
X175316666Y-97397619D01*
X175364285Y-97350000D01*
X175435714Y-97326190D01*
X175483333Y-97326190D01*
X175554761Y-97350000D01*
X175578571Y-97373809D01*
X176054761Y-97826190D02*
X175769047Y-97826190D01*
X175911904Y-97826190D02*
X175911904Y-97326190D01*
X175864285Y-97397619D01*
X175816666Y-97445238D01*
X175769047Y-97469047D01*
X176221428Y-97326190D02*
X176530952Y-97326190D01*
X176364285Y-97516666D01*
X176435714Y-97516666D01*
X176483333Y-97540476D01*
X176507142Y-97564285D01*
X176530952Y-97611904D01*
X176530952Y-97730952D01*
X176507142Y-97778571D01*
X176483333Y-97802380D01*
X176435714Y-97826190D01*
X176292857Y-97826190D01*
X176245238Y-97802380D01*
X176221428Y-97778571D01*
%TO.C,C14*%
X175678571Y-95178571D02*
X175654761Y-95202380D01*
X175583333Y-95226190D01*
X175535714Y-95226190D01*
X175464285Y-95202380D01*
X175416666Y-95154761D01*
X175392857Y-95107142D01*
X175369047Y-95011904D01*
X175369047Y-94940476D01*
X175392857Y-94845238D01*
X175416666Y-94797619D01*
X175464285Y-94750000D01*
X175535714Y-94726190D01*
X175583333Y-94726190D01*
X175654761Y-94750000D01*
X175678571Y-94773809D01*
X176154761Y-95226190D02*
X175869047Y-95226190D01*
X176011904Y-95226190D02*
X176011904Y-94726190D01*
X175964285Y-94797619D01*
X175916666Y-94845238D01*
X175869047Y-94869047D01*
X176583333Y-94892857D02*
X176583333Y-95226190D01*
X176464285Y-94702380D02*
X176345238Y-95059523D01*
X176654761Y-95059523D01*
%TO.C,C15*%
X183578571Y-72878571D02*
X183554761Y-72902380D01*
X183483333Y-72926190D01*
X183435714Y-72926190D01*
X183364285Y-72902380D01*
X183316666Y-72854761D01*
X183292857Y-72807142D01*
X183269047Y-72711904D01*
X183269047Y-72640476D01*
X183292857Y-72545238D01*
X183316666Y-72497619D01*
X183364285Y-72450000D01*
X183435714Y-72426190D01*
X183483333Y-72426190D01*
X183554761Y-72450000D01*
X183578571Y-72473809D01*
X184054761Y-72926190D02*
X183769047Y-72926190D01*
X183911904Y-72926190D02*
X183911904Y-72426190D01*
X183864285Y-72497619D01*
X183816666Y-72545238D01*
X183769047Y-72569047D01*
X184507142Y-72426190D02*
X184269047Y-72426190D01*
X184245238Y-72664285D01*
X184269047Y-72640476D01*
X184316666Y-72616666D01*
X184435714Y-72616666D01*
X184483333Y-72640476D01*
X184507142Y-72664285D01*
X184530952Y-72711904D01*
X184530952Y-72830952D01*
X184507142Y-72878571D01*
X184483333Y-72902380D01*
X184435714Y-72926190D01*
X184316666Y-72926190D01*
X184269047Y-72902380D01*
X184245238Y-72878571D01*
%TO.C,FB1*%
X178064285Y-95016666D02*
X178064285Y-95183333D01*
X178326190Y-95183333D02*
X177826190Y-95183333D01*
X177826190Y-94945238D01*
X178064285Y-94588095D02*
X178088095Y-94516666D01*
X178111904Y-94492857D01*
X178159523Y-94469047D01*
X178230952Y-94469047D01*
X178278571Y-94492857D01*
X178302380Y-94516666D01*
X178326190Y-94564285D01*
X178326190Y-94754761D01*
X177826190Y-94754761D01*
X177826190Y-94588095D01*
X177850000Y-94540476D01*
X177873809Y-94516666D01*
X177921428Y-94492857D01*
X177969047Y-94492857D01*
X178016666Y-94516666D01*
X178040476Y-94540476D01*
X178064285Y-94588095D01*
X178064285Y-94754761D01*
X178326190Y-93992857D02*
X178326190Y-94278571D01*
X178326190Y-94135714D02*
X177826190Y-94135714D01*
X177897619Y-94183333D01*
X177945238Y-94230952D01*
X177969047Y-94278571D01*
D12*
%TO.C,J4*%
X167666666Y-98452380D02*
X167666666Y-99166666D01*
X167619047Y-99309523D01*
X167523809Y-99404761D01*
X167380952Y-99452380D01*
X167285714Y-99452380D01*
X168571428Y-98785714D02*
X168571428Y-99452380D01*
X168333333Y-98404761D02*
X168095238Y-99119047D01*
X168714285Y-99119047D01*
D10*
%TO.C,R4*%
X180616666Y-75826190D02*
X180450000Y-75588095D01*
X180330952Y-75826190D02*
X180330952Y-75326190D01*
X180521428Y-75326190D01*
X180569047Y-75350000D01*
X180592857Y-75373809D01*
X180616666Y-75421428D01*
X180616666Y-75492857D01*
X180592857Y-75540476D01*
X180569047Y-75564285D01*
X180521428Y-75588095D01*
X180330952Y-75588095D01*
X181045238Y-75492857D02*
X181045238Y-75826190D01*
X180926190Y-75302380D02*
X180807142Y-75659523D01*
X181116666Y-75659523D01*
%TO.C,R5*%
X180616666Y-76726190D02*
X180450000Y-76488095D01*
X180330952Y-76726190D02*
X180330952Y-76226190D01*
X180521428Y-76226190D01*
X180569047Y-76250000D01*
X180592857Y-76273809D01*
X180616666Y-76321428D01*
X180616666Y-76392857D01*
X180592857Y-76440476D01*
X180569047Y-76464285D01*
X180521428Y-76488095D01*
X180330952Y-76488095D01*
X181069047Y-76226190D02*
X180830952Y-76226190D01*
X180807142Y-76464285D01*
X180830952Y-76440476D01*
X180878571Y-76416666D01*
X180997619Y-76416666D01*
X181045238Y-76440476D01*
X181069047Y-76464285D01*
X181092857Y-76511904D01*
X181092857Y-76630952D01*
X181069047Y-76678571D01*
X181045238Y-76702380D01*
X180997619Y-76726190D01*
X180878571Y-76726190D01*
X180830952Y-76702380D01*
X180807142Y-76678571D01*
%TO.C,R6*%
X177526190Y-94783333D02*
X177288095Y-94950000D01*
X177526190Y-95069047D02*
X177026190Y-95069047D01*
X177026190Y-94878571D01*
X177050000Y-94830952D01*
X177073809Y-94807142D01*
X177121428Y-94783333D01*
X177192857Y-94783333D01*
X177240476Y-94807142D01*
X177264285Y-94830952D01*
X177288095Y-94878571D01*
X177288095Y-95069047D01*
X177026190Y-94354761D02*
X177026190Y-94450000D01*
X177050000Y-94497619D01*
X177073809Y-94521428D01*
X177145238Y-94569047D01*
X177240476Y-94592857D01*
X177430952Y-94592857D01*
X177478571Y-94569047D01*
X177502380Y-94545238D01*
X177526190Y-94497619D01*
X177526190Y-94402380D01*
X177502380Y-94354761D01*
X177478571Y-94330952D01*
X177430952Y-94307142D01*
X177311904Y-94307142D01*
X177264285Y-94330952D01*
X177240476Y-94354761D01*
X177216666Y-94402380D01*
X177216666Y-94497619D01*
X177240476Y-94545238D01*
X177264285Y-94569047D01*
X177311904Y-94592857D01*
%TO.C,R7*%
X172226190Y-94783333D02*
X171988095Y-94950000D01*
X172226190Y-95069047D02*
X171726190Y-95069047D01*
X171726190Y-94878571D01*
X171750000Y-94830952D01*
X171773809Y-94807142D01*
X171821428Y-94783333D01*
X171892857Y-94783333D01*
X171940476Y-94807142D01*
X171964285Y-94830952D01*
X171988095Y-94878571D01*
X171988095Y-95069047D01*
X171726190Y-94616666D02*
X171726190Y-94283333D01*
X172226190Y-94497619D01*
%TO.C,R8*%
X174926190Y-94883333D02*
X174688095Y-95050000D01*
X174926190Y-95169047D02*
X174426190Y-95169047D01*
X174426190Y-94978571D01*
X174450000Y-94930952D01*
X174473809Y-94907142D01*
X174521428Y-94883333D01*
X174592857Y-94883333D01*
X174640476Y-94907142D01*
X174664285Y-94930952D01*
X174688095Y-94978571D01*
X174688095Y-95169047D01*
X174640476Y-94597619D02*
X174616666Y-94645238D01*
X174592857Y-94669047D01*
X174545238Y-94692857D01*
X174521428Y-94692857D01*
X174473809Y-94669047D01*
X174450000Y-94645238D01*
X174426190Y-94597619D01*
X174426190Y-94502380D01*
X174450000Y-94454761D01*
X174473809Y-94430952D01*
X174521428Y-94407142D01*
X174545238Y-94407142D01*
X174592857Y-94430952D01*
X174616666Y-94454761D01*
X174640476Y-94502380D01*
X174640476Y-94597619D01*
X174664285Y-94645238D01*
X174688095Y-94669047D01*
X174735714Y-94692857D01*
X174830952Y-94692857D01*
X174878571Y-94669047D01*
X174902380Y-94645238D01*
X174926190Y-94597619D01*
X174926190Y-94502380D01*
X174902380Y-94454761D01*
X174878571Y-94430952D01*
X174830952Y-94407142D01*
X174735714Y-94407142D01*
X174688095Y-94430952D01*
X174664285Y-94454761D01*
X174640476Y-94502380D01*
%TO.C,R9*%
X174226190Y-94883333D02*
X173988095Y-95050000D01*
X174226190Y-95169047D02*
X173726190Y-95169047D01*
X173726190Y-94978571D01*
X173750000Y-94930952D01*
X173773809Y-94907142D01*
X173821428Y-94883333D01*
X173892857Y-94883333D01*
X173940476Y-94907142D01*
X173964285Y-94930952D01*
X173988095Y-94978571D01*
X173988095Y-95169047D01*
X174226190Y-94645238D02*
X174226190Y-94550000D01*
X174202380Y-94502380D01*
X174178571Y-94478571D01*
X174107142Y-94430952D01*
X174011904Y-94407142D01*
X173821428Y-94407142D01*
X173773809Y-94430952D01*
X173750000Y-94454761D01*
X173726190Y-94502380D01*
X173726190Y-94597619D01*
X173750000Y-94645238D01*
X173773809Y-94669047D01*
X173821428Y-94692857D01*
X173940476Y-94692857D01*
X173988095Y-94669047D01*
X174011904Y-94645238D01*
X174035714Y-94597619D01*
X174035714Y-94502380D01*
X174011904Y-94454761D01*
X173988095Y-94430952D01*
X173940476Y-94407142D01*
%TO.C,R10*%
X176226190Y-78821428D02*
X175988095Y-78988095D01*
X176226190Y-79107142D02*
X175726190Y-79107142D01*
X175726190Y-78916666D01*
X175750000Y-78869047D01*
X175773809Y-78845238D01*
X175821428Y-78821428D01*
X175892857Y-78821428D01*
X175940476Y-78845238D01*
X175964285Y-78869047D01*
X175988095Y-78916666D01*
X175988095Y-79107142D01*
X176226190Y-78345238D02*
X176226190Y-78630952D01*
X176226190Y-78488095D02*
X175726190Y-78488095D01*
X175797619Y-78535714D01*
X175845238Y-78583333D01*
X175869047Y-78630952D01*
X175726190Y-78035714D02*
X175726190Y-77988095D01*
X175750000Y-77940476D01*
X175773809Y-77916666D01*
X175821428Y-77892857D01*
X175916666Y-77869047D01*
X176035714Y-77869047D01*
X176130952Y-77892857D01*
X176178571Y-77916666D01*
X176202380Y-77940476D01*
X176226190Y-77988095D01*
X176226190Y-78035714D01*
X176202380Y-78083333D01*
X176178571Y-78107142D01*
X176130952Y-78130952D01*
X176035714Y-78154761D01*
X175916666Y-78154761D01*
X175821428Y-78130952D01*
X175773809Y-78107142D01*
X175750000Y-78083333D01*
X175726190Y-78035714D01*
%TO.C,R11*%
X175226190Y-78921428D02*
X174988095Y-79088095D01*
X175226190Y-79207142D02*
X174726190Y-79207142D01*
X174726190Y-79016666D01*
X174750000Y-78969047D01*
X174773809Y-78945238D01*
X174821428Y-78921428D01*
X174892857Y-78921428D01*
X174940476Y-78945238D01*
X174964285Y-78969047D01*
X174988095Y-79016666D01*
X174988095Y-79207142D01*
X175226190Y-78445238D02*
X175226190Y-78730952D01*
X175226190Y-78588095D02*
X174726190Y-78588095D01*
X174797619Y-78635714D01*
X174845238Y-78683333D01*
X174869047Y-78730952D01*
X175226190Y-77969047D02*
X175226190Y-78254761D01*
X175226190Y-78111904D02*
X174726190Y-78111904D01*
X174797619Y-78159523D01*
X174845238Y-78207142D01*
X174869047Y-78254761D01*
%TO.C,R12*%
X183078571Y-84026190D02*
X182911904Y-83788095D01*
X182792857Y-84026190D02*
X182792857Y-83526190D01*
X182983333Y-83526190D01*
X183030952Y-83550000D01*
X183054761Y-83573809D01*
X183078571Y-83621428D01*
X183078571Y-83692857D01*
X183054761Y-83740476D01*
X183030952Y-83764285D01*
X182983333Y-83788095D01*
X182792857Y-83788095D01*
X183554761Y-84026190D02*
X183269047Y-84026190D01*
X183411904Y-84026190D02*
X183411904Y-83526190D01*
X183364285Y-83597619D01*
X183316666Y-83645238D01*
X183269047Y-83669047D01*
X183745238Y-83573809D02*
X183769047Y-83550000D01*
X183816666Y-83526190D01*
X183935714Y-83526190D01*
X183983333Y-83550000D01*
X184007142Y-83573809D01*
X184030952Y-83621428D01*
X184030952Y-83669047D01*
X184007142Y-83740476D01*
X183721428Y-84026190D01*
X184030952Y-84026190D01*
%TO.C,R13*%
X183578571Y-72026190D02*
X183411904Y-71788095D01*
X183292857Y-72026190D02*
X183292857Y-71526190D01*
X183483333Y-71526190D01*
X183530952Y-71550000D01*
X183554761Y-71573809D01*
X183578571Y-71621428D01*
X183578571Y-71692857D01*
X183554761Y-71740476D01*
X183530952Y-71764285D01*
X183483333Y-71788095D01*
X183292857Y-71788095D01*
X184054761Y-72026190D02*
X183769047Y-72026190D01*
X183911904Y-72026190D02*
X183911904Y-71526190D01*
X183864285Y-71597619D01*
X183816666Y-71645238D01*
X183769047Y-71669047D01*
X184221428Y-71526190D02*
X184530952Y-71526190D01*
X184364285Y-71716666D01*
X184435714Y-71716666D01*
X184483333Y-71740476D01*
X184507142Y-71764285D01*
X184530952Y-71811904D01*
X184530952Y-71930952D01*
X184507142Y-71978571D01*
X184483333Y-72002380D01*
X184435714Y-72026190D01*
X184292857Y-72026190D01*
X184245238Y-72002380D01*
X184221428Y-71978571D01*
%TO.C,TH1*%
X183257142Y-70526190D02*
X183542857Y-70526190D01*
X183400000Y-71026190D02*
X183400000Y-70526190D01*
X183709523Y-71026190D02*
X183709523Y-70526190D01*
X183709523Y-70764285D02*
X183995238Y-70764285D01*
X183995238Y-71026190D02*
X183995238Y-70526190D01*
X184495238Y-71026190D02*
X184209523Y-71026190D01*
X184352380Y-71026190D02*
X184352380Y-70526190D01*
X184304761Y-70597619D01*
X184257142Y-70645238D01*
X184209523Y-70669047D01*
%TO.C,U3*%
X175319047Y-87726190D02*
X175319047Y-88130952D01*
X175342857Y-88178571D01*
X175366666Y-88202380D01*
X175414285Y-88226190D01*
X175509523Y-88226190D01*
X175557142Y-88202380D01*
X175580952Y-88178571D01*
X175604761Y-88130952D01*
X175604761Y-87726190D01*
X175795238Y-87726190D02*
X176104761Y-87726190D01*
X175938095Y-87916666D01*
X176009523Y-87916666D01*
X176057142Y-87940476D01*
X176080952Y-87964285D01*
X176104761Y-88011904D01*
X176104761Y-88130952D01*
X176080952Y-88178571D01*
X176057142Y-88202380D01*
X176009523Y-88226190D01*
X175866666Y-88226190D01*
X175819047Y-88202380D01*
X175795238Y-88178571D01*
D11*
%TO.C,J5*%
X183566666Y-68052380D02*
X183566666Y-68766666D01*
X183519047Y-68909523D01*
X183423809Y-69004761D01*
X183280952Y-69052380D01*
X183185714Y-69052380D01*
X184519047Y-68052380D02*
X184042857Y-68052380D01*
X183995238Y-68528571D01*
X184042857Y-68480952D01*
X184138095Y-68433333D01*
X184376190Y-68433333D01*
X184471428Y-68480952D01*
X184519047Y-68528571D01*
X184566666Y-68623809D01*
X184566666Y-68861904D01*
X184519047Y-68957142D01*
X184471428Y-69004761D01*
X184376190Y-69052380D01*
X184138095Y-69052380D01*
X184042857Y-69004761D01*
X183995238Y-68957142D01*
%TO.C,J6*%
X183366666Y-75152380D02*
X183366666Y-75866666D01*
X183319047Y-76009523D01*
X183223809Y-76104761D01*
X183080952Y-76152380D01*
X182985714Y-76152380D01*
X184271428Y-75152380D02*
X184080952Y-75152380D01*
X183985714Y-75200000D01*
X183938095Y-75247619D01*
X183842857Y-75390476D01*
X183795238Y-75580952D01*
X183795238Y-75961904D01*
X183842857Y-76057142D01*
X183890476Y-76104761D01*
X183985714Y-76152380D01*
X184176190Y-76152380D01*
X184271428Y-76104761D01*
X184319047Y-76057142D01*
X184366666Y-75961904D01*
X184366666Y-75723809D01*
X184319047Y-75628571D01*
X184271428Y-75580952D01*
X184176190Y-75533333D01*
X183985714Y-75533333D01*
X183890476Y-75580952D01*
X183842857Y-75628571D01*
X183795238Y-75723809D01*
D10*
%TO.C,R17*%
X172126190Y-78921428D02*
X171888095Y-79088095D01*
X172126190Y-79207142D02*
X171626190Y-79207142D01*
X171626190Y-79016666D01*
X171650000Y-78969047D01*
X171673809Y-78945238D01*
X171721428Y-78921428D01*
X171792857Y-78921428D01*
X171840476Y-78945238D01*
X171864285Y-78969047D01*
X171888095Y-79016666D01*
X171888095Y-79207142D01*
X172126190Y-78445238D02*
X172126190Y-78730952D01*
X172126190Y-78588095D02*
X171626190Y-78588095D01*
X171697619Y-78635714D01*
X171745238Y-78683333D01*
X171769047Y-78730952D01*
X171626190Y-78278571D02*
X171626190Y-77945238D01*
X172126190Y-78159523D01*
%TO.C,R18*%
X173126190Y-78921428D02*
X172888095Y-79088095D01*
X173126190Y-79207142D02*
X172626190Y-79207142D01*
X172626190Y-79016666D01*
X172650000Y-78969047D01*
X172673809Y-78945238D01*
X172721428Y-78921428D01*
X172792857Y-78921428D01*
X172840476Y-78945238D01*
X172864285Y-78969047D01*
X172888095Y-79016666D01*
X172888095Y-79207142D01*
X173126190Y-78445238D02*
X173126190Y-78730952D01*
X173126190Y-78588095D02*
X172626190Y-78588095D01*
X172697619Y-78635714D01*
X172745238Y-78683333D01*
X172769047Y-78730952D01*
X172840476Y-78159523D02*
X172816666Y-78207142D01*
X172792857Y-78230952D01*
X172745238Y-78254761D01*
X172721428Y-78254761D01*
X172673809Y-78230952D01*
X172650000Y-78207142D01*
X172626190Y-78159523D01*
X172626190Y-78064285D01*
X172650000Y-78016666D01*
X172673809Y-77992857D01*
X172721428Y-77969047D01*
X172745238Y-77969047D01*
X172792857Y-77992857D01*
X172816666Y-78016666D01*
X172840476Y-78064285D01*
X172840476Y-78159523D01*
X172864285Y-78207142D01*
X172888095Y-78230952D01*
X172935714Y-78254761D01*
X173030952Y-78254761D01*
X173078571Y-78230952D01*
X173102380Y-78207142D01*
X173126190Y-78159523D01*
X173126190Y-78064285D01*
X173102380Y-78016666D01*
X173078571Y-77992857D01*
X173030952Y-77969047D01*
X172935714Y-77969047D01*
X172888095Y-77992857D01*
X172864285Y-78016666D01*
X172840476Y-78064285D01*
%TO.C,R19*%
X174126190Y-78921428D02*
X173888095Y-79088095D01*
X174126190Y-79207142D02*
X173626190Y-79207142D01*
X173626190Y-79016666D01*
X173650000Y-78969047D01*
X173673809Y-78945238D01*
X173721428Y-78921428D01*
X173792857Y-78921428D01*
X173840476Y-78945238D01*
X173864285Y-78969047D01*
X173888095Y-79016666D01*
X173888095Y-79207142D01*
X174126190Y-78445238D02*
X174126190Y-78730952D01*
X174126190Y-78588095D02*
X173626190Y-78588095D01*
X173697619Y-78635714D01*
X173745238Y-78683333D01*
X173769047Y-78730952D01*
X174126190Y-78207142D02*
X174126190Y-78111904D01*
X174102380Y-78064285D01*
X174078571Y-78040476D01*
X174007142Y-77992857D01*
X173911904Y-77969047D01*
X173721428Y-77969047D01*
X173673809Y-77992857D01*
X173650000Y-78016666D01*
X173626190Y-78064285D01*
X173626190Y-78159523D01*
X173650000Y-78207142D01*
X173673809Y-78230952D01*
X173721428Y-78254761D01*
X173840476Y-78254761D01*
X173888095Y-78230952D01*
X173911904Y-78207142D01*
X173935714Y-78159523D01*
X173935714Y-78064285D01*
X173911904Y-78016666D01*
X173888095Y-77992857D01*
X173840476Y-77969047D01*
%TO.C,D1*%
X181226190Y-102469047D02*
X180726190Y-102469047D01*
X180726190Y-102350000D01*
X180750000Y-102278571D01*
X180797619Y-102230952D01*
X180845238Y-102207142D01*
X180940476Y-102183333D01*
X181011904Y-102183333D01*
X181107142Y-102207142D01*
X181154761Y-102230952D01*
X181202380Y-102278571D01*
X181226190Y-102350000D01*
X181226190Y-102469047D01*
X181226190Y-101707142D02*
X181226190Y-101992857D01*
X181226190Y-101850000D02*
X180726190Y-101850000D01*
X180797619Y-101897619D01*
X180845238Y-101945238D01*
X180869047Y-101992857D01*
%TO.C,R14*%
X181226190Y-95821428D02*
X180988095Y-95988095D01*
X181226190Y-96107142D02*
X180726190Y-96107142D01*
X180726190Y-95916666D01*
X180750000Y-95869047D01*
X180773809Y-95845238D01*
X180821428Y-95821428D01*
X180892857Y-95821428D01*
X180940476Y-95845238D01*
X180964285Y-95869047D01*
X180988095Y-95916666D01*
X180988095Y-96107142D01*
X181226190Y-95345238D02*
X181226190Y-95630952D01*
X181226190Y-95488095D02*
X180726190Y-95488095D01*
X180797619Y-95535714D01*
X180845238Y-95583333D01*
X180869047Y-95630952D01*
X180892857Y-94916666D02*
X181226190Y-94916666D01*
X180702380Y-95035714D02*
X181059523Y-95154761D01*
X181059523Y-94845238D01*
%TO.C,C16*%
X174978571Y-82921428D02*
X175002380Y-82945238D01*
X175026190Y-83016666D01*
X175026190Y-83064285D01*
X175002380Y-83135714D01*
X174954761Y-83183333D01*
X174907142Y-83207142D01*
X174811904Y-83230952D01*
X174740476Y-83230952D01*
X174645238Y-83207142D01*
X174597619Y-83183333D01*
X174550000Y-83135714D01*
X174526190Y-83064285D01*
X174526190Y-83016666D01*
X174550000Y-82945238D01*
X174573809Y-82921428D01*
X175026190Y-82445238D02*
X175026190Y-82730952D01*
X175026190Y-82588095D02*
X174526190Y-82588095D01*
X174597619Y-82635714D01*
X174645238Y-82683333D01*
X174669047Y-82730952D01*
X174526190Y-82016666D02*
X174526190Y-82111904D01*
X174550000Y-82159523D01*
X174573809Y-82183333D01*
X174645238Y-82230952D01*
X174740476Y-82254761D01*
X174930952Y-82254761D01*
X174978571Y-82230952D01*
X175002380Y-82207142D01*
X175026190Y-82159523D01*
X175026190Y-82064285D01*
X175002380Y-82016666D01*
X174978571Y-81992857D01*
X174930952Y-81969047D01*
X174811904Y-81969047D01*
X174764285Y-81992857D01*
X174740476Y-82016666D01*
X174716666Y-82064285D01*
X174716666Y-82159523D01*
X174740476Y-82207142D01*
X174764285Y-82230952D01*
X174811904Y-82254761D01*
D11*
%TO.C,J7*%
X170952380Y-87133333D02*
X171666666Y-87133333D01*
X171809523Y-87180952D01*
X171904761Y-87276190D01*
X171952380Y-87419047D01*
X171952380Y-87514285D01*
X170952380Y-86752380D02*
X170952380Y-86085714D01*
X171952380Y-86514285D01*
D10*
%TO.C,U4*%
X180019047Y-83926190D02*
X180019047Y-84330952D01*
X180042857Y-84378571D01*
X180066666Y-84402380D01*
X180114285Y-84426190D01*
X180209523Y-84426190D01*
X180257142Y-84402380D01*
X180280952Y-84378571D01*
X180304761Y-84330952D01*
X180304761Y-83926190D01*
X180757142Y-84092857D02*
X180757142Y-84426190D01*
X180638095Y-83902380D02*
X180519047Y-84259523D01*
X180828571Y-84259523D01*
D11*
X178600000Y-85002381D02*
X178600000Y-85240477D01*
X178361904Y-85145239D02*
X178600000Y-85240477D01*
X178838095Y-85145239D01*
X178457142Y-85430953D02*
X178600000Y-85240477D01*
X178742857Y-85430953D01*
D10*
%TO.C,C17*%
X175378571Y-85678571D02*
X175354761Y-85702380D01*
X175283333Y-85726190D01*
X175235714Y-85726190D01*
X175164285Y-85702380D01*
X175116666Y-85654761D01*
X175092857Y-85607142D01*
X175069047Y-85511904D01*
X175069047Y-85440476D01*
X175092857Y-85345238D01*
X175116666Y-85297619D01*
X175164285Y-85250000D01*
X175235714Y-85226190D01*
X175283333Y-85226190D01*
X175354761Y-85250000D01*
X175378571Y-85273809D01*
X175854761Y-85726190D02*
X175569047Y-85726190D01*
X175711904Y-85726190D02*
X175711904Y-85226190D01*
X175664285Y-85297619D01*
X175616666Y-85345238D01*
X175569047Y-85369047D01*
X176021428Y-85226190D02*
X176354761Y-85226190D01*
X176140476Y-85726190D01*
%TO.C,C18*%
X175878571Y-83778571D02*
X175854761Y-83802380D01*
X175783333Y-83826190D01*
X175735714Y-83826190D01*
X175664285Y-83802380D01*
X175616666Y-83754761D01*
X175592857Y-83707142D01*
X175569047Y-83611904D01*
X175569047Y-83540476D01*
X175592857Y-83445238D01*
X175616666Y-83397619D01*
X175664285Y-83350000D01*
X175735714Y-83326190D01*
X175783333Y-83326190D01*
X175854761Y-83350000D01*
X175878571Y-83373809D01*
X176354761Y-83826190D02*
X176069047Y-83826190D01*
X176211904Y-83826190D02*
X176211904Y-83326190D01*
X176164285Y-83397619D01*
X176116666Y-83445238D01*
X176069047Y-83469047D01*
X176640476Y-83540476D02*
X176592857Y-83516666D01*
X176569047Y-83492857D01*
X176545238Y-83445238D01*
X176545238Y-83421428D01*
X176569047Y-83373809D01*
X176592857Y-83350000D01*
X176640476Y-83326190D01*
X176735714Y-83326190D01*
X176783333Y-83350000D01*
X176807142Y-83373809D01*
X176830952Y-83421428D01*
X176830952Y-83445238D01*
X176807142Y-83492857D01*
X176783333Y-83516666D01*
X176735714Y-83540476D01*
X176640476Y-83540476D01*
X176592857Y-83564285D01*
X176569047Y-83588095D01*
X176545238Y-83635714D01*
X176545238Y-83730952D01*
X176569047Y-83778571D01*
X176592857Y-83802380D01*
X176640476Y-83826190D01*
X176735714Y-83826190D01*
X176783333Y-83802380D01*
X176807142Y-83778571D01*
X176830952Y-83730952D01*
X176830952Y-83635714D01*
X176807142Y-83588095D01*
X176783333Y-83564285D01*
X176735714Y-83540476D01*
%TO.C,D2*%
X177930952Y-91726190D02*
X177930952Y-91226190D01*
X178050000Y-91226190D01*
X178121428Y-91250000D01*
X178169047Y-91297619D01*
X178192857Y-91345238D01*
X178216666Y-91440476D01*
X178216666Y-91511904D01*
X178192857Y-91607142D01*
X178169047Y-91654761D01*
X178121428Y-91702380D01*
X178050000Y-91726190D01*
X177930952Y-91726190D01*
X178407142Y-91273809D02*
X178430952Y-91250000D01*
X178478571Y-91226190D01*
X178597619Y-91226190D01*
X178645238Y-91250000D01*
X178669047Y-91273809D01*
X178692857Y-91321428D01*
X178692857Y-91369047D01*
X178669047Y-91440476D01*
X178383333Y-91726190D01*
X178692857Y-91726190D01*
D11*
%TO.C,J8*%
X171152380Y-76033333D02*
X171866666Y-76033333D01*
X172009523Y-76080952D01*
X172104761Y-76176190D01*
X172152380Y-76319047D01*
X172152380Y-76414285D01*
X171580952Y-75414285D02*
X171533333Y-75509523D01*
X171485714Y-75557142D01*
X171390476Y-75604761D01*
X171342857Y-75604761D01*
X171247619Y-75557142D01*
X171200000Y-75509523D01*
X171152380Y-75414285D01*
X171152380Y-75223809D01*
X171200000Y-75128571D01*
X171247619Y-75080952D01*
X171342857Y-75033333D01*
X171390476Y-75033333D01*
X171485714Y-75080952D01*
X171533333Y-75128571D01*
X171580952Y-75223809D01*
X171580952Y-75414285D01*
X171628571Y-75509523D01*
X171676190Y-75557142D01*
X171771428Y-75604761D01*
X171961904Y-75604761D01*
X172057142Y-75557142D01*
X172104761Y-75509523D01*
X172152380Y-75414285D01*
X172152380Y-75223809D01*
X172104761Y-75128571D01*
X172057142Y-75080952D01*
X171961904Y-75033333D01*
X171771428Y-75033333D01*
X171676190Y-75080952D01*
X171628571Y-75128571D01*
X171580952Y-75223809D01*
D13*
%TO.C,C19*%
X196040000Y-79992164D02*
X196040000Y-80207836D01*
X196760000Y-79992164D02*
X196760000Y-80207836D01*
%TO.C,R21*%
X196780000Y-78353641D02*
X196780000Y-78046359D01*
X196020000Y-78353641D02*
X196020000Y-78046359D01*
%TO.C,R20*%
X197020000Y-80253641D02*
X197020000Y-79946359D01*
X197780000Y-80253641D02*
X197780000Y-79946359D01*
%TO.C,R16*%
X179246359Y-81420000D02*
X179553641Y-81420000D01*
X179246359Y-82180000D02*
X179553641Y-82180000D01*
%TO.C,R15*%
X181046359Y-82420000D02*
X181353641Y-82420000D01*
X181046359Y-83180000D02*
X181353641Y-83180000D01*
%TO.C,D4*%
X178265000Y-78227500D02*
X178265000Y-80512500D01*
X179735000Y-78227500D02*
X178265000Y-78227500D01*
X179735000Y-80512500D02*
X179735000Y-78227500D01*
%TO.C,D3*%
X176665000Y-78215000D02*
X176665000Y-80500000D01*
X178135000Y-78215000D02*
X176665000Y-78215000D01*
X178135000Y-80500000D02*
X178135000Y-78215000D01*
%TO.C,J1*%
X183450000Y-100800000D02*
X183450000Y-103750000D01*
X193500000Y-98550000D02*
X193500000Y-99300000D01*
X186000000Y-98550000D02*
X186000000Y-99300000D01*
X195300000Y-99300000D02*
X195300000Y-98550000D01*
X184500000Y-98550000D02*
X182700000Y-98550000D01*
X195310000Y-104510000D02*
X195310000Y-98540000D01*
X186000000Y-99300000D02*
X192000000Y-99300000D01*
X195300000Y-100800000D02*
X194550000Y-100800000D01*
X182690000Y-104510000D02*
X195310000Y-104510000D01*
X195300000Y-98550000D02*
X193500000Y-98550000D01*
X182400000Y-98250000D02*
X182400000Y-99500000D01*
X192000000Y-98550000D02*
X186000000Y-98550000D01*
X184500000Y-99300000D02*
X184500000Y-98550000D01*
X194550000Y-100800000D02*
X194550000Y-103750000D01*
X182700000Y-99300000D02*
X184500000Y-99300000D01*
X183650000Y-98250000D02*
X182400000Y-98250000D01*
X193500000Y-99300000D02*
X195300000Y-99300000D01*
X182690000Y-98540000D02*
X182690000Y-104510000D01*
X195310000Y-98540000D02*
X182690000Y-98540000D01*
X183450000Y-103750000D02*
X189000000Y-103750000D01*
X192000000Y-99300000D02*
X192000000Y-98550000D01*
X194550000Y-103750000D02*
X189000000Y-103750000D01*
X182700000Y-98550000D02*
X182700000Y-99300000D01*
X182700000Y-100800000D02*
X183450000Y-100800000D01*
%TO.C,U2*%
X191860000Y-92385000D02*
X191860000Y-92860000D01*
X185640000Y-87640000D02*
X186115000Y-87640000D01*
X185640000Y-92860000D02*
X186115000Y-92860000D01*
X185640000Y-88115000D02*
X185640000Y-87640000D01*
X185640000Y-92385000D02*
X185640000Y-92860000D01*
X191860000Y-92860000D02*
X191385000Y-92860000D01*
X191860000Y-88115000D02*
X191860000Y-87640000D01*
%TO.C,C10*%
X181807836Y-79560000D02*
X181592164Y-79560000D01*
X181807836Y-78840000D02*
X181592164Y-78840000D01*
%TO.C,J2*%
X179790000Y-74170000D02*
X178465000Y-74170000D01*
X178465000Y-74235000D02*
X178465000Y-74170000D01*
X174935000Y-67830000D02*
X174935000Y-67765000D01*
X178465000Y-67765000D02*
X174935000Y-67765000D01*
X178465000Y-67830000D02*
X178465000Y-67765000D01*
X178465000Y-74235000D02*
X174935000Y-74235000D01*
X174935000Y-74235000D02*
X174935000Y-74170000D01*
%TO.C,J3*%
X191450000Y-82425000D02*
X189460000Y-82425000D01*
X195250000Y-77225000D02*
X193450000Y-77225000D01*
X194500000Y-82425000D02*
X191450000Y-82425000D01*
X191950000Y-77975000D02*
X191950000Y-77225000D01*
X193450000Y-77225000D02*
X193450000Y-77975000D01*
X188600000Y-76925000D02*
X187350000Y-76925000D01*
X195260000Y-77215000D02*
X187640000Y-77215000D01*
X193450000Y-77975000D02*
X195250000Y-77975000D01*
X195260000Y-83185000D02*
X195260000Y-77215000D01*
X189450000Y-77975000D02*
X189450000Y-77225000D01*
X195250000Y-77975000D02*
X195250000Y-77225000D01*
X189450000Y-77225000D02*
X187650000Y-77225000D01*
X191950000Y-77225000D02*
X190950000Y-77225000D01*
X187350000Y-76925000D02*
X187350000Y-78175000D01*
X190950000Y-77225000D02*
X190950000Y-77975000D01*
X195250000Y-79475000D02*
X194500000Y-79475000D01*
X194500000Y-79475000D02*
X194500000Y-82425000D01*
X187640000Y-77215000D02*
X187640000Y-83185000D01*
X188400000Y-79475000D02*
X188400000Y-80815000D01*
X187650000Y-77225000D02*
X187650000Y-77975000D01*
X187640000Y-83185000D02*
X195260000Y-83185000D01*
X187650000Y-77975000D02*
X189450000Y-77975000D01*
X190950000Y-77975000D02*
X191950000Y-77975000D01*
X187650000Y-79475000D02*
X188400000Y-79475000D01*
%TO.C,C11*%
X178640000Y-96357836D02*
X178640000Y-96142164D01*
X179360000Y-96357836D02*
X179360000Y-96142164D01*
%TO.C,C12*%
X172640000Y-96357836D02*
X172640000Y-96142164D01*
X173360000Y-96357836D02*
X173360000Y-96142164D01*
%TO.C,C13*%
X176360000Y-96212164D02*
X176360000Y-96427836D01*
X175640000Y-96212164D02*
X175640000Y-96427836D01*
%TO.C,C14*%
X176107836Y-93890000D02*
X175892164Y-93890000D01*
X176107836Y-94610000D02*
X175892164Y-94610000D01*
%TO.C,C15*%
X182142164Y-72390000D02*
X182357836Y-72390000D01*
X182142164Y-73110000D02*
X182357836Y-73110000D01*
D12*
%TO.C,J4*%
X170030000Y-100805000D02*
X170030000Y-101570000D01*
X178970000Y-100805000D02*
X178970000Y-101570000D01*
D14*
X171500000Y-97500000D02*
G75*
G03*
X171500000Y-97500000I-100000J0D01*
G01*
D13*
%TO.C,R4*%
X179403641Y-75880000D02*
X179096359Y-75880000D01*
X179403641Y-75120000D02*
X179096359Y-75120000D01*
%TO.C,R5*%
X179403641Y-76880000D02*
X179096359Y-76880000D01*
X179403641Y-76120000D02*
X179096359Y-76120000D01*
%TO.C,R6*%
X177380000Y-96403641D02*
X177380000Y-96096359D01*
X176620000Y-96403641D02*
X176620000Y-96096359D01*
%TO.C,R7*%
X172380000Y-96403641D02*
X172380000Y-96096359D01*
X171620000Y-96403641D02*
X171620000Y-96096359D01*
%TO.C,R8*%
X175380000Y-96096359D02*
X175380000Y-96403641D01*
X174620000Y-96096359D02*
X174620000Y-96403641D01*
%TO.C,R9*%
X174380000Y-96096359D02*
X174380000Y-96403641D01*
X173620000Y-96096359D02*
X173620000Y-96403641D01*
%TO.C,R10*%
X176380000Y-80136359D02*
X176380000Y-80443641D01*
X175620000Y-80136359D02*
X175620000Y-80443641D01*
%TO.C,R11*%
X174570000Y-80146359D02*
X174570000Y-80453641D01*
X175330000Y-80146359D02*
X175330000Y-80453641D01*
%TO.C,R12*%
X183553641Y-82420000D02*
X183246359Y-82420000D01*
X183553641Y-83180000D02*
X183246359Y-83180000D01*
%TO.C,R13*%
X182403641Y-72130000D02*
X182096359Y-72130000D01*
X182403641Y-71370000D02*
X182096359Y-71370000D01*
%TO.C,TH1*%
X182403641Y-70370000D02*
X182096359Y-70370000D01*
X182403641Y-71130000D02*
X182096359Y-71130000D01*
%TO.C,U3*%
X172140000Y-93110000D02*
X172140000Y-92385000D01*
X175635000Y-93110000D02*
X176360000Y-93110000D01*
X176360000Y-88890000D02*
X176360000Y-89615000D01*
X172865000Y-93110000D02*
X172140000Y-93110000D01*
X176360000Y-93110000D02*
X176360000Y-92385000D01*
X175635000Y-88890000D02*
X176360000Y-88890000D01*
X172865000Y-88890000D02*
X172140000Y-88890000D01*
%TO.C,J5*%
X190100000Y-70050000D02*
X190100000Y-69550000D01*
X188100000Y-70050000D02*
X188100000Y-69550000D01*
X185140000Y-67250000D02*
X185750000Y-67250000D01*
X188300000Y-69550000D02*
X188300000Y-70050000D01*
X194650000Y-70050000D02*
X194650000Y-66550000D01*
X192700000Y-66550000D02*
X192700000Y-65940000D01*
X195260000Y-65940000D02*
X185140000Y-65940000D01*
X192200000Y-70050000D02*
X192200000Y-69550000D01*
X195260000Y-68550000D02*
X194650000Y-68550000D01*
X187700000Y-65940000D02*
X187700000Y-66550000D01*
X195260000Y-67250000D02*
X194650000Y-67250000D01*
X185140000Y-70660000D02*
X195260000Y-70660000D01*
X190100000Y-69550000D02*
X190300000Y-69550000D01*
X185140000Y-68550000D02*
X185750000Y-68550000D01*
X184840000Y-65640000D02*
X184840000Y-66890000D01*
X186900000Y-65740000D02*
X186600000Y-65740000D01*
X186090000Y-65640000D02*
X184840000Y-65640000D01*
X188100000Y-69550000D02*
X188300000Y-69550000D01*
X187700000Y-66550000D02*
X185750000Y-66550000D01*
X186900000Y-65840000D02*
X186600000Y-65840000D01*
X192300000Y-69550000D02*
X192300000Y-70050000D01*
X186900000Y-65940000D02*
X186900000Y-65740000D01*
X195260000Y-70660000D02*
X195260000Y-65940000D01*
X190300000Y-69550000D02*
X190300000Y-70050000D01*
X185750000Y-66550000D02*
X185750000Y-70050000D01*
X192100000Y-69550000D02*
X192300000Y-69550000D01*
X194650000Y-66550000D02*
X192700000Y-66550000D01*
X188200000Y-70050000D02*
X188200000Y-69550000D01*
X185140000Y-65940000D02*
X185140000Y-70660000D01*
X185750000Y-70050000D02*
X194650000Y-70050000D01*
X186600000Y-65740000D02*
X186600000Y-65940000D01*
X190200000Y-70050000D02*
X190200000Y-69550000D01*
X192100000Y-70050000D02*
X192100000Y-69550000D01*
%TO.C,J6*%
X190200000Y-75650000D02*
X190200000Y-75150000D01*
X190100000Y-75150000D02*
X190300000Y-75150000D01*
X187700000Y-71540000D02*
X187700000Y-72150000D01*
X186900000Y-71340000D02*
X186600000Y-71340000D01*
X187700000Y-72150000D02*
X185750000Y-72150000D01*
X185750000Y-72150000D02*
X185750000Y-75650000D01*
X186900000Y-71540000D02*
X186900000Y-71340000D01*
X192200000Y-75650000D02*
X192200000Y-75150000D01*
X186090000Y-71240000D02*
X184840000Y-71240000D01*
X184840000Y-71240000D02*
X184840000Y-72490000D01*
X185750000Y-75650000D02*
X194650000Y-75650000D01*
X185140000Y-72850000D02*
X185750000Y-72850000D01*
X195260000Y-71540000D02*
X185140000Y-71540000D01*
X190300000Y-75150000D02*
X190300000Y-75650000D01*
X185140000Y-76260000D02*
X195260000Y-76260000D01*
X185140000Y-71540000D02*
X185140000Y-76260000D01*
X194650000Y-72150000D02*
X192700000Y-72150000D01*
X190100000Y-75650000D02*
X190100000Y-75150000D01*
X194650000Y-75650000D02*
X194650000Y-72150000D01*
X192700000Y-72150000D02*
X192700000Y-71540000D01*
X192100000Y-75150000D02*
X192300000Y-75150000D01*
X195260000Y-74150000D02*
X194650000Y-74150000D01*
X188100000Y-75150000D02*
X188300000Y-75150000D01*
X192300000Y-75150000D02*
X192300000Y-75650000D01*
X188100000Y-75650000D02*
X188100000Y-75150000D01*
X188200000Y-75650000D02*
X188200000Y-75150000D01*
X195260000Y-76260000D02*
X195260000Y-71540000D01*
X186900000Y-71440000D02*
X186600000Y-71440000D01*
X186600000Y-71340000D02*
X186600000Y-71540000D01*
X192100000Y-75650000D02*
X192100000Y-75150000D01*
X185140000Y-74150000D02*
X185750000Y-74150000D01*
X195260000Y-72850000D02*
X194650000Y-72850000D01*
X188300000Y-75150000D02*
X188300000Y-75650000D01*
%TO.C,R17*%
X171420000Y-80453641D02*
X171420000Y-80146359D01*
X172180000Y-80453641D02*
X172180000Y-80146359D01*
%TO.C,R18*%
X172470000Y-80463641D02*
X172470000Y-80156359D01*
X173230000Y-80463641D02*
X173230000Y-80156359D01*
%TO.C,R19*%
X173520000Y-80453641D02*
X173520000Y-80146359D01*
X174280000Y-80453641D02*
X174280000Y-80146359D01*
%TO.C,D1*%
X181735000Y-101485000D02*
X181735000Y-99200000D01*
X180265000Y-99200000D02*
X180265000Y-101485000D01*
X180265000Y-101485000D02*
X181735000Y-101485000D01*
%TO.C,R14*%
X180620000Y-97403641D02*
X180620000Y-97096359D01*
X181380000Y-97403641D02*
X181380000Y-97096359D01*
%TO.C,C16*%
X174260000Y-82192164D02*
X174260000Y-82407836D01*
X173540000Y-82192164D02*
X173540000Y-82407836D01*
%TO.C,J7*%
X166210000Y-89740000D02*
X166710000Y-89740000D01*
X170620000Y-82380000D02*
X169370000Y-82380000D01*
X166210000Y-85740000D02*
X166710000Y-85740000D01*
X166710000Y-85840000D02*
X166210000Y-85840000D01*
X170320000Y-92800000D02*
X170320000Y-82680000D01*
X169010000Y-82680000D02*
X169010000Y-83290000D01*
X170620000Y-83630000D02*
X170620000Y-82380000D01*
X166710000Y-85640000D02*
X166710000Y-85840000D01*
X166710000Y-87640000D02*
X166710000Y-87840000D01*
X169710000Y-83290000D02*
X166210000Y-83290000D01*
X170520000Y-84140000D02*
X170320000Y-84140000D01*
X166210000Y-85640000D02*
X166710000Y-85640000D01*
X170320000Y-85240000D02*
X169710000Y-85240000D01*
X169710000Y-85240000D02*
X169710000Y-83290000D01*
X169010000Y-92800000D02*
X169010000Y-92190000D01*
X165600000Y-82680000D02*
X165600000Y-92800000D01*
X166210000Y-83290000D02*
X166210000Y-92190000D01*
X170320000Y-84440000D02*
X170520000Y-84440000D01*
X166710000Y-87840000D02*
X166210000Y-87840000D01*
X166710000Y-89640000D02*
X166710000Y-89840000D01*
X170420000Y-84440000D02*
X170420000Y-84140000D01*
X166210000Y-87740000D02*
X166710000Y-87740000D01*
X166210000Y-87640000D02*
X166710000Y-87640000D01*
X170320000Y-82680000D02*
X165600000Y-82680000D01*
X165600000Y-92800000D02*
X170320000Y-92800000D01*
X166710000Y-89840000D02*
X166210000Y-89840000D01*
X170520000Y-84440000D02*
X170520000Y-84140000D01*
X166210000Y-92190000D02*
X169710000Y-92190000D01*
X166210000Y-89640000D02*
X166710000Y-89640000D01*
X169710000Y-90240000D02*
X170320000Y-90240000D01*
X167710000Y-92800000D02*
X167710000Y-92190000D01*
X169710000Y-92190000D02*
X169710000Y-90240000D01*
X167710000Y-82680000D02*
X167710000Y-83290000D01*
D15*
%TO.C,U4*%
X179300001Y-87050001D02*
X179300001Y-86250000D01*
X178800002Y-87050001D02*
X179300001Y-87050001D01*
X179300001Y-84850000D02*
X179300001Y-84050001D01*
X178800002Y-84050001D02*
X179300001Y-84050001D01*
D13*
%TO.C,C17*%
X175907836Y-86860000D02*
X175692164Y-86860000D01*
X175907836Y-86140000D02*
X175692164Y-86140000D01*
%TO.C,C18*%
X177792164Y-83910001D02*
X178007836Y-83910001D01*
X177792164Y-83190001D02*
X178007836Y-83190001D01*
%TO.C,D2*%
X177340000Y-89100000D02*
X177340000Y-90775000D01*
X177340000Y-89100000D02*
X177340000Y-88450000D01*
X180460000Y-89100000D02*
X180460000Y-88450000D01*
X180460000Y-89100000D02*
X180460000Y-89750000D01*
%TO.C,J8*%
X166200000Y-77900000D02*
X166700000Y-77900000D01*
X166200000Y-71550000D02*
X166200000Y-80450000D01*
X167700000Y-81060000D02*
X167700000Y-80450000D01*
X167700000Y-70940000D02*
X167700000Y-71550000D01*
X169000000Y-70940000D02*
X169000000Y-71550000D01*
X169700000Y-80450000D02*
X169700000Y-78500000D01*
X165590000Y-81060000D02*
X170310000Y-81060000D01*
X169700000Y-73500000D02*
X169700000Y-71550000D01*
X170310000Y-73500000D02*
X169700000Y-73500000D01*
X166200000Y-74000000D02*
X166700000Y-74000000D01*
X166700000Y-75900000D02*
X166700000Y-76100000D01*
X170310000Y-70940000D02*
X165590000Y-70940000D01*
X166200000Y-76000000D02*
X166700000Y-76000000D01*
X166700000Y-73900000D02*
X166700000Y-74100000D01*
X169000000Y-81060000D02*
X169000000Y-80450000D01*
X166200000Y-73900000D02*
X166700000Y-73900000D01*
X169700000Y-71550000D02*
X166200000Y-71550000D01*
X166200000Y-78000000D02*
X166700000Y-78000000D01*
X170310000Y-81060000D02*
X170310000Y-70940000D01*
X166700000Y-78100000D02*
X166200000Y-78100000D01*
X166200000Y-80450000D02*
X169700000Y-80450000D01*
X170510000Y-72700000D02*
X170510000Y-72400000D01*
X170510000Y-72400000D02*
X170310000Y-72400000D01*
X170610000Y-70640000D02*
X169360000Y-70640000D01*
X170610000Y-71890000D02*
X170610000Y-70640000D01*
X166700000Y-74100000D02*
X166200000Y-74100000D01*
X170410000Y-72700000D02*
X170410000Y-72400000D01*
X170310000Y-72700000D02*
X170510000Y-72700000D01*
X166200000Y-75900000D02*
X166700000Y-75900000D01*
X166700000Y-77900000D02*
X166700000Y-78100000D01*
X166700000Y-76100000D02*
X166200000Y-76100000D01*
X169700000Y-78500000D02*
X170310000Y-78500000D01*
X165590000Y-70940000D02*
X165590000Y-81060000D01*
%TD*%
M02*
