%TF.GenerationSoftware,KiCad,Pcbnew,(6.0.7-1)-1*%
%TF.CreationDate,2022-09-14T15:44:29-04:00*%
%TF.ProjectId,phocuser,70686f63-7573-4657-922e-6b696361645f,rev?*%
%TF.SameCoordinates,Original*%
%TF.FileFunction,Soldermask,Bot*%
%TF.FilePolarity,Negative*%
%FSLAX46Y46*%
G04 Gerber Fmt 4.6, Leading zero omitted, Abs format (unit mm)*
G04 Created by KiCad (PCBNEW (6.0.7-1)-1) date 2022-09-14 15:44:29*
%MOMM*%
%LPD*%
G01*
G04 APERTURE LIST*
G04 Aperture macros list*
%AMRoundRect*
0 Rectangle with rounded corners*
0 $1 Rounding radius*
0 $2 $3 $4 $5 $6 $7 $8 $9 X,Y pos of 4 corners*
0 Add a 4 corners polygon primitive as box body*
4,1,4,$2,$3,$4,$5,$6,$7,$8,$9,$2,$3,0*
0 Add four circle primitives for the rounded corners*
1,1,$1+$1,$2,$3*
1,1,$1+$1,$4,$5*
1,1,$1+$1,$6,$7*
1,1,$1+$1,$8,$9*
0 Add four rect primitives between the rounded corners*
20,1,$1+$1,$2,$3,$4,$5,0*
20,1,$1+$1,$4,$5,$6,$7,0*
20,1,$1+$1,$6,$7,$8,$9,0*
20,1,$1+$1,$8,$9,$2,$3,0*%
G04 Aperture macros list end*
%ADD10RoundRect,0.250000X-0.600000X-0.725000X0.600000X-0.725000X0.600000X0.725000X-0.600000X0.725000X0*%
%ADD11O,1.700000X1.950000*%
%ADD12C,1.200000*%
%ADD13RoundRect,0.250000X-0.600000X-0.750000X0.600000X-0.750000X0.600000X0.750000X-0.600000X0.750000X0*%
%ADD14O,1.700000X2.000000*%
%ADD15C,0.630000*%
%ADD16C,0.600000*%
%ADD17O,1.158000X2.316000*%
%ADD18O,1.200000X2.400000*%
%ADD19RoundRect,0.250000X-0.350000X-0.625000X0.350000X-0.625000X0.350000X0.625000X-0.350000X0.625000X0*%
%ADD20O,1.200000X1.750000*%
%ADD21RoundRect,0.250000X-0.625000X0.350000X-0.625000X-0.350000X0.625000X-0.350000X0.625000X0.350000X0*%
%ADD22O,1.750000X1.200000*%
%ADD23C,3.400000*%
%ADD24C,3.800000*%
%ADD25RoundRect,0.140000X0.140000X0.170000X-0.140000X0.170000X-0.140000X-0.170000X0.140000X-0.170000X0*%
%ADD26RoundRect,0.250000X0.250000X0.475000X-0.250000X0.475000X-0.250000X-0.475000X0.250000X-0.475000X0*%
%ADD27RoundRect,0.140000X0.170000X-0.140000X0.170000X0.140000X-0.170000X0.140000X-0.170000X-0.140000X0*%
%ADD28RoundRect,0.140000X-0.170000X0.140000X-0.170000X-0.140000X0.170000X-0.140000X0.170000X0.140000X0*%
%ADD29RoundRect,0.140000X-0.140000X-0.170000X0.140000X-0.170000X0.140000X0.170000X-0.140000X0.170000X0*%
%ADD30RoundRect,0.250000X-0.475000X0.250000X-0.475000X-0.250000X0.475000X-0.250000X0.475000X0.250000X0*%
%ADD31RoundRect,0.135000X-0.135000X-0.185000X0.135000X-0.185000X0.135000X0.185000X-0.135000X0.185000X0*%
%ADD32RoundRect,0.250000X-0.450000X0.262500X-0.450000X-0.262500X0.450000X-0.262500X0.450000X0.262500X0*%
%ADD33RoundRect,0.250000X0.450000X-0.262500X0.450000X0.262500X-0.450000X0.262500X-0.450000X-0.262500X0*%
%ADD34R,1.000000X0.750000*%
%ADD35R,0.750000X1.000000*%
G04 APERTURE END LIST*
D10*
%TO.C,J1*%
X185250000Y-101000000D03*
D11*
X187750000Y-101000000D03*
X190250000Y-101000000D03*
X192750000Y-101000000D03*
%TD*%
D12*
%TO.C,J3*%
X188600000Y-81675000D03*
D13*
X190200000Y-79675000D03*
D14*
X192700000Y-79675000D03*
%TD*%
D15*
%TO.C,J4*%
X171500000Y-100000000D03*
X177500000Y-100000000D03*
D16*
X177500000Y-100000000D03*
D17*
X170180000Y-99275000D03*
X178820000Y-99275000D03*
D18*
X170180000Y-103100000D03*
X178820000Y-103100000D03*
%TD*%
D19*
%TO.C,J5*%
X187200000Y-67750000D03*
D20*
X189200000Y-67750000D03*
X191200000Y-67750000D03*
X193200000Y-67750000D03*
%TD*%
D19*
%TO.C,J6*%
X187200000Y-73350000D03*
D20*
X189200000Y-73350000D03*
X191200000Y-73350000D03*
X193200000Y-73350000D03*
%TD*%
D21*
%TO.C,J7*%
X168510000Y-84740000D03*
D22*
X168510000Y-86740000D03*
X168510000Y-88740000D03*
X168510000Y-90740000D03*
%TD*%
D23*
%TO.C,H3*%
X167200000Y-102800000D03*
%TD*%
D24*
%TO.C,H1*%
X167200000Y-67200000D03*
%TD*%
D23*
%TO.C,H4*%
X197800000Y-102800000D03*
%TD*%
D21*
%TO.C,J8*%
X168500000Y-73000000D03*
D22*
X168500000Y-75000000D03*
X168500000Y-77000000D03*
X168500000Y-79000000D03*
%TD*%
D24*
%TO.C,H2*%
X197800000Y-67200000D03*
%TD*%
D25*
%TO.C,C1*%
X190380000Y-96000000D03*
X189420000Y-96000000D03*
%TD*%
D26*
%TO.C,C2*%
X188150000Y-95000000D03*
X186250000Y-95000000D03*
%TD*%
D27*
%TO.C,C3*%
X191600000Y-95160000D03*
X191600000Y-94200000D03*
%TD*%
%TO.C,C4*%
X196600000Y-89880000D03*
X196600000Y-88920000D03*
%TD*%
%TO.C,C5*%
X183500000Y-90980000D03*
X183500000Y-90020000D03*
%TD*%
D28*
%TO.C,C6*%
X193800000Y-91420000D03*
X193800000Y-92380000D03*
%TD*%
D29*
%TO.C,C7*%
X193120000Y-86000000D03*
X194080000Y-86000000D03*
%TD*%
D30*
%TO.C,C8*%
X184500000Y-93050000D03*
X184500000Y-94950000D03*
%TD*%
D28*
%TO.C,C9*%
X194900000Y-91400000D03*
X194900000Y-92360000D03*
%TD*%
D31*
%TO.C,R1*%
X189390000Y-95000000D03*
X190410000Y-95000000D03*
%TD*%
D32*
%TO.C,R2*%
X195100000Y-88087500D03*
X195100000Y-89912500D03*
%TD*%
D33*
%TO.C,R3*%
X183000000Y-88712500D03*
X183000000Y-86887500D03*
%TD*%
D34*
%TO.C,U1*%
X184000000Y-66000000D03*
X184000000Y-67100000D03*
X184000000Y-68200000D03*
X184000000Y-69300000D03*
X184000000Y-70400000D03*
X184000000Y-71500000D03*
X184000000Y-72600000D03*
X184000000Y-73700000D03*
X184000000Y-74800000D03*
X184000000Y-75900000D03*
X184000000Y-77000000D03*
X184000000Y-78100000D03*
X184000000Y-79200000D03*
D35*
X182750000Y-80700000D03*
X181650000Y-80700000D03*
X180550000Y-80700000D03*
X179450000Y-80700000D03*
X178350000Y-80700000D03*
X177250000Y-80700000D03*
X176150000Y-80700000D03*
X175050000Y-80700000D03*
X173950000Y-80700000D03*
X172850000Y-80700000D03*
X171750000Y-80700000D03*
D34*
X170500000Y-79200000D03*
X170500000Y-78100000D03*
X170500000Y-77000000D03*
X170500000Y-75900000D03*
X170500000Y-74800000D03*
X170500000Y-73700000D03*
X170500000Y-72600000D03*
X170500000Y-71500000D03*
X170500000Y-70400000D03*
X170500000Y-69300000D03*
X170500000Y-68200000D03*
X170500000Y-67100000D03*
X170500000Y-66000000D03*
X181500000Y-68200000D03*
X181500000Y-69300000D03*
X181500000Y-70400000D03*
X181500000Y-71500000D03*
X181500000Y-72600000D03*
X181500000Y-73700000D03*
X181500000Y-74800000D03*
X181500000Y-75900000D03*
X181500000Y-77000000D03*
X173000000Y-68200000D03*
X173000000Y-69300000D03*
X173000000Y-70400000D03*
X173000000Y-71500000D03*
X173000000Y-72600000D03*
X173000000Y-73700000D03*
X173000000Y-74800000D03*
X173000000Y-75900000D03*
X173000000Y-77000000D03*
%TD*%
M02*
