M48
; DRILL file {KiCad (6.0.7-1)-1} date Wednesday, September 14, 2022 at 03:45:19 PM
; FORMAT={-:-/ absolute / metric / decimal}
; #@! TF.CreationDate,2022-09-14T15:45:19-04:00
; #@! TF.GenerationSoftware,Kicad,Pcbnew,(6.0.7-1)-1
; #@! TF.FileFunction,MixedPlating,1,4
FMAT,2
METRIC
; #@! TA.AperFunction,Plated,PTH,ViaDrill
T1C0.254
; #@! TA.AperFunction,Plated,PTH,ComponentDrill
T2C0.254
; #@! TA.AperFunction,Plated,PTH,ComponentDrill
T3C0.650
; #@! TA.AperFunction,Plated,PTH,ComponentDrill
T4C0.750
; #@! TA.AperFunction,Plated,PTH,ComponentDrill
T5C0.950
; #@! TA.AperFunction,Plated,PTH,ComponentDrill
T6C1.000
; #@! TA.AperFunction,NonPlated,NPTH,ComponentDrill
T7C0.600
; #@! TA.AperFunction,NonPlated,NPTH,ComponentDrill
T8C0.630
; #@! TA.AperFunction,NonPlated,NPTH,ComponentDrill
T9C1.200
; #@! TA.AperFunction,NonPlated,NPTH,ComponentDrill
T10C2.500
%
G90
G05
T1
X170.5Y-79.9
X171.2Y-91.0
X171.6Y-66.0
X171.7Y-67.1
X171.7Y-68.2
X171.7Y-77.0
X171.7Y-78.1
X171.734Y-97.75
X171.75Y-71.5
X171.75Y-72.5
X171.8Y-78.9
X172.0Y-95.1
X172.9Y-78.9
X173.0Y-95.1
X173.1Y-101.6
X173.3Y-87.9
X173.9Y-78.9
X173.9Y-83.5
X174.6Y-86.5
X174.75Y-76.5
X174.8Y-67.3
X175.9Y-101.6
X176.0Y-95.1
X176.188Y-93.312
X177.0Y-95.1
X177.1Y-90.8
X177.1Y-94.3
X177.2Y-68.5
X177.2Y-71.0
X177.2Y-72.3
X177.25Y-97.75
X177.4Y-82.15
X177.4Y-82.75
X179.0Y-94.9
X179.1Y-83.55
X179.4Y-91.2
X179.6Y-83.55
X179.8Y-77.2
X179.8Y-84.75
X179.8Y-92.4
X179.8Y-93.2
X179.8Y-101.1
X179.9Y-78.7
X180.5Y-72.8
X180.5Y-79.2
X180.6Y-81.8
X181.7Y-81.8
X182.75Y-79.25
X182.75Y-81.65
X182.8Y-69.3
X183.0Y-66.0
X184.0Y-80.3
X184.197Y-89.968
X184.2Y-89.2
X184.25Y-90.6
X184.5Y-91.75
X184.5Y-92.25
X184.697Y-89.968
X184.7Y-89.2
X184.75Y-90.6
X184.8Y-72.6
X184.8Y-73.7
X184.8Y-74.8
X184.8Y-75.9
X184.8Y-77.0
X184.8Y-78.1
X185.5Y-87.8
X188.8Y-93.6
X189.4Y-94.2
X189.425Y-93.707
X190.06Y-93.699
X190.6Y-94.2
X191.2Y-93.6
X192.5Y-86.0
X192.6Y-88.7
X192.6Y-89.4
X192.6Y-91.4
X192.7Y-90.6
X193.1Y-88.7
X193.1Y-89.4
X193.1Y-91.4
X193.1Y-92.3
X193.2Y-90.6
X193.6Y-90.0
X194.1Y-90.0
X195.2Y-70.2
X196.4Y-81.5
X197.3Y-78.0
X197.4Y-81.5
T2
X173.25Y-90.0
X173.25Y-92.0
X175.25Y-90.0
X175.25Y-92.0
X186.95Y-88.7
X186.95Y-90.25
X186.95Y-91.8
X188.15Y-88.7
X188.15Y-90.25
X188.15Y-91.8
X189.35Y-88.7
X189.35Y-90.25
X189.35Y-91.8
X190.55Y-88.7
X190.55Y-90.25
X190.55Y-91.8
T4
X168.5Y-73.0
X168.5Y-75.0
X168.5Y-77.0
X168.5Y-79.0
X168.51Y-84.74
X168.51Y-86.74
X168.51Y-88.74
X168.51Y-90.74
X187.2Y-67.75
X187.2Y-73.35
X189.2Y-67.75
X189.2Y-73.35
X191.2Y-67.75
X191.2Y-73.35
X193.2Y-67.75
X193.2Y-73.35
T5
X185.25Y-101.0
X187.75Y-101.0
X190.25Y-101.0
X192.75Y-101.0
T6
X190.2Y-79.675
X192.7Y-79.675
T7
X177.5Y-100.0
T8
X171.5Y-100.0
X177.5Y-100.0
T9
X188.6Y-81.675
T10
X167.2Y-67.2
X167.2Y-102.8
X197.8Y-67.2
X197.8Y-102.8
T3
G00X170.18Y-98.775
M15
G01X170.18Y-99.775
M16
G05
G00X170.18Y-102.45
M15
G01X170.18Y-103.75
M16
G05
G00X178.82Y-98.775
M15
G01X178.82Y-99.775
M16
G05
G00X178.82Y-102.45
M15
G01X178.82Y-103.75
M16
G05
T0
M30
