%TF.GenerationSoftware,KiCad,Pcbnew,(6.0.7-1)-1*%
%TF.CreationDate,2022-09-14T15:44:29-04:00*%
%TF.ProjectId,phocuser,70686f63-7573-4657-922e-6b696361645f,rev?*%
%TF.SameCoordinates,Original*%
%TF.FileFunction,Copper,L4,Bot*%
%TF.FilePolarity,Positive*%
%FSLAX46Y46*%
G04 Gerber Fmt 4.6, Leading zero omitted, Abs format (unit mm)*
G04 Created by KiCad (PCBNEW (6.0.7-1)-1) date 2022-09-14 15:44:29*
%MOMM*%
%LPD*%
G01*
G04 APERTURE LIST*
G04 Aperture macros list*
%AMRoundRect*
0 Rectangle with rounded corners*
0 $1 Rounding radius*
0 $2 $3 $4 $5 $6 $7 $8 $9 X,Y pos of 4 corners*
0 Add a 4 corners polygon primitive as box body*
4,1,4,$2,$3,$4,$5,$6,$7,$8,$9,$2,$3,0*
0 Add four circle primitives for the rounded corners*
1,1,$1+$1,$2,$3*
1,1,$1+$1,$4,$5*
1,1,$1+$1,$6,$7*
1,1,$1+$1,$8,$9*
0 Add four rect primitives between the rounded corners*
20,1,$1+$1,$2,$3,$4,$5,0*
20,1,$1+$1,$4,$5,$6,$7,0*
20,1,$1+$1,$6,$7,$8,$9,0*
20,1,$1+$1,$8,$9,$2,$3,0*%
G04 Aperture macros list end*
%TA.AperFunction,ComponentPad*%
%ADD10RoundRect,0.250000X-0.600000X-0.725000X0.600000X-0.725000X0.600000X0.725000X-0.600000X0.725000X0*%
%TD*%
%TA.AperFunction,ComponentPad*%
%ADD11O,1.700000X1.950000*%
%TD*%
%TA.AperFunction,ComponentPad*%
%ADD12C,0.500000*%
%TD*%
%TA.AperFunction,SMDPad,CuDef*%
%ADD13R,4.100000X3.600000*%
%TD*%
%TA.AperFunction,ComponentPad*%
%ADD14RoundRect,0.250000X-0.600000X-0.750000X0.600000X-0.750000X0.600000X0.750000X-0.600000X0.750000X0*%
%TD*%
%TA.AperFunction,ComponentPad*%
%ADD15O,1.700000X2.000000*%
%TD*%
%TA.AperFunction,ComponentPad*%
%ADD16O,1.158000X2.316000*%
%TD*%
%TA.AperFunction,ComponentPad*%
%ADD17O,1.200000X2.400000*%
%TD*%
%TA.AperFunction,SMDPad,CuDef*%
%ADD18R,2.500000X2.500000*%
%TD*%
%TA.AperFunction,ComponentPad*%
%ADD19RoundRect,0.250000X-0.350000X-0.625000X0.350000X-0.625000X0.350000X0.625000X-0.350000X0.625000X0*%
%TD*%
%TA.AperFunction,ComponentPad*%
%ADD20O,1.200000X1.750000*%
%TD*%
%TA.AperFunction,ComponentPad*%
%ADD21RoundRect,0.250000X-0.625000X0.350000X-0.625000X-0.350000X0.625000X-0.350000X0.625000X0.350000X0*%
%TD*%
%TA.AperFunction,ComponentPad*%
%ADD22O,1.750000X1.200000*%
%TD*%
%TA.AperFunction,SMDPad,CuDef*%
%ADD23RoundRect,0.140000X0.140000X0.170000X-0.140000X0.170000X-0.140000X-0.170000X0.140000X-0.170000X0*%
%TD*%
%TA.AperFunction,SMDPad,CuDef*%
%ADD24RoundRect,0.250000X0.250000X0.475000X-0.250000X0.475000X-0.250000X-0.475000X0.250000X-0.475000X0*%
%TD*%
%TA.AperFunction,SMDPad,CuDef*%
%ADD25RoundRect,0.140000X0.170000X-0.140000X0.170000X0.140000X-0.170000X0.140000X-0.170000X-0.140000X0*%
%TD*%
%TA.AperFunction,SMDPad,CuDef*%
%ADD26RoundRect,0.140000X-0.170000X0.140000X-0.170000X-0.140000X0.170000X-0.140000X0.170000X0.140000X0*%
%TD*%
%TA.AperFunction,SMDPad,CuDef*%
%ADD27RoundRect,0.140000X-0.140000X-0.170000X0.140000X-0.170000X0.140000X0.170000X-0.140000X0.170000X0*%
%TD*%
%TA.AperFunction,SMDPad,CuDef*%
%ADD28RoundRect,0.250000X-0.475000X0.250000X-0.475000X-0.250000X0.475000X-0.250000X0.475000X0.250000X0*%
%TD*%
%TA.AperFunction,SMDPad,CuDef*%
%ADD29RoundRect,0.135000X-0.135000X-0.185000X0.135000X-0.185000X0.135000X0.185000X-0.135000X0.185000X0*%
%TD*%
%TA.AperFunction,SMDPad,CuDef*%
%ADD30RoundRect,0.250000X-0.450000X0.262500X-0.450000X-0.262500X0.450000X-0.262500X0.450000X0.262500X0*%
%TD*%
%TA.AperFunction,SMDPad,CuDef*%
%ADD31RoundRect,0.250000X0.450000X-0.262500X0.450000X0.262500X-0.450000X0.262500X-0.450000X-0.262500X0*%
%TD*%
%TA.AperFunction,SMDPad,CuDef*%
%ADD32R,1.000000X0.750000*%
%TD*%
%TA.AperFunction,SMDPad,CuDef*%
%ADD33R,0.750000X1.000000*%
%TD*%
%TA.AperFunction,ViaPad*%
%ADD34C,0.508000*%
%TD*%
%TA.AperFunction,Conductor*%
%ADD35C,0.152400*%
%TD*%
%TA.AperFunction,Conductor*%
%ADD36C,0.500000*%
%TD*%
%TA.AperFunction,Conductor*%
%ADD37C,0.250000*%
%TD*%
%TA.AperFunction,Conductor*%
%ADD38C,0.128000*%
%TD*%
%TA.AperFunction,Conductor*%
%ADD39C,1.000000*%
%TD*%
G04 APERTURE END LIST*
D10*
%TO.P,J1,1,Pin_1*%
%TO.N,Net-(J1-Pad1)*%
X185250000Y-101000000D03*
D11*
%TO.P,J1,2,Pin_2*%
%TO.N,Net-(J1-Pad2)*%
X187750000Y-101000000D03*
%TO.P,J1,3,Pin_3*%
%TO.N,Net-(J1-Pad3)*%
X190250000Y-101000000D03*
%TO.P,J1,4,Pin_4*%
%TO.N,Net-(J1-Pad4)*%
X192750000Y-101000000D03*
%TD*%
D12*
%TO.P,U2,37,GNDD*%
%TO.N,GND*%
X190550000Y-88700000D03*
D13*
X188750000Y-90250000D03*
D12*
X190550000Y-91800000D03*
X186950000Y-90250000D03*
X189350000Y-90250000D03*
X188150000Y-90250000D03*
X189350000Y-91800000D03*
X189350000Y-88700000D03*
X186950000Y-88700000D03*
X186950000Y-91800000D03*
X190550000Y-90250000D03*
X188150000Y-88700000D03*
X188150000Y-91800000D03*
%TD*%
D14*
%TO.P,J3,1,Pin_1*%
%TO.N,+12V*%
X190200000Y-79675000D03*
D15*
%TO.P,J3,2,Pin_2*%
%TO.N,GND*%
X192700000Y-79675000D03*
%TD*%
D16*
%TO.P,J4,S3,SHIELD*%
%TO.N,GND*%
X170180000Y-99275000D03*
%TO.P,J4,S4,SHIELD*%
X178820000Y-99275000D03*
D17*
%TO.P,J4,S5,SHIELD*%
X170180000Y-103100000D03*
%TO.P,J4,S6,SHIELD*%
X178820000Y-103100000D03*
%TD*%
D12*
%TO.P,U3,21,GND*%
%TO.N,GND*%
X175250000Y-90000000D03*
X173250000Y-92000000D03*
D18*
X174250000Y-91000000D03*
D12*
X175250000Y-92000000D03*
X173250000Y-90000000D03*
%TD*%
D19*
%TO.P,J5,1,Pin_1*%
%TO.N,VCC*%
X187200000Y-67750000D03*
D20*
%TO.P,J5,2,Pin_2*%
%TO.N,ACC0_A*%
X189200000Y-67750000D03*
%TO.P,J5,3,Pin_3*%
%TO.N,ACC0_B*%
X191200000Y-67750000D03*
%TO.P,J5,4,Pin_4*%
%TO.N,GND*%
X193200000Y-67750000D03*
%TD*%
D19*
%TO.P,J6,1,Pin_1*%
%TO.N,VCC*%
X187200000Y-73350000D03*
D20*
%TO.P,J6,2,Pin_2*%
%TO.N,ACC1_A*%
X189200000Y-73350000D03*
%TO.P,J6,3,Pin_3*%
%TO.N,ACC1_B*%
X191200000Y-73350000D03*
%TO.P,J6,4,Pin_4*%
%TO.N,GND*%
X193200000Y-73350000D03*
%TD*%
D21*
%TO.P,J7,1,Pin_1*%
%TO.N,GND*%
X168510000Y-84740000D03*
D22*
%TO.P,J7,2,Pin_2*%
%TO.N,Net-(J7-Pad2)*%
X168510000Y-86740000D03*
%TO.P,J7,3,Pin_3*%
%TO.N,Net-(J7-Pad3)*%
X168510000Y-88740000D03*
%TO.P,J7,4,Pin_4*%
%TO.N,Net-(C16-Pad1)*%
X168510000Y-90740000D03*
%TD*%
D21*
%TO.P,J8,1,Pin_1*%
%TO.N,ACC2_A*%
X168500000Y-73000000D03*
D22*
%TO.P,J8,2,Pin_2*%
%TO.N,ACC2_B*%
X168500000Y-75000000D03*
%TO.P,J8,3,Pin_3*%
%TO.N,ACC2_C*%
X168500000Y-77000000D03*
%TO.P,J8,4,Pin_4*%
%TO.N,GND*%
X168500000Y-79000000D03*
%TD*%
D23*
%TO.P,C1,1*%
%TO.N,Net-(C1-Pad1)*%
X190380000Y-96000000D03*
%TO.P,C1,2*%
%TO.N,GND*%
X189420000Y-96000000D03*
%TD*%
D24*
%TO.P,C2,1*%
%TO.N,Net-(C2-Pad1)*%
X188150000Y-95000000D03*
%TO.P,C2,2*%
%TO.N,GND*%
X186250000Y-95000000D03*
%TD*%
D25*
%TO.P,C3,1*%
%TO.N,Net-(C3-Pad1)*%
X191600000Y-95160000D03*
%TO.P,C3,2*%
%TO.N,Net-(C3-Pad2)*%
X191600000Y-94200000D03*
%TD*%
%TO.P,C4,1*%
%TO.N,Net-(C4-Pad1)*%
X196600000Y-89880000D03*
%TO.P,C4,2*%
%TO.N,GND*%
X196600000Y-88920000D03*
%TD*%
%TO.P,C5,1*%
%TO.N,GND*%
X183500000Y-90980000D03*
%TO.P,C5,2*%
%TO.N,Net-(C5-Pad2)*%
X183500000Y-90020000D03*
%TD*%
D26*
%TO.P,C6,1*%
%TO.N,+12V*%
X193800000Y-91420000D03*
%TO.P,C6,2*%
%TO.N,Net-(C6-Pad2)*%
X193800000Y-92380000D03*
%TD*%
D27*
%TO.P,C7,1*%
%TO.N,+12V*%
X193120000Y-86000000D03*
%TO.P,C7,2*%
%TO.N,GND*%
X194080000Y-86000000D03*
%TD*%
D28*
%TO.P,C8,1*%
%TO.N,+12V*%
X184500000Y-93050000D03*
%TO.P,C8,2*%
%TO.N,GND*%
X184500000Y-94950000D03*
%TD*%
D26*
%TO.P,C9,1*%
%TO.N,+12V*%
X194900000Y-91400000D03*
%TO.P,C9,2*%
%TO.N,GND*%
X194900000Y-92360000D03*
%TD*%
D29*
%TO.P,R1,1*%
%TO.N,Net-(C2-Pad1)*%
X189390000Y-95000000D03*
%TO.P,R1,2*%
%TO.N,Net-(C1-Pad1)*%
X190410000Y-95000000D03*
%TD*%
D30*
%TO.P,R2,1*%
%TO.N,GND*%
X195100000Y-88087500D03*
%TO.P,R2,2*%
%TO.N,Net-(C4-Pad1)*%
X195100000Y-89912500D03*
%TD*%
D31*
%TO.P,R3,1*%
%TO.N,Net-(C5-Pad2)*%
X183000000Y-88712500D03*
%TO.P,R3,2*%
%TO.N,GND*%
X183000000Y-86887500D03*
%TD*%
D32*
%TO.P,U1,1,GND*%
%TO.N,GND*%
X184000000Y-66000000D03*
%TO.P,U1,2,P1.11*%
%TO.N,unconnected-(U1-Pad2)*%
X184000000Y-67100000D03*
%TO.P,U1,3,P1.10*%
%TO.N,/Vmeas*%
X184000000Y-68200000D03*
%TO.P,U1,4,P1.13*%
%TO.N,THERM0*%
X184000000Y-69300000D03*
%TO.P,U1,5,P1.15*%
%TO.N,ACC1_B*%
X184000000Y-70400000D03*
%TO.P,U1,6,P0.03*%
%TO.N,ACC1_A*%
X184000000Y-71500000D03*
%TO.P,U1,7,P0.02*%
%TO.N,TMCCLK*%
X184000000Y-72600000D03*
%TO.P,U1,8,P0.28*%
%TO.N,~{CS1}*%
X184000000Y-73700000D03*
%TO.P,U1,9,P0.29*%
%TO.N,SCLK*%
X184000000Y-74800000D03*
%TO.P,U1,10,P0.30*%
%TO.N,MOSI*%
X184000000Y-75900000D03*
%TO.P,U1,11,P0.31*%
%TO.N,MISO*%
X184000000Y-77000000D03*
%TO.P,U1,12,P0.04*%
%TO.N,STEP*%
X184000000Y-78100000D03*
%TO.P,U1,13,P0.05*%
%TO.N,DIR*%
X184000000Y-79200000D03*
D33*
%TO.P,U1,14,VDD_nRF*%
%TO.N,VCC*%
X182750000Y-80700000D03*
%TO.P,U1,15,P0.07*%
%TO.N,Net-(U1-Pad15)*%
X181650000Y-80700000D03*
%TO.P,U1,16,P1.09*%
%TO.N,Net-(U1-Pad16)*%
X180550000Y-80700000D03*
%TO.P,U1,17,P0.12*%
%TO.N,DIAG0*%
X179450000Y-80700000D03*
%TO.P,U1,18,P0.23*%
%TO.N,DIAG1*%
X178350000Y-80700000D03*
%TO.P,U1,19,P0.21*%
%TO.N,~{MOTOR_EN}*%
X177250000Y-80700000D03*
%TO.P,U1,20,P0.19*%
%TO.N,unconnected-(U1-Pad20)*%
X176150000Y-80700000D03*
%TO.P,U1,21,P0.18*%
%TO.N,~{RESET}*%
X175050000Y-80700000D03*
%TO.P,U1,22,VBUS*%
%TO.N,Net-(R19-Pad2)*%
X173950000Y-80700000D03*
%TO.P,U1,23,D-*%
%TO.N,Net-(R18-Pad2)*%
X172850000Y-80700000D03*
%TO.P,U1,24,D+*%
%TO.N,Net-(R17-Pad2)*%
X171750000Y-80700000D03*
D32*
%TO.P,U1,25,GND*%
%TO.N,GND*%
X170500000Y-79200000D03*
%TO.P,U1,26,P0.22*%
%TO.N,RXD*%
X170500000Y-78100000D03*
%TO.P,U1,27,P1.00*%
%TO.N,TXD*%
X170500000Y-77000000D03*
%TO.P,U1,28,P1.03*%
%TO.N,ACC2_C*%
X170500000Y-75900000D03*
%TO.P,U1,29,P1.01*%
%TO.N,ACC2_B*%
X170500000Y-74800000D03*
%TO.P,U1,30,P1.02*%
%TO.N,ACC2_A*%
X170500000Y-73700000D03*
%TO.P,U1,31,SWDCLK*%
%TO.N,SWDCLK*%
X170500000Y-72600000D03*
%TO.P,U1,32,SWDIO*%
%TO.N,SWDIO*%
X170500000Y-71500000D03*
%TO.P,U1,33,P1.04*%
%TO.N,unconnected-(U1-Pad33)*%
X170500000Y-70400000D03*
%TO.P,U1,34,P1.06*%
%TO.N,unconnected-(U1-Pad34)*%
X170500000Y-69300000D03*
%TO.P,U1,35,P0.09*%
%TO.N,ACC0_A*%
X170500000Y-68200000D03*
%TO.P,U1,36,P0.10*%
%TO.N,ACC0_B*%
X170500000Y-67100000D03*
%TO.P,U1,37,GND*%
%TO.N,GND*%
X170500000Y-66000000D03*
%TO.P,U1,38,P1.14*%
%TO.N,unconnected-(U1-Pad38)*%
X181500000Y-68200000D03*
%TO.P,U1,39,P1.12*%
%TO.N,unconnected-(U1-Pad39)*%
X181500000Y-69300000D03*
%TO.P,U1,40,P0.25*%
%TO.N,unconnected-(U1-Pad40)*%
X181500000Y-70400000D03*
%TO.P,U1,41,P0.11*%
%TO.N,unconnected-(U1-Pad41)*%
X181500000Y-71500000D03*
%TO.P,U1,42,P1.08*%
%TO.N,unconnected-(U1-Pad42)*%
X181500000Y-72600000D03*
%TO.P,U1,43,P0.27*%
%TO.N,unconnected-(U1-Pad43)*%
X181500000Y-73700000D03*
%TO.P,U1,44,P0.08*%
%TO.N,unconnected-(U1-Pad44)*%
X181500000Y-74800000D03*
%TO.P,U1,45,P0.06*%
%TO.N,unconnected-(U1-Pad45)*%
X181500000Y-75900000D03*
%TO.P,U1,46,P0.26*%
%TO.N,unconnected-(U1-Pad46)*%
X181500000Y-77000000D03*
%TO.P,U1,47,P1.07*%
%TO.N,unconnected-(U1-Pad47)*%
X173000000Y-68200000D03*
%TO.P,U1,48,P1.05*%
%TO.N,unconnected-(U1-Pad48)*%
X173000000Y-69300000D03*
%TO.P,U1,49,P0.24*%
%TO.N,unconnected-(U1-Pad49)*%
X173000000Y-70400000D03*
%TO.P,U1,50,P0.20*%
%TO.N,unconnected-(U1-Pad50)*%
X173000000Y-71500000D03*
%TO.P,U1,51,P0.17*%
%TO.N,unconnected-(U1-Pad51)*%
X173000000Y-72600000D03*
%TO.P,U1,52,P0.15*%
%TO.N,unconnected-(U1-Pad52)*%
X173000000Y-73700000D03*
%TO.P,U1,53,P0.14*%
%TO.N,unconnected-(U1-Pad53)*%
X173000000Y-74800000D03*
%TO.P,U1,54,P0.13*%
%TO.N,unconnected-(U1-Pad54)*%
X173000000Y-75900000D03*
%TO.P,U1,55,P0.16*%
%TO.N,unconnected-(U1-Pad55)*%
X173000000Y-77000000D03*
%TD*%
D34*
%TO.N,ACC0_B*%
X171700000Y-67100000D03*
%TO.N,ACC0_A*%
X171700000Y-68200000D03*
%TO.N,/Vmeas*%
X195200000Y-70200000D03*
%TO.N,GND*%
X197300000Y-78000000D03*
%TO.N,+12V*%
X197400000Y-81500000D03*
%TO.N,GND*%
X196400000Y-81500000D03*
X179900000Y-78700000D03*
%TO.N,Net-(U1-Pad16)*%
X180600000Y-81800000D03*
%TO.N,Net-(U1-Pad15)*%
X181700000Y-81800000D03*
%TO.N,GND*%
X172000000Y-95100000D03*
X171200000Y-91000000D03*
X179800000Y-84750001D03*
X177200000Y-71000000D03*
X177100000Y-94300000D03*
X173900000Y-83500000D03*
X177100000Y-90800000D03*
X193100000Y-88700000D03*
X170500000Y-79900000D03*
X177200000Y-68500000D03*
X176000000Y-95100000D03*
X173000000Y-95100000D03*
X174600000Y-86500000D03*
X177200000Y-72300000D03*
X171600000Y-66000000D03*
X188800000Y-93600000D03*
X173100000Y-101600000D03*
X192600000Y-88700000D03*
X177000000Y-95100000D03*
X185500000Y-87800000D03*
X179600000Y-83550001D03*
X179100000Y-83550001D03*
X180500000Y-79200000D03*
X183000000Y-66000000D03*
X179800000Y-101100000D03*
X179000000Y-94900000D03*
X175900000Y-101600000D03*
%TO.N,Net-(C1-Pad1)*%
X190059890Y-93699281D03*
%TO.N,Net-(C2-Pad1)*%
X189425433Y-93706895D03*
X189400000Y-94200000D03*
%TO.N,Net-(C3-Pad2)*%
X191200000Y-93600000D03*
%TO.N,Net-(C3-Pad1)*%
X190600000Y-94200000D03*
%TO.N,Net-(C4-Pad1)*%
X194100000Y-90000000D03*
X193600000Y-90000000D03*
%TO.N,Net-(C5-Pad2)*%
X184697307Y-89967689D03*
X184197307Y-89967689D03*
%TO.N,Net-(C6-Pad2)*%
X193100000Y-92300000D03*
%TO.N,~{MOTOR_EN}*%
X179800000Y-93200000D03*
%TO.N,DIAG1*%
X179800000Y-92400000D03*
%TO.N,DIAG0*%
X179400000Y-91200000D03*
%TO.N,DIR*%
X184000000Y-80300000D03*
%TO.N,STEP*%
X184800000Y-78100000D03*
%TO.N,MISO*%
X184800000Y-77000000D03*
%TO.N,MOSI*%
X184800000Y-75900000D03*
%TO.N,SCLK*%
X184800000Y-74800000D03*
%TO.N,~{CS1}*%
X184800000Y-73700000D03*
%TO.N,TMCCLK*%
X184800000Y-72600000D03*
%TO.N,+12V*%
X192500000Y-86000000D03*
X184500000Y-92250000D03*
X184500000Y-91750000D03*
X193100000Y-91400000D03*
X192600000Y-91400000D03*
%TO.N,VCC*%
X180500000Y-72800000D03*
X182750000Y-79250000D03*
X182750000Y-81650000D03*
X177400000Y-82150001D03*
X179800000Y-77200000D03*
X177400000Y-82750001D03*
%TO.N,~{RESET}*%
X174800000Y-67300000D03*
X174750000Y-76500000D03*
%TO.N,SWDCLK*%
X171750000Y-72500000D03*
%TO.N,SWDIO*%
X171750000Y-71500000D03*
%TO.N,Net-(C11-Pad1)*%
X177250000Y-97750000D03*
X171734322Y-97750000D03*
%TO.N,Net-(C14-Pad2)*%
X173300000Y-87900000D03*
X176187500Y-93312500D03*
%TO.N,THERM0*%
X182800000Y-69300000D03*
%TO.N,TXD*%
X171700000Y-77000000D03*
%TO.N,RXD*%
X171700000Y-78100000D03*
%TO.N,Net-(R17-Pad2)*%
X171800000Y-78900000D03*
%TO.N,Net-(R18-Pad2)*%
X172900000Y-78900000D03*
%TO.N,Net-(R19-Pad2)*%
X173900000Y-78900000D03*
%TO.N,Net-(J1-Pad4)*%
X192700000Y-90600000D03*
X193200000Y-90600000D03*
%TO.N,Net-(J1-Pad3)*%
X193100000Y-89400000D03*
X192600000Y-89400000D03*
%TO.N,Net-(J1-Pad2)*%
X184200000Y-89200000D03*
X184700000Y-89200000D03*
%TO.N,Net-(J1-Pad1)*%
X184250000Y-90600000D03*
X184750000Y-90600000D03*
%TD*%
D35*
%TO.N,ACC0_B*%
X170500000Y-67100000D02*
X171700000Y-67100000D01*
%TO.N,ACC0_A*%
X171700000Y-68200000D02*
X170500000Y-68200000D01*
%TO.N,/Vmeas*%
X184000000Y-68200000D02*
X184800000Y-68200000D01*
X184800000Y-68200000D02*
X186300000Y-69700000D01*
X194700000Y-69700000D02*
X195200000Y-70200000D01*
X186300000Y-69700000D02*
X194700000Y-69700000D01*
%TO.N,Net-(U1-Pad16)*%
X180550000Y-81750000D02*
X180600000Y-81800000D01*
X180550000Y-80700000D02*
X180550000Y-81750000D01*
%TO.N,Net-(U1-Pad15)*%
X181650000Y-80700000D02*
X181650000Y-81750000D01*
X181650000Y-81750000D02*
X181700000Y-81800000D01*
D36*
%TO.N,GND*%
X184000000Y-66000000D02*
X183000000Y-66000000D01*
X170500000Y-79200000D02*
X170500000Y-79900000D01*
X170500000Y-66000000D02*
X171600000Y-66000000D01*
D37*
%TO.N,Net-(C1-Pad1)*%
X190380000Y-95900000D02*
X190380000Y-95030000D01*
X190410000Y-95000000D02*
X190059890Y-94649890D01*
X190059890Y-94649890D02*
X190059890Y-93699281D01*
X190380000Y-95030000D02*
X190410000Y-95000000D01*
D36*
%TO.N,Net-(C2-Pad1)*%
X189390000Y-95000000D02*
X188350000Y-95000000D01*
X189425433Y-94174567D02*
X189400000Y-94200000D01*
X189425433Y-93706895D02*
X189425433Y-94964567D01*
X189425433Y-93706895D02*
X189425433Y-94174567D01*
D37*
%TO.N,Net-(C3-Pad2)*%
X191600000Y-94200000D02*
X191600000Y-94000000D01*
X191600000Y-94000000D02*
X191200000Y-93600000D01*
%TO.N,Net-(C3-Pad1)*%
X191600000Y-95160000D02*
X191560000Y-95160000D01*
X191560000Y-95160000D02*
X190600000Y-94200000D01*
D36*
%TO.N,Net-(C4-Pad1)*%
X194100000Y-90000000D02*
X195012500Y-90000000D01*
X196467500Y-89912500D02*
X196500000Y-89880000D01*
X195100000Y-89912500D02*
X196467500Y-89912500D01*
X195012500Y-90000000D02*
X195100000Y-89912500D01*
%TO.N,Net-(C5-Pad2)*%
X183500000Y-90020000D02*
X183552311Y-89967689D01*
X183500000Y-89412500D02*
X183100000Y-89012500D01*
D37*
X184697307Y-89967689D02*
X184197307Y-89967689D01*
D36*
X183552311Y-89967689D02*
X184697307Y-89967689D01*
X183500000Y-90020000D02*
X183500000Y-89412500D01*
%TO.N,Net-(C6-Pad2)*%
X193800000Y-92380000D02*
X193180000Y-92380000D01*
X193180000Y-92380000D02*
X193100000Y-92300000D01*
D38*
%TO.N,~{MOTOR_EN}*%
X178400000Y-89900000D02*
X178400000Y-91800000D01*
X178069590Y-82069590D02*
X178069590Y-89569590D01*
X178400000Y-91800000D02*
X179800000Y-93200000D01*
X177250000Y-81250000D02*
X178069590Y-82069590D01*
X178069590Y-89569590D02*
X178400000Y-89900000D01*
X177250000Y-80700000D02*
X177250000Y-81250000D01*
%TO.N,DIAG1*%
X178350000Y-89050000D02*
X178700000Y-89400000D01*
X178700000Y-89400000D02*
X178700000Y-91500000D01*
X178350000Y-80700000D02*
X178350000Y-89050000D01*
X179600000Y-92400000D02*
X179800000Y-92400000D01*
X178700000Y-91500000D02*
X179600000Y-92400000D01*
%TO.N,DIAG0*%
X178630410Y-88933852D02*
X178980410Y-89283851D01*
X179450000Y-81328000D02*
X178630410Y-82147590D01*
X178980410Y-89283851D02*
X178980410Y-90780410D01*
X178630410Y-82147590D02*
X178630410Y-88933852D01*
X179450000Y-80700000D02*
X179450000Y-81328000D01*
X178980410Y-90780410D02*
X179400000Y-91200000D01*
%TO.N,DIR*%
X184000000Y-79200000D02*
X184000000Y-80300000D01*
%TO.N,STEP*%
X184800000Y-78100000D02*
X184000000Y-78100000D01*
%TO.N,MISO*%
X184000000Y-77000000D02*
X184800000Y-77000000D01*
%TO.N,MOSI*%
X184000000Y-75900000D02*
X184800000Y-75900000D01*
%TO.N,SCLK*%
X184000000Y-74800000D02*
X184800000Y-74800000D01*
%TO.N,~{CS1}*%
X184000000Y-73700000D02*
X184800000Y-73700000D01*
%TO.N,TMCCLK*%
X184000000Y-72600000D02*
X184800000Y-72600000D01*
D36*
%TO.N,+12V*%
X194900000Y-91400000D02*
X193820000Y-91400000D01*
X193120000Y-86000000D02*
X192500000Y-86000000D01*
X192620000Y-91420000D02*
X192600000Y-91400000D01*
X193800000Y-91420000D02*
X192620000Y-91420000D01*
X184500000Y-91750000D02*
X184500000Y-93050000D01*
X193820000Y-91400000D02*
X193800000Y-91420000D01*
%TO.N,VCC*%
X182750000Y-80700000D02*
X182750000Y-81650000D01*
X182750000Y-80700000D02*
X182750000Y-79250000D01*
D35*
%TO.N,~{RESET}*%
X174750000Y-78350000D02*
X174750000Y-76500000D01*
D37*
X174800000Y-76450000D02*
X174750000Y-76500000D01*
D35*
X175050000Y-78650000D02*
X174750000Y-78350000D01*
D37*
X174800000Y-67300000D02*
X174800000Y-76450000D01*
D35*
X175050000Y-80700000D02*
X175050000Y-78650000D01*
%TO.N,SWDCLK*%
X171650000Y-72600000D02*
X171750000Y-72500000D01*
X170500000Y-72600000D02*
X171650000Y-72600000D01*
%TO.N,SWDIO*%
X170500000Y-71500000D02*
X171750000Y-71500000D01*
D39*
%TO.N,Net-(C11-Pad1)*%
X171734322Y-97750000D02*
X171734322Y-98234322D01*
X176500000Y-98500000D02*
X177250000Y-97750000D01*
X172000000Y-98500000D02*
X176500000Y-98500000D01*
X171734322Y-98234322D02*
X172000000Y-98500000D01*
D37*
%TO.N,Net-(C14-Pad2)*%
X176187500Y-88587500D02*
X175500000Y-87900000D01*
X175500000Y-87900000D02*
X173300000Y-87900000D01*
X176187500Y-93312500D02*
X176187500Y-88587500D01*
D38*
%TO.N,THERM0*%
X184000000Y-69300000D02*
X182800000Y-69300000D01*
D37*
%TO.N,TXD*%
X170500000Y-77000000D02*
X171700000Y-77000000D01*
%TO.N,RXD*%
X170500000Y-78100000D02*
X171700000Y-78100000D01*
D38*
%TO.N,ACC1_B*%
X188250000Y-70400000D02*
X191200000Y-73350000D01*
X184000000Y-70400000D02*
X188250000Y-70400000D01*
%TO.N,ACC1_A*%
X187350000Y-71500000D02*
X189200000Y-73350000D01*
X184000000Y-71500000D02*
X187350000Y-71500000D01*
D37*
%TO.N,Net-(R17-Pad2)*%
X171800000Y-80650000D02*
X171750000Y-80700000D01*
X171800000Y-78900000D02*
X171800000Y-80650000D01*
%TO.N,Net-(R18-Pad2)*%
X172850000Y-80700000D02*
X172850000Y-78950000D01*
X172850000Y-78950000D02*
X172900000Y-78900000D01*
%TO.N,Net-(R19-Pad2)*%
X173900000Y-80650000D02*
X173950000Y-80700000D01*
X173900000Y-78900000D02*
X173900000Y-80650000D01*
%TO.N,ACC2_A*%
X169200000Y-73700000D02*
X168500000Y-73000000D01*
X170500000Y-73700000D02*
X169200000Y-73700000D01*
%TO.N,ACC2_B*%
X170500000Y-74800000D02*
X168700000Y-74800000D01*
X168700000Y-74800000D02*
X168500000Y-75000000D01*
%TO.N,ACC2_C*%
X169500000Y-76000000D02*
X168500000Y-77000000D01*
X170500000Y-75900000D02*
X170400000Y-76000000D01*
X170400000Y-76000000D02*
X169500000Y-76000000D01*
%TO.N,Net-(J1-Pad2)*%
X184700000Y-89200000D02*
X184200000Y-89200000D01*
%TD*%
%TA.AperFunction,Conductor*%
%TO.N,GND*%
G36*
X199731548Y-77418452D02*
G01*
X199750000Y-77463000D01*
X199750000Y-104687000D01*
X199731548Y-104731548D01*
X199687000Y-104750000D01*
X181313000Y-104750000D01*
X181268452Y-104731548D01*
X181250000Y-104687000D01*
X181250000Y-102734734D01*
X196416047Y-102734734D01*
X196424836Y-102968849D01*
X196472946Y-103198135D01*
X196558999Y-103416038D01*
X196680537Y-103616326D01*
X196682283Y-103618338D01*
X196832340Y-103791264D01*
X196832344Y-103791268D01*
X196834084Y-103793273D01*
X196836139Y-103794958D01*
X196836140Y-103794959D01*
X197013187Y-103940129D01*
X197013193Y-103940133D01*
X197015249Y-103941819D01*
X197017563Y-103943136D01*
X197017567Y-103943139D01*
X197216535Y-104056399D01*
X197216540Y-104056401D01*
X197218853Y-104057718D01*
X197317132Y-104093391D01*
X197436562Y-104136743D01*
X197436567Y-104136744D01*
X197439073Y-104137654D01*
X197441694Y-104138128D01*
X197441698Y-104138129D01*
X197667583Y-104178975D01*
X197667587Y-104178975D01*
X197669614Y-104179342D01*
X197690980Y-104180350D01*
X197693447Y-104180466D01*
X197693449Y-104180466D01*
X197694169Y-104180500D01*
X197858820Y-104180500D01*
X197947562Y-104172970D01*
X198030783Y-104165909D01*
X198030788Y-104165908D01*
X198033441Y-104165683D01*
X198260206Y-104106827D01*
X198473813Y-104010604D01*
X198668154Y-103879766D01*
X198837671Y-103718054D01*
X198977519Y-103530093D01*
X199083697Y-103321255D01*
X199084488Y-103318709D01*
X199084490Y-103318703D01*
X199152379Y-103100066D01*
X199152380Y-103100061D01*
X199153171Y-103097514D01*
X199183953Y-102865266D01*
X199175164Y-102631151D01*
X199127054Y-102401865D01*
X199041001Y-102183962D01*
X198995744Y-102109380D01*
X198920846Y-101985953D01*
X198920846Y-101985952D01*
X198919463Y-101983674D01*
X198885808Y-101944890D01*
X198767660Y-101808736D01*
X198767656Y-101808732D01*
X198765916Y-101806727D01*
X198719884Y-101768983D01*
X198586813Y-101659871D01*
X198586807Y-101659867D01*
X198584751Y-101658181D01*
X198582437Y-101656864D01*
X198582433Y-101656861D01*
X198383465Y-101543601D01*
X198383460Y-101543599D01*
X198381147Y-101542282D01*
X198282868Y-101506609D01*
X198163438Y-101463257D01*
X198163433Y-101463256D01*
X198160927Y-101462346D01*
X198158306Y-101461872D01*
X198158302Y-101461871D01*
X197932417Y-101421025D01*
X197932413Y-101421025D01*
X197930386Y-101420658D01*
X197908227Y-101419613D01*
X197906553Y-101419534D01*
X197906551Y-101419534D01*
X197905831Y-101419500D01*
X197741180Y-101419500D01*
X197652438Y-101427030D01*
X197569217Y-101434091D01*
X197569212Y-101434092D01*
X197566559Y-101434317D01*
X197339794Y-101493173D01*
X197126187Y-101589396D01*
X196931846Y-101720234D01*
X196762329Y-101881946D01*
X196622481Y-102069907D01*
X196516303Y-102278745D01*
X196515512Y-102281291D01*
X196515510Y-102281297D01*
X196447621Y-102499934D01*
X196446829Y-102502486D01*
X196416047Y-102734734D01*
X181250000Y-102734734D01*
X181250000Y-101761062D01*
X184269500Y-101761062D01*
X184269836Y-101763341D01*
X184269836Y-101763348D01*
X184279702Y-101830372D01*
X184280509Y-101835852D01*
X184336337Y-101949560D01*
X184381282Y-101994427D01*
X184422302Y-102035376D01*
X184422304Y-102035377D01*
X184425987Y-102039054D01*
X184430667Y-102041341D01*
X184430666Y-102041341D01*
X184535402Y-102092537D01*
X184535404Y-102092538D01*
X184539793Y-102094683D01*
X184592724Y-102102405D01*
X184611675Y-102105170D01*
X184611677Y-102105170D01*
X184613938Y-102105500D01*
X185886062Y-102105500D01*
X185888341Y-102105164D01*
X185888348Y-102105164D01*
X185956009Y-102095204D01*
X185956010Y-102095204D01*
X185960852Y-102094491D01*
X185965242Y-102092336D01*
X185965244Y-102092335D01*
X186069890Y-102040956D01*
X186069891Y-102040956D01*
X186074560Y-102038663D01*
X186152288Y-101960800D01*
X186160376Y-101952698D01*
X186160377Y-101952696D01*
X186164054Y-101949013D01*
X186219683Y-101835207D01*
X186229025Y-101771174D01*
X186230170Y-101763325D01*
X186230170Y-101763323D01*
X186230500Y-101761062D01*
X186230500Y-101174785D01*
X186769500Y-101174785D01*
X186784573Y-101323174D01*
X186785529Y-101326224D01*
X186837848Y-101493173D01*
X186844140Y-101513252D01*
X186845684Y-101516038D01*
X186845686Y-101516042D01*
X186924475Y-101658181D01*
X186940711Y-101687471D01*
X186942790Y-101689897D01*
X186942791Y-101689898D01*
X187044648Y-101808736D01*
X187070341Y-101838713D01*
X187227734Y-101960800D01*
X187230599Y-101962210D01*
X187230601Y-101962211D01*
X187403598Y-102047336D01*
X187403600Y-102047337D01*
X187406462Y-102048745D01*
X187599224Y-102098955D01*
X187602401Y-102099121D01*
X187602404Y-102099122D01*
X187758315Y-102107293D01*
X187798144Y-102109380D01*
X187995098Y-102079594D01*
X188182040Y-102010813D01*
X188351333Y-101905847D01*
X188496062Y-101768983D01*
X188610314Y-101605814D01*
X188689424Y-101423003D01*
X188730158Y-101228019D01*
X188730500Y-101221493D01*
X188730500Y-101174785D01*
X189269500Y-101174785D01*
X189284573Y-101323174D01*
X189285529Y-101326224D01*
X189337848Y-101493173D01*
X189344140Y-101513252D01*
X189345684Y-101516038D01*
X189345686Y-101516042D01*
X189424475Y-101658181D01*
X189440711Y-101687471D01*
X189442790Y-101689897D01*
X189442791Y-101689898D01*
X189544648Y-101808736D01*
X189570341Y-101838713D01*
X189727734Y-101960800D01*
X189730599Y-101962210D01*
X189730601Y-101962211D01*
X189903598Y-102047336D01*
X189903600Y-102047337D01*
X189906462Y-102048745D01*
X190099224Y-102098955D01*
X190102401Y-102099121D01*
X190102404Y-102099122D01*
X190258315Y-102107293D01*
X190298144Y-102109380D01*
X190495098Y-102079594D01*
X190682040Y-102010813D01*
X190851333Y-101905847D01*
X190996062Y-101768983D01*
X191110314Y-101605814D01*
X191189424Y-101423003D01*
X191230158Y-101228019D01*
X191230500Y-101221493D01*
X191230500Y-101174785D01*
X191769500Y-101174785D01*
X191784573Y-101323174D01*
X191785529Y-101326224D01*
X191837848Y-101493173D01*
X191844140Y-101513252D01*
X191845684Y-101516038D01*
X191845686Y-101516042D01*
X191924475Y-101658181D01*
X191940711Y-101687471D01*
X191942790Y-101689897D01*
X191942791Y-101689898D01*
X192044648Y-101808736D01*
X192070341Y-101838713D01*
X192227734Y-101960800D01*
X192230599Y-101962210D01*
X192230601Y-101962211D01*
X192403598Y-102047336D01*
X192403600Y-102047337D01*
X192406462Y-102048745D01*
X192599224Y-102098955D01*
X192602401Y-102099121D01*
X192602404Y-102099122D01*
X192758315Y-102107293D01*
X192798144Y-102109380D01*
X192995098Y-102079594D01*
X193182040Y-102010813D01*
X193351333Y-101905847D01*
X193496062Y-101768983D01*
X193610314Y-101605814D01*
X193689424Y-101423003D01*
X193730158Y-101228019D01*
X193730500Y-101221493D01*
X193730500Y-100825215D01*
X193715427Y-100676826D01*
X193685122Y-100580122D01*
X193656814Y-100489791D01*
X193656813Y-100489788D01*
X193655860Y-100486748D01*
X193654316Y-100483962D01*
X193654314Y-100483958D01*
X193560839Y-100315325D01*
X193560838Y-100315324D01*
X193559289Y-100312529D01*
X193496214Y-100238938D01*
X193431736Y-100163710D01*
X193431735Y-100163709D01*
X193429659Y-100161287D01*
X193272266Y-100039200D01*
X193269401Y-100037790D01*
X193269399Y-100037789D01*
X193096402Y-99952664D01*
X193096400Y-99952663D01*
X193093538Y-99951255D01*
X192900776Y-99901045D01*
X192897599Y-99900879D01*
X192897596Y-99900878D01*
X192741685Y-99892707D01*
X192701856Y-99890620D01*
X192504902Y-99920406D01*
X192317960Y-99989187D01*
X192148667Y-100094153D01*
X192003938Y-100231017D01*
X191889686Y-100394186D01*
X191810576Y-100576997D01*
X191769842Y-100771981D01*
X191769500Y-100778507D01*
X191769500Y-101174785D01*
X191230500Y-101174785D01*
X191230500Y-100825215D01*
X191215427Y-100676826D01*
X191185122Y-100580122D01*
X191156814Y-100489791D01*
X191156813Y-100489788D01*
X191155860Y-100486748D01*
X191154316Y-100483962D01*
X191154314Y-100483958D01*
X191060839Y-100315325D01*
X191060838Y-100315324D01*
X191059289Y-100312529D01*
X190996214Y-100238938D01*
X190931736Y-100163710D01*
X190931735Y-100163709D01*
X190929659Y-100161287D01*
X190772266Y-100039200D01*
X190769401Y-100037790D01*
X190769399Y-100037789D01*
X190596402Y-99952664D01*
X190596400Y-99952663D01*
X190593538Y-99951255D01*
X190400776Y-99901045D01*
X190397599Y-99900879D01*
X190397596Y-99900878D01*
X190241685Y-99892707D01*
X190201856Y-99890620D01*
X190004902Y-99920406D01*
X189817960Y-99989187D01*
X189648667Y-100094153D01*
X189503938Y-100231017D01*
X189389686Y-100394186D01*
X189310576Y-100576997D01*
X189269842Y-100771981D01*
X189269500Y-100778507D01*
X189269500Y-101174785D01*
X188730500Y-101174785D01*
X188730500Y-100825215D01*
X188715427Y-100676826D01*
X188685122Y-100580122D01*
X188656814Y-100489791D01*
X188656813Y-100489788D01*
X188655860Y-100486748D01*
X188654316Y-100483962D01*
X188654314Y-100483958D01*
X188560839Y-100315325D01*
X188560838Y-100315324D01*
X188559289Y-100312529D01*
X188496214Y-100238938D01*
X188431736Y-100163710D01*
X188431735Y-100163709D01*
X188429659Y-100161287D01*
X188272266Y-100039200D01*
X188269401Y-100037790D01*
X188269399Y-100037789D01*
X188096402Y-99952664D01*
X188096400Y-99952663D01*
X188093538Y-99951255D01*
X187900776Y-99901045D01*
X187897599Y-99900879D01*
X187897596Y-99900878D01*
X187741685Y-99892707D01*
X187701856Y-99890620D01*
X187504902Y-99920406D01*
X187317960Y-99989187D01*
X187148667Y-100094153D01*
X187003938Y-100231017D01*
X186889686Y-100394186D01*
X186810576Y-100576997D01*
X186769842Y-100771981D01*
X186769500Y-100778507D01*
X186769500Y-101174785D01*
X186230500Y-101174785D01*
X186230500Y-100238938D01*
X186229335Y-100231017D01*
X186220204Y-100168991D01*
X186220204Y-100168990D01*
X186219491Y-100164148D01*
X186163663Y-100050440D01*
X186102303Y-99989187D01*
X186077698Y-99964624D01*
X186077696Y-99964623D01*
X186074013Y-99960946D01*
X185993329Y-99921507D01*
X185964598Y-99907463D01*
X185964596Y-99907462D01*
X185960207Y-99905317D01*
X185907276Y-99897595D01*
X185888325Y-99894830D01*
X185888323Y-99894830D01*
X185886062Y-99894500D01*
X184613938Y-99894500D01*
X184611659Y-99894836D01*
X184611652Y-99894836D01*
X184543991Y-99904796D01*
X184543990Y-99904796D01*
X184539148Y-99905509D01*
X184534758Y-99907664D01*
X184534756Y-99907665D01*
X184430894Y-99958659D01*
X184425440Y-99961337D01*
X184380573Y-100006282D01*
X184339624Y-100047302D01*
X184339623Y-100047304D01*
X184335946Y-100050987D01*
X184280317Y-100164793D01*
X184279612Y-100169628D01*
X184269834Y-100236652D01*
X184269500Y-100238938D01*
X184269500Y-101761062D01*
X181250000Y-101761062D01*
X181250000Y-95511062D01*
X187519500Y-95511062D01*
X187530509Y-95585852D01*
X187586337Y-95699560D01*
X187617374Y-95730543D01*
X187672302Y-95785376D01*
X187672304Y-95785377D01*
X187675987Y-95789054D01*
X187680667Y-95791341D01*
X187680666Y-95791341D01*
X187785402Y-95842537D01*
X187785404Y-95842538D01*
X187789793Y-95844683D01*
X187842724Y-95852405D01*
X187861675Y-95855170D01*
X187861677Y-95855170D01*
X187863938Y-95855500D01*
X188436062Y-95855500D01*
X188438341Y-95855164D01*
X188438348Y-95855164D01*
X188506009Y-95845204D01*
X188506010Y-95845204D01*
X188510852Y-95844491D01*
X188515242Y-95842336D01*
X188515244Y-95842335D01*
X188619890Y-95790956D01*
X188619891Y-95790956D01*
X188624560Y-95788663D01*
X188682579Y-95730543D01*
X188710376Y-95702698D01*
X188710377Y-95702696D01*
X188714054Y-95699013D01*
X188729633Y-95667141D01*
X188767537Y-95589598D01*
X188767538Y-95589596D01*
X188769683Y-95585207D01*
X188777405Y-95532276D01*
X188780170Y-95513325D01*
X188780170Y-95513323D01*
X188780500Y-95511062D01*
X188780500Y-95443500D01*
X188798952Y-95398952D01*
X188843500Y-95380500D01*
X189050588Y-95380500D01*
X189085588Y-95391117D01*
X189151407Y-95435095D01*
X189228853Y-95450500D01*
X189389869Y-95450500D01*
X189551146Y-95450499D01*
X189554175Y-95449896D01*
X189554180Y-95449896D01*
X189622506Y-95436306D01*
X189622507Y-95436305D01*
X189628593Y-95435095D01*
X189716415Y-95376415D01*
X189775095Y-95288593D01*
X189790500Y-95211147D01*
X189790500Y-95084202D01*
X189794059Y-95063328D01*
X189804135Y-95034636D01*
X189804135Y-95034635D01*
X189805450Y-95030891D01*
X189805933Y-95025314D01*
X189805933Y-94909361D01*
X189824385Y-94864813D01*
X189868933Y-94846361D01*
X189913481Y-94864813D01*
X189991048Y-94942380D01*
X190009500Y-94986928D01*
X190009501Y-95211146D01*
X190010104Y-95214175D01*
X190010104Y-95214180D01*
X190023694Y-95282506D01*
X190024905Y-95288593D01*
X190083585Y-95376415D01*
X190096500Y-95385044D01*
X190123289Y-95425135D01*
X190124500Y-95437427D01*
X190124500Y-95548174D01*
X190106048Y-95592722D01*
X190096503Y-95600555D01*
X190044981Y-95634981D01*
X190041531Y-95640144D01*
X189988643Y-95719295D01*
X189988642Y-95719297D01*
X189985195Y-95724456D01*
X189969500Y-95803360D01*
X189969500Y-96196640D01*
X189985195Y-96275544D01*
X189988642Y-96280703D01*
X189988643Y-96280705D01*
X190041531Y-96359856D01*
X190044981Y-96365019D01*
X190050144Y-96368469D01*
X190129295Y-96421357D01*
X190129297Y-96421358D01*
X190134456Y-96424805D01*
X190140542Y-96426016D01*
X190140543Y-96426016D01*
X190161822Y-96430248D01*
X190213360Y-96440500D01*
X190546640Y-96440500D01*
X190598178Y-96430248D01*
X190619457Y-96426016D01*
X190619458Y-96426016D01*
X190625544Y-96424805D01*
X190630703Y-96421358D01*
X190630705Y-96421357D01*
X190709856Y-96368469D01*
X190715019Y-96365019D01*
X190718469Y-96359856D01*
X190771357Y-96280705D01*
X190771358Y-96280703D01*
X190774805Y-96275544D01*
X190790500Y-96196640D01*
X190790500Y-95803360D01*
X190774805Y-95724456D01*
X190771358Y-95719297D01*
X190771357Y-95719295D01*
X190718469Y-95640144D01*
X190715019Y-95634981D01*
X190663499Y-95600555D01*
X190636710Y-95560464D01*
X190635500Y-95548174D01*
X190635500Y-95477518D01*
X190653952Y-95432970D01*
X190663500Y-95425135D01*
X190731254Y-95379864D01*
X190731256Y-95379862D01*
X190736415Y-95376415D01*
X190795095Y-95288593D01*
X190810500Y-95211147D01*
X190810499Y-94923926D01*
X190828951Y-94879379D01*
X190873499Y-94860927D01*
X190918047Y-94879379D01*
X191141048Y-95102380D01*
X191159500Y-95146928D01*
X191159500Y-95326640D01*
X191175195Y-95405544D01*
X191178642Y-95410703D01*
X191178643Y-95410705D01*
X191204830Y-95449896D01*
X191234981Y-95495019D01*
X191240144Y-95498469D01*
X191319295Y-95551357D01*
X191319297Y-95551358D01*
X191324456Y-95554805D01*
X191330542Y-95556016D01*
X191330543Y-95556016D01*
X191351822Y-95560248D01*
X191403360Y-95570500D01*
X191796640Y-95570500D01*
X191848178Y-95560248D01*
X191869457Y-95556016D01*
X191869458Y-95556016D01*
X191875544Y-95554805D01*
X191880703Y-95551358D01*
X191880705Y-95551357D01*
X191959856Y-95498469D01*
X191965019Y-95495019D01*
X191995170Y-95449896D01*
X192021357Y-95410705D01*
X192021358Y-95410703D01*
X192024805Y-95405544D01*
X192040500Y-95326640D01*
X192040500Y-94993360D01*
X192024805Y-94914456D01*
X192021358Y-94909297D01*
X192021357Y-94909295D01*
X191968469Y-94830144D01*
X191965019Y-94824981D01*
X191910952Y-94788854D01*
X191880705Y-94768643D01*
X191880703Y-94768642D01*
X191875544Y-94765195D01*
X191869458Y-94763984D01*
X191869457Y-94763984D01*
X191848178Y-94759752D01*
X191796640Y-94749500D01*
X191536928Y-94749500D01*
X191492380Y-94731048D01*
X191479380Y-94718048D01*
X191460928Y-94673500D01*
X191479380Y-94628952D01*
X191523928Y-94610500D01*
X191796640Y-94610500D01*
X191848178Y-94600248D01*
X191869457Y-94596016D01*
X191869458Y-94596016D01*
X191875544Y-94594805D01*
X191880703Y-94591358D01*
X191880705Y-94591357D01*
X191959856Y-94538469D01*
X191965019Y-94535019D01*
X191994268Y-94491246D01*
X192021357Y-94450705D01*
X192021358Y-94450703D01*
X192024805Y-94445544D01*
X192040500Y-94366640D01*
X192040500Y-94033360D01*
X192028784Y-93974460D01*
X192026016Y-93960543D01*
X192026016Y-93960542D01*
X192024805Y-93954456D01*
X192021358Y-93949297D01*
X192021357Y-93949295D01*
X191968469Y-93870144D01*
X191965019Y-93864981D01*
X191950754Y-93855449D01*
X191880705Y-93808643D01*
X191880703Y-93808642D01*
X191875544Y-93805195D01*
X191869458Y-93803984D01*
X191869457Y-93803984D01*
X191848178Y-93799752D01*
X191796640Y-93789500D01*
X191776927Y-93789500D01*
X191732379Y-93771048D01*
X191606969Y-93645637D01*
X191588954Y-93602143D01*
X191589293Y-93600000D01*
X191570240Y-93479702D01*
X191514945Y-93371179D01*
X191428821Y-93285055D01*
X191320298Y-93229760D01*
X191200000Y-93210707D01*
X191079702Y-93229760D01*
X190971179Y-93285055D01*
X190885055Y-93371179D01*
X190829760Y-93479702D01*
X190810707Y-93600000D01*
X190829760Y-93720298D01*
X190855449Y-93770716D01*
X190859231Y-93818783D01*
X190827916Y-93855449D01*
X190779847Y-93859231D01*
X190770723Y-93855453D01*
X190720298Y-93829760D01*
X190600000Y-93810707D01*
X190512844Y-93824511D01*
X190465958Y-93813255D01*
X190440765Y-93772142D01*
X190440765Y-93752432D01*
X190448407Y-93704181D01*
X190449183Y-93699281D01*
X190430130Y-93578983D01*
X190374835Y-93470460D01*
X190288711Y-93384336D01*
X190180188Y-93329041D01*
X190059890Y-93309988D01*
X189939592Y-93329041D01*
X189831069Y-93384336D01*
X189827564Y-93387841D01*
X189827560Y-93387844D01*
X189783403Y-93432002D01*
X189738856Y-93450455D01*
X189694307Y-93432003D01*
X189654254Y-93391950D01*
X189545731Y-93336655D01*
X189425433Y-93317602D01*
X189395463Y-93322349D01*
X189395167Y-93322323D01*
X189394361Y-93322523D01*
X189362236Y-93327611D01*
X189310038Y-93335878D01*
X189310035Y-93335879D01*
X189305135Y-93336655D01*
X189274375Y-93352328D01*
X189273807Y-93351213D01*
X189272330Y-93352836D01*
X189272229Y-93352861D01*
X189268114Y-93355518D01*
X189267391Y-93355886D01*
X189266398Y-93356316D01*
X189265241Y-93356982D01*
X189196612Y-93391950D01*
X189169133Y-93419429D01*
X189168368Y-93418664D01*
X189167590Y-93420426D01*
X189165811Y-93421574D01*
X189162586Y-93425665D01*
X189161830Y-93426353D01*
X189158802Y-93429760D01*
X189110488Y-93478074D01*
X189108236Y-93482494D01*
X189091897Y-93514560D01*
X189090973Y-93516305D01*
X189090609Y-93516967D01*
X189087388Y-93521053D01*
X189085664Y-93525964D01*
X189085212Y-93526785D01*
X189082816Y-93532384D01*
X189055193Y-93586597D01*
X189048547Y-93628561D01*
X189047444Y-93632930D01*
X189047564Y-93632956D01*
X189046730Y-93636831D01*
X189045416Y-93640571D01*
X189044933Y-93646148D01*
X189044933Y-93647504D01*
X189044874Y-93648869D01*
X189044741Y-93648863D01*
X189044157Y-93656276D01*
X189036140Y-93706895D01*
X189036916Y-93711795D01*
X189044157Y-93757513D01*
X189044933Y-93767368D01*
X189044933Y-94034797D01*
X189038067Y-94063398D01*
X189029760Y-94079702D01*
X189025044Y-94109475D01*
X189020243Y-94139788D01*
X189018890Y-94145733D01*
X189018772Y-94146666D01*
X189017281Y-94151652D01*
X189017485Y-94156853D01*
X189017388Y-94157621D01*
X189017111Y-94159564D01*
X189010707Y-94200000D01*
X189011483Y-94204900D01*
X189021395Y-94267482D01*
X189021843Y-94272024D01*
X189022049Y-94273021D01*
X189022254Y-94278227D01*
X189023038Y-94280253D01*
X189022691Y-94282072D01*
X189023681Y-94281915D01*
X189029760Y-94320298D01*
X189032009Y-94324712D01*
X189038067Y-94336602D01*
X189044933Y-94365203D01*
X189044933Y-94556500D01*
X189026481Y-94601048D01*
X188981933Y-94619500D01*
X188843500Y-94619500D01*
X188798952Y-94601048D01*
X188780500Y-94556500D01*
X188780500Y-94488938D01*
X188774113Y-94445544D01*
X188770204Y-94418991D01*
X188770204Y-94418990D01*
X188769491Y-94414148D01*
X188747656Y-94369674D01*
X188715956Y-94305110D01*
X188715956Y-94305109D01*
X188713663Y-94300440D01*
X188659200Y-94246072D01*
X188627698Y-94214624D01*
X188627696Y-94214623D01*
X188624013Y-94210946D01*
X188591595Y-94195100D01*
X188514598Y-94157463D01*
X188514596Y-94157462D01*
X188510207Y-94155317D01*
X188444514Y-94145733D01*
X188438325Y-94144830D01*
X188438323Y-94144830D01*
X188436062Y-94144500D01*
X187863938Y-94144500D01*
X187861659Y-94144836D01*
X187861652Y-94144836D01*
X187793991Y-94154796D01*
X187793990Y-94154796D01*
X187789148Y-94155509D01*
X187784758Y-94157664D01*
X187784756Y-94157665D01*
X187680894Y-94208659D01*
X187675440Y-94211337D01*
X187630573Y-94256282D01*
X187589624Y-94297302D01*
X187589623Y-94297304D01*
X187585946Y-94300987D01*
X187583659Y-94305666D01*
X187534617Y-94405997D01*
X187530317Y-94414793D01*
X187529612Y-94419628D01*
X187519834Y-94486652D01*
X187519500Y-94488938D01*
X187519500Y-95511062D01*
X181250000Y-95511062D01*
X181250000Y-93336062D01*
X183644500Y-93336062D01*
X183644836Y-93338341D01*
X183644836Y-93338348D01*
X183653243Y-93395456D01*
X183655509Y-93410852D01*
X183657664Y-93415242D01*
X183657665Y-93415244D01*
X183691720Y-93484605D01*
X183711337Y-93524560D01*
X183719184Y-93532393D01*
X183797302Y-93610376D01*
X183797304Y-93610377D01*
X183800987Y-93614054D01*
X183805667Y-93616341D01*
X183805666Y-93616341D01*
X183910402Y-93667537D01*
X183910404Y-93667538D01*
X183914793Y-93669683D01*
X183967724Y-93677405D01*
X183986675Y-93680170D01*
X183986677Y-93680170D01*
X183988938Y-93680500D01*
X185011062Y-93680500D01*
X185013341Y-93680164D01*
X185013348Y-93680164D01*
X185081009Y-93670204D01*
X185081010Y-93670204D01*
X185085852Y-93669491D01*
X185090242Y-93667336D01*
X185090244Y-93667335D01*
X185194890Y-93615956D01*
X185194891Y-93615956D01*
X185199560Y-93613663D01*
X185280689Y-93532393D01*
X185285376Y-93527698D01*
X185285377Y-93527696D01*
X185289054Y-93524013D01*
X185309349Y-93482494D01*
X185342537Y-93414598D01*
X185342538Y-93414596D01*
X185344683Y-93410207D01*
X185355085Y-93338909D01*
X185355170Y-93338325D01*
X185355170Y-93338323D01*
X185355500Y-93336062D01*
X185355500Y-92763938D01*
X185355002Y-92760549D01*
X185345204Y-92693991D01*
X185345204Y-92693990D01*
X185344491Y-92689148D01*
X185341726Y-92683515D01*
X185290956Y-92580110D01*
X185290956Y-92580109D01*
X185288663Y-92575440D01*
X185237535Y-92524401D01*
X185202698Y-92489624D01*
X185202696Y-92489623D01*
X185199013Y-92485946D01*
X185090011Y-92432665D01*
X185089598Y-92432463D01*
X185089596Y-92432462D01*
X185085207Y-92430317D01*
X185032276Y-92422595D01*
X185013325Y-92419830D01*
X185013323Y-92419830D01*
X185011062Y-92419500D01*
X184943500Y-92419500D01*
X184898952Y-92401048D01*
X184880500Y-92356500D01*
X184880500Y-92310473D01*
X184881276Y-92300618D01*
X184888517Y-92254900D01*
X184889293Y-92250000D01*
X184881276Y-92199381D01*
X184880500Y-92189527D01*
X184880500Y-91810473D01*
X184881276Y-91800618D01*
X184881580Y-91798702D01*
X184889293Y-91750000D01*
X184870240Y-91629702D01*
X184814945Y-91521179D01*
X184728821Y-91435055D01*
X184660021Y-91400000D01*
X192210707Y-91400000D01*
X192229760Y-91520298D01*
X192285055Y-91628821D01*
X192332534Y-91676300D01*
X192331769Y-91677065D01*
X192333531Y-91677843D01*
X192334679Y-91679622D01*
X192338770Y-91682847D01*
X192339458Y-91683603D01*
X192342865Y-91686631D01*
X192371179Y-91714945D01*
X192375599Y-91717197D01*
X192389138Y-91724096D01*
X192399539Y-91730754D01*
X192434158Y-91758045D01*
X192439069Y-91759769D01*
X192442495Y-91761653D01*
X192446051Y-91763395D01*
X192450289Y-91766424D01*
X192493574Y-91779369D01*
X192500963Y-91781579D01*
X192503786Y-91782497D01*
X192542283Y-91796016D01*
X192553676Y-91800017D01*
X192559253Y-91800500D01*
X192559558Y-91800500D01*
X192563632Y-91800844D01*
X192566659Y-91801226D01*
X192571651Y-91802719D01*
X192626883Y-91800549D01*
X192629356Y-91800500D01*
X192995330Y-91800500D01*
X193039878Y-91818952D01*
X193058330Y-91863500D01*
X193039878Y-91908048D01*
X193005185Y-91925724D01*
X192979702Y-91929760D01*
X192941843Y-91949050D01*
X192911077Y-91964726D01*
X192909855Y-91965272D01*
X192908918Y-91965826D01*
X192908204Y-91966190D01*
X192903631Y-91967959D01*
X192903457Y-91968105D01*
X192901433Y-91968393D01*
X192901937Y-91969383D01*
X192871179Y-91985055D01*
X192807299Y-92048935D01*
X192806732Y-92048368D01*
X192805688Y-92048898D01*
X192806512Y-92049722D01*
X192785055Y-92071179D01*
X192729760Y-92179702D01*
X192710707Y-92300000D01*
X192729760Y-92420298D01*
X192785055Y-92528821D01*
X192871179Y-92614945D01*
X192875085Y-92616935D01*
X192890644Y-92633373D01*
X192894679Y-92639622D01*
X192898770Y-92642847D01*
X192924051Y-92662777D01*
X192929596Y-92667704D01*
X192933296Y-92671404D01*
X192950255Y-92683522D01*
X192952619Y-92685298D01*
X192994158Y-92718045D01*
X192999069Y-92719770D01*
X193002495Y-92721653D01*
X193006051Y-92723395D01*
X193010289Y-92726424D01*
X193053636Y-92739388D01*
X193060960Y-92741578D01*
X193063783Y-92742496D01*
X193113676Y-92760017D01*
X193119253Y-92760500D01*
X193119556Y-92760500D01*
X193123634Y-92760845D01*
X193126667Y-92761228D01*
X193131652Y-92762719D01*
X193136852Y-92762515D01*
X193136854Y-92762515D01*
X193186884Y-92760549D01*
X193189357Y-92760500D01*
X193483936Y-92760500D01*
X193513376Y-92769431D01*
X193513562Y-92768983D01*
X193518117Y-92770870D01*
X193518940Y-92771119D01*
X193524456Y-92774805D01*
X193603360Y-92790500D01*
X193996640Y-92790500D01*
X194048178Y-92780248D01*
X194069457Y-92776016D01*
X194069458Y-92776016D01*
X194075544Y-92774805D01*
X194080703Y-92771358D01*
X194080705Y-92771357D01*
X194159856Y-92718469D01*
X194165019Y-92715019D01*
X194184878Y-92685298D01*
X194221357Y-92630705D01*
X194221358Y-92630703D01*
X194224805Y-92625544D01*
X194227611Y-92611440D01*
X194233842Y-92580110D01*
X194240500Y-92546640D01*
X194240500Y-92213360D01*
X194224805Y-92134456D01*
X194221358Y-92129297D01*
X194221357Y-92129295D01*
X194168469Y-92050144D01*
X194165019Y-92044981D01*
X194096953Y-91999500D01*
X194080705Y-91988643D01*
X194080703Y-91988642D01*
X194075544Y-91985195D01*
X194069458Y-91983984D01*
X194069457Y-91983984D01*
X194048178Y-91979752D01*
X193996640Y-91969500D01*
X193603360Y-91969500D01*
X193524456Y-91985195D01*
X193519297Y-91988642D01*
X193518939Y-91988881D01*
X193518117Y-91989130D01*
X193513562Y-91991017D01*
X193513376Y-91990569D01*
X193483936Y-91999500D01*
X193367854Y-91999500D01*
X193331433Y-91987667D01*
X193328821Y-91985055D01*
X193324402Y-91982803D01*
X193324400Y-91982802D01*
X193280544Y-91960456D01*
X193275250Y-91957241D01*
X193273945Y-91956601D01*
X193269711Y-91953576D01*
X193264727Y-91952085D01*
X193260211Y-91949873D01*
X193258160Y-91949052D01*
X193220298Y-91929760D01*
X193215398Y-91928984D01*
X193215395Y-91928983D01*
X193194816Y-91925724D01*
X193153703Y-91900530D01*
X193142447Y-91853645D01*
X193167641Y-91812532D01*
X193204671Y-91800500D01*
X193483936Y-91800500D01*
X193513376Y-91809431D01*
X193513562Y-91808983D01*
X193518117Y-91810870D01*
X193518940Y-91811119D01*
X193524456Y-91814805D01*
X193603360Y-91830500D01*
X193996640Y-91830500D01*
X194054696Y-91818952D01*
X194069457Y-91816016D01*
X194069458Y-91816016D01*
X194075544Y-91814805D01*
X194110995Y-91791117D01*
X194145994Y-91780500D01*
X194583936Y-91780500D01*
X194613376Y-91789431D01*
X194613562Y-91788983D01*
X194618117Y-91790870D01*
X194618940Y-91791119D01*
X194624456Y-91794805D01*
X194703360Y-91810500D01*
X195096640Y-91810500D01*
X195149342Y-91800017D01*
X195169457Y-91796016D01*
X195169458Y-91796016D01*
X195175544Y-91794805D01*
X195180703Y-91791358D01*
X195180705Y-91791357D01*
X195259856Y-91738469D01*
X195265019Y-91735019D01*
X195272318Y-91724096D01*
X195321357Y-91650705D01*
X195321358Y-91650703D01*
X195324805Y-91645544D01*
X195328132Y-91628821D01*
X195338738Y-91575498D01*
X195340500Y-91566640D01*
X195340500Y-91233360D01*
X195329011Y-91175599D01*
X195326016Y-91160543D01*
X195326016Y-91160542D01*
X195324805Y-91154456D01*
X195321358Y-91149297D01*
X195321357Y-91149295D01*
X195268469Y-91070144D01*
X195265019Y-91064981D01*
X195259856Y-91061531D01*
X195180705Y-91008643D01*
X195180703Y-91008642D01*
X195175544Y-91005195D01*
X195169458Y-91003984D01*
X195169457Y-91003984D01*
X195148178Y-90999752D01*
X195096640Y-90989500D01*
X194703360Y-90989500D01*
X194624456Y-91005195D01*
X194619297Y-91008642D01*
X194618939Y-91008881D01*
X194618117Y-91009130D01*
X194613562Y-91011017D01*
X194613376Y-91010569D01*
X194583936Y-91019500D01*
X194053116Y-91019500D01*
X194040825Y-91018289D01*
X194035757Y-91017281D01*
X193996640Y-91009500D01*
X193603360Y-91009500D01*
X193524456Y-91025195D01*
X193519297Y-91028642D01*
X193518939Y-91028881D01*
X193518117Y-91029130D01*
X193513562Y-91031017D01*
X193513376Y-91030569D01*
X193483936Y-91039500D01*
X193446781Y-91039500D01*
X193402233Y-91021048D01*
X193383781Y-90976500D01*
X193402233Y-90931952D01*
X193418177Y-90920368D01*
X193428821Y-90914945D01*
X193514945Y-90828821D01*
X193570240Y-90720298D01*
X193589293Y-90600000D01*
X193570240Y-90479702D01*
X193567986Y-90475278D01*
X193566456Y-90470569D01*
X193568587Y-90469877D01*
X193565422Y-90429588D01*
X193596743Y-90392927D01*
X193615480Y-90386841D01*
X193720298Y-90370240D01*
X193821398Y-90318727D01*
X193869467Y-90314943D01*
X193878601Y-90318727D01*
X193907665Y-90333536D01*
X193909410Y-90334460D01*
X193910072Y-90334824D01*
X193914158Y-90338045D01*
X193919069Y-90339769D01*
X193919890Y-90340221D01*
X193925489Y-90342617D01*
X193979702Y-90370240D01*
X194021666Y-90376886D01*
X194026035Y-90377989D01*
X194026061Y-90377869D01*
X194029936Y-90378703D01*
X194033676Y-90380017D01*
X194037623Y-90380359D01*
X194037624Y-90380359D01*
X194037901Y-90380383D01*
X194037903Y-90380383D01*
X194039253Y-90380500D01*
X194040609Y-90380500D01*
X194041974Y-90380559D01*
X194041968Y-90380692D01*
X194049381Y-90381276D01*
X194100000Y-90389293D01*
X194150619Y-90381276D01*
X194160473Y-90380500D01*
X194291365Y-90380500D01*
X194335913Y-90398952D01*
X194336211Y-90399304D01*
X194336337Y-90399560D01*
X194336932Y-90400154D01*
X194422302Y-90485376D01*
X194422304Y-90485377D01*
X194425987Y-90489054D01*
X194430667Y-90491341D01*
X194430666Y-90491341D01*
X194535402Y-90542537D01*
X194535404Y-90542538D01*
X194539793Y-90544683D01*
X194592724Y-90552405D01*
X194611675Y-90555170D01*
X194611677Y-90555170D01*
X194613938Y-90555500D01*
X195586062Y-90555500D01*
X195588341Y-90555164D01*
X195588348Y-90555164D01*
X195656009Y-90545204D01*
X195656010Y-90545204D01*
X195660852Y-90544491D01*
X195665242Y-90542336D01*
X195665244Y-90542335D01*
X195769890Y-90490956D01*
X195769891Y-90490956D01*
X195774560Y-90488663D01*
X195864054Y-90399013D01*
X195898603Y-90328333D01*
X195934744Y-90296415D01*
X195955203Y-90293000D01*
X196420174Y-90293000D01*
X196433433Y-90294411D01*
X196449328Y-90297833D01*
X196454499Y-90297221D01*
X196486470Y-90293437D01*
X196493875Y-90293000D01*
X196499108Y-90293000D01*
X196501673Y-90292573D01*
X196501674Y-90292573D01*
X196508991Y-90291355D01*
X196519335Y-90290500D01*
X196796640Y-90290500D01*
X196848178Y-90280248D01*
X196869457Y-90276016D01*
X196869458Y-90276016D01*
X196875544Y-90274805D01*
X196880703Y-90271358D01*
X196880705Y-90271357D01*
X196959856Y-90218469D01*
X196965019Y-90215019D01*
X196968469Y-90209856D01*
X197021357Y-90130705D01*
X197021358Y-90130703D01*
X197024805Y-90125544D01*
X197040500Y-90046640D01*
X197040500Y-89713360D01*
X197024805Y-89634456D01*
X197021358Y-89629297D01*
X197021357Y-89629295D01*
X196968469Y-89550144D01*
X196965019Y-89544981D01*
X196945592Y-89532000D01*
X196880705Y-89488643D01*
X196880703Y-89488642D01*
X196875544Y-89485195D01*
X196869458Y-89483984D01*
X196869457Y-89483984D01*
X196848178Y-89479752D01*
X196796640Y-89469500D01*
X196403360Y-89469500D01*
X196351822Y-89479752D01*
X196330543Y-89483984D01*
X196330542Y-89483984D01*
X196324456Y-89485195D01*
X196319297Y-89488642D01*
X196319295Y-89488643D01*
X196270299Y-89521382D01*
X196235298Y-89532000D01*
X195955234Y-89532000D01*
X195910686Y-89513548D01*
X195898682Y-89496766D01*
X195892406Y-89483984D01*
X195863663Y-89425440D01*
X195859979Y-89421762D01*
X195777698Y-89339624D01*
X195777696Y-89339623D01*
X195774013Y-89335946D01*
X195682760Y-89291341D01*
X195664598Y-89282463D01*
X195664596Y-89282462D01*
X195660207Y-89280317D01*
X195607276Y-89272595D01*
X195588325Y-89269830D01*
X195588323Y-89269830D01*
X195586062Y-89269500D01*
X194613938Y-89269500D01*
X194611659Y-89269836D01*
X194611652Y-89269836D01*
X194543991Y-89279796D01*
X194543990Y-89279796D01*
X194539148Y-89280509D01*
X194534758Y-89282664D01*
X194534756Y-89282665D01*
X194449099Y-89324721D01*
X194425440Y-89336337D01*
X194380573Y-89381282D01*
X194339624Y-89422302D01*
X194339623Y-89422304D01*
X194335946Y-89425987D01*
X194333659Y-89430666D01*
X194284699Y-89530829D01*
X194280317Y-89539793D01*
X194279612Y-89544626D01*
X194279611Y-89544629D01*
X194276553Y-89565594D01*
X194251864Y-89607012D01*
X194214213Y-89619500D01*
X194160473Y-89619500D01*
X194150618Y-89618724D01*
X194104900Y-89611483D01*
X194100000Y-89610707D01*
X193979702Y-89629760D01*
X193878599Y-89681274D01*
X193830532Y-89685056D01*
X193821406Y-89681277D01*
X193720298Y-89629760D01*
X193600000Y-89610707D01*
X193595100Y-89611483D01*
X193530860Y-89621657D01*
X193483974Y-89610401D01*
X193458781Y-89569288D01*
X193464872Y-89530832D01*
X193470240Y-89520298D01*
X193489293Y-89400000D01*
X193470240Y-89279702D01*
X193414945Y-89171179D01*
X193328821Y-89085055D01*
X193220298Y-89029760D01*
X193100000Y-89010707D01*
X192979702Y-89029760D01*
X192878599Y-89081274D01*
X192830532Y-89085056D01*
X192821406Y-89081277D01*
X192720298Y-89029760D01*
X192600000Y-89010707D01*
X192479702Y-89029760D01*
X192371179Y-89085055D01*
X192285055Y-89171179D01*
X192229760Y-89279702D01*
X192210707Y-89400000D01*
X192229760Y-89520298D01*
X192285055Y-89628821D01*
X192371179Y-89714945D01*
X192479702Y-89770240D01*
X192600000Y-89789293D01*
X192720298Y-89770240D01*
X192821401Y-89718726D01*
X192869468Y-89714944D01*
X192878594Y-89718723D01*
X192979702Y-89770240D01*
X193100000Y-89789293D01*
X193104900Y-89788517D01*
X193169140Y-89778343D01*
X193216026Y-89789599D01*
X193241219Y-89830712D01*
X193235128Y-89869168D01*
X193229760Y-89879702D01*
X193210707Y-90000000D01*
X193229760Y-90120298D01*
X193232014Y-90124722D01*
X193233544Y-90129431D01*
X193231413Y-90130123D01*
X193234578Y-90170412D01*
X193203257Y-90207073D01*
X193184520Y-90213159D01*
X193079702Y-90229760D01*
X192978599Y-90281274D01*
X192930532Y-90285056D01*
X192921406Y-90281277D01*
X192820298Y-90229760D01*
X192700000Y-90210707D01*
X192579702Y-90229760D01*
X192471179Y-90285055D01*
X192385055Y-90371179D01*
X192329760Y-90479702D01*
X192310707Y-90600000D01*
X192329760Y-90720298D01*
X192385055Y-90828821D01*
X192471179Y-90914945D01*
X192477944Y-90918392D01*
X192479088Y-90919732D01*
X192479606Y-90920108D01*
X192479516Y-90920232D01*
X192509258Y-90955056D01*
X192505474Y-91003126D01*
X192477945Y-91030655D01*
X192411063Y-91064733D01*
X192409850Y-91065275D01*
X192408918Y-91065826D01*
X192408204Y-91066190D01*
X192403631Y-91067959D01*
X192403457Y-91068105D01*
X192401433Y-91068393D01*
X192401937Y-91069383D01*
X192371179Y-91085055D01*
X192307299Y-91148935D01*
X192306732Y-91148368D01*
X192305688Y-91148898D01*
X192306512Y-91149722D01*
X192285055Y-91171179D01*
X192229760Y-91279702D01*
X192210707Y-91400000D01*
X184660021Y-91400000D01*
X184620298Y-91379760D01*
X184500000Y-91360707D01*
X184470030Y-91365454D01*
X184469734Y-91365428D01*
X184468928Y-91365628D01*
X184436803Y-91370716D01*
X184384605Y-91378983D01*
X184384602Y-91378984D01*
X184379702Y-91379760D01*
X184348942Y-91395433D01*
X184348374Y-91394318D01*
X184346897Y-91395941D01*
X184346796Y-91395966D01*
X184342681Y-91398623D01*
X184341958Y-91398991D01*
X184340965Y-91399421D01*
X184339808Y-91400087D01*
X184271179Y-91435055D01*
X184243700Y-91462534D01*
X184242935Y-91461769D01*
X184242157Y-91463531D01*
X184240378Y-91464679D01*
X184237153Y-91468770D01*
X184236397Y-91469458D01*
X184233369Y-91472865D01*
X184185055Y-91521179D01*
X184182803Y-91525599D01*
X184166464Y-91557665D01*
X184165540Y-91559410D01*
X184165176Y-91560072D01*
X184161955Y-91564158D01*
X184160231Y-91569069D01*
X184159779Y-91569890D01*
X184157383Y-91575489D01*
X184129760Y-91629702D01*
X184128215Y-91639457D01*
X184123114Y-91671666D01*
X184122011Y-91676035D01*
X184122131Y-91676061D01*
X184121297Y-91679936D01*
X184119983Y-91683676D01*
X184119500Y-91689253D01*
X184119500Y-91690609D01*
X184119441Y-91691974D01*
X184119308Y-91691968D01*
X184118724Y-91699381D01*
X184110707Y-91750000D01*
X184118421Y-91798702D01*
X184118724Y-91800618D01*
X184119500Y-91810473D01*
X184119500Y-92189527D01*
X184118724Y-92199381D01*
X184110707Y-92250000D01*
X184111483Y-92254900D01*
X184118724Y-92300618D01*
X184119500Y-92310473D01*
X184119500Y-92356500D01*
X184101048Y-92401048D01*
X184056500Y-92419500D01*
X183988938Y-92419500D01*
X183986659Y-92419836D01*
X183986652Y-92419836D01*
X183918991Y-92429796D01*
X183918990Y-92429796D01*
X183914148Y-92430509D01*
X183909758Y-92432664D01*
X183909756Y-92432665D01*
X183805894Y-92483659D01*
X183800440Y-92486337D01*
X183762442Y-92524401D01*
X183714624Y-92572302D01*
X183714623Y-92572304D01*
X183710946Y-92575987D01*
X183708659Y-92580666D01*
X183658386Y-92683515D01*
X183655317Y-92689793D01*
X183647762Y-92741578D01*
X183644834Y-92761652D01*
X183644500Y-92763938D01*
X183644500Y-93336062D01*
X181250000Y-93336062D01*
X181250000Y-89011062D01*
X182169500Y-89011062D01*
X182169836Y-89013341D01*
X182169836Y-89013348D01*
X182172584Y-89032014D01*
X182180509Y-89085852D01*
X182182664Y-89090242D01*
X182182665Y-89090244D01*
X182224573Y-89175599D01*
X182236337Y-89199560D01*
X182281282Y-89244427D01*
X182322302Y-89285376D01*
X182322304Y-89285377D01*
X182325987Y-89289054D01*
X182330667Y-89291341D01*
X182330666Y-89291341D01*
X182435402Y-89342537D01*
X182435404Y-89342538D01*
X182439793Y-89344683D01*
X182492724Y-89352405D01*
X182511675Y-89355170D01*
X182511677Y-89355170D01*
X182513938Y-89355500D01*
X182878795Y-89355500D01*
X182923343Y-89373952D01*
X183101048Y-89551656D01*
X183119500Y-89596204D01*
X183119500Y-89689040D01*
X183108882Y-89724041D01*
X183078643Y-89769295D01*
X183078642Y-89769297D01*
X183075195Y-89774456D01*
X183059500Y-89853360D01*
X183059500Y-90186640D01*
X183069752Y-90238178D01*
X183073595Y-90257498D01*
X183075195Y-90265544D01*
X183078642Y-90270703D01*
X183078643Y-90270705D01*
X183108204Y-90314945D01*
X183134981Y-90355019D01*
X183140144Y-90358469D01*
X183219295Y-90411357D01*
X183219297Y-90411358D01*
X183224456Y-90414805D01*
X183230542Y-90416016D01*
X183230543Y-90416016D01*
X183251822Y-90420248D01*
X183303360Y-90430500D01*
X183696640Y-90430500D01*
X183748178Y-90420248D01*
X183769457Y-90416016D01*
X183769458Y-90416016D01*
X183775544Y-90414805D01*
X183785580Y-90408099D01*
X183832872Y-90398694D01*
X183872963Y-90425484D01*
X183882368Y-90472776D01*
X183881401Y-90476481D01*
X183879760Y-90479702D01*
X183878984Y-90484604D01*
X183878983Y-90484606D01*
X183867808Y-90555164D01*
X183860707Y-90600000D01*
X183879760Y-90720298D01*
X183935055Y-90828821D01*
X184021179Y-90914945D01*
X184129702Y-90970240D01*
X184250000Y-90989293D01*
X184370298Y-90970240D01*
X184471401Y-90918726D01*
X184519468Y-90914944D01*
X184528594Y-90918723D01*
X184629702Y-90970240D01*
X184750000Y-90989293D01*
X184870298Y-90970240D01*
X184978821Y-90914945D01*
X185064945Y-90828821D01*
X185120240Y-90720298D01*
X185139293Y-90600000D01*
X185120240Y-90479702D01*
X185064945Y-90371179D01*
X184995812Y-90302046D01*
X184977360Y-90257498D01*
X184995812Y-90212950D01*
X185012252Y-90196510D01*
X185067547Y-90087987D01*
X185086600Y-89967689D01*
X185081853Y-89937719D01*
X185081879Y-89937423D01*
X185081679Y-89936617D01*
X185070997Y-89869171D01*
X185068324Y-89852294D01*
X185068323Y-89852291D01*
X185067547Y-89847391D01*
X185051874Y-89816631D01*
X185052989Y-89816063D01*
X185051366Y-89814586D01*
X185051341Y-89814485D01*
X185048684Y-89810370D01*
X185048316Y-89809647D01*
X185047886Y-89808654D01*
X185047219Y-89807495D01*
X185014504Y-89743288D01*
X185012252Y-89738868D01*
X184984773Y-89711389D01*
X184985538Y-89710624D01*
X184983776Y-89709846D01*
X184982628Y-89708067D01*
X184978537Y-89704842D01*
X184977849Y-89704086D01*
X184974442Y-89701058D01*
X184926128Y-89652744D01*
X184902418Y-89640663D01*
X184871103Y-89603998D01*
X184874887Y-89555928D01*
X184902416Y-89528399D01*
X184928821Y-89514945D01*
X185014945Y-89428821D01*
X185070240Y-89320298D01*
X185089293Y-89200000D01*
X185070240Y-89079702D01*
X185014945Y-88971179D01*
X184928821Y-88885055D01*
X184820298Y-88829760D01*
X184700000Y-88810707D01*
X184579702Y-88829760D01*
X184478599Y-88881274D01*
X184430532Y-88885056D01*
X184421406Y-88881277D01*
X184320298Y-88829760D01*
X184200000Y-88810707D01*
X184079702Y-88829760D01*
X183971179Y-88885055D01*
X183938048Y-88918186D01*
X183893500Y-88936638D01*
X183848952Y-88918186D01*
X183830500Y-88873638D01*
X183830500Y-88413938D01*
X183819491Y-88339148D01*
X183763663Y-88225440D01*
X183718718Y-88180573D01*
X183677698Y-88139624D01*
X183677696Y-88139623D01*
X183674013Y-88135946D01*
X183565011Y-88082665D01*
X183564598Y-88082463D01*
X183564596Y-88082462D01*
X183560207Y-88080317D01*
X183507276Y-88072595D01*
X183488325Y-88069830D01*
X183488323Y-88069830D01*
X183486062Y-88069500D01*
X182513938Y-88069500D01*
X182511659Y-88069836D01*
X182511652Y-88069836D01*
X182443991Y-88079796D01*
X182443990Y-88079796D01*
X182439148Y-88080509D01*
X182434758Y-88082664D01*
X182434756Y-88082665D01*
X182330894Y-88133659D01*
X182325440Y-88136337D01*
X182280573Y-88181282D01*
X182239624Y-88222302D01*
X182239623Y-88222304D01*
X182235946Y-88225987D01*
X182180317Y-88339793D01*
X182179612Y-88344628D01*
X182169834Y-88411652D01*
X182169500Y-88413938D01*
X182169500Y-89011062D01*
X181250000Y-89011062D01*
X181250000Y-86000000D01*
X192110707Y-86000000D01*
X192115454Y-86029970D01*
X192115428Y-86030266D01*
X192115628Y-86031072D01*
X192129760Y-86120298D01*
X192132014Y-86124721D01*
X192145433Y-86151058D01*
X192144318Y-86151626D01*
X192145941Y-86153103D01*
X192145966Y-86153204D01*
X192148623Y-86157319D01*
X192148991Y-86158042D01*
X192149421Y-86159035D01*
X192150087Y-86160192D01*
X192185055Y-86228821D01*
X192212534Y-86256300D01*
X192211769Y-86257065D01*
X192213531Y-86257843D01*
X192214679Y-86259622D01*
X192218770Y-86262847D01*
X192219458Y-86263603D01*
X192222865Y-86266631D01*
X192271179Y-86314945D01*
X192275600Y-86317197D01*
X192275599Y-86317197D01*
X192307665Y-86333536D01*
X192309410Y-86334460D01*
X192310072Y-86334824D01*
X192314158Y-86338045D01*
X192319069Y-86339769D01*
X192319890Y-86340221D01*
X192325489Y-86342617D01*
X192379702Y-86370240D01*
X192421666Y-86376886D01*
X192426035Y-86377989D01*
X192426061Y-86377869D01*
X192429936Y-86378703D01*
X192433676Y-86380017D01*
X192437623Y-86380359D01*
X192437624Y-86380359D01*
X192437901Y-86380383D01*
X192437903Y-86380383D01*
X192439253Y-86380500D01*
X192440609Y-86380500D01*
X192441974Y-86380559D01*
X192441968Y-86380692D01*
X192449381Y-86381276D01*
X192500000Y-86389293D01*
X192550619Y-86381276D01*
X192560473Y-86380500D01*
X192789040Y-86380500D01*
X192824041Y-86391118D01*
X192869295Y-86421357D01*
X192869297Y-86421358D01*
X192874456Y-86424805D01*
X192880542Y-86426016D01*
X192880543Y-86426016D01*
X192901822Y-86430248D01*
X192953360Y-86440500D01*
X193286640Y-86440500D01*
X193338178Y-86430248D01*
X193359457Y-86426016D01*
X193359458Y-86426016D01*
X193365544Y-86424805D01*
X193370703Y-86421358D01*
X193370705Y-86421357D01*
X193449856Y-86368469D01*
X193455019Y-86365019D01*
X193490821Y-86311438D01*
X193511357Y-86280705D01*
X193511358Y-86280703D01*
X193514805Y-86275544D01*
X193530500Y-86196640D01*
X193530500Y-85803360D01*
X193514805Y-85724456D01*
X193511358Y-85719297D01*
X193511357Y-85719295D01*
X193458469Y-85640144D01*
X193455019Y-85634981D01*
X193449856Y-85631531D01*
X193370705Y-85578643D01*
X193370703Y-85578642D01*
X193365544Y-85575195D01*
X193359458Y-85573984D01*
X193359457Y-85573984D01*
X193338178Y-85569752D01*
X193286640Y-85559500D01*
X192953360Y-85559500D01*
X192901822Y-85569752D01*
X192880543Y-85573984D01*
X192880542Y-85573984D01*
X192874456Y-85575195D01*
X192869297Y-85578642D01*
X192869295Y-85578643D01*
X192824041Y-85608882D01*
X192789040Y-85619500D01*
X192560473Y-85619500D01*
X192550618Y-85618724D01*
X192504900Y-85611483D01*
X192500000Y-85610707D01*
X192379702Y-85629760D01*
X192271179Y-85685055D01*
X192185055Y-85771179D01*
X192129760Y-85879702D01*
X192110707Y-86000000D01*
X181250000Y-86000000D01*
X181250000Y-84628864D01*
X181271859Y-84581152D01*
X184596061Y-81714774D01*
X187865603Y-81714774D01*
X187894450Y-81882655D01*
X187897275Y-81889293D01*
X187944968Y-82001377D01*
X187961145Y-82039396D01*
X187963313Y-82042342D01*
X188019157Y-82118225D01*
X188062109Y-82176591D01*
X188064895Y-82178958D01*
X188064898Y-82178961D01*
X188077060Y-82189293D01*
X188191927Y-82286880D01*
X188195189Y-82288546D01*
X188195191Y-82288547D01*
X188263233Y-82323291D01*
X188343635Y-82364346D01*
X188382543Y-82373867D01*
X188506370Y-82404167D01*
X188506376Y-82404168D01*
X188509094Y-82404833D01*
X188511893Y-82405007D01*
X188511895Y-82405007D01*
X188518859Y-82405439D01*
X188518865Y-82405439D01*
X188519845Y-82405500D01*
X188642655Y-82405500D01*
X188644472Y-82405288D01*
X188644475Y-82405288D01*
X188765559Y-82391171D01*
X188765560Y-82391171D01*
X188769195Y-82390747D01*
X188772634Y-82389499D01*
X188772637Y-82389498D01*
X188846515Y-82362681D01*
X188929315Y-82332626D01*
X188932377Y-82330619D01*
X188932380Y-82330617D01*
X189002707Y-82284508D01*
X189071769Y-82239229D01*
X189188916Y-82115566D01*
X189274473Y-81968269D01*
X189323849Y-81805241D01*
X189324175Y-81800000D01*
X189334170Y-81638881D01*
X189334397Y-81635226D01*
X189330990Y-81615395D01*
X189323392Y-81571179D01*
X189311161Y-81500000D01*
X197010707Y-81500000D01*
X197011483Y-81504900D01*
X197013480Y-81517510D01*
X197029760Y-81620298D01*
X197085055Y-81728821D01*
X197171179Y-81814945D01*
X197279702Y-81870240D01*
X197400000Y-81889293D01*
X197520298Y-81870240D01*
X197628821Y-81814945D01*
X197714945Y-81728821D01*
X197770240Y-81620298D01*
X197786520Y-81517510D01*
X197788517Y-81504900D01*
X197789293Y-81500000D01*
X197770240Y-81379702D01*
X197714945Y-81271179D01*
X197628821Y-81185055D01*
X197520298Y-81129760D01*
X197400000Y-81110707D01*
X197279702Y-81129760D01*
X197171179Y-81185055D01*
X197085055Y-81271179D01*
X197029760Y-81379702D01*
X197010707Y-81500000D01*
X189311161Y-81500000D01*
X189305550Y-81467345D01*
X189247321Y-81330499D01*
X189240288Y-81313971D01*
X189240287Y-81313969D01*
X189238855Y-81310604D01*
X189182800Y-81234434D01*
X189140060Y-81176356D01*
X189140059Y-81176355D01*
X189137891Y-81173409D01*
X189135105Y-81171042D01*
X189135102Y-81171039D01*
X189010865Y-81065492D01*
X189008073Y-81063120D01*
X189004811Y-81061454D01*
X189004809Y-81061453D01*
X188916037Y-81016124D01*
X188856365Y-80985654D01*
X188817457Y-80976133D01*
X188693630Y-80945833D01*
X188693624Y-80945832D01*
X188690906Y-80945167D01*
X188688107Y-80944993D01*
X188688105Y-80944993D01*
X188681141Y-80944561D01*
X188681135Y-80944561D01*
X188680155Y-80944500D01*
X188557345Y-80944500D01*
X188555528Y-80944712D01*
X188555525Y-80944712D01*
X188434441Y-80958829D01*
X188434440Y-80958829D01*
X188430805Y-80959253D01*
X188427366Y-80960501D01*
X188427363Y-80960502D01*
X188360466Y-80984785D01*
X188270685Y-81017374D01*
X188267623Y-81019381D01*
X188267620Y-81019383D01*
X188203453Y-81061453D01*
X188128231Y-81110771D01*
X188125711Y-81113431D01*
X188125710Y-81113432D01*
X188108107Y-81132014D01*
X188011084Y-81234434D01*
X187925527Y-81381731D01*
X187876151Y-81544759D01*
X187875925Y-81548407D01*
X187875924Y-81548411D01*
X187869622Y-81650000D01*
X187865603Y-81714774D01*
X184596061Y-81714774D01*
X186050019Y-80461062D01*
X189219500Y-80461062D01*
X189230509Y-80535852D01*
X189286337Y-80649560D01*
X189307053Y-80670240D01*
X189372302Y-80735376D01*
X189372304Y-80735377D01*
X189375987Y-80739054D01*
X189380667Y-80741341D01*
X189380666Y-80741341D01*
X189485402Y-80792537D01*
X189485404Y-80792538D01*
X189489793Y-80794683D01*
X189542724Y-80802405D01*
X189561675Y-80805170D01*
X189561677Y-80805170D01*
X189563938Y-80805500D01*
X190836062Y-80805500D01*
X190838341Y-80805164D01*
X190838348Y-80805164D01*
X190906009Y-80795204D01*
X190906010Y-80795204D01*
X190910852Y-80794491D01*
X190915242Y-80792336D01*
X190915244Y-80792335D01*
X191019890Y-80740956D01*
X191019891Y-80740956D01*
X191024560Y-80738663D01*
X191092864Y-80670240D01*
X191110376Y-80652698D01*
X191110377Y-80652696D01*
X191114054Y-80649013D01*
X191169683Y-80535207D01*
X191177405Y-80482276D01*
X191180170Y-80463325D01*
X191180170Y-80463323D01*
X191180500Y-80461062D01*
X191180500Y-78888938D01*
X191177044Y-78865454D01*
X191170204Y-78818991D01*
X191170204Y-78818990D01*
X191169491Y-78814148D01*
X191113663Y-78700440D01*
X191068718Y-78655573D01*
X191027698Y-78614624D01*
X191027696Y-78614623D01*
X191024013Y-78610946D01*
X190915011Y-78557665D01*
X190914598Y-78557463D01*
X190914596Y-78557462D01*
X190910207Y-78555317D01*
X190857276Y-78547595D01*
X190838325Y-78544830D01*
X190838323Y-78544830D01*
X190836062Y-78544500D01*
X189563938Y-78544500D01*
X189561659Y-78544836D01*
X189561652Y-78544836D01*
X189493991Y-78554796D01*
X189493990Y-78554796D01*
X189489148Y-78555509D01*
X189484758Y-78557664D01*
X189484756Y-78557665D01*
X189380894Y-78608659D01*
X189375440Y-78611337D01*
X189330573Y-78656282D01*
X189289624Y-78697302D01*
X189289623Y-78697304D01*
X189285946Y-78700987D01*
X189230317Y-78814793D01*
X189229612Y-78819628D01*
X189219834Y-78886652D01*
X189219500Y-78888938D01*
X189219500Y-80461062D01*
X186050019Y-80461062D01*
X188272698Y-78544500D01*
X189582270Y-77415288D01*
X189623411Y-77400000D01*
X199687000Y-77400000D01*
X199731548Y-77418452D01*
G37*
%TD.AperFunction*%
%TD*%
M02*
