%TF.GenerationSoftware,KiCad,Pcbnew,(6.0.7-1)-1*%
%TF.CreationDate,2022-09-14T15:44:29-04:00*%
%TF.ProjectId,phocuser,70686f63-7573-4657-922e-6b696361645f,rev?*%
%TF.SameCoordinates,Original*%
%TF.FileFunction,Legend,Bot*%
%TF.FilePolarity,Positive*%
%FSLAX46Y46*%
G04 Gerber Fmt 4.6, Leading zero omitted, Abs format (unit mm)*
G04 Created by KiCad (PCBNEW (6.0.7-1)-1) date 2022-09-14 15:44:29*
%MOMM*%
%LPD*%
G01*
G04 APERTURE LIST*
%ADD10C,0.100000*%
%ADD11C,0.150000*%
%ADD12C,0.120000*%
G04 APERTURE END LIST*
D10*
%TO.C,C1*%
X191683333Y-97078571D02*
X191707142Y-97102380D01*
X191778571Y-97126190D01*
X191826190Y-97126190D01*
X191897619Y-97102380D01*
X191945238Y-97054761D01*
X191969047Y-97007142D01*
X191992857Y-96911904D01*
X191992857Y-96840476D01*
X191969047Y-96745238D01*
X191945238Y-96697619D01*
X191897619Y-96650000D01*
X191826190Y-96626190D01*
X191778571Y-96626190D01*
X191707142Y-96650000D01*
X191683333Y-96673809D01*
X191207142Y-97126190D02*
X191492857Y-97126190D01*
X191350000Y-97126190D02*
X191350000Y-96626190D01*
X191397619Y-96697619D01*
X191445238Y-96745238D01*
X191492857Y-96769047D01*
%TO.C,C2*%
X187333333Y-96578571D02*
X187357142Y-96602380D01*
X187428571Y-96626190D01*
X187476190Y-96626190D01*
X187547619Y-96602380D01*
X187595238Y-96554761D01*
X187619047Y-96507142D01*
X187642857Y-96411904D01*
X187642857Y-96340476D01*
X187619047Y-96245238D01*
X187595238Y-96197619D01*
X187547619Y-96150000D01*
X187476190Y-96126190D01*
X187428571Y-96126190D01*
X187357142Y-96150000D01*
X187333333Y-96173809D01*
X187142857Y-96173809D02*
X187119047Y-96150000D01*
X187071428Y-96126190D01*
X186952380Y-96126190D01*
X186904761Y-96150000D01*
X186880952Y-96173809D01*
X186857142Y-96221428D01*
X186857142Y-96269047D01*
X186880952Y-96340476D01*
X187166666Y-96626190D01*
X186857142Y-96626190D01*
%TO.C,C3*%
X192678571Y-94316666D02*
X192702380Y-94292857D01*
X192726190Y-94221428D01*
X192726190Y-94173809D01*
X192702380Y-94102380D01*
X192654761Y-94054761D01*
X192607142Y-94030952D01*
X192511904Y-94007142D01*
X192440476Y-94007142D01*
X192345238Y-94030952D01*
X192297619Y-94054761D01*
X192250000Y-94102380D01*
X192226190Y-94173809D01*
X192226190Y-94221428D01*
X192250000Y-94292857D01*
X192273809Y-94316666D01*
X192226190Y-94483333D02*
X192226190Y-94792857D01*
X192416666Y-94626190D01*
X192416666Y-94697619D01*
X192440476Y-94745238D01*
X192464285Y-94769047D01*
X192511904Y-94792857D01*
X192630952Y-94792857D01*
X192678571Y-94769047D01*
X192702380Y-94745238D01*
X192726190Y-94697619D01*
X192726190Y-94554761D01*
X192702380Y-94507142D01*
X192678571Y-94483333D01*
%TO.C,C4*%
X196778571Y-87836666D02*
X196802380Y-87812857D01*
X196826190Y-87741428D01*
X196826190Y-87693809D01*
X196802380Y-87622380D01*
X196754761Y-87574761D01*
X196707142Y-87550952D01*
X196611904Y-87527142D01*
X196540476Y-87527142D01*
X196445238Y-87550952D01*
X196397619Y-87574761D01*
X196350000Y-87622380D01*
X196326190Y-87693809D01*
X196326190Y-87741428D01*
X196350000Y-87812857D01*
X196373809Y-87836666D01*
X196492857Y-88265238D02*
X196826190Y-88265238D01*
X196302380Y-88146190D02*
X196659523Y-88027142D01*
X196659523Y-88336666D01*
%TO.C,C5*%
X182778571Y-90416666D02*
X182802380Y-90392857D01*
X182826190Y-90321428D01*
X182826190Y-90273809D01*
X182802380Y-90202380D01*
X182754761Y-90154761D01*
X182707142Y-90130952D01*
X182611904Y-90107142D01*
X182540476Y-90107142D01*
X182445238Y-90130952D01*
X182397619Y-90154761D01*
X182350000Y-90202380D01*
X182326190Y-90273809D01*
X182326190Y-90321428D01*
X182350000Y-90392857D01*
X182373809Y-90416666D01*
X182326190Y-90869047D02*
X182326190Y-90630952D01*
X182564285Y-90607142D01*
X182540476Y-90630952D01*
X182516666Y-90678571D01*
X182516666Y-90797619D01*
X182540476Y-90845238D01*
X182564285Y-90869047D01*
X182611904Y-90892857D01*
X182730952Y-90892857D01*
X182778571Y-90869047D01*
X182802380Y-90845238D01*
X182826190Y-90797619D01*
X182826190Y-90678571D01*
X182802380Y-90630952D01*
X182778571Y-90607142D01*
%TO.C,C6*%
X193978571Y-93216666D02*
X194002380Y-93192857D01*
X194026190Y-93121428D01*
X194026190Y-93073809D01*
X194002380Y-93002380D01*
X193954761Y-92954761D01*
X193907142Y-92930952D01*
X193811904Y-92907142D01*
X193740476Y-92907142D01*
X193645238Y-92930952D01*
X193597619Y-92954761D01*
X193550000Y-93002380D01*
X193526190Y-93073809D01*
X193526190Y-93121428D01*
X193550000Y-93192857D01*
X193573809Y-93216666D01*
X193526190Y-93645238D02*
X193526190Y-93550000D01*
X193550000Y-93502380D01*
X193573809Y-93478571D01*
X193645238Y-93430952D01*
X193740476Y-93407142D01*
X193930952Y-93407142D01*
X193978571Y-93430952D01*
X194002380Y-93454761D01*
X194026190Y-93502380D01*
X194026190Y-93597619D01*
X194002380Y-93645238D01*
X193978571Y-93669047D01*
X193930952Y-93692857D01*
X193811904Y-93692857D01*
X193764285Y-93669047D01*
X193740476Y-93645238D01*
X193716666Y-93597619D01*
X193716666Y-93502380D01*
X193740476Y-93454761D01*
X193764285Y-93430952D01*
X193811904Y-93407142D01*
%TO.C,C7*%
X193683333Y-87078571D02*
X193707142Y-87102380D01*
X193778571Y-87126190D01*
X193826190Y-87126190D01*
X193897619Y-87102380D01*
X193945238Y-87054761D01*
X193969047Y-87007142D01*
X193992857Y-86911904D01*
X193992857Y-86840476D01*
X193969047Y-86745238D01*
X193945238Y-86697619D01*
X193897619Y-86650000D01*
X193826190Y-86626190D01*
X193778571Y-86626190D01*
X193707142Y-86650000D01*
X193683333Y-86673809D01*
X193516666Y-86626190D02*
X193183333Y-86626190D01*
X193397619Y-87126190D01*
%TO.C,C8*%
X184678571Y-96216666D02*
X184702380Y-96192857D01*
X184726190Y-96121428D01*
X184726190Y-96073809D01*
X184702380Y-96002380D01*
X184654761Y-95954761D01*
X184607142Y-95930952D01*
X184511904Y-95907142D01*
X184440476Y-95907142D01*
X184345238Y-95930952D01*
X184297619Y-95954761D01*
X184250000Y-96002380D01*
X184226190Y-96073809D01*
X184226190Y-96121428D01*
X184250000Y-96192857D01*
X184273809Y-96216666D01*
X184440476Y-96502380D02*
X184416666Y-96454761D01*
X184392857Y-96430952D01*
X184345238Y-96407142D01*
X184321428Y-96407142D01*
X184273809Y-96430952D01*
X184250000Y-96454761D01*
X184226190Y-96502380D01*
X184226190Y-96597619D01*
X184250000Y-96645238D01*
X184273809Y-96669047D01*
X184321428Y-96692857D01*
X184345238Y-96692857D01*
X184392857Y-96669047D01*
X184416666Y-96645238D01*
X184440476Y-96597619D01*
X184440476Y-96502380D01*
X184464285Y-96454761D01*
X184488095Y-96430952D01*
X184535714Y-96407142D01*
X184630952Y-96407142D01*
X184678571Y-96430952D01*
X184702380Y-96454761D01*
X184726190Y-96502380D01*
X184726190Y-96597619D01*
X184702380Y-96645238D01*
X184678571Y-96669047D01*
X184630952Y-96692857D01*
X184535714Y-96692857D01*
X184488095Y-96669047D01*
X184464285Y-96645238D01*
X184440476Y-96597619D01*
%TO.C,C9*%
X195078571Y-93216666D02*
X195102380Y-93192857D01*
X195126190Y-93121428D01*
X195126190Y-93073809D01*
X195102380Y-93002380D01*
X195054761Y-92954761D01*
X195007142Y-92930952D01*
X194911904Y-92907142D01*
X194840476Y-92907142D01*
X194745238Y-92930952D01*
X194697619Y-92954761D01*
X194650000Y-93002380D01*
X194626190Y-93073809D01*
X194626190Y-93121428D01*
X194650000Y-93192857D01*
X194673809Y-93216666D01*
X195126190Y-93454761D02*
X195126190Y-93550000D01*
X195102380Y-93597619D01*
X195078571Y-93621428D01*
X195007142Y-93669047D01*
X194911904Y-93692857D01*
X194721428Y-93692857D01*
X194673809Y-93669047D01*
X194650000Y-93645238D01*
X194626190Y-93597619D01*
X194626190Y-93502380D01*
X194650000Y-93454761D01*
X194673809Y-93430952D01*
X194721428Y-93407142D01*
X194840476Y-93407142D01*
X194888095Y-93430952D01*
X194911904Y-93454761D01*
X194935714Y-93502380D01*
X194935714Y-93597619D01*
X194911904Y-93645238D01*
X194888095Y-93669047D01*
X194840476Y-93692857D01*
%TO.C,R1*%
X191683333Y-96426190D02*
X191850000Y-96188095D01*
X191969047Y-96426190D02*
X191969047Y-95926190D01*
X191778571Y-95926190D01*
X191730952Y-95950000D01*
X191707142Y-95973809D01*
X191683333Y-96021428D01*
X191683333Y-96092857D01*
X191707142Y-96140476D01*
X191730952Y-96164285D01*
X191778571Y-96188095D01*
X191969047Y-96188095D01*
X191207142Y-96426190D02*
X191492857Y-96426190D01*
X191350000Y-96426190D02*
X191350000Y-95926190D01*
X191397619Y-95997619D01*
X191445238Y-96045238D01*
X191492857Y-96069047D01*
%TO.C,R2*%
X195326190Y-86716666D02*
X195088095Y-86550000D01*
X195326190Y-86430952D02*
X194826190Y-86430952D01*
X194826190Y-86621428D01*
X194850000Y-86669047D01*
X194873809Y-86692857D01*
X194921428Y-86716666D01*
X194992857Y-86716666D01*
X195040476Y-86692857D01*
X195064285Y-86669047D01*
X195088095Y-86621428D01*
X195088095Y-86430952D01*
X194873809Y-86907142D02*
X194850000Y-86930952D01*
X194826190Y-86978571D01*
X194826190Y-87097619D01*
X194850000Y-87145238D01*
X194873809Y-87169047D01*
X194921428Y-87192857D01*
X194969047Y-87192857D01*
X195040476Y-87169047D01*
X195326190Y-86883333D01*
X195326190Y-87192857D01*
%TO.C,R3*%
X183226190Y-85416666D02*
X182988095Y-85250000D01*
X183226190Y-85130952D02*
X182726190Y-85130952D01*
X182726190Y-85321428D01*
X182750000Y-85369047D01*
X182773809Y-85392857D01*
X182821428Y-85416666D01*
X182892857Y-85416666D01*
X182940476Y-85392857D01*
X182964285Y-85369047D01*
X182988095Y-85321428D01*
X182988095Y-85130952D01*
X182726190Y-85583333D02*
X182726190Y-85892857D01*
X182916666Y-85726190D01*
X182916666Y-85797619D01*
X182940476Y-85845238D01*
X182964285Y-85869047D01*
X183011904Y-85892857D01*
X183130952Y-85892857D01*
X183178571Y-85869047D01*
X183202380Y-85845238D01*
X183226190Y-85797619D01*
X183226190Y-85654761D01*
X183202380Y-85607142D01*
X183178571Y-85583333D01*
D11*
%TO.C,U1*%
X184761904Y-81962380D02*
X184761904Y-82771904D01*
X184714285Y-82867142D01*
X184666666Y-82914761D01*
X184571428Y-82962380D01*
X184380952Y-82962380D01*
X184285714Y-82914761D01*
X184238095Y-82867142D01*
X184190476Y-82771904D01*
X184190476Y-81962380D01*
X183190476Y-82962380D02*
X183761904Y-82962380D01*
X183476190Y-82962380D02*
X183476190Y-81962380D01*
X183571428Y-82105238D01*
X183666666Y-82200476D01*
X183761904Y-82248095D01*
D12*
%TO.C,C1*%
X190007836Y-96360000D02*
X189792164Y-96360000D01*
X190007836Y-95640000D02*
X189792164Y-95640000D01*
%TO.C,C2*%
X187461252Y-94265000D02*
X186938748Y-94265000D01*
X187461252Y-95735000D02*
X186938748Y-95735000D01*
%TO.C,C3*%
X191960000Y-94787836D02*
X191960000Y-94572164D01*
X191240000Y-94787836D02*
X191240000Y-94572164D01*
%TO.C,C4*%
X196960000Y-89507836D02*
X196960000Y-89292164D01*
X196240000Y-89507836D02*
X196240000Y-89292164D01*
%TO.C,C5*%
X183140000Y-90607836D02*
X183140000Y-90392164D01*
X183860000Y-90607836D02*
X183860000Y-90392164D01*
%TO.C,C6*%
X193440000Y-91792164D02*
X193440000Y-92007836D01*
X194160000Y-91792164D02*
X194160000Y-92007836D01*
%TO.C,C7*%
X193492164Y-86360000D02*
X193707836Y-86360000D01*
X193492164Y-85640000D02*
X193707836Y-85640000D01*
%TO.C,C8*%
X183765000Y-93738748D02*
X183765000Y-94261252D01*
X185235000Y-93738748D02*
X185235000Y-94261252D01*
%TO.C,C9*%
X194540000Y-91772164D02*
X194540000Y-91987836D01*
X195260000Y-91772164D02*
X195260000Y-91987836D01*
%TO.C,R1*%
X189746359Y-95380000D02*
X190053641Y-95380000D01*
X189746359Y-94620000D02*
X190053641Y-94620000D01*
%TO.C,R2*%
X194365000Y-88772936D02*
X194365000Y-89227064D01*
X195835000Y-88772936D02*
X195835000Y-89227064D01*
%TO.C,R3*%
X183735000Y-88027064D02*
X183735000Y-87572936D01*
X182265000Y-88027064D02*
X182265000Y-87572936D01*
%TD*%
M02*
