%TF.GenerationSoftware,KiCad,Pcbnew,(6.0.7-1)-1*%
%TF.CreationDate,2022-09-14T15:44:29-04:00*%
%TF.ProjectId,phocuser,70686f63-7573-4657-922e-6b696361645f,rev?*%
%TF.SameCoordinates,Original*%
%TF.FileFunction,Copper,L3,Inr*%
%TF.FilePolarity,Positive*%
%FSLAX46Y46*%
G04 Gerber Fmt 4.6, Leading zero omitted, Abs format (unit mm)*
G04 Created by KiCad (PCBNEW (6.0.7-1)-1) date 2022-09-14 15:44:29*
%MOMM*%
%LPD*%
G01*
G04 APERTURE LIST*
G04 Aperture macros list*
%AMRoundRect*
0 Rectangle with rounded corners*
0 $1 Rounding radius*
0 $2 $3 $4 $5 $6 $7 $8 $9 X,Y pos of 4 corners*
0 Add a 4 corners polygon primitive as box body*
4,1,4,$2,$3,$4,$5,$6,$7,$8,$9,$2,$3,0*
0 Add four circle primitives for the rounded corners*
1,1,$1+$1,$2,$3*
1,1,$1+$1,$4,$5*
1,1,$1+$1,$6,$7*
1,1,$1+$1,$8,$9*
0 Add four rect primitives between the rounded corners*
20,1,$1+$1,$2,$3,$4,$5,0*
20,1,$1+$1,$4,$5,$6,$7,0*
20,1,$1+$1,$6,$7,$8,$9,0*
20,1,$1+$1,$8,$9,$2,$3,0*%
G04 Aperture macros list end*
%TA.AperFunction,ComponentPad*%
%ADD10RoundRect,0.250000X-0.600000X-0.725000X0.600000X-0.725000X0.600000X0.725000X-0.600000X0.725000X0*%
%TD*%
%TA.AperFunction,ComponentPad*%
%ADD11O,1.700000X1.950000*%
%TD*%
%TA.AperFunction,ComponentPad*%
%ADD12C,0.500000*%
%TD*%
%TA.AperFunction,ComponentPad*%
%ADD13RoundRect,0.250000X-0.600000X-0.750000X0.600000X-0.750000X0.600000X0.750000X-0.600000X0.750000X0*%
%TD*%
%TA.AperFunction,ComponentPad*%
%ADD14O,1.700000X2.000000*%
%TD*%
%TA.AperFunction,ComponentPad*%
%ADD15O,1.158000X2.316000*%
%TD*%
%TA.AperFunction,ComponentPad*%
%ADD16O,1.200000X2.400000*%
%TD*%
%TA.AperFunction,ComponentPad*%
%ADD17RoundRect,0.250000X-0.350000X-0.625000X0.350000X-0.625000X0.350000X0.625000X-0.350000X0.625000X0*%
%TD*%
%TA.AperFunction,ComponentPad*%
%ADD18O,1.200000X1.750000*%
%TD*%
%TA.AperFunction,ComponentPad*%
%ADD19RoundRect,0.250000X-0.625000X0.350000X-0.625000X-0.350000X0.625000X-0.350000X0.625000X0.350000X0*%
%TD*%
%TA.AperFunction,ComponentPad*%
%ADD20O,1.750000X1.200000*%
%TD*%
%TA.AperFunction,ViaPad*%
%ADD21C,0.508000*%
%TD*%
%TA.AperFunction,Conductor*%
%ADD22C,1.000000*%
%TD*%
%TA.AperFunction,Conductor*%
%ADD23C,0.500000*%
%TD*%
G04 APERTURE END LIST*
D10*
%TO.N,Net-(J1-Pad1)*%
%TO.C,J1*%
X185250000Y-101000000D03*
D11*
%TO.N,Net-(J1-Pad2)*%
X187750000Y-101000000D03*
%TO.N,Net-(J1-Pad3)*%
X190250000Y-101000000D03*
%TO.N,Net-(J1-Pad4)*%
X192750000Y-101000000D03*
%TD*%
D12*
%TO.N,GND*%
%TO.C,U2*%
X190550000Y-88700000D03*
X190550000Y-91800000D03*
X186950000Y-90250000D03*
X189350000Y-90250000D03*
X188150000Y-90250000D03*
X189350000Y-91800000D03*
X189350000Y-88700000D03*
X186950000Y-88700000D03*
X186950000Y-91800000D03*
X190550000Y-90250000D03*
X188150000Y-88700000D03*
X188150000Y-91800000D03*
%TD*%
D13*
%TO.N,+12V*%
%TO.C,J3*%
X190200000Y-79675000D03*
D14*
%TO.N,GND*%
X192700000Y-79675000D03*
%TD*%
D15*
%TO.N,GND*%
%TO.C,J4*%
X170180000Y-99275000D03*
X178820000Y-99275000D03*
D16*
X170180000Y-103100000D03*
X178820000Y-103100000D03*
%TD*%
D12*
%TO.N,GND*%
%TO.C,U3*%
X175250000Y-90000000D03*
X173250000Y-92000000D03*
X175250000Y-92000000D03*
X173250000Y-90000000D03*
%TD*%
D17*
%TO.N,VCC*%
%TO.C,J5*%
X187200000Y-67750000D03*
D18*
%TO.N,ACC0_A*%
X189200000Y-67750000D03*
%TO.N,ACC0_B*%
X191200000Y-67750000D03*
%TO.N,GND*%
X193200000Y-67750000D03*
%TD*%
D17*
%TO.N,VCC*%
%TO.C,J6*%
X187200000Y-73350000D03*
D18*
%TO.N,ACC1_A*%
X189200000Y-73350000D03*
%TO.N,ACC1_B*%
X191200000Y-73350000D03*
%TO.N,GND*%
X193200000Y-73350000D03*
%TD*%
D19*
%TO.N,GND*%
%TO.C,J7*%
X168510000Y-84740000D03*
D20*
%TO.N,Net-(J7-Pad2)*%
X168510000Y-86740000D03*
%TO.N,Net-(J7-Pad3)*%
X168510000Y-88740000D03*
%TO.N,Net-(C16-Pad1)*%
X168510000Y-90740000D03*
%TD*%
D19*
%TO.N,ACC2_A*%
%TO.C,J8*%
X168500000Y-73000000D03*
D20*
%TO.N,ACC2_B*%
X168500000Y-75000000D03*
%TO.N,ACC2_C*%
X168500000Y-77000000D03*
%TO.N,GND*%
X168500000Y-79000000D03*
%TD*%
D21*
%TO.N,ACC0_B*%
X171700000Y-67100000D03*
%TO.N,ACC0_A*%
X171700000Y-68200000D03*
%TO.N,/Vmeas*%
X195200000Y-70200000D03*
%TO.N,GND*%
X197300000Y-78000000D03*
%TO.N,+12V*%
X197400000Y-81500000D03*
%TO.N,GND*%
X196400000Y-81500000D03*
X179900000Y-78700000D03*
%TO.N,Net-(U1-Pad16)*%
X180600000Y-81800000D03*
%TO.N,Net-(U1-Pad15)*%
X181700000Y-81800000D03*
%TO.N,GND*%
X172000000Y-95100000D03*
X171200000Y-91000000D03*
X179800000Y-84750001D03*
X177200000Y-71000000D03*
X177100000Y-94300000D03*
X173900000Y-83500000D03*
X177100000Y-90800000D03*
X193100000Y-88700000D03*
X170500000Y-79900000D03*
X177200000Y-68500000D03*
X176000000Y-95100000D03*
X173000000Y-95100000D03*
X174600000Y-86500000D03*
X177200000Y-72300000D03*
X171600000Y-66000000D03*
X188800000Y-93600000D03*
X173100000Y-101600000D03*
X192600000Y-88700000D03*
X177000000Y-95100000D03*
X185500000Y-87800000D03*
X179600000Y-83550001D03*
X179100000Y-83550001D03*
X180500000Y-79200000D03*
X183000000Y-66000000D03*
X179800000Y-101100000D03*
X179000000Y-94900000D03*
X175900000Y-101600000D03*
%TO.N,Net-(C1-Pad1)*%
X190059890Y-93699281D03*
%TO.N,Net-(C2-Pad1)*%
X189425433Y-93706895D03*
X189400000Y-94200000D03*
%TO.N,Net-(C3-Pad2)*%
X191200000Y-93600000D03*
%TO.N,Net-(C3-Pad1)*%
X190600000Y-94200000D03*
%TO.N,Net-(C4-Pad1)*%
X194100000Y-90000000D03*
X193600000Y-90000000D03*
%TO.N,Net-(C5-Pad2)*%
X184697307Y-89967689D03*
X184197307Y-89967689D03*
%TO.N,Net-(C6-Pad2)*%
X193100000Y-92300000D03*
%TO.N,~{MOTOR_EN}*%
X179800000Y-93200000D03*
%TO.N,DIAG1*%
X179800000Y-92400000D03*
%TO.N,DIAG0*%
X179400000Y-91200000D03*
%TO.N,DIR*%
X184000000Y-80300000D03*
%TO.N,STEP*%
X184800000Y-78100000D03*
%TO.N,MISO*%
X184800000Y-77000000D03*
%TO.N,MOSI*%
X184800000Y-75900000D03*
%TO.N,SCLK*%
X184800000Y-74800000D03*
%TO.N,~{CS1}*%
X184800000Y-73700000D03*
%TO.N,TMCCLK*%
X184800000Y-72600000D03*
%TO.N,+12V*%
X192500000Y-86000000D03*
X184500000Y-92250000D03*
X184500000Y-91750000D03*
X193100000Y-91400000D03*
X192600000Y-91400000D03*
%TO.N,VCC*%
X180500000Y-72800000D03*
X182750000Y-79250000D03*
X182750000Y-81650000D03*
X177400000Y-82150001D03*
X179800000Y-77200000D03*
X177400000Y-82750001D03*
%TO.N,~{RESET}*%
X174800000Y-67300000D03*
X174750000Y-76500000D03*
%TO.N,SWDCLK*%
X171750000Y-72500000D03*
%TO.N,SWDIO*%
X171750000Y-71500000D03*
%TO.N,Net-(C11-Pad1)*%
X177250000Y-97750000D03*
X171734322Y-97750000D03*
%TO.N,Net-(C14-Pad2)*%
X173300000Y-87900000D03*
X176187500Y-93312500D03*
%TO.N,THERM0*%
X182800000Y-69300000D03*
%TO.N,TXD*%
X171700000Y-77000000D03*
%TO.N,RXD*%
X171700000Y-78100000D03*
%TO.N,Net-(R17-Pad2)*%
X171800000Y-78900000D03*
%TO.N,Net-(R18-Pad2)*%
X172900000Y-78900000D03*
%TO.N,Net-(R19-Pad2)*%
X173900000Y-78900000D03*
%TO.N,Net-(J1-Pad4)*%
X192700000Y-90600000D03*
X193200000Y-90600000D03*
%TO.N,Net-(J1-Pad3)*%
X193100000Y-89400000D03*
X192600000Y-89400000D03*
%TO.N,Net-(J1-Pad2)*%
X184200000Y-89200000D03*
X184700000Y-89200000D03*
%TO.N,Net-(J1-Pad1)*%
X184250000Y-90600000D03*
X184750000Y-90600000D03*
%TD*%
D22*
%TO.N,Net-(J1-Pad4)*%
X192750000Y-97550000D02*
X194800000Y-95500000D01*
X194800000Y-95500000D02*
X194800000Y-92000000D01*
D23*
X193200000Y-90600000D02*
X193400000Y-90600000D01*
D22*
X192750000Y-101000000D02*
X192750000Y-97550000D01*
X194800000Y-92000000D02*
X194100000Y-91300000D01*
D23*
X193400000Y-90600000D02*
X194100000Y-91300000D01*
%TO.N,Net-(J1-Pad3)*%
X192600000Y-89400000D02*
X193100000Y-89400000D01*
D22*
X192400000Y-93000000D02*
X191700000Y-92300000D01*
X191700000Y-92300000D02*
X191700000Y-90500000D01*
D23*
X192600000Y-89400000D02*
X191700000Y-90300000D01*
X191700000Y-90300000D02*
X191700000Y-90500000D01*
D22*
X190250000Y-101000000D02*
X190250000Y-97450000D01*
X192400000Y-95300000D02*
X192400000Y-93000000D01*
X190250000Y-97450000D02*
X192400000Y-95300000D01*
%TO.N,Net-(J1-Pad2)*%
X186000000Y-95700000D02*
X187750000Y-97450000D01*
D23*
X184200000Y-89200000D02*
X185500000Y-89200000D01*
D22*
X187750000Y-97450000D02*
X187750000Y-101000000D01*
X186000000Y-89700000D02*
X186000000Y-95700000D01*
X185500000Y-89200000D02*
X186000000Y-89700000D01*
%TO.N,Net-(J1-Pad1)*%
X183200000Y-90900000D02*
X183500000Y-90600000D01*
X185250000Y-101000000D02*
X185250000Y-97450000D01*
X183200000Y-95400000D02*
X183200000Y-90900000D01*
D23*
X184750000Y-90600000D02*
X183500000Y-90600000D01*
D22*
X185250000Y-97450000D02*
X183200000Y-95400000D01*
%TD*%
%TA.AperFunction,Conductor*%
%TO.N,GND*%
G36*
X199681548Y-65318452D02*
G01*
X199700000Y-65363000D01*
X199700000Y-76637000D01*
X199681548Y-76681548D01*
X199637000Y-76700000D01*
X189400000Y-76700000D01*
X189391392Y-76707520D01*
X189391391Y-76707520D01*
X185498779Y-80107963D01*
X180700000Y-84300000D01*
X180715257Y-87427681D01*
X180799691Y-104736693D01*
X180781457Y-104781330D01*
X180736692Y-104800000D01*
X179368452Y-104800000D01*
X179323904Y-104781548D01*
X179305452Y-104737000D01*
X179323904Y-104692452D01*
X179342377Y-104679650D01*
X179372107Y-104666133D01*
X179377278Y-104663159D01*
X179544840Y-104544299D01*
X179549355Y-104540401D01*
X179691414Y-104392004D01*
X179695112Y-104387322D01*
X179806549Y-104214738D01*
X179809295Y-104209440D01*
X179886085Y-104018900D01*
X179887779Y-104013180D01*
X179927294Y-103810836D01*
X179927839Y-103806353D01*
X179927963Y-103803803D01*
X179928000Y-103802297D01*
X179928000Y-103366533D01*
X179924329Y-103357671D01*
X179915467Y-103354000D01*
X177724533Y-103354000D01*
X177715671Y-103357671D01*
X177712000Y-103366533D01*
X177712000Y-103751319D01*
X177712143Y-103754326D01*
X177726756Y-103907487D01*
X177727885Y-103913348D01*
X177785713Y-104110465D01*
X177787933Y-104116017D01*
X177881994Y-104298648D01*
X177885213Y-104303662D01*
X178012117Y-104465218D01*
X178016233Y-104469539D01*
X178171389Y-104604177D01*
X178176250Y-104607645D01*
X178305587Y-104682468D01*
X178334907Y-104720747D01*
X178328571Y-104768548D01*
X178290292Y-104797868D01*
X178274039Y-104800000D01*
X170728452Y-104800000D01*
X170683904Y-104781548D01*
X170665452Y-104737000D01*
X170683904Y-104692452D01*
X170702377Y-104679650D01*
X170732107Y-104666133D01*
X170737278Y-104663159D01*
X170904840Y-104544299D01*
X170909355Y-104540401D01*
X171051414Y-104392004D01*
X171055112Y-104387322D01*
X171166549Y-104214738D01*
X171169295Y-104209440D01*
X171246085Y-104018900D01*
X171247779Y-104013180D01*
X171287294Y-103810836D01*
X171287839Y-103806353D01*
X171287963Y-103803803D01*
X171288000Y-103802297D01*
X171288000Y-103366533D01*
X171284329Y-103357671D01*
X171275467Y-103354000D01*
X169084533Y-103354000D01*
X169075671Y-103357671D01*
X169072000Y-103366533D01*
X169072000Y-103751319D01*
X169072143Y-103754326D01*
X169086756Y-103907487D01*
X169087885Y-103913348D01*
X169145713Y-104110465D01*
X169147933Y-104116017D01*
X169241994Y-104298648D01*
X169245213Y-104303662D01*
X169372117Y-104465218D01*
X169376233Y-104469539D01*
X169531389Y-104604177D01*
X169536250Y-104607645D01*
X169665587Y-104682468D01*
X169694907Y-104720747D01*
X169688571Y-104768548D01*
X169650292Y-104797868D01*
X169634039Y-104800000D01*
X165363000Y-104800000D01*
X165318452Y-104781548D01*
X165300000Y-104737000D01*
X165300000Y-102734734D01*
X165816047Y-102734734D01*
X165824836Y-102968849D01*
X165872946Y-103198135D01*
X165958999Y-103416038D01*
X166080537Y-103616326D01*
X166082283Y-103618338D01*
X166232340Y-103791264D01*
X166232344Y-103791268D01*
X166234084Y-103793273D01*
X166236139Y-103794958D01*
X166236140Y-103794959D01*
X166413187Y-103940129D01*
X166413193Y-103940133D01*
X166415249Y-103941819D01*
X166417563Y-103943136D01*
X166417567Y-103943139D01*
X166616535Y-104056399D01*
X166616540Y-104056401D01*
X166618853Y-104057718D01*
X166717132Y-104093391D01*
X166836562Y-104136743D01*
X166836567Y-104136744D01*
X166839073Y-104137654D01*
X166841694Y-104138128D01*
X166841698Y-104138129D01*
X167067583Y-104178975D01*
X167067587Y-104178975D01*
X167069614Y-104179342D01*
X167090980Y-104180350D01*
X167093447Y-104180466D01*
X167093449Y-104180466D01*
X167094169Y-104180500D01*
X167258820Y-104180500D01*
X167347562Y-104172970D01*
X167430783Y-104165909D01*
X167430788Y-104165908D01*
X167433441Y-104165683D01*
X167660206Y-104106827D01*
X167873813Y-104010604D01*
X168068154Y-103879766D01*
X168237671Y-103718054D01*
X168377519Y-103530093D01*
X168483697Y-103321255D01*
X168484488Y-103318709D01*
X168484490Y-103318703D01*
X168552379Y-103100066D01*
X168552380Y-103100061D01*
X168553171Y-103097514D01*
X168583953Y-102865266D01*
X168582759Y-102833467D01*
X169072000Y-102833467D01*
X169075671Y-102842329D01*
X169084533Y-102846000D01*
X169913467Y-102846000D01*
X169922329Y-102842329D01*
X169926000Y-102833467D01*
X170434000Y-102833467D01*
X170437671Y-102842329D01*
X170446533Y-102846000D01*
X171275467Y-102846000D01*
X171284329Y-102842329D01*
X171288000Y-102833467D01*
X177712000Y-102833467D01*
X177715671Y-102842329D01*
X177724533Y-102846000D01*
X178553467Y-102846000D01*
X178562329Y-102842329D01*
X178566000Y-102833467D01*
X179074000Y-102833467D01*
X179077671Y-102842329D01*
X179086533Y-102846000D01*
X179915467Y-102846000D01*
X179924329Y-102842329D01*
X179928000Y-102833467D01*
X179928000Y-102448681D01*
X179927857Y-102445674D01*
X179913244Y-102292513D01*
X179912115Y-102286652D01*
X179854287Y-102089535D01*
X179852067Y-102083983D01*
X179758006Y-101901352D01*
X179754787Y-101896338D01*
X179627883Y-101734782D01*
X179623767Y-101730461D01*
X179468611Y-101595823D01*
X179463750Y-101592355D01*
X179285929Y-101489483D01*
X179280510Y-101487002D01*
X179086446Y-101419612D01*
X179085258Y-101419322D01*
X179077106Y-101421393D01*
X179074000Y-101426614D01*
X179074000Y-102833467D01*
X178566000Y-102833467D01*
X178566000Y-101434016D01*
X178562329Y-101425154D01*
X178558077Y-101423392D01*
X178460547Y-101446897D01*
X178454900Y-101448841D01*
X178267889Y-101533870D01*
X178262722Y-101536841D01*
X178095160Y-101655701D01*
X178090645Y-101659599D01*
X177948586Y-101807996D01*
X177944888Y-101812678D01*
X177833451Y-101985262D01*
X177830705Y-101990560D01*
X177753915Y-102181100D01*
X177752221Y-102186820D01*
X177712706Y-102389164D01*
X177712161Y-102393647D01*
X177712037Y-102396197D01*
X177712000Y-102397703D01*
X177712000Y-102833467D01*
X171288000Y-102833467D01*
X171288000Y-102448681D01*
X171287857Y-102445674D01*
X171273244Y-102292513D01*
X171272115Y-102286652D01*
X171214287Y-102089535D01*
X171212067Y-102083983D01*
X171118006Y-101901352D01*
X171114787Y-101896338D01*
X170987883Y-101734782D01*
X170983767Y-101730461D01*
X170828611Y-101595823D01*
X170823750Y-101592355D01*
X170645929Y-101489483D01*
X170640510Y-101487002D01*
X170446446Y-101419612D01*
X170445258Y-101419322D01*
X170437106Y-101421393D01*
X170434000Y-101426614D01*
X170434000Y-102833467D01*
X169926000Y-102833467D01*
X169926000Y-101434016D01*
X169922329Y-101425154D01*
X169918077Y-101423392D01*
X169820547Y-101446897D01*
X169814900Y-101448841D01*
X169627889Y-101533870D01*
X169622722Y-101536841D01*
X169455160Y-101655701D01*
X169450645Y-101659599D01*
X169308586Y-101807996D01*
X169304888Y-101812678D01*
X169193451Y-101985262D01*
X169190705Y-101990560D01*
X169113915Y-102181100D01*
X169112221Y-102186820D01*
X169072706Y-102389164D01*
X169072161Y-102393647D01*
X169072037Y-102396197D01*
X169072000Y-102397703D01*
X169072000Y-102833467D01*
X168582759Y-102833467D01*
X168575164Y-102631151D01*
X168527054Y-102401865D01*
X168525411Y-102397703D01*
X168469618Y-102256426D01*
X168441001Y-102183962D01*
X168395744Y-102109380D01*
X168320846Y-101985953D01*
X168320846Y-101985952D01*
X168319463Y-101983674D01*
X168229592Y-101880107D01*
X168167660Y-101808736D01*
X168167656Y-101808732D01*
X168165916Y-101806727D01*
X168119884Y-101768983D01*
X167986813Y-101659871D01*
X167986807Y-101659867D01*
X167984751Y-101658181D01*
X167982437Y-101656864D01*
X167982433Y-101656861D01*
X167783465Y-101543601D01*
X167783460Y-101543599D01*
X167781147Y-101542282D01*
X167682868Y-101506609D01*
X167563438Y-101463257D01*
X167563433Y-101463256D01*
X167560927Y-101462346D01*
X167558306Y-101461872D01*
X167558302Y-101461871D01*
X167332417Y-101421025D01*
X167332413Y-101421025D01*
X167330386Y-101420658D01*
X167308206Y-101419612D01*
X167306553Y-101419534D01*
X167306551Y-101419534D01*
X167305831Y-101419500D01*
X167141180Y-101419500D01*
X167052438Y-101427030D01*
X166969217Y-101434091D01*
X166969212Y-101434092D01*
X166966559Y-101434317D01*
X166739794Y-101493173D01*
X166526187Y-101589396D01*
X166331846Y-101720234D01*
X166162329Y-101881946D01*
X166022481Y-102069907D01*
X165916303Y-102278745D01*
X165915512Y-102281291D01*
X165915510Y-102281297D01*
X165863536Y-102448681D01*
X165846829Y-102502486D01*
X165816047Y-102734734D01*
X165300000Y-102734734D01*
X165300000Y-99904314D01*
X169093000Y-99904314D01*
X169093143Y-99907321D01*
X169107471Y-100057498D01*
X169108600Y-100063359D01*
X169165300Y-100256631D01*
X169167520Y-100262183D01*
X169259746Y-100441251D01*
X169262965Y-100446265D01*
X169387394Y-100604670D01*
X169391510Y-100608991D01*
X169543639Y-100741003D01*
X169548504Y-100744472D01*
X169722851Y-100845334D01*
X169728273Y-100847817D01*
X169916217Y-100913082D01*
X169922895Y-100911386D01*
X169926000Y-100906167D01*
X169926000Y-100898382D01*
X170434000Y-100898382D01*
X170437671Y-100907244D01*
X170441923Y-100909006D01*
X170532581Y-100887157D01*
X170538237Y-100885209D01*
X170721584Y-100801847D01*
X170726770Y-100798866D01*
X170891056Y-100682329D01*
X170895571Y-100678431D01*
X171034859Y-100532929D01*
X171038557Y-100528247D01*
X171139725Y-100371565D01*
X171179391Y-100344150D01*
X171228469Y-100353913D01*
X171301793Y-100404590D01*
X171429521Y-100444985D01*
X171436064Y-100445500D01*
X171533470Y-100445500D01*
X171632475Y-100430615D01*
X171692247Y-100401913D01*
X171748992Y-100374665D01*
X171748995Y-100374663D01*
X171753237Y-100372626D01*
X171851609Y-100281692D01*
X171876443Y-100238938D01*
X171916530Y-100169922D01*
X171918894Y-100165852D01*
X171949143Y-100035348D01*
X171944138Y-99964652D01*
X177050857Y-99964652D01*
X177060318Y-100098281D01*
X177108654Y-100223220D01*
X177114801Y-100231017D01*
X177188675Y-100324727D01*
X177188677Y-100324729D01*
X177191590Y-100328424D01*
X177195465Y-100331102D01*
X177297919Y-100401913D01*
X177297921Y-100401914D01*
X177301793Y-100404590D01*
X177429521Y-100444985D01*
X177436064Y-100445500D01*
X177533470Y-100445500D01*
X177632475Y-100430615D01*
X177692247Y-100401913D01*
X177748992Y-100374665D01*
X177748995Y-100374663D01*
X177753237Y-100372626D01*
X177756698Y-100369427D01*
X177767711Y-100359247D01*
X177812949Y-100342559D01*
X177856737Y-100362747D01*
X177866482Y-100376664D01*
X177899746Y-100441251D01*
X177902965Y-100446265D01*
X178027394Y-100604670D01*
X178031510Y-100608991D01*
X178183639Y-100741003D01*
X178188504Y-100744472D01*
X178362851Y-100845334D01*
X178368273Y-100847817D01*
X178556217Y-100913082D01*
X178562895Y-100911386D01*
X178566000Y-100906167D01*
X178566000Y-100898382D01*
X179074000Y-100898382D01*
X179077671Y-100907244D01*
X179081923Y-100909006D01*
X179172581Y-100887157D01*
X179178237Y-100885209D01*
X179361584Y-100801847D01*
X179366770Y-100798866D01*
X179531056Y-100682329D01*
X179535571Y-100678431D01*
X179674859Y-100532929D01*
X179678557Y-100528247D01*
X179787820Y-100359029D01*
X179790566Y-100353731D01*
X179865857Y-100166909D01*
X179867551Y-100161189D01*
X179906299Y-99962777D01*
X179906844Y-99958294D01*
X179906963Y-99955846D01*
X179907000Y-99954340D01*
X179907000Y-99541533D01*
X179903329Y-99532671D01*
X179894467Y-99529000D01*
X179086533Y-99529000D01*
X179077671Y-99532671D01*
X179074000Y-99541533D01*
X179074000Y-100898382D01*
X178566000Y-100898382D01*
X178566000Y-99541533D01*
X178562329Y-99532671D01*
X178553467Y-99529000D01*
X177745533Y-99529000D01*
X177736670Y-99532671D01*
X177731350Y-99545516D01*
X177697255Y-99579612D01*
X177654148Y-99581476D01*
X177570479Y-99555015D01*
X177563936Y-99554500D01*
X177466530Y-99554500D01*
X177367525Y-99569385D01*
X177363281Y-99571423D01*
X177251008Y-99625335D01*
X177251005Y-99625337D01*
X177246763Y-99627374D01*
X177148391Y-99718308D01*
X177081106Y-99834148D01*
X177050857Y-99964652D01*
X171944138Y-99964652D01*
X171939682Y-99901719D01*
X171891346Y-99776780D01*
X171848461Y-99722381D01*
X171811325Y-99675273D01*
X171811323Y-99675271D01*
X171808410Y-99671576D01*
X171741505Y-99625335D01*
X171702081Y-99598087D01*
X171702079Y-99598086D01*
X171698207Y-99595410D01*
X171570479Y-99555015D01*
X171563936Y-99554500D01*
X171466530Y-99554500D01*
X171367525Y-99569385D01*
X171363280Y-99571423D01*
X171363278Y-99571424D01*
X171353305Y-99576213D01*
X171305159Y-99578863D01*
X171267829Y-99543531D01*
X171263331Y-99532671D01*
X171254467Y-99529000D01*
X170446533Y-99529000D01*
X170437671Y-99532671D01*
X170434000Y-99541533D01*
X170434000Y-100898382D01*
X169926000Y-100898382D01*
X169926000Y-99541533D01*
X169922329Y-99532671D01*
X169913467Y-99529000D01*
X169105533Y-99529000D01*
X169096671Y-99532671D01*
X169093000Y-99541533D01*
X169093000Y-99904314D01*
X165300000Y-99904314D01*
X165300000Y-99008467D01*
X169093000Y-99008467D01*
X169096671Y-99017329D01*
X169105533Y-99021000D01*
X169913467Y-99021000D01*
X169922329Y-99017329D01*
X169926000Y-99008467D01*
X170434000Y-99008467D01*
X170437671Y-99017329D01*
X170446533Y-99021000D01*
X171254467Y-99021000D01*
X171263329Y-99017329D01*
X171267000Y-99008467D01*
X177733000Y-99008467D01*
X177736671Y-99017329D01*
X177745533Y-99021000D01*
X178553467Y-99021000D01*
X178562329Y-99017329D01*
X178566000Y-99008467D01*
X179074000Y-99008467D01*
X179077671Y-99017329D01*
X179086533Y-99021000D01*
X179894467Y-99021000D01*
X179903329Y-99017329D01*
X179907000Y-99008467D01*
X179907000Y-98645686D01*
X179906857Y-98642679D01*
X179892529Y-98492502D01*
X179891400Y-98486641D01*
X179834700Y-98293369D01*
X179832480Y-98287817D01*
X179740254Y-98108749D01*
X179737035Y-98103735D01*
X179612606Y-97945330D01*
X179608490Y-97941009D01*
X179456361Y-97808997D01*
X179451496Y-97805528D01*
X179277149Y-97704666D01*
X179271727Y-97702183D01*
X179083783Y-97636918D01*
X179077105Y-97638614D01*
X179074000Y-97643833D01*
X179074000Y-99008467D01*
X178566000Y-99008467D01*
X178566000Y-97651618D01*
X178562329Y-97642756D01*
X178558077Y-97640994D01*
X178467419Y-97662843D01*
X178461763Y-97664791D01*
X178278416Y-97748153D01*
X178273230Y-97751134D01*
X178108944Y-97867671D01*
X178104429Y-97871569D01*
X177965141Y-98017071D01*
X177961443Y-98021753D01*
X177852180Y-98190971D01*
X177849434Y-98196269D01*
X177774143Y-98383091D01*
X177772449Y-98388811D01*
X177733701Y-98587223D01*
X177733156Y-98591706D01*
X177733037Y-98594154D01*
X177733000Y-98595660D01*
X177733000Y-99008467D01*
X171267000Y-99008467D01*
X171267000Y-98645686D01*
X171266857Y-98642679D01*
X171252529Y-98492502D01*
X171251400Y-98486641D01*
X171194700Y-98293369D01*
X171192480Y-98287817D01*
X171100254Y-98108749D01*
X171097035Y-98103735D01*
X170972606Y-97945330D01*
X170968490Y-97941009D01*
X170816361Y-97808997D01*
X170811496Y-97805528D01*
X170715512Y-97750000D01*
X171345029Y-97750000D01*
X171364082Y-97870298D01*
X171419377Y-97978821D01*
X171505501Y-98064945D01*
X171614024Y-98120240D01*
X171734322Y-98139293D01*
X171854620Y-98120240D01*
X171963143Y-98064945D01*
X172049267Y-97978821D01*
X172104562Y-97870298D01*
X172123615Y-97750000D01*
X176860707Y-97750000D01*
X176879760Y-97870298D01*
X176935055Y-97978821D01*
X177021179Y-98064945D01*
X177129702Y-98120240D01*
X177250000Y-98139293D01*
X177370298Y-98120240D01*
X177478821Y-98064945D01*
X177564945Y-97978821D01*
X177620240Y-97870298D01*
X177639293Y-97750000D01*
X177620240Y-97629702D01*
X177564945Y-97521179D01*
X177478821Y-97435055D01*
X177370298Y-97379760D01*
X177250000Y-97360707D01*
X177129702Y-97379760D01*
X177021179Y-97435055D01*
X176935055Y-97521179D01*
X176879760Y-97629702D01*
X176860707Y-97750000D01*
X172123615Y-97750000D01*
X172104562Y-97629702D01*
X172049267Y-97521179D01*
X171963143Y-97435055D01*
X171854620Y-97379760D01*
X171734322Y-97360707D01*
X171614024Y-97379760D01*
X171505501Y-97435055D01*
X171419377Y-97521179D01*
X171364082Y-97629702D01*
X171345029Y-97750000D01*
X170715512Y-97750000D01*
X170637149Y-97704666D01*
X170631727Y-97702183D01*
X170443783Y-97636918D01*
X170437105Y-97638614D01*
X170434000Y-97643833D01*
X170434000Y-99008467D01*
X169926000Y-99008467D01*
X169926000Y-97651618D01*
X169922329Y-97642756D01*
X169918077Y-97640994D01*
X169827419Y-97662843D01*
X169821763Y-97664791D01*
X169638416Y-97748153D01*
X169633230Y-97751134D01*
X169468944Y-97867671D01*
X169464429Y-97871569D01*
X169325141Y-98017071D01*
X169321443Y-98021753D01*
X169212180Y-98190971D01*
X169209434Y-98196269D01*
X169134143Y-98383091D01*
X169132449Y-98388811D01*
X169093701Y-98587223D01*
X169093156Y-98591706D01*
X169093037Y-98594154D01*
X169093000Y-98595660D01*
X169093000Y-99008467D01*
X165300000Y-99008467D01*
X165300000Y-93312500D01*
X175798207Y-93312500D01*
X175817260Y-93432798D01*
X175872555Y-93541321D01*
X175958679Y-93627445D01*
X176067202Y-93682740D01*
X176187500Y-93701793D01*
X176307798Y-93682740D01*
X176416321Y-93627445D01*
X176502445Y-93541321D01*
X176557740Y-93432798D01*
X176576793Y-93312500D01*
X176558975Y-93200000D01*
X179410707Y-93200000D01*
X179429760Y-93320298D01*
X179485055Y-93428821D01*
X179571179Y-93514945D01*
X179679702Y-93570240D01*
X179800000Y-93589293D01*
X179920298Y-93570240D01*
X180028821Y-93514945D01*
X180114945Y-93428821D01*
X180170240Y-93320298D01*
X180189293Y-93200000D01*
X180170240Y-93079702D01*
X180114945Y-92971179D01*
X180028821Y-92885055D01*
X179972058Y-92856133D01*
X179940742Y-92819468D01*
X179944526Y-92771399D01*
X179972058Y-92743867D01*
X180024401Y-92717197D01*
X180028821Y-92714945D01*
X180114945Y-92628821D01*
X180170240Y-92520298D01*
X180189293Y-92400000D01*
X180170240Y-92279702D01*
X180114945Y-92171179D01*
X180028821Y-92085055D01*
X179920298Y-92029760D01*
X179800000Y-92010707D01*
X179679702Y-92029760D01*
X179571179Y-92085055D01*
X179485055Y-92171179D01*
X179429760Y-92279702D01*
X179410707Y-92400000D01*
X179429760Y-92520298D01*
X179485055Y-92628821D01*
X179571179Y-92714945D01*
X179575599Y-92717197D01*
X179627942Y-92743867D01*
X179659258Y-92780532D01*
X179655474Y-92828601D01*
X179627942Y-92856133D01*
X179571179Y-92885055D01*
X179485055Y-92971179D01*
X179429760Y-93079702D01*
X179410707Y-93200000D01*
X176558975Y-93200000D01*
X176557740Y-93192202D01*
X176502445Y-93083679D01*
X176416321Y-92997555D01*
X176307798Y-92942260D01*
X176187500Y-92923207D01*
X176067202Y-92942260D01*
X175958679Y-92997555D01*
X175872555Y-93083679D01*
X175817260Y-93192202D01*
X175798207Y-93312500D01*
X165300000Y-93312500D01*
X165300000Y-92685366D01*
X172923378Y-92685366D01*
X172924289Y-92687566D01*
X172924548Y-92687732D01*
X173062167Y-92738912D01*
X173068948Y-92740603D01*
X173230539Y-92762164D01*
X173237528Y-92762310D01*
X173399880Y-92747535D01*
X173406724Y-92746130D01*
X173561766Y-92695754D01*
X173568139Y-92692863D01*
X173570640Y-92691372D01*
X173575117Y-92685366D01*
X174923378Y-92685366D01*
X174924289Y-92687566D01*
X174924548Y-92687732D01*
X175062167Y-92738912D01*
X175068948Y-92740603D01*
X175230539Y-92762164D01*
X175237528Y-92762310D01*
X175399880Y-92747535D01*
X175406724Y-92746130D01*
X175561766Y-92695754D01*
X175568139Y-92692863D01*
X175570640Y-92691372D01*
X175576371Y-92683683D01*
X175575729Y-92679282D01*
X175258862Y-92362415D01*
X175250000Y-92358744D01*
X175241138Y-92362415D01*
X174927049Y-92676504D01*
X174923378Y-92685366D01*
X173575117Y-92685366D01*
X173576371Y-92683683D01*
X173575729Y-92679282D01*
X173258862Y-92362415D01*
X173250000Y-92358744D01*
X173241138Y-92362415D01*
X172927049Y-92676504D01*
X172923378Y-92685366D01*
X165300000Y-92685366D01*
X165300000Y-91992859D01*
X172487622Y-91992859D01*
X172503529Y-92155090D01*
X172504984Y-92161935D01*
X172556438Y-92316611D01*
X172558624Y-92321342D01*
X172565934Y-92326711D01*
X172570423Y-92326024D01*
X172887585Y-92008862D01*
X172891256Y-92000000D01*
X173608744Y-92000000D01*
X173612415Y-92008862D01*
X173926128Y-92322575D01*
X173934990Y-92326246D01*
X173937302Y-92325288D01*
X173937360Y-92325198D01*
X173987579Y-92192995D01*
X173989322Y-92186209D01*
X174012225Y-92023251D01*
X174012526Y-92019327D01*
X174012768Y-92001986D01*
X174012574Y-91998022D01*
X174011995Y-91992859D01*
X174487622Y-91992859D01*
X174503529Y-92155090D01*
X174504984Y-92161935D01*
X174556438Y-92316611D01*
X174558624Y-92321342D01*
X174565934Y-92326711D01*
X174570423Y-92326024D01*
X174887585Y-92008862D01*
X174891256Y-92000000D01*
X175608744Y-92000000D01*
X175612415Y-92008862D01*
X175926128Y-92322575D01*
X175934990Y-92326246D01*
X175937302Y-92325288D01*
X175937360Y-92325198D01*
X175987579Y-92192995D01*
X175989322Y-92186209D01*
X176012225Y-92023251D01*
X176012526Y-92019327D01*
X176012768Y-92001986D01*
X176012574Y-91998022D01*
X175994233Y-91834505D01*
X175992682Y-91827679D01*
X175939889Y-91676080D01*
X175934912Y-91672530D01*
X175930240Y-91673313D01*
X175612415Y-91991138D01*
X175608744Y-92000000D01*
X174891256Y-92000000D01*
X174887585Y-91991138D01*
X174573089Y-91676642D01*
X174564227Y-91672971D01*
X174562139Y-91673836D01*
X174561868Y-91674262D01*
X174509796Y-91817327D01*
X174508150Y-91824130D01*
X174487720Y-91985852D01*
X174487622Y-91992859D01*
X174011995Y-91992859D01*
X173994233Y-91834505D01*
X173992682Y-91827679D01*
X173939889Y-91676080D01*
X173934912Y-91672530D01*
X173930240Y-91673313D01*
X173612415Y-91991138D01*
X173608744Y-92000000D01*
X172891256Y-92000000D01*
X172887585Y-91991138D01*
X172573089Y-91676642D01*
X172564227Y-91672971D01*
X172562139Y-91673836D01*
X172561868Y-91674262D01*
X172509796Y-91817327D01*
X172508150Y-91824130D01*
X172487720Y-91985852D01*
X172487622Y-91992859D01*
X165300000Y-91992859D01*
X165300000Y-90779774D01*
X167500603Y-90779774D01*
X167529450Y-90947655D01*
X167542268Y-90977779D01*
X167587724Y-91084605D01*
X167596145Y-91104396D01*
X167598313Y-91107342D01*
X167694201Y-91237639D01*
X167697109Y-91241591D01*
X167699895Y-91243958D01*
X167699898Y-91243961D01*
X167784132Y-91315523D01*
X167826927Y-91351880D01*
X167830189Y-91353546D01*
X167830191Y-91353547D01*
X167881527Y-91379760D01*
X167978635Y-91429346D01*
X167990818Y-91432327D01*
X168141370Y-91469167D01*
X168141376Y-91469168D01*
X168144094Y-91469833D01*
X168146893Y-91470007D01*
X168146895Y-91470007D01*
X168153859Y-91470439D01*
X168153865Y-91470439D01*
X168154845Y-91470500D01*
X168827655Y-91470500D01*
X168829472Y-91470288D01*
X168829475Y-91470288D01*
X168950559Y-91456171D01*
X168950560Y-91456171D01*
X168954195Y-91455747D01*
X168957634Y-91454499D01*
X168957637Y-91454498D01*
X169040551Y-91424401D01*
X169114315Y-91397626D01*
X169117377Y-91395619D01*
X169117380Y-91395617D01*
X169187707Y-91349508D01*
X169239543Y-91315523D01*
X172922922Y-91315523D01*
X172923656Y-91320103D01*
X173241138Y-91637585D01*
X173250000Y-91641256D01*
X173258862Y-91637585D01*
X173573797Y-91322650D01*
X173576749Y-91315523D01*
X174922922Y-91315523D01*
X174923656Y-91320103D01*
X175241138Y-91637585D01*
X175250000Y-91641256D01*
X175258862Y-91637585D01*
X175573797Y-91322650D01*
X175577468Y-91313788D01*
X175576650Y-91311813D01*
X175576054Y-91311436D01*
X175427504Y-91258540D01*
X175420686Y-91256941D01*
X175258817Y-91237639D01*
X175251827Y-91237591D01*
X175089699Y-91254630D01*
X175082871Y-91256132D01*
X174928549Y-91308668D01*
X174927542Y-91309142D01*
X174922922Y-91315523D01*
X173576749Y-91315523D01*
X173577468Y-91313788D01*
X173576650Y-91311813D01*
X173576054Y-91311436D01*
X173427504Y-91258540D01*
X173420686Y-91256941D01*
X173258817Y-91237639D01*
X173251827Y-91237591D01*
X173089699Y-91254630D01*
X173082871Y-91256132D01*
X172928549Y-91308668D01*
X172927542Y-91309142D01*
X172922922Y-91315523D01*
X169239543Y-91315523D01*
X169256769Y-91304229D01*
X169283351Y-91276169D01*
X169355506Y-91200000D01*
X179010707Y-91200000D01*
X179029760Y-91320298D01*
X179085055Y-91428821D01*
X179171179Y-91514945D01*
X179279702Y-91570240D01*
X179400000Y-91589293D01*
X179520298Y-91570240D01*
X179628821Y-91514945D01*
X179714945Y-91428821D01*
X179770240Y-91320298D01*
X179789293Y-91200000D01*
X179770240Y-91079702D01*
X179714945Y-90971179D01*
X179628821Y-90885055D01*
X179520298Y-90829760D01*
X179400000Y-90810707D01*
X179279702Y-90829760D01*
X179171179Y-90885055D01*
X179085055Y-90971179D01*
X179029760Y-91079702D01*
X179010707Y-91200000D01*
X169355506Y-91200000D01*
X169371397Y-91183225D01*
X169373916Y-91180566D01*
X169379369Y-91171179D01*
X169416448Y-91107342D01*
X169459473Y-91033269D01*
X169508849Y-90870241D01*
X169510082Y-90850376D01*
X169518003Y-90722698D01*
X169519397Y-90700226D01*
X169516844Y-90685366D01*
X172923378Y-90685366D01*
X172924289Y-90687566D01*
X172924548Y-90687732D01*
X173062167Y-90738912D01*
X173068948Y-90740603D01*
X173230539Y-90762164D01*
X173237528Y-90762310D01*
X173399880Y-90747535D01*
X173406724Y-90746130D01*
X173561766Y-90695754D01*
X173568139Y-90692863D01*
X173570640Y-90691372D01*
X173575117Y-90685366D01*
X174923378Y-90685366D01*
X174924289Y-90687566D01*
X174924548Y-90687732D01*
X175062167Y-90738912D01*
X175068948Y-90740603D01*
X175230539Y-90762164D01*
X175237528Y-90762310D01*
X175399880Y-90747535D01*
X175406724Y-90746130D01*
X175561766Y-90695754D01*
X175568139Y-90692863D01*
X175570640Y-90691372D01*
X175576371Y-90683683D01*
X175575729Y-90679282D01*
X175258862Y-90362415D01*
X175250000Y-90358744D01*
X175241138Y-90362415D01*
X174927049Y-90676504D01*
X174923378Y-90685366D01*
X173575117Y-90685366D01*
X173576371Y-90683683D01*
X173575729Y-90679282D01*
X173258862Y-90362415D01*
X173250000Y-90358744D01*
X173241138Y-90362415D01*
X172927049Y-90676504D01*
X172923378Y-90685366D01*
X169516844Y-90685366D01*
X169516555Y-90683683D01*
X169506009Y-90622313D01*
X169490550Y-90532345D01*
X169452397Y-90442681D01*
X169425288Y-90378971D01*
X169425287Y-90378969D01*
X169423855Y-90375604D01*
X169386827Y-90325288D01*
X169325060Y-90241356D01*
X169325059Y-90241355D01*
X169322891Y-90238409D01*
X169320105Y-90236042D01*
X169320102Y-90236039D01*
X169195865Y-90130492D01*
X169193073Y-90128120D01*
X169189811Y-90126454D01*
X169189809Y-90126453D01*
X169101037Y-90081124D01*
X169041365Y-90050654D01*
X169002457Y-90041133D01*
X168878630Y-90010833D01*
X168878624Y-90010832D01*
X168875906Y-90010167D01*
X168873107Y-90009993D01*
X168873105Y-90009993D01*
X168866141Y-90009561D01*
X168866135Y-90009561D01*
X168865155Y-90009500D01*
X168192345Y-90009500D01*
X168190528Y-90009712D01*
X168190525Y-90009712D01*
X168069441Y-90023829D01*
X168069440Y-90023829D01*
X168065805Y-90024253D01*
X168062366Y-90025501D01*
X168062363Y-90025502D01*
X167995466Y-90049785D01*
X167905685Y-90082374D01*
X167902623Y-90084381D01*
X167902620Y-90084383D01*
X167847841Y-90120298D01*
X167763231Y-90175771D01*
X167760711Y-90178431D01*
X167760710Y-90178432D01*
X167743585Y-90196510D01*
X167646084Y-90299434D01*
X167560527Y-90446731D01*
X167511151Y-90609759D01*
X167510925Y-90613407D01*
X167510924Y-90613411D01*
X167504458Y-90717633D01*
X167500603Y-90779774D01*
X165300000Y-90779774D01*
X165300000Y-89992859D01*
X172487622Y-89992859D01*
X172503529Y-90155090D01*
X172504984Y-90161935D01*
X172556438Y-90316611D01*
X172558624Y-90321342D01*
X172565934Y-90326711D01*
X172570423Y-90326024D01*
X172887585Y-90008862D01*
X172891256Y-90000000D01*
X173608744Y-90000000D01*
X173612415Y-90008862D01*
X173926128Y-90322575D01*
X173934990Y-90326246D01*
X173937302Y-90325288D01*
X173937360Y-90325198D01*
X173987579Y-90192995D01*
X173989322Y-90186209D01*
X174012225Y-90023251D01*
X174012526Y-90019327D01*
X174012768Y-90001986D01*
X174012574Y-89998022D01*
X174011995Y-89992859D01*
X174487622Y-89992859D01*
X174503529Y-90155090D01*
X174504984Y-90161935D01*
X174556438Y-90316611D01*
X174558624Y-90321342D01*
X174565934Y-90326711D01*
X174570423Y-90326024D01*
X174887585Y-90008862D01*
X174891256Y-90000000D01*
X175608744Y-90000000D01*
X175612415Y-90008862D01*
X175926128Y-90322575D01*
X175934990Y-90326246D01*
X175937302Y-90325288D01*
X175937360Y-90325198D01*
X175987579Y-90192995D01*
X175989322Y-90186209D01*
X176012225Y-90023251D01*
X176012526Y-90019327D01*
X176012768Y-90001986D01*
X176012574Y-89998022D01*
X175994233Y-89834505D01*
X175992682Y-89827679D01*
X175939889Y-89676080D01*
X175934912Y-89672530D01*
X175930240Y-89673313D01*
X175612415Y-89991138D01*
X175608744Y-90000000D01*
X174891256Y-90000000D01*
X174887585Y-89991138D01*
X174573089Y-89676642D01*
X174564227Y-89672971D01*
X174562139Y-89673836D01*
X174561868Y-89674262D01*
X174509796Y-89817327D01*
X174508150Y-89824130D01*
X174487720Y-89985852D01*
X174487622Y-89992859D01*
X174011995Y-89992859D01*
X173994233Y-89834505D01*
X173992682Y-89827679D01*
X173939889Y-89676080D01*
X173934912Y-89672530D01*
X173930240Y-89673313D01*
X173612415Y-89991138D01*
X173608744Y-90000000D01*
X172891256Y-90000000D01*
X172887585Y-89991138D01*
X172573089Y-89676642D01*
X172564227Y-89672971D01*
X172562139Y-89673836D01*
X172561868Y-89674262D01*
X172509796Y-89817327D01*
X172508150Y-89824130D01*
X172487720Y-89985852D01*
X172487622Y-89992859D01*
X165300000Y-89992859D01*
X165300000Y-88779774D01*
X167500603Y-88779774D01*
X167529450Y-88947655D01*
X167530885Y-88951027D01*
X167564387Y-89029760D01*
X167596145Y-89104396D01*
X167598313Y-89107342D01*
X167694201Y-89237639D01*
X167697109Y-89241591D01*
X167699895Y-89243958D01*
X167699898Y-89243961D01*
X167779765Y-89311813D01*
X167826927Y-89351880D01*
X167830189Y-89353546D01*
X167830191Y-89353547D01*
X167898233Y-89388291D01*
X167978635Y-89429346D01*
X168017543Y-89438867D01*
X168141370Y-89469167D01*
X168141376Y-89469168D01*
X168144094Y-89469833D01*
X168146893Y-89470007D01*
X168146895Y-89470007D01*
X168153859Y-89470439D01*
X168153865Y-89470439D01*
X168154845Y-89470500D01*
X168827655Y-89470500D01*
X168829472Y-89470288D01*
X168829475Y-89470288D01*
X168950559Y-89456171D01*
X168950560Y-89456171D01*
X168954195Y-89455747D01*
X168957634Y-89454499D01*
X168957637Y-89454498D01*
X169031515Y-89427681D01*
X169114315Y-89397626D01*
X169117377Y-89395619D01*
X169117380Y-89395617D01*
X169228672Y-89322650D01*
X169239543Y-89315523D01*
X172922922Y-89315523D01*
X172923656Y-89320103D01*
X173241138Y-89637585D01*
X173250000Y-89641256D01*
X173258862Y-89637585D01*
X173573797Y-89322650D01*
X173576749Y-89315523D01*
X174922922Y-89315523D01*
X174923656Y-89320103D01*
X175241138Y-89637585D01*
X175250000Y-89641256D01*
X175258862Y-89637585D01*
X175573797Y-89322650D01*
X175577468Y-89313788D01*
X175576650Y-89311813D01*
X175576054Y-89311436D01*
X175427504Y-89258540D01*
X175420686Y-89256941D01*
X175258817Y-89237639D01*
X175251827Y-89237591D01*
X175089699Y-89254630D01*
X175082871Y-89256132D01*
X174928549Y-89308668D01*
X174927542Y-89309142D01*
X174922922Y-89315523D01*
X173576749Y-89315523D01*
X173577468Y-89313788D01*
X173576650Y-89311813D01*
X173576054Y-89311436D01*
X173427504Y-89258540D01*
X173420686Y-89256941D01*
X173258817Y-89237639D01*
X173251827Y-89237591D01*
X173089699Y-89254630D01*
X173082871Y-89256132D01*
X172928549Y-89308668D01*
X172927542Y-89309142D01*
X172922922Y-89315523D01*
X169239543Y-89315523D01*
X169256769Y-89304229D01*
X169373916Y-89180566D01*
X169379369Y-89171179D01*
X169429393Y-89085055D01*
X169459473Y-89033269D01*
X169508849Y-88870241D01*
X169514689Y-88776119D01*
X169519170Y-88703881D01*
X169519397Y-88700226D01*
X169490550Y-88532345D01*
X169423855Y-88375604D01*
X169367800Y-88299434D01*
X169325060Y-88241356D01*
X169325059Y-88241355D01*
X169322891Y-88238409D01*
X169320105Y-88236042D01*
X169320102Y-88236039D01*
X169195865Y-88130492D01*
X169193073Y-88128120D01*
X169189811Y-88126454D01*
X169189809Y-88126453D01*
X169101037Y-88081124D01*
X169041365Y-88050654D01*
X169002457Y-88041133D01*
X168878630Y-88010833D01*
X168878624Y-88010832D01*
X168875906Y-88010167D01*
X168873107Y-88009993D01*
X168873105Y-88009993D01*
X168866141Y-88009561D01*
X168866135Y-88009561D01*
X168865155Y-88009500D01*
X168192345Y-88009500D01*
X168190528Y-88009712D01*
X168190525Y-88009712D01*
X168069441Y-88023829D01*
X168069440Y-88023829D01*
X168065805Y-88024253D01*
X168062366Y-88025501D01*
X168062363Y-88025502D01*
X167995466Y-88049785D01*
X167905685Y-88082374D01*
X167902623Y-88084381D01*
X167902620Y-88084383D01*
X167841583Y-88124401D01*
X167763231Y-88175771D01*
X167646084Y-88299434D01*
X167560527Y-88446731D01*
X167511151Y-88609759D01*
X167510925Y-88613407D01*
X167510924Y-88613411D01*
X167504458Y-88717633D01*
X167500603Y-88779774D01*
X165300000Y-88779774D01*
X165300000Y-87900000D01*
X172910707Y-87900000D01*
X172929760Y-88020298D01*
X172985055Y-88128821D01*
X173071179Y-88214945D01*
X173179702Y-88270240D01*
X173300000Y-88289293D01*
X173420298Y-88270240D01*
X173528821Y-88214945D01*
X173614945Y-88128821D01*
X173670240Y-88020298D01*
X173689293Y-87900000D01*
X173670240Y-87779702D01*
X173614945Y-87671179D01*
X173528821Y-87585055D01*
X173420298Y-87529760D01*
X173300000Y-87510707D01*
X173179702Y-87529760D01*
X173071179Y-87585055D01*
X172985055Y-87671179D01*
X172929760Y-87779702D01*
X172910707Y-87900000D01*
X165300000Y-87900000D01*
X165300000Y-86779774D01*
X167500603Y-86779774D01*
X167529450Y-86947655D01*
X167596145Y-87104396D01*
X167598313Y-87107342D01*
X167654157Y-87183225D01*
X167697109Y-87241591D01*
X167699895Y-87243958D01*
X167699898Y-87243961D01*
X167767706Y-87301568D01*
X167826927Y-87351880D01*
X167830189Y-87353546D01*
X167830191Y-87353547D01*
X167898233Y-87388291D01*
X167978635Y-87429346D01*
X168017543Y-87438867D01*
X168141370Y-87469167D01*
X168141376Y-87469168D01*
X168144094Y-87469833D01*
X168146893Y-87470007D01*
X168146895Y-87470007D01*
X168153859Y-87470439D01*
X168153865Y-87470439D01*
X168154845Y-87470500D01*
X168827655Y-87470500D01*
X168829472Y-87470288D01*
X168829475Y-87470288D01*
X168950559Y-87456171D01*
X168950560Y-87456171D01*
X168954195Y-87455747D01*
X168957634Y-87454499D01*
X168957637Y-87454498D01*
X169031515Y-87427681D01*
X169114315Y-87397626D01*
X169117377Y-87395619D01*
X169117380Y-87395617D01*
X169187707Y-87349508D01*
X169256769Y-87304229D01*
X169373916Y-87180566D01*
X169459473Y-87033269D01*
X169508849Y-86870241D01*
X169514689Y-86776119D01*
X169519170Y-86703881D01*
X169519397Y-86700226D01*
X169490550Y-86532345D01*
X169423855Y-86375604D01*
X169367800Y-86299434D01*
X169325060Y-86241356D01*
X169325059Y-86241355D01*
X169322891Y-86238409D01*
X169320105Y-86236042D01*
X169320102Y-86236039D01*
X169195865Y-86130492D01*
X169193073Y-86128120D01*
X169189811Y-86126454D01*
X169189809Y-86126453D01*
X169101037Y-86081124D01*
X169041365Y-86050654D01*
X169002457Y-86041133D01*
X168878630Y-86010833D01*
X168878624Y-86010832D01*
X168875906Y-86010167D01*
X168873107Y-86009993D01*
X168873105Y-86009993D01*
X168866141Y-86009561D01*
X168866135Y-86009561D01*
X168865155Y-86009500D01*
X168192345Y-86009500D01*
X168190528Y-86009712D01*
X168190525Y-86009712D01*
X168069441Y-86023829D01*
X168069440Y-86023829D01*
X168065805Y-86024253D01*
X168062366Y-86025501D01*
X168062363Y-86025502D01*
X167995466Y-86049785D01*
X167905685Y-86082374D01*
X167902623Y-86084381D01*
X167902620Y-86084383D01*
X167847841Y-86120298D01*
X167763231Y-86175771D01*
X167646084Y-86299434D01*
X167560527Y-86446731D01*
X167511151Y-86609759D01*
X167510925Y-86613407D01*
X167510924Y-86613411D01*
X167504458Y-86717633D01*
X167500603Y-86779774D01*
X165300000Y-86779774D01*
X165300000Y-85138737D01*
X167127001Y-85138737D01*
X167127168Y-85141975D01*
X167137613Y-85242639D01*
X167139058Y-85249330D01*
X167192747Y-85410258D01*
X167195833Y-85416846D01*
X167284989Y-85560919D01*
X167289511Y-85566625D01*
X167409414Y-85686320D01*
X167415128Y-85690833D01*
X167559361Y-85779738D01*
X167565949Y-85782810D01*
X167726973Y-85836220D01*
X167733664Y-85837655D01*
X167833037Y-85847836D01*
X167836246Y-85848000D01*
X168243467Y-85848000D01*
X168252329Y-85844329D01*
X168256000Y-85835467D01*
X168256000Y-85835466D01*
X168764000Y-85835466D01*
X168767671Y-85844328D01*
X168776533Y-85847999D01*
X169183736Y-85847999D01*
X169186975Y-85847832D01*
X169287639Y-85837387D01*
X169294330Y-85835942D01*
X169455258Y-85782253D01*
X169461846Y-85779167D01*
X169605919Y-85690011D01*
X169611625Y-85685489D01*
X169731320Y-85565586D01*
X169735833Y-85559872D01*
X169824738Y-85415639D01*
X169827810Y-85409051D01*
X169881220Y-85248027D01*
X169882655Y-85241336D01*
X169892836Y-85141963D01*
X169893000Y-85138754D01*
X169893000Y-85006533D01*
X169889329Y-84997671D01*
X169880467Y-84994000D01*
X168776533Y-84994000D01*
X168767671Y-84997671D01*
X168764000Y-85006533D01*
X168764000Y-85835466D01*
X168256000Y-85835466D01*
X168256000Y-85006533D01*
X168252329Y-84997671D01*
X168243467Y-84994000D01*
X167139534Y-84994000D01*
X167130672Y-84997671D01*
X167127001Y-85006533D01*
X167127001Y-85138737D01*
X165300000Y-85138737D01*
X165300000Y-84473467D01*
X167127000Y-84473467D01*
X167130671Y-84482329D01*
X167139533Y-84486000D01*
X168243467Y-84486000D01*
X168252329Y-84482329D01*
X168256000Y-84473467D01*
X168764000Y-84473467D01*
X168767671Y-84482329D01*
X168776533Y-84486000D01*
X169880466Y-84486000D01*
X169889328Y-84482329D01*
X169892999Y-84473467D01*
X169892999Y-84341264D01*
X169892832Y-84338025D01*
X169882387Y-84237361D01*
X169880942Y-84230670D01*
X169827253Y-84069742D01*
X169824167Y-84063154D01*
X169735011Y-83919081D01*
X169730489Y-83913375D01*
X169610586Y-83793680D01*
X169604872Y-83789167D01*
X169460639Y-83700262D01*
X169454051Y-83697190D01*
X169293027Y-83643780D01*
X169286336Y-83642345D01*
X169186963Y-83632164D01*
X169183754Y-83632000D01*
X168776533Y-83632000D01*
X168767671Y-83635671D01*
X168764000Y-83644533D01*
X168764000Y-84473467D01*
X168256000Y-84473467D01*
X168256000Y-83644534D01*
X168252329Y-83635672D01*
X168243467Y-83632001D01*
X167836264Y-83632001D01*
X167833025Y-83632168D01*
X167732361Y-83642613D01*
X167725670Y-83644058D01*
X167564742Y-83697747D01*
X167558154Y-83700833D01*
X167414081Y-83789989D01*
X167408375Y-83794511D01*
X167288680Y-83914414D01*
X167284167Y-83920128D01*
X167195262Y-84064361D01*
X167192190Y-84070949D01*
X167138780Y-84231973D01*
X167137345Y-84238664D01*
X167127164Y-84338037D01*
X167127000Y-84341246D01*
X167127000Y-84473467D01*
X165300000Y-84473467D01*
X165300000Y-82750001D01*
X177010707Y-82750001D01*
X177029760Y-82870299D01*
X177085055Y-82978822D01*
X177171179Y-83064946D01*
X177279702Y-83120241D01*
X177400000Y-83139294D01*
X177520298Y-83120241D01*
X177628821Y-83064946D01*
X177714945Y-82978822D01*
X177770240Y-82870299D01*
X177789293Y-82750001D01*
X177770240Y-82629703D01*
X177714945Y-82521180D01*
X177688314Y-82494549D01*
X177669862Y-82450001D01*
X177688314Y-82405453D01*
X177714945Y-82378822D01*
X177770240Y-82270299D01*
X177789293Y-82150001D01*
X177770240Y-82029703D01*
X177714945Y-81921180D01*
X177628821Y-81835056D01*
X177560019Y-81800000D01*
X180210707Y-81800000D01*
X180229760Y-81920298D01*
X180285055Y-82028821D01*
X180371179Y-82114945D01*
X180479702Y-82170240D01*
X180600000Y-82189293D01*
X180720298Y-82170240D01*
X180828821Y-82114945D01*
X180914945Y-82028821D01*
X180970240Y-81920298D01*
X180989293Y-81800000D01*
X181310707Y-81800000D01*
X181329760Y-81920298D01*
X181385055Y-82028821D01*
X181471179Y-82114945D01*
X181579702Y-82170240D01*
X181700000Y-82189293D01*
X181820298Y-82170240D01*
X181928821Y-82114945D01*
X182014945Y-82028821D01*
X182070240Y-81920298D01*
X182089293Y-81800000D01*
X182070240Y-81679702D01*
X182055106Y-81650000D01*
X182360707Y-81650000D01*
X182379760Y-81770298D01*
X182435055Y-81878821D01*
X182521179Y-81964945D01*
X182629702Y-82020240D01*
X182750000Y-82039293D01*
X182870298Y-82020240D01*
X182978821Y-81964945D01*
X183064945Y-81878821D01*
X183120240Y-81770298D01*
X183139293Y-81650000D01*
X183120240Y-81529702D01*
X183064945Y-81421179D01*
X182978821Y-81335055D01*
X182870298Y-81279760D01*
X182750000Y-81260707D01*
X182629702Y-81279760D01*
X182521179Y-81335055D01*
X182435055Y-81421179D01*
X182379760Y-81529702D01*
X182360707Y-81650000D01*
X182055106Y-81650000D01*
X182014945Y-81571179D01*
X181928821Y-81485055D01*
X181820298Y-81429760D01*
X181700000Y-81410707D01*
X181579702Y-81429760D01*
X181471179Y-81485055D01*
X181385055Y-81571179D01*
X181329760Y-81679702D01*
X181310707Y-81800000D01*
X180989293Y-81800000D01*
X180970240Y-81679702D01*
X180914945Y-81571179D01*
X180828821Y-81485055D01*
X180720298Y-81429760D01*
X180600000Y-81410707D01*
X180479702Y-81429760D01*
X180371179Y-81485055D01*
X180285055Y-81571179D01*
X180229760Y-81679702D01*
X180210707Y-81800000D01*
X177560019Y-81800000D01*
X177520298Y-81779761D01*
X177400000Y-81760708D01*
X177279702Y-81779761D01*
X177171179Y-81835056D01*
X177085055Y-81921180D01*
X177029760Y-82029703D01*
X177010707Y-82150001D01*
X177029760Y-82270299D01*
X177085055Y-82378822D01*
X177111686Y-82405453D01*
X177130138Y-82450001D01*
X177111686Y-82494549D01*
X177085055Y-82521180D01*
X177029760Y-82629703D01*
X177010707Y-82750001D01*
X165300000Y-82750001D01*
X165300000Y-80300000D01*
X183610707Y-80300000D01*
X183629760Y-80420298D01*
X183685055Y-80528821D01*
X183771179Y-80614945D01*
X183879702Y-80670240D01*
X184000000Y-80689293D01*
X184120298Y-80670240D01*
X184228821Y-80614945D01*
X184314945Y-80528821D01*
X184370240Y-80420298D01*
X184389293Y-80300000D01*
X184370240Y-80179702D01*
X184314945Y-80071179D01*
X184228821Y-79985055D01*
X184120298Y-79929760D01*
X184000000Y-79910707D01*
X183879702Y-79929760D01*
X183771179Y-79985055D01*
X183685055Y-80071179D01*
X183629760Y-80179702D01*
X183610707Y-80300000D01*
X165300000Y-80300000D01*
X165300000Y-79261923D01*
X167148392Y-79261923D01*
X167171897Y-79359453D01*
X167173841Y-79365100D01*
X167258870Y-79552111D01*
X167261841Y-79557278D01*
X167380701Y-79724840D01*
X167384599Y-79729355D01*
X167532996Y-79871414D01*
X167537678Y-79875112D01*
X167710262Y-79986549D01*
X167715560Y-79989295D01*
X167906100Y-80066085D01*
X167911820Y-80067779D01*
X168114164Y-80107294D01*
X168118647Y-80107839D01*
X168121197Y-80107963D01*
X168122703Y-80108000D01*
X168233467Y-80108000D01*
X168242329Y-80104329D01*
X168246000Y-80095467D01*
X168754000Y-80095467D01*
X168757671Y-80104329D01*
X168766533Y-80108000D01*
X168826319Y-80108000D01*
X168829326Y-80107857D01*
X168982487Y-80093244D01*
X168988348Y-80092115D01*
X169185465Y-80034287D01*
X169191017Y-80032067D01*
X169373648Y-79938006D01*
X169378662Y-79934787D01*
X169540218Y-79807883D01*
X169544539Y-79803767D01*
X169679177Y-79648611D01*
X169682645Y-79643750D01*
X169785517Y-79465929D01*
X169787998Y-79460510D01*
X169855388Y-79266446D01*
X169855678Y-79265258D01*
X169853607Y-79257106D01*
X169848386Y-79254000D01*
X168766533Y-79254000D01*
X168757671Y-79257671D01*
X168754000Y-79266533D01*
X168754000Y-80095467D01*
X168246000Y-80095467D01*
X168246000Y-79266533D01*
X168242329Y-79257671D01*
X168233467Y-79254000D01*
X167159016Y-79254000D01*
X167150154Y-79257671D01*
X167148392Y-79261923D01*
X165300000Y-79261923D01*
X165300000Y-78734742D01*
X167144322Y-78734742D01*
X167146393Y-78742894D01*
X167151614Y-78746000D01*
X168233467Y-78746000D01*
X168242329Y-78742329D01*
X168246000Y-78733467D01*
X168754000Y-78733467D01*
X168757671Y-78742329D01*
X168766533Y-78746000D01*
X169840984Y-78746000D01*
X169849846Y-78742329D01*
X169851608Y-78738077D01*
X169828103Y-78640547D01*
X169826159Y-78634900D01*
X169741130Y-78447889D01*
X169738159Y-78442722D01*
X169619299Y-78275160D01*
X169615401Y-78270645D01*
X169467004Y-78128586D01*
X169462322Y-78124888D01*
X169423778Y-78100000D01*
X171310707Y-78100000D01*
X171329760Y-78220298D01*
X171385055Y-78328821D01*
X171471179Y-78414945D01*
X171577944Y-78469344D01*
X171609257Y-78506008D01*
X171605475Y-78554077D01*
X171577944Y-78581608D01*
X171571179Y-78585055D01*
X171485055Y-78671179D01*
X171429760Y-78779702D01*
X171410707Y-78900000D01*
X171429760Y-79020298D01*
X171485055Y-79128821D01*
X171571179Y-79214945D01*
X171679702Y-79270240D01*
X171800000Y-79289293D01*
X171920298Y-79270240D01*
X172028821Y-79214945D01*
X172114945Y-79128821D01*
X172170240Y-79020298D01*
X172189293Y-78900000D01*
X172510707Y-78900000D01*
X172529760Y-79020298D01*
X172585055Y-79128821D01*
X172671179Y-79214945D01*
X172779702Y-79270240D01*
X172900000Y-79289293D01*
X173020298Y-79270240D01*
X173128821Y-79214945D01*
X173214945Y-79128821D01*
X173270240Y-79020298D01*
X173289293Y-78900000D01*
X173510707Y-78900000D01*
X173529760Y-79020298D01*
X173585055Y-79128821D01*
X173671179Y-79214945D01*
X173779702Y-79270240D01*
X173900000Y-79289293D01*
X174020298Y-79270240D01*
X174060021Y-79250000D01*
X182360707Y-79250000D01*
X182379760Y-79370298D01*
X182435055Y-79478821D01*
X182521179Y-79564945D01*
X182629702Y-79620240D01*
X182750000Y-79639293D01*
X182870298Y-79620240D01*
X182978821Y-79564945D01*
X183064945Y-79478821D01*
X183120240Y-79370298D01*
X183139293Y-79250000D01*
X183120240Y-79129702D01*
X183064945Y-79021179D01*
X182978821Y-78935055D01*
X182870298Y-78879760D01*
X182750000Y-78860707D01*
X182629702Y-78879760D01*
X182521179Y-78935055D01*
X182435055Y-79021179D01*
X182379760Y-79129702D01*
X182360707Y-79250000D01*
X174060021Y-79250000D01*
X174128821Y-79214945D01*
X174214945Y-79128821D01*
X174270240Y-79020298D01*
X174289293Y-78900000D01*
X174270240Y-78779702D01*
X174214945Y-78671179D01*
X174128821Y-78585055D01*
X174020298Y-78529760D01*
X173900000Y-78510707D01*
X173779702Y-78529760D01*
X173671179Y-78585055D01*
X173585055Y-78671179D01*
X173529760Y-78779702D01*
X173510707Y-78900000D01*
X173289293Y-78900000D01*
X173270240Y-78779702D01*
X173214945Y-78671179D01*
X173128821Y-78585055D01*
X173020298Y-78529760D01*
X172900000Y-78510707D01*
X172779702Y-78529760D01*
X172671179Y-78585055D01*
X172585055Y-78671179D01*
X172529760Y-78779702D01*
X172510707Y-78900000D01*
X172189293Y-78900000D01*
X172170240Y-78779702D01*
X172114945Y-78671179D01*
X172028821Y-78585055D01*
X171922056Y-78530656D01*
X171890743Y-78493992D01*
X171894525Y-78445923D01*
X171922056Y-78418392D01*
X171928821Y-78414945D01*
X172014945Y-78328821D01*
X172070240Y-78220298D01*
X172089293Y-78100000D01*
X184410707Y-78100000D01*
X184429760Y-78220298D01*
X184485055Y-78328821D01*
X184571179Y-78414945D01*
X184679702Y-78470240D01*
X184800000Y-78489293D01*
X184920298Y-78470240D01*
X185028821Y-78414945D01*
X185114945Y-78328821D01*
X185170240Y-78220298D01*
X185189293Y-78100000D01*
X185170240Y-77979702D01*
X185114945Y-77871179D01*
X185028821Y-77785055D01*
X184920298Y-77729760D01*
X184800000Y-77710707D01*
X184679702Y-77729760D01*
X184571179Y-77785055D01*
X184485055Y-77871179D01*
X184429760Y-77979702D01*
X184410707Y-78100000D01*
X172089293Y-78100000D01*
X172070240Y-77979702D01*
X172014945Y-77871179D01*
X171928821Y-77785055D01*
X171820298Y-77729760D01*
X171700000Y-77710707D01*
X171579702Y-77729760D01*
X171471179Y-77785055D01*
X171385055Y-77871179D01*
X171329760Y-77979702D01*
X171310707Y-78100000D01*
X169423778Y-78100000D01*
X169289738Y-78013451D01*
X169284440Y-78010705D01*
X169093900Y-77933915D01*
X169088180Y-77932221D01*
X168885836Y-77892706D01*
X168881353Y-77892161D01*
X168878803Y-77892037D01*
X168877297Y-77892000D01*
X168766533Y-77892000D01*
X168757671Y-77895671D01*
X168754000Y-77904533D01*
X168754000Y-78733467D01*
X168246000Y-78733467D01*
X168246000Y-77904533D01*
X168242329Y-77895671D01*
X168233467Y-77892000D01*
X168173681Y-77892000D01*
X168170674Y-77892143D01*
X168017513Y-77906756D01*
X168011652Y-77907885D01*
X167814535Y-77965713D01*
X167808983Y-77967933D01*
X167626352Y-78061994D01*
X167621338Y-78065213D01*
X167459782Y-78192117D01*
X167455461Y-78196233D01*
X167320823Y-78351389D01*
X167317355Y-78356250D01*
X167214483Y-78534071D01*
X167212002Y-78539490D01*
X167144612Y-78733554D01*
X167144322Y-78734742D01*
X165300000Y-78734742D01*
X165300000Y-77039774D01*
X167490603Y-77039774D01*
X167519450Y-77207655D01*
X167520885Y-77211027D01*
X167565295Y-77315395D01*
X167586145Y-77364396D01*
X167588313Y-77367342D01*
X167644157Y-77443225D01*
X167687109Y-77501591D01*
X167689895Y-77503958D01*
X167689898Y-77503961D01*
X167767914Y-77570240D01*
X167816927Y-77611880D01*
X167820189Y-77613546D01*
X167820191Y-77613547D01*
X167888233Y-77648291D01*
X167968635Y-77689346D01*
X168007543Y-77698867D01*
X168131370Y-77729167D01*
X168131376Y-77729168D01*
X168134094Y-77729833D01*
X168136893Y-77730007D01*
X168136895Y-77730007D01*
X168143859Y-77730439D01*
X168143865Y-77730439D01*
X168144845Y-77730500D01*
X168817655Y-77730500D01*
X168819472Y-77730288D01*
X168819475Y-77730288D01*
X168940559Y-77716171D01*
X168940560Y-77716171D01*
X168944195Y-77715747D01*
X168947634Y-77714499D01*
X168947637Y-77714498D01*
X169021515Y-77687681D01*
X169104315Y-77657626D01*
X169107377Y-77655619D01*
X169107380Y-77655617D01*
X169208540Y-77589293D01*
X169246769Y-77564229D01*
X169363916Y-77440566D01*
X169373306Y-77424401D01*
X169436621Y-77315395D01*
X169449473Y-77293269D01*
X169498849Y-77130241D01*
X169499192Y-77124721D01*
X169506929Y-77000000D01*
X171310707Y-77000000D01*
X171329760Y-77120298D01*
X171385055Y-77228821D01*
X171471179Y-77314945D01*
X171579702Y-77370240D01*
X171700000Y-77389293D01*
X171820298Y-77370240D01*
X171928821Y-77314945D01*
X172014945Y-77228821D01*
X172029630Y-77200000D01*
X179410707Y-77200000D01*
X179429760Y-77320298D01*
X179485055Y-77428821D01*
X179571179Y-77514945D01*
X179679702Y-77570240D01*
X179800000Y-77589293D01*
X179920298Y-77570240D01*
X180028821Y-77514945D01*
X180114945Y-77428821D01*
X180170240Y-77320298D01*
X180189293Y-77200000D01*
X180170240Y-77079702D01*
X180129630Y-77000000D01*
X184410707Y-77000000D01*
X184429760Y-77120298D01*
X184485055Y-77228821D01*
X184571179Y-77314945D01*
X184679702Y-77370240D01*
X184800000Y-77389293D01*
X184920298Y-77370240D01*
X185028821Y-77314945D01*
X185114945Y-77228821D01*
X185170240Y-77120298D01*
X185189293Y-77000000D01*
X185170240Y-76879702D01*
X185114945Y-76771179D01*
X185028821Y-76685055D01*
X184920298Y-76629760D01*
X184800000Y-76610707D01*
X184679702Y-76629760D01*
X184571179Y-76685055D01*
X184485055Y-76771179D01*
X184429760Y-76879702D01*
X184410707Y-77000000D01*
X180129630Y-77000000D01*
X180114945Y-76971179D01*
X180028821Y-76885055D01*
X179920298Y-76829760D01*
X179800000Y-76810707D01*
X179679702Y-76829760D01*
X179571179Y-76885055D01*
X179485055Y-76971179D01*
X179429760Y-77079702D01*
X179410707Y-77200000D01*
X172029630Y-77200000D01*
X172070240Y-77120298D01*
X172089293Y-77000000D01*
X172070240Y-76879702D01*
X172014945Y-76771179D01*
X171928821Y-76685055D01*
X171820298Y-76629760D01*
X171700000Y-76610707D01*
X171579702Y-76629760D01*
X171471179Y-76685055D01*
X171385055Y-76771179D01*
X171329760Y-76879702D01*
X171310707Y-77000000D01*
X169506929Y-77000000D01*
X169509170Y-76963881D01*
X169509397Y-76960226D01*
X169480550Y-76792345D01*
X169413855Y-76635604D01*
X169357800Y-76559434D01*
X169315060Y-76501356D01*
X169315059Y-76501355D01*
X169314062Y-76500000D01*
X174360707Y-76500000D01*
X174379760Y-76620298D01*
X174435055Y-76728821D01*
X174521179Y-76814945D01*
X174629702Y-76870240D01*
X174750000Y-76889293D01*
X174870298Y-76870240D01*
X174978821Y-76814945D01*
X175064945Y-76728821D01*
X175120240Y-76620298D01*
X175139293Y-76500000D01*
X175120240Y-76379702D01*
X175064945Y-76271179D01*
X174978821Y-76185055D01*
X174870298Y-76129760D01*
X174750000Y-76110707D01*
X174629702Y-76129760D01*
X174521179Y-76185055D01*
X174435055Y-76271179D01*
X174379760Y-76379702D01*
X174360707Y-76500000D01*
X169314062Y-76500000D01*
X169312891Y-76498409D01*
X169310105Y-76496042D01*
X169310102Y-76496039D01*
X169185865Y-76390492D01*
X169183073Y-76388120D01*
X169179811Y-76386454D01*
X169179809Y-76386453D01*
X169091037Y-76341124D01*
X169031365Y-76310654D01*
X168944069Y-76289293D01*
X168868630Y-76270833D01*
X168868624Y-76270832D01*
X168865906Y-76270167D01*
X168863107Y-76269993D01*
X168863105Y-76269993D01*
X168856141Y-76269561D01*
X168856135Y-76269561D01*
X168855155Y-76269500D01*
X168182345Y-76269500D01*
X168180528Y-76269712D01*
X168180525Y-76269712D01*
X168059441Y-76283829D01*
X168059440Y-76283829D01*
X168055805Y-76284253D01*
X168052366Y-76285501D01*
X168052363Y-76285502D01*
X167985466Y-76309785D01*
X167895685Y-76342374D01*
X167892623Y-76344381D01*
X167892620Y-76344383D01*
X167838750Y-76379702D01*
X167753231Y-76435771D01*
X167750711Y-76438431D01*
X167750710Y-76438432D01*
X167676154Y-76517135D01*
X167636084Y-76559434D01*
X167634247Y-76562597D01*
X167634246Y-76562598D01*
X167605068Y-76612831D01*
X167550527Y-76706731D01*
X167501151Y-76869759D01*
X167500925Y-76873407D01*
X167500924Y-76873411D01*
X167495076Y-76967673D01*
X167490603Y-77039774D01*
X165300000Y-77039774D01*
X165300000Y-75900000D01*
X184410707Y-75900000D01*
X184429760Y-76020298D01*
X184485055Y-76128821D01*
X184571179Y-76214945D01*
X184679702Y-76270240D01*
X184800000Y-76289293D01*
X184920298Y-76270240D01*
X185028821Y-76214945D01*
X185114945Y-76128821D01*
X185170240Y-76020298D01*
X185189293Y-75900000D01*
X185170240Y-75779702D01*
X185114945Y-75671179D01*
X185028821Y-75585055D01*
X184920298Y-75529760D01*
X184800000Y-75510707D01*
X184679702Y-75529760D01*
X184571179Y-75585055D01*
X184485055Y-75671179D01*
X184429760Y-75779702D01*
X184410707Y-75900000D01*
X165300000Y-75900000D01*
X165300000Y-75039774D01*
X167490603Y-75039774D01*
X167519450Y-75207655D01*
X167586145Y-75364396D01*
X167588313Y-75367342D01*
X167644157Y-75443225D01*
X167687109Y-75501591D01*
X167689895Y-75503958D01*
X167689898Y-75503961D01*
X167722919Y-75532014D01*
X167816927Y-75611880D01*
X167820189Y-75613546D01*
X167820191Y-75613547D01*
X167888233Y-75648291D01*
X167968635Y-75689346D01*
X168007543Y-75698867D01*
X168131370Y-75729167D01*
X168131376Y-75729168D01*
X168134094Y-75729833D01*
X168136893Y-75730007D01*
X168136895Y-75730007D01*
X168143859Y-75730439D01*
X168143865Y-75730439D01*
X168144845Y-75730500D01*
X168817655Y-75730500D01*
X168819472Y-75730288D01*
X168819475Y-75730288D01*
X168940559Y-75716171D01*
X168940560Y-75716171D01*
X168944195Y-75715747D01*
X168947634Y-75714499D01*
X168947637Y-75714498D01*
X169054800Y-75675599D01*
X169104315Y-75657626D01*
X169107377Y-75655619D01*
X169107380Y-75655617D01*
X169177707Y-75609508D01*
X169246769Y-75564229D01*
X169363916Y-75440566D01*
X169449473Y-75293269D01*
X169498849Y-75130241D01*
X169499659Y-75117197D01*
X169509170Y-74963881D01*
X169509397Y-74960226D01*
X169481865Y-74800000D01*
X184410707Y-74800000D01*
X184429760Y-74920298D01*
X184485055Y-75028821D01*
X184571179Y-75114945D01*
X184679702Y-75170240D01*
X184800000Y-75189293D01*
X184920298Y-75170240D01*
X185028821Y-75114945D01*
X185114945Y-75028821D01*
X185170240Y-74920298D01*
X185189293Y-74800000D01*
X185170240Y-74679702D01*
X185114945Y-74571179D01*
X185028821Y-74485055D01*
X184920298Y-74429760D01*
X184800000Y-74410707D01*
X184679702Y-74429760D01*
X184571179Y-74485055D01*
X184485055Y-74571179D01*
X184429760Y-74679702D01*
X184410707Y-74800000D01*
X169481865Y-74800000D01*
X169480550Y-74792345D01*
X169442775Y-74703569D01*
X169415288Y-74638971D01*
X169415287Y-74638969D01*
X169413855Y-74635604D01*
X169381126Y-74591130D01*
X169315060Y-74501356D01*
X169315059Y-74501355D01*
X169312891Y-74498409D01*
X169310105Y-74496042D01*
X169310102Y-74496039D01*
X169185865Y-74390492D01*
X169183073Y-74388120D01*
X169179811Y-74386454D01*
X169179809Y-74386453D01*
X169106165Y-74348849D01*
X169031365Y-74310654D01*
X168990003Y-74300533D01*
X168868630Y-74270833D01*
X168868624Y-74270832D01*
X168865906Y-74270167D01*
X168863107Y-74269993D01*
X168863105Y-74269993D01*
X168856141Y-74269561D01*
X168856135Y-74269561D01*
X168855155Y-74269500D01*
X168182345Y-74269500D01*
X168180528Y-74269712D01*
X168180525Y-74269712D01*
X168059441Y-74283829D01*
X168059440Y-74283829D01*
X168055805Y-74284253D01*
X168052366Y-74285501D01*
X168052363Y-74285502D01*
X167985466Y-74309785D01*
X167895685Y-74342374D01*
X167892623Y-74344381D01*
X167892620Y-74344383D01*
X167828453Y-74386453D01*
X167753231Y-74435771D01*
X167636084Y-74559434D01*
X167634247Y-74562597D01*
X167634246Y-74562598D01*
X167619399Y-74588159D01*
X167550527Y-74706731D01*
X167501151Y-74869759D01*
X167500925Y-74873407D01*
X167500924Y-74873411D01*
X167494458Y-74977633D01*
X167490603Y-75039774D01*
X165300000Y-75039774D01*
X165300000Y-73386062D01*
X167494500Y-73386062D01*
X167494836Y-73388341D01*
X167494836Y-73388348D01*
X167504702Y-73455372D01*
X167505509Y-73460852D01*
X167561337Y-73574560D01*
X167594506Y-73607671D01*
X167647302Y-73660376D01*
X167647304Y-73660377D01*
X167650987Y-73664054D01*
X167655667Y-73666341D01*
X167655666Y-73666341D01*
X167760402Y-73717537D01*
X167760404Y-73717538D01*
X167764793Y-73719683D01*
X167816983Y-73727297D01*
X167836675Y-73730170D01*
X167836677Y-73730170D01*
X167838938Y-73730500D01*
X169161062Y-73730500D01*
X169163341Y-73730164D01*
X169163348Y-73730164D01*
X169231009Y-73720204D01*
X169231010Y-73720204D01*
X169235852Y-73719491D01*
X169240242Y-73717336D01*
X169240244Y-73717335D01*
X169275551Y-73700000D01*
X184410707Y-73700000D01*
X184429760Y-73820298D01*
X184485055Y-73928821D01*
X184571179Y-74014945D01*
X184679702Y-74070240D01*
X184800000Y-74089293D01*
X184920298Y-74070240D01*
X185028821Y-74014945D01*
X185032704Y-74011062D01*
X186469500Y-74011062D01*
X186469836Y-74013341D01*
X186469836Y-74013348D01*
X186472740Y-74033073D01*
X186480509Y-74085852D01*
X186482664Y-74090242D01*
X186482665Y-74090244D01*
X186506966Y-74139738D01*
X186536337Y-74199560D01*
X186560467Y-74223648D01*
X186622302Y-74285376D01*
X186622304Y-74285377D01*
X186625987Y-74289054D01*
X186630667Y-74291341D01*
X186630666Y-74291341D01*
X186735402Y-74342537D01*
X186735404Y-74342538D01*
X186739793Y-74344683D01*
X186792724Y-74352405D01*
X186811675Y-74355170D01*
X186811677Y-74355170D01*
X186813938Y-74355500D01*
X187586062Y-74355500D01*
X187588341Y-74355164D01*
X187588348Y-74355164D01*
X187656009Y-74345204D01*
X187656010Y-74345204D01*
X187660852Y-74344491D01*
X187665242Y-74342336D01*
X187665244Y-74342335D01*
X187769890Y-74290956D01*
X187769891Y-74290956D01*
X187774560Y-74288663D01*
X187839462Y-74223648D01*
X187860376Y-74202698D01*
X187860377Y-74202696D01*
X187864054Y-74199013D01*
X187912799Y-74099290D01*
X187917537Y-74089598D01*
X187917538Y-74089596D01*
X187919683Y-74085207D01*
X187929934Y-74014945D01*
X187930170Y-74013325D01*
X187930170Y-74013323D01*
X187930500Y-74011062D01*
X187930500Y-73667655D01*
X188469500Y-73667655D01*
X188469712Y-73669472D01*
X188469712Y-73669475D01*
X188476629Y-73728803D01*
X188484253Y-73794195D01*
X188542374Y-73954315D01*
X188544381Y-73957377D01*
X188544383Y-73957380D01*
X188578066Y-74008754D01*
X188635771Y-74096769D01*
X188638431Y-74099289D01*
X188638432Y-74099290D01*
X188717135Y-74173846D01*
X188759434Y-74213916D01*
X188906731Y-74299473D01*
X189069759Y-74348849D01*
X189073407Y-74349075D01*
X189073411Y-74349076D01*
X189171642Y-74355170D01*
X189239774Y-74359397D01*
X189243382Y-74358777D01*
X189243383Y-74358777D01*
X189301160Y-74348849D01*
X189407655Y-74330550D01*
X189466189Y-74305643D01*
X189561029Y-74265288D01*
X189561031Y-74265287D01*
X189564396Y-74263855D01*
X189647499Y-74202698D01*
X189698644Y-74165060D01*
X189698645Y-74165059D01*
X189701591Y-74162891D01*
X189703958Y-74160105D01*
X189703961Y-74160102D01*
X189809508Y-74035865D01*
X189811880Y-74033073D01*
X189823120Y-74011062D01*
X189887681Y-73884625D01*
X189889346Y-73881365D01*
X189911566Y-73790559D01*
X189929167Y-73718630D01*
X189929168Y-73718624D01*
X189929833Y-73715906D01*
X189930500Y-73705155D01*
X189930500Y-73667655D01*
X190469500Y-73667655D01*
X190469712Y-73669472D01*
X190469712Y-73669475D01*
X190476629Y-73728803D01*
X190484253Y-73794195D01*
X190542374Y-73954315D01*
X190544381Y-73957377D01*
X190544383Y-73957380D01*
X190578066Y-74008754D01*
X190635771Y-74096769D01*
X190638431Y-74099289D01*
X190638432Y-74099290D01*
X190717135Y-74173846D01*
X190759434Y-74213916D01*
X190906731Y-74299473D01*
X191069759Y-74348849D01*
X191073407Y-74349075D01*
X191073411Y-74349076D01*
X191171642Y-74355170D01*
X191239774Y-74359397D01*
X191243382Y-74358777D01*
X191243383Y-74358777D01*
X191301160Y-74348849D01*
X191407655Y-74330550D01*
X191466189Y-74305643D01*
X191561029Y-74265288D01*
X191561031Y-74265287D01*
X191564396Y-74263855D01*
X191647499Y-74202698D01*
X191698644Y-74165060D01*
X191698645Y-74165059D01*
X191701591Y-74162891D01*
X191703958Y-74160105D01*
X191703961Y-74160102D01*
X191809508Y-74035865D01*
X191811880Y-74033073D01*
X191823120Y-74011062D01*
X191887681Y-73884625D01*
X191889346Y-73881365D01*
X191911566Y-73790559D01*
X191929167Y-73718630D01*
X191929168Y-73718624D01*
X191929833Y-73715906D01*
X191930500Y-73705155D01*
X191930500Y-73676319D01*
X192092000Y-73676319D01*
X192092143Y-73679326D01*
X192106756Y-73832487D01*
X192107885Y-73838348D01*
X192165713Y-74035465D01*
X192167933Y-74041017D01*
X192261994Y-74223648D01*
X192265213Y-74228662D01*
X192392117Y-74390218D01*
X192396233Y-74394539D01*
X192551389Y-74529177D01*
X192556250Y-74532645D01*
X192734071Y-74635517D01*
X192739490Y-74637998D01*
X192933554Y-74705388D01*
X192934742Y-74705678D01*
X192942894Y-74703607D01*
X192946000Y-74698386D01*
X192946000Y-74690984D01*
X193454000Y-74690984D01*
X193457671Y-74699846D01*
X193461923Y-74701608D01*
X193559453Y-74678103D01*
X193565100Y-74676159D01*
X193752111Y-74591130D01*
X193757278Y-74588159D01*
X193924840Y-74469299D01*
X193929355Y-74465401D01*
X194071414Y-74317004D01*
X194075112Y-74312322D01*
X194186549Y-74139738D01*
X194189295Y-74134440D01*
X194266085Y-73943900D01*
X194267779Y-73938180D01*
X194307294Y-73735836D01*
X194307839Y-73731353D01*
X194307963Y-73728803D01*
X194308000Y-73727297D01*
X194308000Y-73616533D01*
X194304329Y-73607671D01*
X194295467Y-73604000D01*
X193466533Y-73604000D01*
X193457671Y-73607671D01*
X193454000Y-73616533D01*
X193454000Y-74690984D01*
X192946000Y-74690984D01*
X192946000Y-73616533D01*
X192942329Y-73607671D01*
X192933467Y-73604000D01*
X192104533Y-73604000D01*
X192095671Y-73607671D01*
X192092000Y-73616533D01*
X192092000Y-73676319D01*
X191930500Y-73676319D01*
X191930500Y-73083467D01*
X192092000Y-73083467D01*
X192095671Y-73092329D01*
X192104533Y-73096000D01*
X192933467Y-73096000D01*
X192942329Y-73092329D01*
X192946000Y-73083467D01*
X193454000Y-73083467D01*
X193457671Y-73092329D01*
X193466533Y-73096000D01*
X194295467Y-73096000D01*
X194304329Y-73092329D01*
X194308000Y-73083467D01*
X194308000Y-73023681D01*
X194307857Y-73020674D01*
X194293244Y-72867513D01*
X194292115Y-72861652D01*
X194234287Y-72664535D01*
X194232067Y-72658983D01*
X194138006Y-72476352D01*
X194134787Y-72471338D01*
X194007883Y-72309782D01*
X194003767Y-72305461D01*
X193848611Y-72170823D01*
X193843750Y-72167355D01*
X193665929Y-72064483D01*
X193660510Y-72062002D01*
X193466446Y-71994612D01*
X193465258Y-71994322D01*
X193457106Y-71996393D01*
X193454000Y-72001614D01*
X193454000Y-73083467D01*
X192946000Y-73083467D01*
X192946000Y-72009016D01*
X192942329Y-72000154D01*
X192938077Y-71998392D01*
X192840547Y-72021897D01*
X192834900Y-72023841D01*
X192647889Y-72108870D01*
X192642722Y-72111841D01*
X192475160Y-72230701D01*
X192470645Y-72234599D01*
X192328586Y-72382996D01*
X192324888Y-72387678D01*
X192213451Y-72560262D01*
X192210705Y-72565560D01*
X192133915Y-72756100D01*
X192132221Y-72761820D01*
X192092706Y-72964164D01*
X192092161Y-72968647D01*
X192092037Y-72971197D01*
X192092000Y-72972703D01*
X192092000Y-73083467D01*
X191930500Y-73083467D01*
X191930500Y-73032345D01*
X191923547Y-72972703D01*
X191916171Y-72909441D01*
X191916171Y-72909440D01*
X191915747Y-72905805D01*
X191909754Y-72889293D01*
X191875563Y-72795100D01*
X191857626Y-72745685D01*
X191855619Y-72742623D01*
X191855617Y-72742620D01*
X191778318Y-72624721D01*
X191764229Y-72603231D01*
X191760819Y-72600000D01*
X191656298Y-72500987D01*
X191640566Y-72486084D01*
X191634918Y-72482803D01*
X191554590Y-72436145D01*
X191493269Y-72400527D01*
X191330241Y-72351151D01*
X191326593Y-72350925D01*
X191326589Y-72350924D01*
X191222367Y-72344458D01*
X191160226Y-72340603D01*
X191156618Y-72341223D01*
X191156617Y-72341223D01*
X191135626Y-72344830D01*
X190992345Y-72369450D01*
X190956729Y-72384605D01*
X190838971Y-72434712D01*
X190838969Y-72434713D01*
X190835604Y-72436145D01*
X190832658Y-72438313D01*
X190748237Y-72500440D01*
X190698409Y-72537109D01*
X190696042Y-72539895D01*
X190696039Y-72539898D01*
X190627734Y-72620298D01*
X190588120Y-72666927D01*
X190586454Y-72670189D01*
X190586453Y-72670191D01*
X190575713Y-72691224D01*
X190510654Y-72818635D01*
X190509785Y-72822187D01*
X190470833Y-72981370D01*
X190470832Y-72981376D01*
X190470167Y-72984094D01*
X190469993Y-72986893D01*
X190469993Y-72986895D01*
X190469844Y-72989293D01*
X190469500Y-72994845D01*
X190469500Y-73667655D01*
X189930500Y-73667655D01*
X189930500Y-73032345D01*
X189923547Y-72972703D01*
X189916171Y-72909441D01*
X189916171Y-72909440D01*
X189915747Y-72905805D01*
X189909754Y-72889293D01*
X189875563Y-72795100D01*
X189857626Y-72745685D01*
X189855619Y-72742623D01*
X189855617Y-72742620D01*
X189778318Y-72624721D01*
X189764229Y-72603231D01*
X189760819Y-72600000D01*
X189656298Y-72500987D01*
X189640566Y-72486084D01*
X189634918Y-72482803D01*
X189554590Y-72436145D01*
X189493269Y-72400527D01*
X189330241Y-72351151D01*
X189326593Y-72350925D01*
X189326589Y-72350924D01*
X189222367Y-72344458D01*
X189160226Y-72340603D01*
X189156618Y-72341223D01*
X189156617Y-72341223D01*
X189135626Y-72344830D01*
X188992345Y-72369450D01*
X188956729Y-72384605D01*
X188838971Y-72434712D01*
X188838969Y-72434713D01*
X188835604Y-72436145D01*
X188832658Y-72438313D01*
X188748237Y-72500440D01*
X188698409Y-72537109D01*
X188696042Y-72539895D01*
X188696039Y-72539898D01*
X188627734Y-72620298D01*
X188588120Y-72666927D01*
X188586454Y-72670189D01*
X188586453Y-72670191D01*
X188575713Y-72691224D01*
X188510654Y-72818635D01*
X188509785Y-72822187D01*
X188470833Y-72981370D01*
X188470832Y-72981376D01*
X188470167Y-72984094D01*
X188469993Y-72986893D01*
X188469993Y-72986895D01*
X188469844Y-72989293D01*
X188469500Y-72994845D01*
X188469500Y-73667655D01*
X187930500Y-73667655D01*
X187930500Y-72688938D01*
X187929863Y-72684605D01*
X187920204Y-72618991D01*
X187920204Y-72618990D01*
X187919491Y-72614148D01*
X187914951Y-72604900D01*
X187865956Y-72505110D01*
X187865956Y-72505109D01*
X187863663Y-72500440D01*
X187799256Y-72436145D01*
X187777698Y-72414624D01*
X187777696Y-72414623D01*
X187774013Y-72410946D01*
X187726411Y-72387678D01*
X187664598Y-72357463D01*
X187664596Y-72357462D01*
X187660207Y-72355317D01*
X187607276Y-72347595D01*
X187588325Y-72344830D01*
X187588323Y-72344830D01*
X187586062Y-72344500D01*
X186813938Y-72344500D01*
X186811659Y-72344836D01*
X186811652Y-72344836D01*
X186743991Y-72354796D01*
X186743990Y-72354796D01*
X186739148Y-72355509D01*
X186734758Y-72357664D01*
X186734756Y-72357665D01*
X186630894Y-72408659D01*
X186625440Y-72411337D01*
X186607824Y-72428984D01*
X186539624Y-72497302D01*
X186539623Y-72497304D01*
X186535946Y-72500987D01*
X186533659Y-72505666D01*
X186485153Y-72604900D01*
X186480317Y-72614793D01*
X186479612Y-72619628D01*
X186469834Y-72686652D01*
X186469500Y-72688938D01*
X186469500Y-74011062D01*
X185032704Y-74011062D01*
X185114945Y-73928821D01*
X185170240Y-73820298D01*
X185189293Y-73700000D01*
X185170240Y-73579702D01*
X185114945Y-73471179D01*
X185028821Y-73385055D01*
X184920298Y-73329760D01*
X184800000Y-73310707D01*
X184679702Y-73329760D01*
X184571179Y-73385055D01*
X184485055Y-73471179D01*
X184429760Y-73579702D01*
X184410707Y-73700000D01*
X169275551Y-73700000D01*
X169344890Y-73665956D01*
X169344891Y-73665956D01*
X169349560Y-73663663D01*
X169409119Y-73604000D01*
X169435376Y-73577698D01*
X169435377Y-73577696D01*
X169439054Y-73574013D01*
X169454633Y-73542141D01*
X169492537Y-73464598D01*
X169492538Y-73464596D01*
X169494683Y-73460207D01*
X169502405Y-73407276D01*
X169505170Y-73388325D01*
X169505170Y-73388323D01*
X169505500Y-73386062D01*
X169505500Y-72613938D01*
X169504885Y-72609756D01*
X169495204Y-72543991D01*
X169495204Y-72543990D01*
X169494491Y-72539148D01*
X169475487Y-72500440D01*
X169475271Y-72500000D01*
X171360707Y-72500000D01*
X171379760Y-72620298D01*
X171435055Y-72728821D01*
X171521179Y-72814945D01*
X171629702Y-72870240D01*
X171750000Y-72889293D01*
X171870298Y-72870240D01*
X171978821Y-72814945D01*
X171993766Y-72800000D01*
X180110707Y-72800000D01*
X180129760Y-72920298D01*
X180185055Y-73028821D01*
X180271179Y-73114945D01*
X180379702Y-73170240D01*
X180500000Y-73189293D01*
X180620298Y-73170240D01*
X180728821Y-73114945D01*
X180814945Y-73028821D01*
X180870240Y-72920298D01*
X180889293Y-72800000D01*
X180870240Y-72679702D01*
X180829630Y-72600000D01*
X184410707Y-72600000D01*
X184429760Y-72720298D01*
X184485055Y-72828821D01*
X184571179Y-72914945D01*
X184679702Y-72970240D01*
X184800000Y-72989293D01*
X184920298Y-72970240D01*
X185028821Y-72914945D01*
X185114945Y-72828821D01*
X185170240Y-72720298D01*
X185189293Y-72600000D01*
X185170240Y-72479702D01*
X185114945Y-72371179D01*
X185028821Y-72285055D01*
X184920298Y-72229760D01*
X184800000Y-72210707D01*
X184679702Y-72229760D01*
X184571179Y-72285055D01*
X184485055Y-72371179D01*
X184429760Y-72479702D01*
X184410707Y-72600000D01*
X180829630Y-72600000D01*
X180814945Y-72571179D01*
X180728821Y-72485055D01*
X180620298Y-72429760D01*
X180500000Y-72410707D01*
X180379702Y-72429760D01*
X180271179Y-72485055D01*
X180185055Y-72571179D01*
X180129760Y-72679702D01*
X180110707Y-72800000D01*
X171993766Y-72800000D01*
X172064945Y-72728821D01*
X172120240Y-72620298D01*
X172139293Y-72500000D01*
X172120240Y-72379702D01*
X172064945Y-72271179D01*
X171978821Y-72185055D01*
X171870298Y-72129760D01*
X171750000Y-72110707D01*
X171629702Y-72129760D01*
X171521179Y-72185055D01*
X171435055Y-72271179D01*
X171379760Y-72379702D01*
X171360707Y-72500000D01*
X169475271Y-72500000D01*
X169440956Y-72430110D01*
X169440956Y-72430109D01*
X169438663Y-72425440D01*
X169388415Y-72375279D01*
X169352698Y-72339624D01*
X169352696Y-72339623D01*
X169349013Y-72335946D01*
X169252073Y-72288561D01*
X169239598Y-72282463D01*
X169239596Y-72282462D01*
X169235207Y-72280317D01*
X169172571Y-72271179D01*
X169163325Y-72269830D01*
X169163323Y-72269830D01*
X169161062Y-72269500D01*
X167838938Y-72269500D01*
X167836659Y-72269836D01*
X167836652Y-72269836D01*
X167768991Y-72279796D01*
X167768990Y-72279796D01*
X167764148Y-72280509D01*
X167759758Y-72282664D01*
X167759756Y-72282665D01*
X167704526Y-72309782D01*
X167650440Y-72336337D01*
X167629351Y-72357463D01*
X167564624Y-72422302D01*
X167564623Y-72422304D01*
X167560946Y-72425987D01*
X167558659Y-72430666D01*
X167524286Y-72500987D01*
X167505317Y-72539793D01*
X167504612Y-72544628D01*
X167494834Y-72611652D01*
X167494500Y-72613938D01*
X167494500Y-73386062D01*
X165300000Y-73386062D01*
X165300000Y-71500000D01*
X171360707Y-71500000D01*
X171379760Y-71620298D01*
X171435055Y-71728821D01*
X171521179Y-71814945D01*
X171629702Y-71870240D01*
X171750000Y-71889293D01*
X171870298Y-71870240D01*
X171978821Y-71814945D01*
X172064945Y-71728821D01*
X172120240Y-71620298D01*
X172139293Y-71500000D01*
X172120240Y-71379702D01*
X172064945Y-71271179D01*
X171978821Y-71185055D01*
X171870298Y-71129760D01*
X171750000Y-71110707D01*
X171629702Y-71129760D01*
X171521179Y-71185055D01*
X171435055Y-71271179D01*
X171379760Y-71379702D01*
X171360707Y-71500000D01*
X165300000Y-71500000D01*
X165300000Y-70200000D01*
X194810707Y-70200000D01*
X194829760Y-70320298D01*
X194885055Y-70428821D01*
X194971179Y-70514945D01*
X195079702Y-70570240D01*
X195200000Y-70589293D01*
X195320298Y-70570240D01*
X195428821Y-70514945D01*
X195514945Y-70428821D01*
X195570240Y-70320298D01*
X195589293Y-70200000D01*
X195570240Y-70079702D01*
X195514945Y-69971179D01*
X195428821Y-69885055D01*
X195320298Y-69829760D01*
X195200000Y-69810707D01*
X195079702Y-69829760D01*
X194971179Y-69885055D01*
X194885055Y-69971179D01*
X194829760Y-70079702D01*
X194810707Y-70200000D01*
X165300000Y-70200000D01*
X165300000Y-69300000D01*
X182410707Y-69300000D01*
X182429760Y-69420298D01*
X182485055Y-69528821D01*
X182571179Y-69614945D01*
X182679702Y-69670240D01*
X182800000Y-69689293D01*
X182920298Y-69670240D01*
X183028821Y-69614945D01*
X183114945Y-69528821D01*
X183170240Y-69420298D01*
X183189293Y-69300000D01*
X183170240Y-69179702D01*
X183114945Y-69071179D01*
X183028821Y-68985055D01*
X182920298Y-68929760D01*
X182800000Y-68910707D01*
X182679702Y-68929760D01*
X182571179Y-68985055D01*
X182485055Y-69071179D01*
X182429760Y-69179702D01*
X182410707Y-69300000D01*
X165300000Y-69300000D01*
X165300000Y-67134734D01*
X165816047Y-67134734D01*
X165824836Y-67368849D01*
X165872946Y-67598135D01*
X165873926Y-67600616D01*
X165873927Y-67600620D01*
X165920560Y-67718703D01*
X165958999Y-67816038D01*
X165960382Y-67818318D01*
X165960383Y-67818319D01*
X166053141Y-67971179D01*
X166080537Y-68016326D01*
X166082283Y-68018338D01*
X166232340Y-68191264D01*
X166232344Y-68191268D01*
X166234084Y-68193273D01*
X166236139Y-68194958D01*
X166236140Y-68194959D01*
X166413187Y-68340129D01*
X166413193Y-68340133D01*
X166415249Y-68341819D01*
X166417563Y-68343136D01*
X166417567Y-68343139D01*
X166616535Y-68456399D01*
X166616540Y-68456401D01*
X166618853Y-68457718D01*
X166681264Y-68480372D01*
X166836562Y-68536743D01*
X166836567Y-68536744D01*
X166839073Y-68537654D01*
X166841694Y-68538128D01*
X166841698Y-68538129D01*
X167067583Y-68578975D01*
X167067587Y-68578975D01*
X167069614Y-68579342D01*
X167090980Y-68580350D01*
X167093447Y-68580466D01*
X167093449Y-68580466D01*
X167094169Y-68580500D01*
X167258820Y-68580500D01*
X167347562Y-68572970D01*
X167430783Y-68565909D01*
X167430788Y-68565908D01*
X167433441Y-68565683D01*
X167444199Y-68562891D01*
X167553816Y-68534440D01*
X167660206Y-68506827D01*
X167873813Y-68410604D01*
X168068154Y-68279766D01*
X168070202Y-68277813D01*
X168151770Y-68200000D01*
X171310707Y-68200000D01*
X171329760Y-68320298D01*
X171385055Y-68428821D01*
X171471179Y-68514945D01*
X171579702Y-68570240D01*
X171700000Y-68589293D01*
X171820298Y-68570240D01*
X171928821Y-68514945D01*
X172014945Y-68428821D01*
X172023994Y-68411062D01*
X186469500Y-68411062D01*
X186469836Y-68413341D01*
X186469836Y-68413348D01*
X186479702Y-68480372D01*
X186480509Y-68485852D01*
X186482664Y-68490242D01*
X186482665Y-68490244D01*
X186526962Y-68580466D01*
X186536337Y-68599560D01*
X186560467Y-68623648D01*
X186622302Y-68685376D01*
X186622304Y-68685377D01*
X186625987Y-68689054D01*
X186630667Y-68691341D01*
X186630666Y-68691341D01*
X186735402Y-68742537D01*
X186735404Y-68742538D01*
X186739793Y-68744683D01*
X186792724Y-68752405D01*
X186811675Y-68755170D01*
X186811677Y-68755170D01*
X186813938Y-68755500D01*
X187586062Y-68755500D01*
X187588341Y-68755164D01*
X187588348Y-68755164D01*
X187656009Y-68745204D01*
X187656010Y-68745204D01*
X187660852Y-68744491D01*
X187665242Y-68742336D01*
X187665244Y-68742335D01*
X187769890Y-68690956D01*
X187769891Y-68690956D01*
X187774560Y-68688663D01*
X187839462Y-68623648D01*
X187860376Y-68602698D01*
X187860377Y-68602696D01*
X187864054Y-68599013D01*
X187893028Y-68539738D01*
X187917537Y-68489598D01*
X187917538Y-68489596D01*
X187919683Y-68485207D01*
X187928554Y-68424401D01*
X187930170Y-68413325D01*
X187930170Y-68413323D01*
X187930500Y-68411062D01*
X187930500Y-68067655D01*
X188469500Y-68067655D01*
X188469712Y-68069472D01*
X188469712Y-68069475D01*
X188476629Y-68128803D01*
X188484253Y-68194195D01*
X188485501Y-68197634D01*
X188485502Y-68197637D01*
X188498152Y-68232487D01*
X188542374Y-68354315D01*
X188544381Y-68357377D01*
X188544383Y-68357380D01*
X188578066Y-68408754D01*
X188635771Y-68496769D01*
X188638431Y-68499289D01*
X188638432Y-68499290D01*
X188708518Y-68565683D01*
X188759434Y-68613916D01*
X188906731Y-68699473D01*
X189069759Y-68748849D01*
X189073407Y-68749075D01*
X189073411Y-68749076D01*
X189171642Y-68755170D01*
X189239774Y-68759397D01*
X189243382Y-68758777D01*
X189243383Y-68758777D01*
X189301160Y-68748849D01*
X189407655Y-68730550D01*
X189466189Y-68705643D01*
X189561029Y-68665288D01*
X189561031Y-68665287D01*
X189564396Y-68663855D01*
X189647499Y-68602698D01*
X189698644Y-68565060D01*
X189698645Y-68565059D01*
X189701591Y-68562891D01*
X189703958Y-68560105D01*
X189703961Y-68560102D01*
X189809508Y-68435865D01*
X189811880Y-68433073D01*
X189823120Y-68411062D01*
X189858477Y-68341819D01*
X189889346Y-68281365D01*
X189911566Y-68190559D01*
X189929167Y-68118630D01*
X189929168Y-68118624D01*
X189929833Y-68115906D01*
X189930500Y-68105155D01*
X189930500Y-68067655D01*
X190469500Y-68067655D01*
X190469712Y-68069472D01*
X190469712Y-68069475D01*
X190476629Y-68128803D01*
X190484253Y-68194195D01*
X190485501Y-68197634D01*
X190485502Y-68197637D01*
X190498152Y-68232487D01*
X190542374Y-68354315D01*
X190544381Y-68357377D01*
X190544383Y-68357380D01*
X190578066Y-68408754D01*
X190635771Y-68496769D01*
X190638431Y-68499289D01*
X190638432Y-68499290D01*
X190708518Y-68565683D01*
X190759434Y-68613916D01*
X190906731Y-68699473D01*
X191069759Y-68748849D01*
X191073407Y-68749075D01*
X191073411Y-68749076D01*
X191171642Y-68755170D01*
X191239774Y-68759397D01*
X191243382Y-68758777D01*
X191243383Y-68758777D01*
X191301160Y-68748849D01*
X191407655Y-68730550D01*
X191466189Y-68705643D01*
X191561029Y-68665288D01*
X191561031Y-68665287D01*
X191564396Y-68663855D01*
X191647499Y-68602698D01*
X191698644Y-68565060D01*
X191698645Y-68565059D01*
X191701591Y-68562891D01*
X191703958Y-68560105D01*
X191703961Y-68560102D01*
X191809508Y-68435865D01*
X191811880Y-68433073D01*
X191823120Y-68411062D01*
X191858477Y-68341819D01*
X191889346Y-68281365D01*
X191911566Y-68190559D01*
X191929167Y-68118630D01*
X191929168Y-68118624D01*
X191929833Y-68115906D01*
X191930500Y-68105155D01*
X191930500Y-68076319D01*
X192092000Y-68076319D01*
X192092143Y-68079326D01*
X192106756Y-68232487D01*
X192107885Y-68238348D01*
X192165713Y-68435465D01*
X192167933Y-68441017D01*
X192261994Y-68623648D01*
X192265213Y-68628662D01*
X192392117Y-68790218D01*
X192396233Y-68794539D01*
X192551389Y-68929177D01*
X192556250Y-68932645D01*
X192734071Y-69035517D01*
X192739490Y-69037998D01*
X192933554Y-69105388D01*
X192934742Y-69105678D01*
X192942894Y-69103607D01*
X192946000Y-69098386D01*
X192946000Y-69090984D01*
X193454000Y-69090984D01*
X193457671Y-69099846D01*
X193461923Y-69101608D01*
X193559453Y-69078103D01*
X193565100Y-69076159D01*
X193752111Y-68991130D01*
X193757278Y-68988159D01*
X193924840Y-68869299D01*
X193929355Y-68865401D01*
X194071414Y-68717004D01*
X194075112Y-68712322D01*
X194186549Y-68539738D01*
X194189295Y-68534440D01*
X194266085Y-68343900D01*
X194267779Y-68338180D01*
X194307294Y-68135836D01*
X194307839Y-68131353D01*
X194307963Y-68128803D01*
X194308000Y-68127297D01*
X194308000Y-68016533D01*
X194304329Y-68007671D01*
X194295467Y-68004000D01*
X193466533Y-68004000D01*
X193457671Y-68007671D01*
X193454000Y-68016533D01*
X193454000Y-69090984D01*
X192946000Y-69090984D01*
X192946000Y-68016533D01*
X192942329Y-68007671D01*
X192933467Y-68004000D01*
X192104533Y-68004000D01*
X192095671Y-68007671D01*
X192092000Y-68016533D01*
X192092000Y-68076319D01*
X191930500Y-68076319D01*
X191930500Y-67483467D01*
X192092000Y-67483467D01*
X192095671Y-67492329D01*
X192104533Y-67496000D01*
X192933467Y-67496000D01*
X192942329Y-67492329D01*
X192946000Y-67483467D01*
X193454000Y-67483467D01*
X193457671Y-67492329D01*
X193466533Y-67496000D01*
X194295467Y-67496000D01*
X194304329Y-67492329D01*
X194308000Y-67483467D01*
X194308000Y-67423681D01*
X194307857Y-67420674D01*
X194293244Y-67267513D01*
X194292115Y-67261652D01*
X194254881Y-67134734D01*
X196416047Y-67134734D01*
X196424836Y-67368849D01*
X196472946Y-67598135D01*
X196473926Y-67600616D01*
X196473927Y-67600620D01*
X196520560Y-67718703D01*
X196558999Y-67816038D01*
X196560382Y-67818318D01*
X196560383Y-67818319D01*
X196653141Y-67971179D01*
X196680537Y-68016326D01*
X196682283Y-68018338D01*
X196832340Y-68191264D01*
X196832344Y-68191268D01*
X196834084Y-68193273D01*
X196836139Y-68194958D01*
X196836140Y-68194959D01*
X197013187Y-68340129D01*
X197013193Y-68340133D01*
X197015249Y-68341819D01*
X197017563Y-68343136D01*
X197017567Y-68343139D01*
X197216535Y-68456399D01*
X197216540Y-68456401D01*
X197218853Y-68457718D01*
X197281264Y-68480372D01*
X197436562Y-68536743D01*
X197436567Y-68536744D01*
X197439073Y-68537654D01*
X197441694Y-68538128D01*
X197441698Y-68538129D01*
X197667583Y-68578975D01*
X197667587Y-68578975D01*
X197669614Y-68579342D01*
X197690980Y-68580350D01*
X197693447Y-68580466D01*
X197693449Y-68580466D01*
X197694169Y-68580500D01*
X197858820Y-68580500D01*
X197947562Y-68572970D01*
X198030783Y-68565909D01*
X198030788Y-68565908D01*
X198033441Y-68565683D01*
X198044199Y-68562891D01*
X198153816Y-68534440D01*
X198260206Y-68506827D01*
X198473813Y-68410604D01*
X198668154Y-68279766D01*
X198670202Y-68277813D01*
X198835743Y-68119893D01*
X198837671Y-68118054D01*
X198977519Y-67930093D01*
X199083697Y-67721255D01*
X199084488Y-67718709D01*
X199084490Y-67718703D01*
X199152379Y-67500066D01*
X199152380Y-67500061D01*
X199153171Y-67497514D01*
X199153859Y-67492329D01*
X199183603Y-67267908D01*
X199183603Y-67267906D01*
X199183953Y-67265266D01*
X199175164Y-67031151D01*
X199133946Y-66834712D01*
X199127603Y-66804480D01*
X199127602Y-66804477D01*
X199127054Y-66801865D01*
X199121452Y-66787678D01*
X199041981Y-66586444D01*
X199041001Y-66583962D01*
X198919463Y-66383674D01*
X198829592Y-66280107D01*
X198767660Y-66208736D01*
X198767656Y-66208732D01*
X198765916Y-66206727D01*
X198662672Y-66122072D01*
X198586813Y-66059871D01*
X198586807Y-66059867D01*
X198584751Y-66058181D01*
X198582437Y-66056864D01*
X198582433Y-66056861D01*
X198383465Y-65943601D01*
X198383460Y-65943599D01*
X198381147Y-65942282D01*
X198282868Y-65906609D01*
X198163438Y-65863257D01*
X198163433Y-65863256D01*
X198160927Y-65862346D01*
X198158306Y-65861872D01*
X198158302Y-65861871D01*
X197932417Y-65821025D01*
X197932413Y-65821025D01*
X197930386Y-65820658D01*
X197908227Y-65819613D01*
X197906553Y-65819534D01*
X197906551Y-65819534D01*
X197905831Y-65819500D01*
X197741180Y-65819500D01*
X197652438Y-65827030D01*
X197569217Y-65834091D01*
X197569212Y-65834092D01*
X197566559Y-65834317D01*
X197339794Y-65893173D01*
X197126187Y-65989396D01*
X196931846Y-66120234D01*
X196762329Y-66281946D01*
X196622481Y-66469907D01*
X196516303Y-66678745D01*
X196515512Y-66681291D01*
X196515510Y-66681297D01*
X196447621Y-66899934D01*
X196446829Y-66902486D01*
X196446479Y-66905129D01*
X196446478Y-66905132D01*
X196420001Y-67104900D01*
X196416047Y-67134734D01*
X194254881Y-67134734D01*
X194234287Y-67064535D01*
X194232067Y-67058983D01*
X194138006Y-66876352D01*
X194134787Y-66871338D01*
X194007883Y-66709782D01*
X194003767Y-66705461D01*
X193848611Y-66570823D01*
X193843750Y-66567355D01*
X193665929Y-66464483D01*
X193660510Y-66462002D01*
X193466446Y-66394612D01*
X193465258Y-66394322D01*
X193457106Y-66396393D01*
X193454000Y-66401614D01*
X193454000Y-67483467D01*
X192946000Y-67483467D01*
X192946000Y-66409016D01*
X192942329Y-66400154D01*
X192938077Y-66398392D01*
X192840547Y-66421897D01*
X192834900Y-66423841D01*
X192647889Y-66508870D01*
X192642722Y-66511841D01*
X192475160Y-66630701D01*
X192470645Y-66634599D01*
X192328586Y-66782996D01*
X192324888Y-66787678D01*
X192213451Y-66960262D01*
X192210705Y-66965560D01*
X192133915Y-67156100D01*
X192132221Y-67161820D01*
X192092706Y-67364164D01*
X192092161Y-67368647D01*
X192092037Y-67371197D01*
X192092000Y-67372703D01*
X192092000Y-67483467D01*
X191930500Y-67483467D01*
X191930500Y-67432345D01*
X191929096Y-67420298D01*
X191916171Y-67309441D01*
X191916171Y-67309440D01*
X191915747Y-67305805D01*
X191911862Y-67295100D01*
X191871753Y-67184605D01*
X191857626Y-67145685D01*
X191855619Y-67142623D01*
X191855617Y-67142620D01*
X191782534Y-67031151D01*
X191764229Y-67003231D01*
X191692140Y-66934940D01*
X191656298Y-66900987D01*
X191640566Y-66886084D01*
X191493269Y-66800527D01*
X191330241Y-66751151D01*
X191326593Y-66750925D01*
X191326589Y-66750924D01*
X191222367Y-66744458D01*
X191160226Y-66740603D01*
X191156618Y-66741223D01*
X191156617Y-66741223D01*
X191135626Y-66744830D01*
X190992345Y-66769450D01*
X190949507Y-66787678D01*
X190838971Y-66834712D01*
X190838969Y-66834713D01*
X190835604Y-66836145D01*
X190832658Y-66838313D01*
X190709450Y-66928984D01*
X190698409Y-66937109D01*
X190696042Y-66939895D01*
X190696039Y-66939898D01*
X190620736Y-67028536D01*
X190588120Y-67066927D01*
X190586454Y-67070189D01*
X190586453Y-67070191D01*
X190575713Y-67091224D01*
X190510654Y-67218635D01*
X190509785Y-67222187D01*
X190470833Y-67381370D01*
X190470832Y-67381376D01*
X190470167Y-67384094D01*
X190469500Y-67394845D01*
X190469500Y-68067655D01*
X189930500Y-68067655D01*
X189930500Y-67432345D01*
X189929096Y-67420298D01*
X189916171Y-67309441D01*
X189916171Y-67309440D01*
X189915747Y-67305805D01*
X189911862Y-67295100D01*
X189871753Y-67184605D01*
X189857626Y-67145685D01*
X189855619Y-67142623D01*
X189855617Y-67142620D01*
X189782534Y-67031151D01*
X189764229Y-67003231D01*
X189692140Y-66934940D01*
X189656298Y-66900987D01*
X189640566Y-66886084D01*
X189493269Y-66800527D01*
X189330241Y-66751151D01*
X189326593Y-66750925D01*
X189326589Y-66750924D01*
X189222367Y-66744458D01*
X189160226Y-66740603D01*
X189156618Y-66741223D01*
X189156617Y-66741223D01*
X189135626Y-66744830D01*
X188992345Y-66769450D01*
X188949507Y-66787678D01*
X188838971Y-66834712D01*
X188838969Y-66834713D01*
X188835604Y-66836145D01*
X188832658Y-66838313D01*
X188709450Y-66928984D01*
X188698409Y-66937109D01*
X188696042Y-66939895D01*
X188696039Y-66939898D01*
X188620736Y-67028536D01*
X188588120Y-67066927D01*
X188586454Y-67070189D01*
X188586453Y-67070191D01*
X188575713Y-67091224D01*
X188510654Y-67218635D01*
X188509785Y-67222187D01*
X188470833Y-67381370D01*
X188470832Y-67381376D01*
X188470167Y-67384094D01*
X188469500Y-67394845D01*
X188469500Y-68067655D01*
X187930500Y-68067655D01*
X187930500Y-67088938D01*
X187927741Y-67070191D01*
X187920204Y-67018991D01*
X187920204Y-67018990D01*
X187919491Y-67014148D01*
X187912894Y-67000710D01*
X187865956Y-66905110D01*
X187865956Y-66905109D01*
X187863663Y-66900440D01*
X187799256Y-66836145D01*
X187777698Y-66814624D01*
X187777696Y-66814623D01*
X187774013Y-66810946D01*
X187716438Y-66782803D01*
X187664598Y-66757463D01*
X187664596Y-66757462D01*
X187660207Y-66755317D01*
X187607276Y-66747595D01*
X187588325Y-66744830D01*
X187588323Y-66744830D01*
X187586062Y-66744500D01*
X186813938Y-66744500D01*
X186811659Y-66744836D01*
X186811652Y-66744836D01*
X186743991Y-66754796D01*
X186743990Y-66754796D01*
X186739148Y-66755509D01*
X186734758Y-66757664D01*
X186734756Y-66757665D01*
X186639406Y-66804480D01*
X186625440Y-66811337D01*
X186602106Y-66834712D01*
X186539624Y-66897302D01*
X186539623Y-66897304D01*
X186535946Y-66900987D01*
X186522261Y-66928984D01*
X186485969Y-67003231D01*
X186480317Y-67014793D01*
X186479612Y-67019628D01*
X186469834Y-67086652D01*
X186469500Y-67088938D01*
X186469500Y-68411062D01*
X172023994Y-68411062D01*
X172070240Y-68320298D01*
X172089293Y-68200000D01*
X172070240Y-68079702D01*
X172014945Y-67971179D01*
X171928821Y-67885055D01*
X171820298Y-67829760D01*
X171700000Y-67810707D01*
X171579702Y-67829760D01*
X171471179Y-67885055D01*
X171385055Y-67971179D01*
X171329760Y-68079702D01*
X171310707Y-68200000D01*
X168151770Y-68200000D01*
X168235743Y-68119893D01*
X168237671Y-68118054D01*
X168377519Y-67930093D01*
X168483697Y-67721255D01*
X168484488Y-67718709D01*
X168484490Y-67718703D01*
X168552379Y-67500066D01*
X168552380Y-67500061D01*
X168553171Y-67497514D01*
X168553859Y-67492329D01*
X168583603Y-67267908D01*
X168583603Y-67267906D01*
X168583953Y-67265266D01*
X168577749Y-67100000D01*
X171310707Y-67100000D01*
X171329760Y-67220298D01*
X171385055Y-67328821D01*
X171471179Y-67414945D01*
X171579702Y-67470240D01*
X171700000Y-67489293D01*
X171820298Y-67470240D01*
X171928821Y-67414945D01*
X172014945Y-67328821D01*
X172029630Y-67300000D01*
X174410707Y-67300000D01*
X174429760Y-67420298D01*
X174485055Y-67528821D01*
X174571179Y-67614945D01*
X174679702Y-67670240D01*
X174800000Y-67689293D01*
X174920298Y-67670240D01*
X175028821Y-67614945D01*
X175114945Y-67528821D01*
X175170240Y-67420298D01*
X175189293Y-67300000D01*
X175170240Y-67179702D01*
X175114945Y-67071179D01*
X175028821Y-66985055D01*
X174920298Y-66929760D01*
X174800000Y-66910707D01*
X174679702Y-66929760D01*
X174571179Y-66985055D01*
X174485055Y-67071179D01*
X174429760Y-67179702D01*
X174410707Y-67300000D01*
X172029630Y-67300000D01*
X172070240Y-67220298D01*
X172089293Y-67100000D01*
X172070240Y-66979702D01*
X172014945Y-66871179D01*
X171928821Y-66785055D01*
X171820298Y-66729760D01*
X171700000Y-66710707D01*
X171579702Y-66729760D01*
X171471179Y-66785055D01*
X171385055Y-66871179D01*
X171329760Y-66979702D01*
X171310707Y-67100000D01*
X168577749Y-67100000D01*
X168575164Y-67031151D01*
X168533946Y-66834712D01*
X168527603Y-66804480D01*
X168527602Y-66804477D01*
X168527054Y-66801865D01*
X168521452Y-66787678D01*
X168441981Y-66586444D01*
X168441001Y-66583962D01*
X168319463Y-66383674D01*
X168229592Y-66280107D01*
X168167660Y-66208736D01*
X168167656Y-66208732D01*
X168165916Y-66206727D01*
X168062672Y-66122072D01*
X167986813Y-66059871D01*
X167986807Y-66059867D01*
X167984751Y-66058181D01*
X167982437Y-66056864D01*
X167982433Y-66056861D01*
X167783465Y-65943601D01*
X167783460Y-65943599D01*
X167781147Y-65942282D01*
X167682868Y-65906609D01*
X167563438Y-65863257D01*
X167563433Y-65863256D01*
X167560927Y-65862346D01*
X167558306Y-65861872D01*
X167558302Y-65861871D01*
X167332417Y-65821025D01*
X167332413Y-65821025D01*
X167330386Y-65820658D01*
X167308227Y-65819613D01*
X167306553Y-65819534D01*
X167306551Y-65819534D01*
X167305831Y-65819500D01*
X167141180Y-65819500D01*
X167052438Y-65827030D01*
X166969217Y-65834091D01*
X166969212Y-65834092D01*
X166966559Y-65834317D01*
X166739794Y-65893173D01*
X166526187Y-65989396D01*
X166331846Y-66120234D01*
X166162329Y-66281946D01*
X166022481Y-66469907D01*
X165916303Y-66678745D01*
X165915512Y-66681291D01*
X165915510Y-66681297D01*
X165847621Y-66899934D01*
X165846829Y-66902486D01*
X165846479Y-66905129D01*
X165846478Y-66905132D01*
X165820001Y-67104900D01*
X165816047Y-67134734D01*
X165300000Y-67134734D01*
X165300000Y-65363000D01*
X165318452Y-65318452D01*
X165363000Y-65300000D01*
X199637000Y-65300000D01*
X199681548Y-65318452D01*
G37*
%TD.AperFunction*%
%TD*%
M02*
