%TF.GenerationSoftware,KiCad,Pcbnew,(6.0.7-1)-1*%
%TF.CreationDate,2022-09-14T15:44:29-04:00*%
%TF.ProjectId,phocuser,70686f63-7573-4657-922e-6b696361645f,rev?*%
%TF.SameCoordinates,Original*%
%TF.FileFunction,Copper,L2,Inr*%
%TF.FilePolarity,Positive*%
%FSLAX46Y46*%
G04 Gerber Fmt 4.6, Leading zero omitted, Abs format (unit mm)*
G04 Created by KiCad (PCBNEW (6.0.7-1)-1) date 2022-09-14 15:44:29*
%MOMM*%
%LPD*%
G01*
G04 APERTURE LIST*
G04 Aperture macros list*
%AMRoundRect*
0 Rectangle with rounded corners*
0 $1 Rounding radius*
0 $2 $3 $4 $5 $6 $7 $8 $9 X,Y pos of 4 corners*
0 Add a 4 corners polygon primitive as box body*
4,1,4,$2,$3,$4,$5,$6,$7,$8,$9,$2,$3,0*
0 Add four circle primitives for the rounded corners*
1,1,$1+$1,$2,$3*
1,1,$1+$1,$4,$5*
1,1,$1+$1,$6,$7*
1,1,$1+$1,$8,$9*
0 Add four rect primitives between the rounded corners*
20,1,$1+$1,$2,$3,$4,$5,0*
20,1,$1+$1,$4,$5,$6,$7,0*
20,1,$1+$1,$6,$7,$8,$9,0*
20,1,$1+$1,$8,$9,$2,$3,0*%
G04 Aperture macros list end*
%TA.AperFunction,ComponentPad*%
%ADD10RoundRect,0.250000X-0.600000X-0.725000X0.600000X-0.725000X0.600000X0.725000X-0.600000X0.725000X0*%
%TD*%
%TA.AperFunction,ComponentPad*%
%ADD11O,1.700000X1.950000*%
%TD*%
%TA.AperFunction,ComponentPad*%
%ADD12C,0.500000*%
%TD*%
%TA.AperFunction,ComponentPad*%
%ADD13RoundRect,0.250000X-0.600000X-0.750000X0.600000X-0.750000X0.600000X0.750000X-0.600000X0.750000X0*%
%TD*%
%TA.AperFunction,ComponentPad*%
%ADD14O,1.700000X2.000000*%
%TD*%
%TA.AperFunction,ComponentPad*%
%ADD15O,1.158000X2.316000*%
%TD*%
%TA.AperFunction,ComponentPad*%
%ADD16O,1.200000X2.400000*%
%TD*%
%TA.AperFunction,ComponentPad*%
%ADD17RoundRect,0.250000X-0.350000X-0.625000X0.350000X-0.625000X0.350000X0.625000X-0.350000X0.625000X0*%
%TD*%
%TA.AperFunction,ComponentPad*%
%ADD18O,1.200000X1.750000*%
%TD*%
%TA.AperFunction,ComponentPad*%
%ADD19RoundRect,0.250000X-0.625000X0.350000X-0.625000X-0.350000X0.625000X-0.350000X0.625000X0.350000X0*%
%TD*%
%TA.AperFunction,ComponentPad*%
%ADD20O,1.750000X1.200000*%
%TD*%
%TA.AperFunction,ViaPad*%
%ADD21C,0.508000*%
%TD*%
G04 APERTURE END LIST*
D10*
%TO.N,Net-(J1-Pad1)*%
%TO.C,J1*%
X185250000Y-101000000D03*
D11*
%TO.N,Net-(J1-Pad2)*%
X187750000Y-101000000D03*
%TO.N,Net-(J1-Pad3)*%
X190250000Y-101000000D03*
%TO.N,Net-(J1-Pad4)*%
X192750000Y-101000000D03*
%TD*%
D12*
%TO.N,GND*%
%TO.C,U2*%
X190550000Y-88700000D03*
X190550000Y-91800000D03*
X186950000Y-90250000D03*
X189350000Y-90250000D03*
X188150000Y-90250000D03*
X189350000Y-91800000D03*
X189350000Y-88700000D03*
X186950000Y-88700000D03*
X186950000Y-91800000D03*
X190550000Y-90250000D03*
X188150000Y-88700000D03*
X188150000Y-91800000D03*
%TD*%
D13*
%TO.N,+12V*%
%TO.C,J3*%
X190200000Y-79675000D03*
D14*
%TO.N,GND*%
X192700000Y-79675000D03*
%TD*%
D15*
%TO.N,GND*%
%TO.C,J4*%
X170180000Y-99275000D03*
X178820000Y-99275000D03*
D16*
X170180000Y-103100000D03*
X178820000Y-103100000D03*
%TD*%
D12*
%TO.N,GND*%
%TO.C,U3*%
X175250000Y-90000000D03*
X173250000Y-92000000D03*
X175250000Y-92000000D03*
X173250000Y-90000000D03*
%TD*%
D17*
%TO.N,VCC*%
%TO.C,J5*%
X187200000Y-67750000D03*
D18*
%TO.N,ACC0_A*%
X189200000Y-67750000D03*
%TO.N,ACC0_B*%
X191200000Y-67750000D03*
%TO.N,GND*%
X193200000Y-67750000D03*
%TD*%
D17*
%TO.N,VCC*%
%TO.C,J6*%
X187200000Y-73350000D03*
D18*
%TO.N,ACC1_A*%
X189200000Y-73350000D03*
%TO.N,ACC1_B*%
X191200000Y-73350000D03*
%TO.N,GND*%
X193200000Y-73350000D03*
%TD*%
D19*
%TO.N,GND*%
%TO.C,J7*%
X168510000Y-84740000D03*
D20*
%TO.N,Net-(J7-Pad2)*%
X168510000Y-86740000D03*
%TO.N,Net-(J7-Pad3)*%
X168510000Y-88740000D03*
%TO.N,Net-(C16-Pad1)*%
X168510000Y-90740000D03*
%TD*%
D19*
%TO.N,ACC2_A*%
%TO.C,J8*%
X168500000Y-73000000D03*
D20*
%TO.N,ACC2_B*%
X168500000Y-75000000D03*
%TO.N,ACC2_C*%
X168500000Y-77000000D03*
%TO.N,GND*%
X168500000Y-79000000D03*
%TD*%
D21*
%TO.N,ACC0_B*%
X171700000Y-67100000D03*
%TO.N,ACC0_A*%
X171700000Y-68200000D03*
%TO.N,/Vmeas*%
X195200000Y-70200000D03*
%TO.N,GND*%
X197300000Y-78000000D03*
%TO.N,+12V*%
X197400000Y-81500000D03*
%TO.N,GND*%
X196400000Y-81500000D03*
X179900000Y-78700000D03*
%TO.N,Net-(U1-Pad16)*%
X180600000Y-81800000D03*
%TO.N,Net-(U1-Pad15)*%
X181700000Y-81800000D03*
%TO.N,GND*%
X172000000Y-95100000D03*
X171200000Y-91000000D03*
X179800000Y-84750001D03*
X177200000Y-71000000D03*
X177100000Y-94300000D03*
X173900000Y-83500000D03*
X177100000Y-90800000D03*
X193100000Y-88700000D03*
X170500000Y-79900000D03*
X177200000Y-68500000D03*
X176000000Y-95100000D03*
X173000000Y-95100000D03*
X174600000Y-86500000D03*
X177200000Y-72300000D03*
X171600000Y-66000000D03*
X188800000Y-93600000D03*
X173100000Y-101600000D03*
X192600000Y-88700000D03*
X177000000Y-95100000D03*
X185500000Y-87800000D03*
X179600000Y-83550001D03*
X179100000Y-83550001D03*
X180500000Y-79200000D03*
X183000000Y-66000000D03*
X179800000Y-101100000D03*
X179000000Y-94900000D03*
X175900000Y-101600000D03*
%TO.N,Net-(C1-Pad1)*%
X190059890Y-93699281D03*
%TO.N,Net-(C2-Pad1)*%
X189425433Y-93706895D03*
X189400000Y-94200000D03*
%TO.N,Net-(C3-Pad2)*%
X191200000Y-93600000D03*
%TO.N,Net-(C3-Pad1)*%
X190600000Y-94200000D03*
%TO.N,Net-(C4-Pad1)*%
X194100000Y-90000000D03*
X193600000Y-90000000D03*
%TO.N,Net-(C5-Pad2)*%
X184697307Y-89967689D03*
X184197307Y-89967689D03*
%TO.N,Net-(C6-Pad2)*%
X193100000Y-92300000D03*
%TO.N,~{MOTOR_EN}*%
X179800000Y-93200000D03*
%TO.N,DIAG1*%
X179800000Y-92400000D03*
%TO.N,DIAG0*%
X179400000Y-91200000D03*
%TO.N,DIR*%
X184000000Y-80300000D03*
%TO.N,STEP*%
X184800000Y-78100000D03*
%TO.N,MISO*%
X184800000Y-77000000D03*
%TO.N,MOSI*%
X184800000Y-75900000D03*
%TO.N,SCLK*%
X184800000Y-74800000D03*
%TO.N,~{CS1}*%
X184800000Y-73700000D03*
%TO.N,TMCCLK*%
X184800000Y-72600000D03*
%TO.N,+12V*%
X192500000Y-86000000D03*
X184500000Y-92250000D03*
X184500000Y-91750000D03*
X193100000Y-91400000D03*
X192600000Y-91400000D03*
%TO.N,VCC*%
X180500000Y-72800000D03*
X182750000Y-79250000D03*
X182750000Y-81650000D03*
X177400000Y-82150001D03*
X179800000Y-77200000D03*
X177400000Y-82750001D03*
%TO.N,~{RESET}*%
X174800000Y-67300000D03*
X174750000Y-76500000D03*
%TO.N,SWDCLK*%
X171750000Y-72500000D03*
%TO.N,SWDIO*%
X171750000Y-71500000D03*
%TO.N,Net-(C11-Pad1)*%
X177250000Y-97750000D03*
X171734322Y-97750000D03*
%TO.N,Net-(C14-Pad2)*%
X173300000Y-87900000D03*
X176187500Y-93312500D03*
%TO.N,THERM0*%
X182800000Y-69300000D03*
%TO.N,TXD*%
X171700000Y-77000000D03*
%TO.N,RXD*%
X171700000Y-78100000D03*
%TO.N,Net-(R17-Pad2)*%
X171800000Y-78900000D03*
%TO.N,Net-(R18-Pad2)*%
X172900000Y-78900000D03*
%TO.N,Net-(R19-Pad2)*%
X173900000Y-78900000D03*
%TO.N,Net-(J1-Pad4)*%
X192700000Y-90600000D03*
X193200000Y-90600000D03*
%TO.N,Net-(J1-Pad3)*%
X193100000Y-89400000D03*
X192600000Y-89400000D03*
%TO.N,Net-(J1-Pad2)*%
X184200000Y-89200000D03*
X184700000Y-89200000D03*
%TO.N,Net-(J1-Pad1)*%
X184250000Y-90600000D03*
X184750000Y-90600000D03*
%TD*%
%TA.AperFunction,Conductor*%
%TO.N,+12V*%
G36*
X199731255Y-77418745D02*
G01*
X199750000Y-77464000D01*
X199750000Y-104686000D01*
X199731255Y-104731255D01*
X199686000Y-104750000D01*
X181314000Y-104750000D01*
X181268745Y-104731255D01*
X181250000Y-104686000D01*
X181250000Y-102734734D01*
X196416047Y-102734734D01*
X196424836Y-102968849D01*
X196472946Y-103198135D01*
X196558999Y-103416038D01*
X196560407Y-103418358D01*
X196629529Y-103532267D01*
X196680537Y-103616326D01*
X196765117Y-103713796D01*
X196832308Y-103791227D01*
X196832312Y-103791231D01*
X196834084Y-103793273D01*
X197015249Y-103941819D01*
X197218853Y-104057718D01*
X197439073Y-104137654D01*
X197441731Y-104138135D01*
X197441736Y-104138136D01*
X197548854Y-104157505D01*
X197669614Y-104179342D01*
X197694169Y-104180500D01*
X197858820Y-104180500D01*
X197952302Y-104172568D01*
X198030745Y-104165912D01*
X198030748Y-104165912D01*
X198033441Y-104165683D01*
X198113213Y-104144979D01*
X198257576Y-104107510D01*
X198257580Y-104107509D01*
X198260206Y-104106827D01*
X198473813Y-104010604D01*
X198668154Y-103879766D01*
X198670114Y-103877896D01*
X198670118Y-103877893D01*
X198760966Y-103791227D01*
X198837671Y-103718054D01*
X198839838Y-103715142D01*
X198975902Y-103532267D01*
X198975905Y-103532263D01*
X198977519Y-103530093D01*
X199083697Y-103321255D01*
X199153171Y-103097514D01*
X199183953Y-102865266D01*
X199175164Y-102631151D01*
X199127054Y-102401865D01*
X199041001Y-102183962D01*
X198977669Y-102079594D01*
X198920870Y-101985992D01*
X198920868Y-101985989D01*
X198919463Y-101983674D01*
X198791539Y-101836255D01*
X198767692Y-101808773D01*
X198767688Y-101808769D01*
X198765916Y-101806727D01*
X198710224Y-101761062D01*
X198620473Y-101687471D01*
X198584751Y-101658181D01*
X198381147Y-101542282D01*
X198160927Y-101462346D01*
X198158269Y-101461865D01*
X198158264Y-101461864D01*
X198051146Y-101442495D01*
X197930386Y-101420658D01*
X197905831Y-101419500D01*
X197741180Y-101419500D01*
X197647698Y-101427432D01*
X197569255Y-101434088D01*
X197569252Y-101434088D01*
X197566559Y-101434317D01*
X197486787Y-101455021D01*
X197342424Y-101492490D01*
X197342420Y-101492491D01*
X197339794Y-101493173D01*
X197126187Y-101589396D01*
X196931846Y-101720234D01*
X196929886Y-101722104D01*
X196929882Y-101722107D01*
X196891494Y-101758728D01*
X196762329Y-101881946D01*
X196760710Y-101884122D01*
X196624098Y-102067733D01*
X196624095Y-102067737D01*
X196622481Y-102069907D01*
X196621254Y-102072321D01*
X196621253Y-102072322D01*
X196604554Y-102105167D01*
X196516303Y-102278745D01*
X196446829Y-102502486D01*
X196416047Y-102734734D01*
X181250000Y-102734734D01*
X181250000Y-101761062D01*
X184269500Y-101761062D01*
X184280509Y-101835852D01*
X184336337Y-101949560D01*
X184340080Y-101953296D01*
X184340081Y-101953298D01*
X184422240Y-102035314D01*
X184425987Y-102039054D01*
X184539793Y-102094683D01*
X184544701Y-102095399D01*
X184544704Y-102095400D01*
X184611653Y-102105167D01*
X184611658Y-102105167D01*
X184613938Y-102105500D01*
X185886062Y-102105500D01*
X185960852Y-102094491D01*
X186074560Y-102038663D01*
X186078296Y-102034920D01*
X186078298Y-102034919D01*
X186160314Y-101952760D01*
X186160315Y-101952758D01*
X186164054Y-101949013D01*
X186219683Y-101835207D01*
X186220399Y-101830299D01*
X186220400Y-101830296D01*
X186230167Y-101763347D01*
X186230167Y-101763342D01*
X186230500Y-101761062D01*
X186230500Y-101174785D01*
X186769500Y-101174785D01*
X186769664Y-101176395D01*
X186769664Y-101176404D01*
X186774657Y-101225558D01*
X186784573Y-101323174D01*
X186785544Y-101326272D01*
X186838197Y-101494287D01*
X186844140Y-101513252D01*
X186940711Y-101687471D01*
X186968792Y-101720234D01*
X187005745Y-101763347D01*
X187070341Y-101838713D01*
X187227734Y-101960800D01*
X187230641Y-101962231D01*
X187230642Y-101962231D01*
X187403557Y-102047316D01*
X187403561Y-102047317D01*
X187406462Y-102048745D01*
X187409600Y-102049562D01*
X187409599Y-102049562D01*
X187584866Y-102095215D01*
X187599224Y-102098955D01*
X187602456Y-102099124D01*
X187602460Y-102099125D01*
X187794899Y-102109210D01*
X187794900Y-102109210D01*
X187798144Y-102109380D01*
X187826002Y-102105167D01*
X187991894Y-102080079D01*
X187991898Y-102080078D01*
X187995098Y-102079594D01*
X188116522Y-102034919D01*
X188178997Y-102011933D01*
X188179000Y-102011931D01*
X188182040Y-102010813D01*
X188351333Y-101905847D01*
X188374307Y-101884122D01*
X188493712Y-101771205D01*
X188496062Y-101768983D01*
X188500009Y-101763347D01*
X188608454Y-101608471D01*
X188608456Y-101608468D01*
X188610314Y-101605814D01*
X188617901Y-101588283D01*
X188688137Y-101425977D01*
X188689424Y-101423003D01*
X188730158Y-101228019D01*
X188730500Y-101221493D01*
X188730500Y-101174785D01*
X189269500Y-101174785D01*
X189269664Y-101176395D01*
X189269664Y-101176404D01*
X189274657Y-101225558D01*
X189284573Y-101323174D01*
X189285544Y-101326272D01*
X189338197Y-101494287D01*
X189344140Y-101513252D01*
X189440711Y-101687471D01*
X189468792Y-101720234D01*
X189505745Y-101763347D01*
X189570341Y-101838713D01*
X189727734Y-101960800D01*
X189730641Y-101962231D01*
X189730642Y-101962231D01*
X189903557Y-102047316D01*
X189903561Y-102047317D01*
X189906462Y-102048745D01*
X189909600Y-102049562D01*
X189909599Y-102049562D01*
X190084866Y-102095215D01*
X190099224Y-102098955D01*
X190102456Y-102099124D01*
X190102460Y-102099125D01*
X190294899Y-102109210D01*
X190294900Y-102109210D01*
X190298144Y-102109380D01*
X190326002Y-102105167D01*
X190491894Y-102080079D01*
X190491898Y-102080078D01*
X190495098Y-102079594D01*
X190616522Y-102034919D01*
X190678997Y-102011933D01*
X190679000Y-102011931D01*
X190682040Y-102010813D01*
X190851333Y-101905847D01*
X190874307Y-101884122D01*
X190993712Y-101771205D01*
X190996062Y-101768983D01*
X191000009Y-101763347D01*
X191108454Y-101608471D01*
X191108456Y-101608468D01*
X191110314Y-101605814D01*
X191117901Y-101588283D01*
X191188137Y-101425977D01*
X191189424Y-101423003D01*
X191230158Y-101228019D01*
X191230500Y-101221493D01*
X191230500Y-101174785D01*
X191769500Y-101174785D01*
X191769664Y-101176395D01*
X191769664Y-101176404D01*
X191774657Y-101225558D01*
X191784573Y-101323174D01*
X191785544Y-101326272D01*
X191838197Y-101494287D01*
X191844140Y-101513252D01*
X191940711Y-101687471D01*
X191968792Y-101720234D01*
X192005745Y-101763347D01*
X192070341Y-101838713D01*
X192227734Y-101960800D01*
X192230641Y-101962231D01*
X192230642Y-101962231D01*
X192403557Y-102047316D01*
X192403561Y-102047317D01*
X192406462Y-102048745D01*
X192409600Y-102049562D01*
X192409599Y-102049562D01*
X192584866Y-102095215D01*
X192599224Y-102098955D01*
X192602456Y-102099124D01*
X192602460Y-102099125D01*
X192794899Y-102109210D01*
X192794900Y-102109210D01*
X192798144Y-102109380D01*
X192826002Y-102105167D01*
X192991894Y-102080079D01*
X192991898Y-102080078D01*
X192995098Y-102079594D01*
X193116522Y-102034919D01*
X193178997Y-102011933D01*
X193179000Y-102011931D01*
X193182040Y-102010813D01*
X193351333Y-101905847D01*
X193374307Y-101884122D01*
X193493712Y-101771205D01*
X193496062Y-101768983D01*
X193500009Y-101763347D01*
X193608454Y-101608471D01*
X193608456Y-101608468D01*
X193610314Y-101605814D01*
X193617901Y-101588283D01*
X193688137Y-101425977D01*
X193689424Y-101423003D01*
X193730158Y-101228019D01*
X193730500Y-101221493D01*
X193730500Y-100825215D01*
X193725842Y-100779351D01*
X193715755Y-100680056D01*
X193715427Y-100676826D01*
X193685136Y-100580166D01*
X193656831Y-100489845D01*
X193656829Y-100489841D01*
X193655860Y-100486748D01*
X193559289Y-100312529D01*
X193496214Y-100238938D01*
X193431766Y-100163745D01*
X193431765Y-100163744D01*
X193429659Y-100161287D01*
X193272266Y-100039200D01*
X193269358Y-100037769D01*
X193096443Y-99952684D01*
X193096439Y-99952683D01*
X193093538Y-99951255D01*
X192917177Y-99905317D01*
X192903913Y-99901862D01*
X192903912Y-99901862D01*
X192900776Y-99901045D01*
X192897544Y-99900876D01*
X192897540Y-99900875D01*
X192705101Y-99890790D01*
X192705100Y-99890790D01*
X192701856Y-99890620D01*
X192698643Y-99891106D01*
X192698642Y-99891106D01*
X192508106Y-99919921D01*
X192508102Y-99919922D01*
X192504902Y-99920406D01*
X192421057Y-99951255D01*
X192321003Y-99988067D01*
X192321000Y-99988069D01*
X192317960Y-99989187D01*
X192148667Y-100094153D01*
X192003938Y-100231017D01*
X192002084Y-100233664D01*
X192002082Y-100233667D01*
X191891546Y-100391529D01*
X191889686Y-100394186D01*
X191888398Y-100397162D01*
X191888397Y-100397164D01*
X191848290Y-100489845D01*
X191810576Y-100576997D01*
X191769842Y-100771981D01*
X191769500Y-100778507D01*
X191769500Y-101174785D01*
X191230500Y-101174785D01*
X191230500Y-100825215D01*
X191225842Y-100779351D01*
X191215755Y-100680056D01*
X191215427Y-100676826D01*
X191185136Y-100580166D01*
X191156831Y-100489845D01*
X191156829Y-100489841D01*
X191155860Y-100486748D01*
X191059289Y-100312529D01*
X190996214Y-100238938D01*
X190931766Y-100163745D01*
X190931765Y-100163744D01*
X190929659Y-100161287D01*
X190772266Y-100039200D01*
X190769358Y-100037769D01*
X190596443Y-99952684D01*
X190596439Y-99952683D01*
X190593538Y-99951255D01*
X190417177Y-99905317D01*
X190403913Y-99901862D01*
X190403912Y-99901862D01*
X190400776Y-99901045D01*
X190397544Y-99900876D01*
X190397540Y-99900875D01*
X190205101Y-99890790D01*
X190205100Y-99890790D01*
X190201856Y-99890620D01*
X190198643Y-99891106D01*
X190198642Y-99891106D01*
X190008106Y-99919921D01*
X190008102Y-99919922D01*
X190004902Y-99920406D01*
X189921057Y-99951255D01*
X189821003Y-99988067D01*
X189821000Y-99988069D01*
X189817960Y-99989187D01*
X189648667Y-100094153D01*
X189503938Y-100231017D01*
X189502084Y-100233664D01*
X189502082Y-100233667D01*
X189391546Y-100391529D01*
X189389686Y-100394186D01*
X189388398Y-100397162D01*
X189388397Y-100397164D01*
X189348290Y-100489845D01*
X189310576Y-100576997D01*
X189269842Y-100771981D01*
X189269500Y-100778507D01*
X189269500Y-101174785D01*
X188730500Y-101174785D01*
X188730500Y-100825215D01*
X188725842Y-100779351D01*
X188715755Y-100680056D01*
X188715427Y-100676826D01*
X188685136Y-100580166D01*
X188656831Y-100489845D01*
X188656829Y-100489841D01*
X188655860Y-100486748D01*
X188559289Y-100312529D01*
X188496214Y-100238938D01*
X188431766Y-100163745D01*
X188431765Y-100163744D01*
X188429659Y-100161287D01*
X188272266Y-100039200D01*
X188269358Y-100037769D01*
X188096443Y-99952684D01*
X188096439Y-99952683D01*
X188093538Y-99951255D01*
X187917177Y-99905317D01*
X187903913Y-99901862D01*
X187903912Y-99901862D01*
X187900776Y-99901045D01*
X187897544Y-99900876D01*
X187897540Y-99900875D01*
X187705101Y-99890790D01*
X187705100Y-99890790D01*
X187701856Y-99890620D01*
X187698643Y-99891106D01*
X187698642Y-99891106D01*
X187508106Y-99919921D01*
X187508102Y-99919922D01*
X187504902Y-99920406D01*
X187421057Y-99951255D01*
X187321003Y-99988067D01*
X187321000Y-99988069D01*
X187317960Y-99989187D01*
X187148667Y-100094153D01*
X187003938Y-100231017D01*
X187002084Y-100233664D01*
X187002082Y-100233667D01*
X186891546Y-100391529D01*
X186889686Y-100394186D01*
X186888398Y-100397162D01*
X186888397Y-100397164D01*
X186848290Y-100489845D01*
X186810576Y-100576997D01*
X186769842Y-100771981D01*
X186769500Y-100778507D01*
X186769500Y-101174785D01*
X186230500Y-101174785D01*
X186230500Y-100238938D01*
X186219491Y-100164148D01*
X186163663Y-100050440D01*
X186159920Y-100046704D01*
X186159919Y-100046702D01*
X186077760Y-99964686D01*
X186077758Y-99964685D01*
X186074013Y-99960946D01*
X185960207Y-99905317D01*
X185955299Y-99904601D01*
X185955296Y-99904600D01*
X185888347Y-99894833D01*
X185888342Y-99894833D01*
X185886062Y-99894500D01*
X184613938Y-99894500D01*
X184539148Y-99905509D01*
X184425440Y-99961337D01*
X184421704Y-99965080D01*
X184421702Y-99965081D01*
X184339686Y-100047240D01*
X184335946Y-100050987D01*
X184280317Y-100164793D01*
X184279601Y-100169701D01*
X184279600Y-100169704D01*
X184269833Y-100236653D01*
X184269500Y-100238938D01*
X184269500Y-101761062D01*
X181250000Y-101761062D01*
X181250000Y-93600000D01*
X188410707Y-93600000D01*
X188429760Y-93720298D01*
X188485055Y-93828821D01*
X188571179Y-93914945D01*
X188679702Y-93970240D01*
X188800000Y-93989293D01*
X188920298Y-93970240D01*
X188967972Y-93945949D01*
X189016804Y-93942105D01*
X189054051Y-93973918D01*
X189057895Y-94022750D01*
X189054051Y-94032028D01*
X189029760Y-94079702D01*
X189010707Y-94200000D01*
X189029760Y-94320298D01*
X189085055Y-94428821D01*
X189171179Y-94514945D01*
X189279702Y-94570240D01*
X189400000Y-94589293D01*
X189520298Y-94570240D01*
X189628821Y-94514945D01*
X189714945Y-94428821D01*
X189770240Y-94320298D01*
X189789293Y-94200000D01*
X189773268Y-94098822D01*
X189784703Y-94051193D01*
X189826468Y-94025599D01*
X189865534Y-94031787D01*
X189939592Y-94069521D01*
X190059890Y-94088574D01*
X190064865Y-94087786D01*
X190064867Y-94087786D01*
X190145687Y-94074986D01*
X190193317Y-94086421D01*
X190218910Y-94128187D01*
X190218910Y-94148207D01*
X190210707Y-94200000D01*
X190229760Y-94320298D01*
X190285055Y-94428821D01*
X190371179Y-94514945D01*
X190479702Y-94570240D01*
X190600000Y-94589293D01*
X190720298Y-94570240D01*
X190828821Y-94514945D01*
X190914945Y-94428821D01*
X190970240Y-94320298D01*
X190989293Y-94200000D01*
X190970240Y-94079702D01*
X190945949Y-94032028D01*
X190942105Y-93983196D01*
X190973918Y-93945949D01*
X191022750Y-93942105D01*
X191032028Y-93945949D01*
X191079702Y-93970240D01*
X191200000Y-93989293D01*
X191320298Y-93970240D01*
X191428821Y-93914945D01*
X191514945Y-93828821D01*
X191570240Y-93720298D01*
X191589293Y-93600000D01*
X191570240Y-93479702D01*
X191514945Y-93371179D01*
X191428821Y-93285055D01*
X191320298Y-93229760D01*
X191200000Y-93210707D01*
X191079702Y-93229760D01*
X190971179Y-93285055D01*
X190885055Y-93371179D01*
X190829760Y-93479702D01*
X190810707Y-93600000D01*
X190829760Y-93720298D01*
X190832048Y-93724788D01*
X190854051Y-93767972D01*
X190857895Y-93816804D01*
X190826082Y-93854051D01*
X190777250Y-93857895D01*
X190767972Y-93854051D01*
X190765421Y-93852751D01*
X190720298Y-93829760D01*
X190600000Y-93810707D01*
X190595025Y-93811495D01*
X190595023Y-93811495D01*
X190514203Y-93824295D01*
X190466573Y-93812860D01*
X190440980Y-93771094D01*
X190440980Y-93751071D01*
X190448395Y-93704256D01*
X190449183Y-93699281D01*
X190430130Y-93578983D01*
X190374835Y-93470460D01*
X190288711Y-93384336D01*
X190180188Y-93329041D01*
X190059890Y-93309988D01*
X189939592Y-93329041D01*
X189831069Y-93384336D01*
X189827507Y-93387898D01*
X189827503Y-93387901D01*
X189784110Y-93431295D01*
X189738856Y-93450041D01*
X189693600Y-93431296D01*
X189654254Y-93391950D01*
X189545731Y-93336655D01*
X189425433Y-93317602D01*
X189305135Y-93336655D01*
X189196612Y-93391950D01*
X189195279Y-93389334D01*
X189157033Y-93398531D01*
X189116107Y-93373460D01*
X189114945Y-93371179D01*
X189028821Y-93285055D01*
X188920298Y-93229760D01*
X188800000Y-93210707D01*
X188679702Y-93229760D01*
X188571179Y-93285055D01*
X188485055Y-93371179D01*
X188429760Y-93479702D01*
X188410707Y-93600000D01*
X181250000Y-93600000D01*
X181250000Y-92300000D01*
X192710707Y-92300000D01*
X192729760Y-92420298D01*
X192785055Y-92528821D01*
X192871179Y-92614945D01*
X192979702Y-92670240D01*
X193100000Y-92689293D01*
X193220298Y-92670240D01*
X193328821Y-92614945D01*
X193414945Y-92528821D01*
X193470240Y-92420298D01*
X193489293Y-92300000D01*
X193470240Y-92179702D01*
X193414945Y-92071179D01*
X193328821Y-91985055D01*
X193220298Y-91929760D01*
X193100000Y-91910707D01*
X192979702Y-91929760D01*
X192871179Y-91985055D01*
X192785055Y-92071179D01*
X192729760Y-92179702D01*
X192710707Y-92300000D01*
X181250000Y-92300000D01*
X181250000Y-91800000D01*
X186564757Y-91800000D01*
X186583612Y-91919047D01*
X186585898Y-91923533D01*
X186585898Y-91923534D01*
X186590236Y-91932048D01*
X186638332Y-92026440D01*
X186723560Y-92111668D01*
X186728045Y-92113953D01*
X186728046Y-92113954D01*
X186826466Y-92164102D01*
X186826467Y-92164102D01*
X186830953Y-92166388D01*
X186835924Y-92167175D01*
X186835926Y-92167176D01*
X186945025Y-92184455D01*
X186950000Y-92185243D01*
X186954975Y-92184455D01*
X187064074Y-92167176D01*
X187064076Y-92167175D01*
X187069047Y-92166388D01*
X187073533Y-92164102D01*
X187073534Y-92164102D01*
X187171954Y-92113954D01*
X187171955Y-92113953D01*
X187176440Y-92111668D01*
X187261668Y-92026440D01*
X187309764Y-91932048D01*
X187314102Y-91923534D01*
X187314102Y-91923533D01*
X187316388Y-91919047D01*
X187335243Y-91800000D01*
X187764757Y-91800000D01*
X187783612Y-91919047D01*
X187785898Y-91923533D01*
X187785898Y-91923534D01*
X187790236Y-91932048D01*
X187838332Y-92026440D01*
X187923560Y-92111668D01*
X187928045Y-92113953D01*
X187928046Y-92113954D01*
X188026466Y-92164102D01*
X188026467Y-92164102D01*
X188030953Y-92166388D01*
X188035924Y-92167175D01*
X188035926Y-92167176D01*
X188145025Y-92184455D01*
X188150000Y-92185243D01*
X188154975Y-92184455D01*
X188264074Y-92167176D01*
X188264076Y-92167175D01*
X188269047Y-92166388D01*
X188273533Y-92164102D01*
X188273534Y-92164102D01*
X188371954Y-92113954D01*
X188371955Y-92113953D01*
X188376440Y-92111668D01*
X188461668Y-92026440D01*
X188509764Y-91932048D01*
X188514102Y-91923534D01*
X188514102Y-91923533D01*
X188516388Y-91919047D01*
X188535243Y-91800000D01*
X188964757Y-91800000D01*
X188983612Y-91919047D01*
X188985898Y-91923533D01*
X188985898Y-91923534D01*
X188990236Y-91932048D01*
X189038332Y-92026440D01*
X189123560Y-92111668D01*
X189128045Y-92113953D01*
X189128046Y-92113954D01*
X189226466Y-92164102D01*
X189226467Y-92164102D01*
X189230953Y-92166388D01*
X189235924Y-92167175D01*
X189235926Y-92167176D01*
X189345025Y-92184455D01*
X189350000Y-92185243D01*
X189354975Y-92184455D01*
X189464074Y-92167176D01*
X189464076Y-92167175D01*
X189469047Y-92166388D01*
X189473533Y-92164102D01*
X189473534Y-92164102D01*
X189571954Y-92113954D01*
X189571955Y-92113953D01*
X189576440Y-92111668D01*
X189661668Y-92026440D01*
X189709764Y-91932048D01*
X189714102Y-91923534D01*
X189714102Y-91923533D01*
X189716388Y-91919047D01*
X189735243Y-91800000D01*
X190164757Y-91800000D01*
X190183612Y-91919047D01*
X190185898Y-91923533D01*
X190185898Y-91923534D01*
X190190236Y-91932048D01*
X190238332Y-92026440D01*
X190323560Y-92111668D01*
X190328045Y-92113953D01*
X190328046Y-92113954D01*
X190426466Y-92164102D01*
X190426467Y-92164102D01*
X190430953Y-92166388D01*
X190435924Y-92167175D01*
X190435926Y-92167176D01*
X190545025Y-92184455D01*
X190550000Y-92185243D01*
X190554975Y-92184455D01*
X190664074Y-92167176D01*
X190664076Y-92167175D01*
X190669047Y-92166388D01*
X190673533Y-92164102D01*
X190673534Y-92164102D01*
X190771954Y-92113954D01*
X190771955Y-92113953D01*
X190776440Y-92111668D01*
X190861668Y-92026440D01*
X190909764Y-91932048D01*
X190914102Y-91923534D01*
X190914102Y-91923533D01*
X190916388Y-91919047D01*
X190935243Y-91800000D01*
X190916388Y-91680953D01*
X190861668Y-91573560D01*
X190776440Y-91488332D01*
X190771954Y-91486046D01*
X190673534Y-91435898D01*
X190673533Y-91435898D01*
X190669047Y-91433612D01*
X190664076Y-91432825D01*
X190664074Y-91432824D01*
X190554975Y-91415545D01*
X190550000Y-91414757D01*
X190545025Y-91415545D01*
X190435926Y-91432824D01*
X190435924Y-91432825D01*
X190430953Y-91433612D01*
X190426467Y-91435898D01*
X190426466Y-91435898D01*
X190328046Y-91486046D01*
X190323560Y-91488332D01*
X190238332Y-91573560D01*
X190183612Y-91680953D01*
X190164757Y-91800000D01*
X189735243Y-91800000D01*
X189716388Y-91680953D01*
X189661668Y-91573560D01*
X189576440Y-91488332D01*
X189571954Y-91486046D01*
X189473534Y-91435898D01*
X189473533Y-91435898D01*
X189469047Y-91433612D01*
X189464076Y-91432825D01*
X189464074Y-91432824D01*
X189354975Y-91415545D01*
X189350000Y-91414757D01*
X189345025Y-91415545D01*
X189235926Y-91432824D01*
X189235924Y-91432825D01*
X189230953Y-91433612D01*
X189226467Y-91435898D01*
X189226466Y-91435898D01*
X189128046Y-91486046D01*
X189123560Y-91488332D01*
X189038332Y-91573560D01*
X188983612Y-91680953D01*
X188964757Y-91800000D01*
X188535243Y-91800000D01*
X188516388Y-91680953D01*
X188461668Y-91573560D01*
X188376440Y-91488332D01*
X188371954Y-91486046D01*
X188273534Y-91435898D01*
X188273533Y-91435898D01*
X188269047Y-91433612D01*
X188264076Y-91432825D01*
X188264074Y-91432824D01*
X188154975Y-91415545D01*
X188150000Y-91414757D01*
X188145025Y-91415545D01*
X188035926Y-91432824D01*
X188035924Y-91432825D01*
X188030953Y-91433612D01*
X188026467Y-91435898D01*
X188026466Y-91435898D01*
X187928046Y-91486046D01*
X187923560Y-91488332D01*
X187838332Y-91573560D01*
X187783612Y-91680953D01*
X187764757Y-91800000D01*
X187335243Y-91800000D01*
X187316388Y-91680953D01*
X187261668Y-91573560D01*
X187176440Y-91488332D01*
X187171954Y-91486046D01*
X187073534Y-91435898D01*
X187073533Y-91435898D01*
X187069047Y-91433612D01*
X187064076Y-91432825D01*
X187064074Y-91432824D01*
X186954975Y-91415545D01*
X186950000Y-91414757D01*
X186945025Y-91415545D01*
X186835926Y-91432824D01*
X186835924Y-91432825D01*
X186830953Y-91433612D01*
X186826467Y-91435898D01*
X186826466Y-91435898D01*
X186728046Y-91486046D01*
X186723560Y-91488332D01*
X186638332Y-91573560D01*
X186583612Y-91680953D01*
X186564757Y-91800000D01*
X181250000Y-91800000D01*
X181250000Y-89967689D01*
X183808014Y-89967689D01*
X183827067Y-90087987D01*
X183882362Y-90196510D01*
X183950788Y-90264936D01*
X183969533Y-90310191D01*
X183950788Y-90355446D01*
X183935055Y-90371179D01*
X183879760Y-90479702D01*
X183860707Y-90600000D01*
X183879760Y-90720298D01*
X183935055Y-90828821D01*
X184021179Y-90914945D01*
X184129702Y-90970240D01*
X184250000Y-90989293D01*
X184370298Y-90970240D01*
X184470945Y-90918958D01*
X184519777Y-90915114D01*
X184529055Y-90918958D01*
X184629702Y-90970240D01*
X184750000Y-90989293D01*
X184870298Y-90970240D01*
X184978821Y-90914945D01*
X185064945Y-90828821D01*
X185120240Y-90720298D01*
X185139293Y-90600000D01*
X185120240Y-90479702D01*
X185064945Y-90371179D01*
X184996519Y-90302753D01*
X184977774Y-90257498D01*
X184980880Y-90250000D01*
X186564757Y-90250000D01*
X186565545Y-90254975D01*
X186575406Y-90317233D01*
X186583612Y-90369047D01*
X186585898Y-90373533D01*
X186585898Y-90373534D01*
X186636046Y-90471954D01*
X186638332Y-90476440D01*
X186723560Y-90561668D01*
X186728045Y-90563953D01*
X186728046Y-90563954D01*
X186826466Y-90614102D01*
X186826467Y-90614102D01*
X186830953Y-90616388D01*
X186835924Y-90617175D01*
X186835926Y-90617176D01*
X186945025Y-90634455D01*
X186950000Y-90635243D01*
X186954975Y-90634455D01*
X187064074Y-90617176D01*
X187064076Y-90617175D01*
X187069047Y-90616388D01*
X187073533Y-90614102D01*
X187073534Y-90614102D01*
X187171954Y-90563954D01*
X187171955Y-90563953D01*
X187176440Y-90561668D01*
X187261668Y-90476440D01*
X187263954Y-90471954D01*
X187314102Y-90373534D01*
X187314102Y-90373533D01*
X187316388Y-90369047D01*
X187324595Y-90317233D01*
X187334455Y-90254975D01*
X187335243Y-90250000D01*
X187764757Y-90250000D01*
X187765545Y-90254975D01*
X187775406Y-90317233D01*
X187783612Y-90369047D01*
X187785898Y-90373533D01*
X187785898Y-90373534D01*
X187836046Y-90471954D01*
X187838332Y-90476440D01*
X187923560Y-90561668D01*
X187928045Y-90563953D01*
X187928046Y-90563954D01*
X188026466Y-90614102D01*
X188026467Y-90614102D01*
X188030953Y-90616388D01*
X188035924Y-90617175D01*
X188035926Y-90617176D01*
X188145025Y-90634455D01*
X188150000Y-90635243D01*
X188154975Y-90634455D01*
X188264074Y-90617176D01*
X188264076Y-90617175D01*
X188269047Y-90616388D01*
X188273533Y-90614102D01*
X188273534Y-90614102D01*
X188371954Y-90563954D01*
X188371955Y-90563953D01*
X188376440Y-90561668D01*
X188461668Y-90476440D01*
X188463954Y-90471954D01*
X188514102Y-90373534D01*
X188514102Y-90373533D01*
X188516388Y-90369047D01*
X188524595Y-90317233D01*
X188534455Y-90254975D01*
X188535243Y-90250000D01*
X188964757Y-90250000D01*
X188965545Y-90254975D01*
X188975406Y-90317233D01*
X188983612Y-90369047D01*
X188985898Y-90373533D01*
X188985898Y-90373534D01*
X189036046Y-90471954D01*
X189038332Y-90476440D01*
X189123560Y-90561668D01*
X189128045Y-90563953D01*
X189128046Y-90563954D01*
X189226466Y-90614102D01*
X189226467Y-90614102D01*
X189230953Y-90616388D01*
X189235924Y-90617175D01*
X189235926Y-90617176D01*
X189345025Y-90634455D01*
X189350000Y-90635243D01*
X189354975Y-90634455D01*
X189464074Y-90617176D01*
X189464076Y-90617175D01*
X189469047Y-90616388D01*
X189473533Y-90614102D01*
X189473534Y-90614102D01*
X189571954Y-90563954D01*
X189571955Y-90563953D01*
X189576440Y-90561668D01*
X189661668Y-90476440D01*
X189663954Y-90471954D01*
X189714102Y-90373534D01*
X189714102Y-90373533D01*
X189716388Y-90369047D01*
X189724595Y-90317233D01*
X189734455Y-90254975D01*
X189735243Y-90250000D01*
X190164757Y-90250000D01*
X190165545Y-90254975D01*
X190175406Y-90317233D01*
X190183612Y-90369047D01*
X190185898Y-90373533D01*
X190185898Y-90373534D01*
X190236046Y-90471954D01*
X190238332Y-90476440D01*
X190323560Y-90561668D01*
X190328045Y-90563953D01*
X190328046Y-90563954D01*
X190426466Y-90614102D01*
X190426467Y-90614102D01*
X190430953Y-90616388D01*
X190435924Y-90617175D01*
X190435926Y-90617176D01*
X190545025Y-90634455D01*
X190550000Y-90635243D01*
X190554975Y-90634455D01*
X190664074Y-90617176D01*
X190664076Y-90617175D01*
X190669047Y-90616388D01*
X190673533Y-90614102D01*
X190673534Y-90614102D01*
X190771954Y-90563954D01*
X190771955Y-90563953D01*
X190776440Y-90561668D01*
X190861668Y-90476440D01*
X190863954Y-90471954D01*
X190914102Y-90373534D01*
X190914102Y-90373533D01*
X190916388Y-90369047D01*
X190924595Y-90317233D01*
X190934455Y-90254975D01*
X190935243Y-90250000D01*
X190929263Y-90212243D01*
X190917176Y-90135926D01*
X190917175Y-90135924D01*
X190916388Y-90130953D01*
X190896784Y-90092477D01*
X190863954Y-90028046D01*
X190863953Y-90028045D01*
X190861668Y-90023560D01*
X190776440Y-89938332D01*
X190771954Y-89936046D01*
X190673534Y-89885898D01*
X190673533Y-89885898D01*
X190669047Y-89883612D01*
X190664076Y-89882825D01*
X190664074Y-89882824D01*
X190554975Y-89865545D01*
X190550000Y-89864757D01*
X190545025Y-89865545D01*
X190435926Y-89882824D01*
X190435924Y-89882825D01*
X190430953Y-89883612D01*
X190426467Y-89885898D01*
X190426466Y-89885898D01*
X190328046Y-89936046D01*
X190323560Y-89938332D01*
X190238332Y-90023560D01*
X190236047Y-90028045D01*
X190236046Y-90028046D01*
X190203217Y-90092477D01*
X190183612Y-90130953D01*
X190182825Y-90135924D01*
X190182824Y-90135926D01*
X190170737Y-90212243D01*
X190164757Y-90250000D01*
X189735243Y-90250000D01*
X189729263Y-90212243D01*
X189717176Y-90135926D01*
X189717175Y-90135924D01*
X189716388Y-90130953D01*
X189696784Y-90092477D01*
X189663954Y-90028046D01*
X189663953Y-90028045D01*
X189661668Y-90023560D01*
X189576440Y-89938332D01*
X189571954Y-89936046D01*
X189473534Y-89885898D01*
X189473533Y-89885898D01*
X189469047Y-89883612D01*
X189464076Y-89882825D01*
X189464074Y-89882824D01*
X189354975Y-89865545D01*
X189350000Y-89864757D01*
X189345025Y-89865545D01*
X189235926Y-89882824D01*
X189235924Y-89882825D01*
X189230953Y-89883612D01*
X189226467Y-89885898D01*
X189226466Y-89885898D01*
X189128046Y-89936046D01*
X189123560Y-89938332D01*
X189038332Y-90023560D01*
X189036047Y-90028045D01*
X189036046Y-90028046D01*
X189003217Y-90092477D01*
X188983612Y-90130953D01*
X188982825Y-90135924D01*
X188982824Y-90135926D01*
X188970737Y-90212243D01*
X188964757Y-90250000D01*
X188535243Y-90250000D01*
X188529263Y-90212243D01*
X188517176Y-90135926D01*
X188517175Y-90135924D01*
X188516388Y-90130953D01*
X188496784Y-90092477D01*
X188463954Y-90028046D01*
X188463953Y-90028045D01*
X188461668Y-90023560D01*
X188376440Y-89938332D01*
X188371954Y-89936046D01*
X188273534Y-89885898D01*
X188273533Y-89885898D01*
X188269047Y-89883612D01*
X188264076Y-89882825D01*
X188264074Y-89882824D01*
X188154975Y-89865545D01*
X188150000Y-89864757D01*
X188145025Y-89865545D01*
X188035926Y-89882824D01*
X188035924Y-89882825D01*
X188030953Y-89883612D01*
X188026467Y-89885898D01*
X188026466Y-89885898D01*
X187928046Y-89936046D01*
X187923560Y-89938332D01*
X187838332Y-90023560D01*
X187836047Y-90028045D01*
X187836046Y-90028046D01*
X187803217Y-90092477D01*
X187783612Y-90130953D01*
X187782825Y-90135924D01*
X187782824Y-90135926D01*
X187770737Y-90212243D01*
X187764757Y-90250000D01*
X187335243Y-90250000D01*
X187329263Y-90212243D01*
X187317176Y-90135926D01*
X187317175Y-90135924D01*
X187316388Y-90130953D01*
X187296784Y-90092477D01*
X187263954Y-90028046D01*
X187263953Y-90028045D01*
X187261668Y-90023560D01*
X187176440Y-89938332D01*
X187171954Y-89936046D01*
X187073534Y-89885898D01*
X187073533Y-89885898D01*
X187069047Y-89883612D01*
X187064076Y-89882825D01*
X187064074Y-89882824D01*
X186954975Y-89865545D01*
X186950000Y-89864757D01*
X186945025Y-89865545D01*
X186835926Y-89882824D01*
X186835924Y-89882825D01*
X186830953Y-89883612D01*
X186826467Y-89885898D01*
X186826466Y-89885898D01*
X186728046Y-89936046D01*
X186723560Y-89938332D01*
X186638332Y-90023560D01*
X186636047Y-90028045D01*
X186636046Y-90028046D01*
X186603217Y-90092477D01*
X186583612Y-90130953D01*
X186582825Y-90135924D01*
X186582824Y-90135926D01*
X186570737Y-90212243D01*
X186564757Y-90250000D01*
X184980880Y-90250000D01*
X184996519Y-90212243D01*
X185012252Y-90196510D01*
X185067547Y-90087987D01*
X185086600Y-89967689D01*
X185067547Y-89847391D01*
X185012252Y-89738868D01*
X184926128Y-89652744D01*
X184904166Y-89641554D01*
X184872355Y-89604310D01*
X184876197Y-89555477D01*
X184904165Y-89527508D01*
X184928821Y-89514945D01*
X185014945Y-89428821D01*
X185029630Y-89400000D01*
X192210707Y-89400000D01*
X192229760Y-89520298D01*
X192285055Y-89628821D01*
X192371179Y-89714945D01*
X192479702Y-89770240D01*
X192600000Y-89789293D01*
X192720298Y-89770240D01*
X192820945Y-89718958D01*
X192869777Y-89715114D01*
X192879055Y-89718958D01*
X192979702Y-89770240D01*
X193100000Y-89789293D01*
X193104975Y-89788505D01*
X193104976Y-89788505D01*
X193167201Y-89778650D01*
X193214831Y-89790085D01*
X193240424Y-89831851D01*
X193234237Y-89870915D01*
X193229760Y-89879702D01*
X193210707Y-90000000D01*
X193229760Y-90120298D01*
X193232048Y-90124788D01*
X193233603Y-90129574D01*
X193230911Y-90130449D01*
X193234012Y-90169951D01*
X193202192Y-90207192D01*
X193183160Y-90213374D01*
X193126129Y-90222407D01*
X193079702Y-90229760D01*
X193049743Y-90245025D01*
X192979055Y-90281042D01*
X192930223Y-90284886D01*
X192920945Y-90281042D01*
X192850257Y-90245025D01*
X192820298Y-90229760D01*
X192700000Y-90210707D01*
X192579702Y-90229760D01*
X192471179Y-90285055D01*
X192385055Y-90371179D01*
X192329760Y-90479702D01*
X192310707Y-90600000D01*
X192329760Y-90720298D01*
X192385055Y-90828821D01*
X192471179Y-90914945D01*
X192579702Y-90970240D01*
X192700000Y-90989293D01*
X192820298Y-90970240D01*
X192920945Y-90918958D01*
X192969777Y-90915114D01*
X192979055Y-90918958D01*
X193079702Y-90970240D01*
X193200000Y-90989293D01*
X193320298Y-90970240D01*
X193428821Y-90914945D01*
X193514945Y-90828821D01*
X193570240Y-90720298D01*
X193589293Y-90600000D01*
X193570240Y-90479702D01*
X193567952Y-90475212D01*
X193566397Y-90470426D01*
X193569089Y-90469551D01*
X193565988Y-90430049D01*
X193597808Y-90392808D01*
X193616840Y-90386626D01*
X193714369Y-90371179D01*
X193720298Y-90370240D01*
X193820945Y-90318958D01*
X193869777Y-90315114D01*
X193879055Y-90318958D01*
X193979702Y-90370240D01*
X194100000Y-90389293D01*
X194220298Y-90370240D01*
X194328821Y-90314945D01*
X194414945Y-90228821D01*
X194470240Y-90120298D01*
X194489293Y-90000000D01*
X194470240Y-89879702D01*
X194414945Y-89771179D01*
X194328821Y-89685055D01*
X194220298Y-89629760D01*
X194100000Y-89610707D01*
X193979702Y-89629760D01*
X193893027Y-89673923D01*
X193879055Y-89681042D01*
X193830223Y-89684886D01*
X193820945Y-89681042D01*
X193806973Y-89673923D01*
X193720298Y-89629760D01*
X193600000Y-89610707D01*
X193595025Y-89611495D01*
X193595024Y-89611495D01*
X193532799Y-89621350D01*
X193485169Y-89609915D01*
X193459576Y-89568149D01*
X193465763Y-89529084D01*
X193467953Y-89524786D01*
X193470240Y-89520298D01*
X193489293Y-89400000D01*
X193470240Y-89279702D01*
X193414945Y-89171179D01*
X193339021Y-89095255D01*
X193320276Y-89050000D01*
X193339021Y-89004745D01*
X193414945Y-88928821D01*
X193470240Y-88820298D01*
X193489293Y-88700000D01*
X193470240Y-88579702D01*
X193414945Y-88471179D01*
X193328821Y-88385055D01*
X193220298Y-88329760D01*
X193100000Y-88310707D01*
X192979702Y-88329760D01*
X192879055Y-88381042D01*
X192830223Y-88384886D01*
X192820945Y-88381042D01*
X192720298Y-88329760D01*
X192600000Y-88310707D01*
X192479702Y-88329760D01*
X192371179Y-88385055D01*
X192285055Y-88471179D01*
X192229760Y-88579702D01*
X192210707Y-88700000D01*
X192229760Y-88820298D01*
X192285055Y-88928821D01*
X192360979Y-89004745D01*
X192379724Y-89050000D01*
X192360979Y-89095255D01*
X192285055Y-89171179D01*
X192229760Y-89279702D01*
X192210707Y-89400000D01*
X185029630Y-89400000D01*
X185070240Y-89320298D01*
X185089293Y-89200000D01*
X185070240Y-89079702D01*
X185014945Y-88971179D01*
X184928821Y-88885055D01*
X184820298Y-88829760D01*
X184700000Y-88810707D01*
X184579702Y-88829760D01*
X184575211Y-88832048D01*
X184575212Y-88832048D01*
X184479055Y-88881042D01*
X184430223Y-88884886D01*
X184420945Y-88881042D01*
X184324788Y-88832048D01*
X184324789Y-88832048D01*
X184320298Y-88829760D01*
X184200000Y-88810707D01*
X184079702Y-88829760D01*
X183971179Y-88885055D01*
X183885055Y-88971179D01*
X183829760Y-89079702D01*
X183810707Y-89200000D01*
X183829760Y-89320298D01*
X183885055Y-89428821D01*
X183971179Y-89514945D01*
X183993141Y-89526135D01*
X184024952Y-89563379D01*
X184021110Y-89612212D01*
X183993142Y-89640181D01*
X183968486Y-89652744D01*
X183882362Y-89738868D01*
X183827067Y-89847391D01*
X183808014Y-89967689D01*
X181250000Y-89967689D01*
X181250000Y-88700000D01*
X186564757Y-88700000D01*
X186583612Y-88819047D01*
X186585898Y-88823533D01*
X186585898Y-88823534D01*
X186590236Y-88832048D01*
X186638332Y-88926440D01*
X186723560Y-89011668D01*
X186728045Y-89013953D01*
X186728046Y-89013954D01*
X186826466Y-89064102D01*
X186826467Y-89064102D01*
X186830953Y-89066388D01*
X186835924Y-89067175D01*
X186835926Y-89067176D01*
X186945025Y-89084455D01*
X186950000Y-89085243D01*
X186954975Y-89084455D01*
X187064074Y-89067176D01*
X187064076Y-89067175D01*
X187069047Y-89066388D01*
X187073533Y-89064102D01*
X187073534Y-89064102D01*
X187171954Y-89013954D01*
X187171955Y-89013953D01*
X187176440Y-89011668D01*
X187261668Y-88926440D01*
X187309764Y-88832048D01*
X187314102Y-88823534D01*
X187314102Y-88823533D01*
X187316388Y-88819047D01*
X187335243Y-88700000D01*
X187764757Y-88700000D01*
X187783612Y-88819047D01*
X187785898Y-88823533D01*
X187785898Y-88823534D01*
X187790236Y-88832048D01*
X187838332Y-88926440D01*
X187923560Y-89011668D01*
X187928045Y-89013953D01*
X187928046Y-89013954D01*
X188026466Y-89064102D01*
X188026467Y-89064102D01*
X188030953Y-89066388D01*
X188035924Y-89067175D01*
X188035926Y-89067176D01*
X188145025Y-89084455D01*
X188150000Y-89085243D01*
X188154975Y-89084455D01*
X188264074Y-89067176D01*
X188264076Y-89067175D01*
X188269047Y-89066388D01*
X188273533Y-89064102D01*
X188273534Y-89064102D01*
X188371954Y-89013954D01*
X188371955Y-89013953D01*
X188376440Y-89011668D01*
X188461668Y-88926440D01*
X188509764Y-88832048D01*
X188514102Y-88823534D01*
X188514102Y-88823533D01*
X188516388Y-88819047D01*
X188535243Y-88700000D01*
X188964757Y-88700000D01*
X188983612Y-88819047D01*
X188985898Y-88823533D01*
X188985898Y-88823534D01*
X188990236Y-88832048D01*
X189038332Y-88926440D01*
X189123560Y-89011668D01*
X189128045Y-89013953D01*
X189128046Y-89013954D01*
X189226466Y-89064102D01*
X189226467Y-89064102D01*
X189230953Y-89066388D01*
X189235924Y-89067175D01*
X189235926Y-89067176D01*
X189345025Y-89084455D01*
X189350000Y-89085243D01*
X189354975Y-89084455D01*
X189464074Y-89067176D01*
X189464076Y-89067175D01*
X189469047Y-89066388D01*
X189473533Y-89064102D01*
X189473534Y-89064102D01*
X189571954Y-89013954D01*
X189571955Y-89013953D01*
X189576440Y-89011668D01*
X189661668Y-88926440D01*
X189709764Y-88832048D01*
X189714102Y-88823534D01*
X189714102Y-88823533D01*
X189716388Y-88819047D01*
X189735243Y-88700000D01*
X190164757Y-88700000D01*
X190183612Y-88819047D01*
X190185898Y-88823533D01*
X190185898Y-88823534D01*
X190190236Y-88832048D01*
X190238332Y-88926440D01*
X190323560Y-89011668D01*
X190328045Y-89013953D01*
X190328046Y-89013954D01*
X190426466Y-89064102D01*
X190426467Y-89064102D01*
X190430953Y-89066388D01*
X190435924Y-89067175D01*
X190435926Y-89067176D01*
X190545025Y-89084455D01*
X190550000Y-89085243D01*
X190554975Y-89084455D01*
X190664074Y-89067176D01*
X190664076Y-89067175D01*
X190669047Y-89066388D01*
X190673533Y-89064102D01*
X190673534Y-89064102D01*
X190771954Y-89013954D01*
X190771955Y-89013953D01*
X190776440Y-89011668D01*
X190861668Y-88926440D01*
X190909764Y-88832048D01*
X190914102Y-88823534D01*
X190914102Y-88823533D01*
X190916388Y-88819047D01*
X190935243Y-88700000D01*
X190916388Y-88580953D01*
X190861668Y-88473560D01*
X190776440Y-88388332D01*
X190769677Y-88384886D01*
X190673534Y-88335898D01*
X190673533Y-88335898D01*
X190669047Y-88333612D01*
X190664076Y-88332825D01*
X190664074Y-88332824D01*
X190554975Y-88315545D01*
X190550000Y-88314757D01*
X190545025Y-88315545D01*
X190435926Y-88332824D01*
X190435924Y-88332825D01*
X190430953Y-88333612D01*
X190426467Y-88335898D01*
X190426466Y-88335898D01*
X190330323Y-88384886D01*
X190323560Y-88388332D01*
X190238332Y-88473560D01*
X190183612Y-88580953D01*
X190164757Y-88700000D01*
X189735243Y-88700000D01*
X189716388Y-88580953D01*
X189661668Y-88473560D01*
X189576440Y-88388332D01*
X189569677Y-88384886D01*
X189473534Y-88335898D01*
X189473533Y-88335898D01*
X189469047Y-88333612D01*
X189464076Y-88332825D01*
X189464074Y-88332824D01*
X189354975Y-88315545D01*
X189350000Y-88314757D01*
X189345025Y-88315545D01*
X189235926Y-88332824D01*
X189235924Y-88332825D01*
X189230953Y-88333612D01*
X189226467Y-88335898D01*
X189226466Y-88335898D01*
X189130323Y-88384886D01*
X189123560Y-88388332D01*
X189038332Y-88473560D01*
X188983612Y-88580953D01*
X188964757Y-88700000D01*
X188535243Y-88700000D01*
X188516388Y-88580953D01*
X188461668Y-88473560D01*
X188376440Y-88388332D01*
X188369677Y-88384886D01*
X188273534Y-88335898D01*
X188273533Y-88335898D01*
X188269047Y-88333612D01*
X188264076Y-88332825D01*
X188264074Y-88332824D01*
X188154975Y-88315545D01*
X188150000Y-88314757D01*
X188145025Y-88315545D01*
X188035926Y-88332824D01*
X188035924Y-88332825D01*
X188030953Y-88333612D01*
X188026467Y-88335898D01*
X188026466Y-88335898D01*
X187930323Y-88384886D01*
X187923560Y-88388332D01*
X187838332Y-88473560D01*
X187783612Y-88580953D01*
X187764757Y-88700000D01*
X187335243Y-88700000D01*
X187316388Y-88580953D01*
X187261668Y-88473560D01*
X187176440Y-88388332D01*
X187169677Y-88384886D01*
X187073534Y-88335898D01*
X187073533Y-88335898D01*
X187069047Y-88333612D01*
X187064076Y-88332825D01*
X187064074Y-88332824D01*
X186954975Y-88315545D01*
X186950000Y-88314757D01*
X186945025Y-88315545D01*
X186835926Y-88332824D01*
X186835924Y-88332825D01*
X186830953Y-88333612D01*
X186826467Y-88335898D01*
X186826466Y-88335898D01*
X186730323Y-88384886D01*
X186723560Y-88388332D01*
X186638332Y-88473560D01*
X186583612Y-88580953D01*
X186564757Y-88700000D01*
X181250000Y-88700000D01*
X181250000Y-87800000D01*
X185110707Y-87800000D01*
X185129760Y-87920298D01*
X185185055Y-88028821D01*
X185271179Y-88114945D01*
X185379702Y-88170240D01*
X185500000Y-88189293D01*
X185620298Y-88170240D01*
X185728821Y-88114945D01*
X185814945Y-88028821D01*
X185870240Y-87920298D01*
X185889293Y-87800000D01*
X185870240Y-87679702D01*
X185814945Y-87571179D01*
X185728821Y-87485055D01*
X185620298Y-87429760D01*
X185500000Y-87410707D01*
X185379702Y-87429760D01*
X185271179Y-87485055D01*
X185185055Y-87571179D01*
X185129760Y-87679702D01*
X185110707Y-87800000D01*
X181250000Y-87800000D01*
X181250000Y-84629321D01*
X181272206Y-84580852D01*
X183795580Y-82405009D01*
X184596061Y-81714774D01*
X187865603Y-81714774D01*
X187894450Y-81882655D01*
X187895906Y-81886076D01*
X187895906Y-81886077D01*
X187929365Y-81964709D01*
X187961145Y-82039396D01*
X187963346Y-82042387D01*
X187963349Y-82042392D01*
X188014834Y-82112351D01*
X188062109Y-82176591D01*
X188191927Y-82286880D01*
X188195238Y-82288571D01*
X188195240Y-82288572D01*
X188270470Y-82326986D01*
X188343635Y-82364346D01*
X188509094Y-82404833D01*
X188516227Y-82405276D01*
X188518858Y-82405439D01*
X188518866Y-82405439D01*
X188519845Y-82405500D01*
X188642655Y-82405500D01*
X188690555Y-82399915D01*
X188765494Y-82391179D01*
X188765498Y-82391178D01*
X188769195Y-82390747D01*
X188846593Y-82362653D01*
X188925819Y-82333895D01*
X188929315Y-82332626D01*
X189071769Y-82239229D01*
X189188916Y-82115566D01*
X189274473Y-81968269D01*
X189323849Y-81805241D01*
X189334397Y-81635226D01*
X189311161Y-81500000D01*
X196010707Y-81500000D01*
X196029760Y-81620298D01*
X196085055Y-81728821D01*
X196171179Y-81814945D01*
X196279702Y-81870240D01*
X196400000Y-81889293D01*
X196520298Y-81870240D01*
X196628821Y-81814945D01*
X196714945Y-81728821D01*
X196770240Y-81620298D01*
X196789293Y-81500000D01*
X196770240Y-81379702D01*
X196714945Y-81271179D01*
X196628821Y-81185055D01*
X196520298Y-81129760D01*
X196400000Y-81110707D01*
X196279702Y-81129760D01*
X196171179Y-81185055D01*
X196085055Y-81271179D01*
X196029760Y-81379702D01*
X196010707Y-81500000D01*
X189311161Y-81500000D01*
X189305550Y-81467345D01*
X189238855Y-81310604D01*
X189236654Y-81307613D01*
X189236651Y-81307608D01*
X189140716Y-81177248D01*
X189128990Y-81129689D01*
X189154328Y-81087768D01*
X189201887Y-81076042D01*
X189225845Y-81084833D01*
X189274307Y-81114705D01*
X189281005Y-81117829D01*
X189441930Y-81171206D01*
X189448712Y-81172660D01*
X189548011Y-81182833D01*
X189551274Y-81183000D01*
X189933271Y-81183000D01*
X189942272Y-81179272D01*
X189946000Y-81170271D01*
X189946000Y-81170270D01*
X190454000Y-81170270D01*
X190457728Y-81179271D01*
X190466729Y-81182999D01*
X190848714Y-81182999D01*
X190852004Y-81182829D01*
X190952581Y-81172393D01*
X190959385Y-81170924D01*
X191120199Y-81117273D01*
X191126898Y-81114135D01*
X191270870Y-81025042D01*
X191276663Y-81020450D01*
X191396286Y-80900620D01*
X191400859Y-80894828D01*
X191489706Y-80750691D01*
X191492829Y-80743995D01*
X191546206Y-80583070D01*
X191547660Y-80576288D01*
X191557833Y-80476989D01*
X191558000Y-80473726D01*
X191558000Y-79941729D01*
X191554272Y-79932728D01*
X191545271Y-79929000D01*
X190466729Y-79929000D01*
X190457728Y-79932728D01*
X190454000Y-79941729D01*
X190454000Y-81170270D01*
X189946000Y-81170270D01*
X189946000Y-79941729D01*
X189942272Y-79932728D01*
X189933271Y-79929000D01*
X188854730Y-79929000D01*
X188845729Y-79932728D01*
X188842001Y-79941729D01*
X188842001Y-80473714D01*
X188842171Y-80477004D01*
X188852607Y-80577581D01*
X188854076Y-80584385D01*
X188907727Y-80745199D01*
X188910865Y-80751898D01*
X188999958Y-80895870D01*
X189004553Y-80901668D01*
X189044362Y-80941407D01*
X189063147Y-80986645D01*
X189044441Y-81031916D01*
X188999203Y-81050701D01*
X188970042Y-81043700D01*
X188905068Y-81010523D01*
X188856365Y-80985654D01*
X188690906Y-80945167D01*
X188683637Y-80944716D01*
X188681142Y-80944561D01*
X188681134Y-80944561D01*
X188680155Y-80944500D01*
X188557345Y-80944500D01*
X188509445Y-80950085D01*
X188434506Y-80958821D01*
X188434502Y-80958822D01*
X188430805Y-80959253D01*
X188427304Y-80960524D01*
X188427303Y-80960524D01*
X188274181Y-81016105D01*
X188270685Y-81017374D01*
X188128231Y-81110771D01*
X188125672Y-81113472D01*
X188125670Y-81113474D01*
X188070980Y-81171206D01*
X188011084Y-81234434D01*
X187925527Y-81381731D01*
X187876151Y-81544759D01*
X187865603Y-81714774D01*
X184596061Y-81714774D01*
X186729937Y-79874785D01*
X191719500Y-79874785D01*
X191719664Y-79876395D01*
X191719664Y-79876404D01*
X191726300Y-79941729D01*
X191734573Y-80023174D01*
X191735544Y-80026272D01*
X191766790Y-80125977D01*
X191794140Y-80213252D01*
X191890711Y-80387471D01*
X191892817Y-80389928D01*
X192011863Y-80528821D01*
X192020341Y-80538713D01*
X192177734Y-80660800D01*
X192180641Y-80662231D01*
X192180642Y-80662231D01*
X192353557Y-80747316D01*
X192353561Y-80747317D01*
X192356462Y-80748745D01*
X192549224Y-80798955D01*
X192552456Y-80799124D01*
X192552460Y-80799125D01*
X192744899Y-80809210D01*
X192744900Y-80809210D01*
X192748144Y-80809380D01*
X192751358Y-80808894D01*
X192941894Y-80780079D01*
X192941898Y-80780078D01*
X192945098Y-80779594D01*
X193057259Y-80738327D01*
X193128997Y-80711933D01*
X193129000Y-80711931D01*
X193132040Y-80710813D01*
X193301333Y-80605847D01*
X193446062Y-80468983D01*
X193503138Y-80387471D01*
X193558454Y-80308471D01*
X193558456Y-80308468D01*
X193560314Y-80305814D01*
X193600370Y-80213252D01*
X193638137Y-80125977D01*
X193639424Y-80123003D01*
X193680158Y-79928019D01*
X193680500Y-79921493D01*
X193680500Y-79475215D01*
X193675842Y-79429351D01*
X193665755Y-79330056D01*
X193665427Y-79326826D01*
X193635136Y-79230166D01*
X193606831Y-79139845D01*
X193606829Y-79139841D01*
X193605860Y-79136748D01*
X193509289Y-78962529D01*
X193439425Y-78881017D01*
X193381766Y-78813745D01*
X193381765Y-78813744D01*
X193379659Y-78811287D01*
X193222266Y-78689200D01*
X193219358Y-78687769D01*
X193046443Y-78602684D01*
X193046439Y-78602683D01*
X193043538Y-78601255D01*
X192850776Y-78551045D01*
X192847544Y-78550876D01*
X192847540Y-78550875D01*
X192655101Y-78540790D01*
X192655100Y-78540790D01*
X192651856Y-78540620D01*
X192648643Y-78541106D01*
X192648642Y-78541106D01*
X192458106Y-78569921D01*
X192458102Y-78569922D01*
X192454902Y-78570406D01*
X192342741Y-78611673D01*
X192271003Y-78638067D01*
X192271000Y-78638069D01*
X192267960Y-78639187D01*
X192098667Y-78744153D01*
X191953938Y-78881017D01*
X191952084Y-78883664D01*
X191952082Y-78883667D01*
X191841546Y-79041529D01*
X191839686Y-79044186D01*
X191838398Y-79047162D01*
X191838397Y-79047164D01*
X191798290Y-79139845D01*
X191760576Y-79226997D01*
X191719842Y-79421981D01*
X191719500Y-79428507D01*
X191719500Y-79874785D01*
X186729937Y-79874785D01*
X187270964Y-79408271D01*
X188842000Y-79408271D01*
X188845728Y-79417272D01*
X188854729Y-79421000D01*
X189933271Y-79421000D01*
X189942272Y-79417272D01*
X189946000Y-79408271D01*
X190454000Y-79408271D01*
X190457728Y-79417272D01*
X190466729Y-79421000D01*
X191545270Y-79421000D01*
X191554271Y-79417272D01*
X191557999Y-79408271D01*
X191557999Y-78876286D01*
X191557829Y-78872996D01*
X191547393Y-78772419D01*
X191545924Y-78765615D01*
X191492273Y-78604801D01*
X191489135Y-78598102D01*
X191400042Y-78454130D01*
X191395450Y-78448337D01*
X191275620Y-78328714D01*
X191269828Y-78324141D01*
X191125693Y-78235295D01*
X191118995Y-78232171D01*
X190958070Y-78178794D01*
X190951288Y-78177340D01*
X190851989Y-78167167D01*
X190848726Y-78167000D01*
X190466729Y-78167000D01*
X190457728Y-78170728D01*
X190454000Y-78179729D01*
X190454000Y-79408271D01*
X189946000Y-79408271D01*
X189946000Y-78179730D01*
X189942272Y-78170729D01*
X189933271Y-78167001D01*
X189551286Y-78167001D01*
X189547996Y-78167171D01*
X189447419Y-78177607D01*
X189440615Y-78179076D01*
X189279801Y-78232727D01*
X189273102Y-78235865D01*
X189129130Y-78324958D01*
X189123337Y-78329550D01*
X189003714Y-78449380D01*
X188999141Y-78455172D01*
X188910295Y-78599307D01*
X188907171Y-78606005D01*
X188853794Y-78766930D01*
X188852340Y-78773712D01*
X188842167Y-78873011D01*
X188842000Y-78876274D01*
X188842000Y-79408271D01*
X187270964Y-79408271D01*
X188904167Y-78000000D01*
X196910707Y-78000000D01*
X196929760Y-78120298D01*
X196985055Y-78228821D01*
X197071179Y-78314945D01*
X197179702Y-78370240D01*
X197300000Y-78389293D01*
X197420298Y-78370240D01*
X197528821Y-78314945D01*
X197614945Y-78228821D01*
X197670240Y-78120298D01*
X197689293Y-78000000D01*
X197670240Y-77879702D01*
X197614945Y-77771179D01*
X197528821Y-77685055D01*
X197420298Y-77629760D01*
X197300000Y-77610707D01*
X197179702Y-77629760D01*
X197071179Y-77685055D01*
X196985055Y-77771179D01*
X196929760Y-77879702D01*
X196910707Y-78000000D01*
X188904167Y-78000000D01*
X189581989Y-77415531D01*
X189623782Y-77400000D01*
X199686000Y-77400000D01*
X199731255Y-77418745D01*
G37*
%TD.AperFunction*%
%TD*%
%TA.AperFunction,Conductor*%
%TO.N,VCC*%
G36*
X199681548Y-65318452D02*
G01*
X199700000Y-65363000D01*
X199700000Y-76637000D01*
X199681548Y-76681548D01*
X199637000Y-76700000D01*
X189400000Y-76700000D01*
X189391392Y-76707520D01*
X189391391Y-76707520D01*
X180710271Y-84291027D01*
X180710271Y-84291028D01*
X180700000Y-84300000D01*
X180700000Y-89237000D01*
X180681548Y-89281548D01*
X180637000Y-89300000D01*
X169407236Y-89300000D01*
X169362688Y-89281548D01*
X169344236Y-89237000D01*
X169361499Y-89193674D01*
X169371398Y-89183224D01*
X169373916Y-89180566D01*
X169459473Y-89033269D01*
X169508849Y-88870241D01*
X169514689Y-88776119D01*
X169519170Y-88703881D01*
X169519397Y-88700226D01*
X169490550Y-88532345D01*
X169452775Y-88443569D01*
X169425288Y-88378971D01*
X169425287Y-88378969D01*
X169423855Y-88375604D01*
X169367800Y-88299434D01*
X169325060Y-88241356D01*
X169325059Y-88241355D01*
X169322891Y-88238409D01*
X169320105Y-88236042D01*
X169320102Y-88236039D01*
X169195865Y-88130492D01*
X169193073Y-88128120D01*
X169189811Y-88126454D01*
X169189809Y-88126453D01*
X169101037Y-88081124D01*
X169041365Y-88050654D01*
X169002457Y-88041133D01*
X168878630Y-88010833D01*
X168878624Y-88010832D01*
X168875906Y-88010167D01*
X168873107Y-88009993D01*
X168873105Y-88009993D01*
X168866141Y-88009561D01*
X168866135Y-88009561D01*
X168865155Y-88009500D01*
X168192345Y-88009500D01*
X168190528Y-88009712D01*
X168190525Y-88009712D01*
X168069441Y-88023829D01*
X168069440Y-88023829D01*
X168065805Y-88024253D01*
X168062366Y-88025501D01*
X168062363Y-88025502D01*
X167995466Y-88049785D01*
X167905685Y-88082374D01*
X167902623Y-88084381D01*
X167902620Y-88084383D01*
X167856006Y-88114945D01*
X167763231Y-88175771D01*
X167646084Y-88299434D01*
X167560527Y-88446731D01*
X167511151Y-88609759D01*
X167510925Y-88613407D01*
X167510924Y-88613411D01*
X167504458Y-88717633D01*
X167500603Y-88779774D01*
X167529450Y-88947655D01*
X167596145Y-89104396D01*
X167661847Y-89193674D01*
X167666251Y-89199659D01*
X167677793Y-89246475D01*
X167652851Y-89287741D01*
X167615510Y-89300000D01*
X165463000Y-89300000D01*
X165418452Y-89281548D01*
X165400000Y-89237000D01*
X165400000Y-87900000D01*
X172910707Y-87900000D01*
X172929760Y-88020298D01*
X172985055Y-88128821D01*
X173071179Y-88214945D01*
X173179702Y-88270240D01*
X173300000Y-88289293D01*
X173420298Y-88270240D01*
X173528821Y-88214945D01*
X173614945Y-88128821D01*
X173670240Y-88020298D01*
X173689293Y-87900000D01*
X173670240Y-87779702D01*
X173614945Y-87671179D01*
X173528821Y-87585055D01*
X173420298Y-87529760D01*
X173300000Y-87510707D01*
X173179702Y-87529760D01*
X173071179Y-87585055D01*
X172985055Y-87671179D01*
X172929760Y-87779702D01*
X172910707Y-87900000D01*
X165400000Y-87900000D01*
X165400000Y-86779774D01*
X167500603Y-86779774D01*
X167529450Y-86947655D01*
X167596145Y-87104396D01*
X167598313Y-87107342D01*
X167654157Y-87183225D01*
X167697109Y-87241591D01*
X167699895Y-87243958D01*
X167699898Y-87243961D01*
X167767706Y-87301568D01*
X167826927Y-87351880D01*
X167830189Y-87353546D01*
X167830191Y-87353547D01*
X167898233Y-87388291D01*
X167978635Y-87429346D01*
X168017543Y-87438867D01*
X168141370Y-87469167D01*
X168141376Y-87469168D01*
X168144094Y-87469833D01*
X168146893Y-87470007D01*
X168146895Y-87470007D01*
X168153859Y-87470439D01*
X168153865Y-87470439D01*
X168154845Y-87470500D01*
X168827655Y-87470500D01*
X168829472Y-87470288D01*
X168829475Y-87470288D01*
X168950559Y-87456171D01*
X168950560Y-87456171D01*
X168954195Y-87455747D01*
X168957634Y-87454499D01*
X168957637Y-87454498D01*
X169031515Y-87427681D01*
X169114315Y-87397626D01*
X169117377Y-87395619D01*
X169117380Y-87395617D01*
X169187707Y-87349508D01*
X169256769Y-87304229D01*
X169373916Y-87180566D01*
X169459473Y-87033269D01*
X169508849Y-86870241D01*
X169514689Y-86776119D01*
X169519170Y-86703881D01*
X169519397Y-86700226D01*
X169490550Y-86532345D01*
X169476787Y-86500000D01*
X174210707Y-86500000D01*
X174229760Y-86620298D01*
X174285055Y-86728821D01*
X174371179Y-86814945D01*
X174479702Y-86870240D01*
X174600000Y-86889293D01*
X174720298Y-86870240D01*
X174828821Y-86814945D01*
X174914945Y-86728821D01*
X174970240Y-86620298D01*
X174989293Y-86500000D01*
X174970240Y-86379702D01*
X174914945Y-86271179D01*
X174828821Y-86185055D01*
X174720298Y-86129760D01*
X174600000Y-86110707D01*
X174479702Y-86129760D01*
X174371179Y-86185055D01*
X174285055Y-86271179D01*
X174229760Y-86379702D01*
X174210707Y-86500000D01*
X169476787Y-86500000D01*
X169423855Y-86375604D01*
X169367800Y-86299434D01*
X169325060Y-86241356D01*
X169325059Y-86241355D01*
X169322891Y-86238409D01*
X169320105Y-86236042D01*
X169320102Y-86236039D01*
X169195865Y-86130492D01*
X169193073Y-86128120D01*
X169189811Y-86126454D01*
X169189809Y-86126453D01*
X169101037Y-86081124D01*
X169041365Y-86050654D01*
X169002457Y-86041133D01*
X168878630Y-86010833D01*
X168878624Y-86010832D01*
X168875906Y-86010167D01*
X168873107Y-86009993D01*
X168873105Y-86009993D01*
X168866141Y-86009561D01*
X168866135Y-86009561D01*
X168865155Y-86009500D01*
X168192345Y-86009500D01*
X168190528Y-86009712D01*
X168190525Y-86009712D01*
X168069441Y-86023829D01*
X168069440Y-86023829D01*
X168065805Y-86024253D01*
X168062366Y-86025501D01*
X168062363Y-86025502D01*
X167995466Y-86049785D01*
X167905685Y-86082374D01*
X167902623Y-86084381D01*
X167902620Y-86084383D01*
X167862470Y-86110707D01*
X167763231Y-86175771D01*
X167760711Y-86178431D01*
X167760710Y-86178432D01*
X167754436Y-86185055D01*
X167646084Y-86299434D01*
X167560527Y-86446731D01*
X167511151Y-86609759D01*
X167510925Y-86613407D01*
X167510924Y-86613411D01*
X167504458Y-86717633D01*
X167500603Y-86779774D01*
X165400000Y-86779774D01*
X165400000Y-85126062D01*
X167504500Y-85126062D01*
X167504836Y-85128341D01*
X167504836Y-85128348D01*
X167514702Y-85195372D01*
X167515509Y-85200852D01*
X167571337Y-85314560D01*
X167616282Y-85359427D01*
X167657302Y-85400376D01*
X167657304Y-85400377D01*
X167660987Y-85404054D01*
X167665667Y-85406341D01*
X167665666Y-85406341D01*
X167770402Y-85457537D01*
X167770404Y-85457538D01*
X167774793Y-85459683D01*
X167827724Y-85467405D01*
X167846675Y-85470170D01*
X167846677Y-85470170D01*
X167848938Y-85470500D01*
X169171062Y-85470500D01*
X169173341Y-85470164D01*
X169173348Y-85470164D01*
X169241009Y-85460204D01*
X169241010Y-85460204D01*
X169245852Y-85459491D01*
X169250242Y-85457336D01*
X169250244Y-85457335D01*
X169354890Y-85405956D01*
X169354891Y-85405956D01*
X169359560Y-85403663D01*
X169404427Y-85358718D01*
X169445376Y-85317698D01*
X169445377Y-85317696D01*
X169449054Y-85314013D01*
X169504683Y-85200207D01*
X169513683Y-85138518D01*
X169515170Y-85128325D01*
X169515170Y-85128323D01*
X169515500Y-85126062D01*
X169515500Y-84750001D01*
X179410707Y-84750001D01*
X179429760Y-84870299D01*
X179485055Y-84978822D01*
X179571179Y-85064946D01*
X179679702Y-85120241D01*
X179800000Y-85139294D01*
X179920298Y-85120241D01*
X180028821Y-85064946D01*
X180114945Y-84978822D01*
X180170240Y-84870299D01*
X180189293Y-84750001D01*
X180170240Y-84629703D01*
X180114945Y-84521180D01*
X180028821Y-84435056D01*
X179920298Y-84379761D01*
X179800000Y-84360708D01*
X179679702Y-84379761D01*
X179571179Y-84435056D01*
X179485055Y-84521180D01*
X179429760Y-84629703D01*
X179410707Y-84750001D01*
X169515500Y-84750001D01*
X169515500Y-84353938D01*
X169507561Y-84300000D01*
X169505204Y-84283991D01*
X169505204Y-84283990D01*
X169504491Y-84279148D01*
X169448663Y-84165440D01*
X169403718Y-84120573D01*
X169362698Y-84079624D01*
X169362696Y-84079623D01*
X169359013Y-84075946D01*
X169250011Y-84022665D01*
X169249598Y-84022463D01*
X169249596Y-84022462D01*
X169245207Y-84020317D01*
X169192276Y-84012595D01*
X169173325Y-84009830D01*
X169173323Y-84009830D01*
X169171062Y-84009500D01*
X167848938Y-84009500D01*
X167846659Y-84009836D01*
X167846652Y-84009836D01*
X167778991Y-84019796D01*
X167778990Y-84019796D01*
X167774148Y-84020509D01*
X167769758Y-84022664D01*
X167769756Y-84022665D01*
X167665894Y-84073659D01*
X167660440Y-84076337D01*
X167615573Y-84121282D01*
X167574624Y-84162302D01*
X167574623Y-84162304D01*
X167570946Y-84165987D01*
X167515317Y-84279793D01*
X167514612Y-84284628D01*
X167504834Y-84351652D01*
X167504500Y-84353938D01*
X167504500Y-85126062D01*
X165400000Y-85126062D01*
X165400000Y-83500000D01*
X173510707Y-83500000D01*
X173529760Y-83620298D01*
X173585055Y-83728821D01*
X173671179Y-83814945D01*
X173779702Y-83870240D01*
X173900000Y-83889293D01*
X174020298Y-83870240D01*
X174128821Y-83814945D01*
X174214945Y-83728821D01*
X174270240Y-83620298D01*
X174281374Y-83550001D01*
X178710707Y-83550001D01*
X178729760Y-83670299D01*
X178785055Y-83778822D01*
X178871179Y-83864946D01*
X178979702Y-83920241D01*
X179100000Y-83939294D01*
X179220298Y-83920241D01*
X179321401Y-83868727D01*
X179369468Y-83864945D01*
X179378594Y-83868724D01*
X179479702Y-83920241D01*
X179600000Y-83939294D01*
X179720298Y-83920241D01*
X179828821Y-83864946D01*
X179914945Y-83778822D01*
X179970240Y-83670299D01*
X179989293Y-83550001D01*
X179970240Y-83429703D01*
X179914945Y-83321180D01*
X179828821Y-83235056D01*
X179720298Y-83179761D01*
X179600000Y-83160708D01*
X179479702Y-83179761D01*
X179378599Y-83231275D01*
X179330532Y-83235057D01*
X179321406Y-83231278D01*
X179220298Y-83179761D01*
X179100000Y-83160708D01*
X178979702Y-83179761D01*
X178871179Y-83235056D01*
X178785055Y-83321180D01*
X178729760Y-83429703D01*
X178710707Y-83550001D01*
X174281374Y-83550001D01*
X174289293Y-83500000D01*
X174270240Y-83379702D01*
X174214945Y-83271179D01*
X174128821Y-83185055D01*
X174020298Y-83129760D01*
X173900000Y-83110707D01*
X173779702Y-83129760D01*
X173671179Y-83185055D01*
X173585055Y-83271179D01*
X173529760Y-83379702D01*
X173510707Y-83500000D01*
X165400000Y-83500000D01*
X165400000Y-81800000D01*
X180210707Y-81800000D01*
X180229760Y-81920298D01*
X180285055Y-82028821D01*
X180371179Y-82114945D01*
X180479702Y-82170240D01*
X180600000Y-82189293D01*
X180720298Y-82170240D01*
X180828821Y-82114945D01*
X180914945Y-82028821D01*
X180970240Y-81920298D01*
X180989293Y-81800000D01*
X181310707Y-81800000D01*
X181329760Y-81920298D01*
X181385055Y-82028821D01*
X181471179Y-82114945D01*
X181579702Y-82170240D01*
X181700000Y-82189293D01*
X181820298Y-82170240D01*
X181928821Y-82114945D01*
X182014945Y-82028821D01*
X182070240Y-81920298D01*
X182089293Y-81800000D01*
X182070240Y-81679702D01*
X182014945Y-81571179D01*
X181928821Y-81485055D01*
X181820298Y-81429760D01*
X181700000Y-81410707D01*
X181579702Y-81429760D01*
X181471179Y-81485055D01*
X181385055Y-81571179D01*
X181329760Y-81679702D01*
X181310707Y-81800000D01*
X180989293Y-81800000D01*
X180970240Y-81679702D01*
X180914945Y-81571179D01*
X180828821Y-81485055D01*
X180720298Y-81429760D01*
X180600000Y-81410707D01*
X180479702Y-81429760D01*
X180371179Y-81485055D01*
X180285055Y-81571179D01*
X180229760Y-81679702D01*
X180210707Y-81800000D01*
X165400000Y-81800000D01*
X165400000Y-80300000D01*
X183610707Y-80300000D01*
X183629760Y-80420298D01*
X183685055Y-80528821D01*
X183771179Y-80614945D01*
X183879702Y-80670240D01*
X184000000Y-80689293D01*
X184120298Y-80670240D01*
X184228821Y-80614945D01*
X184314945Y-80528821D01*
X184370240Y-80420298D01*
X184389293Y-80300000D01*
X184370240Y-80179702D01*
X184314945Y-80071179D01*
X184228821Y-79985055D01*
X184120298Y-79929760D01*
X184000000Y-79910707D01*
X183879702Y-79929760D01*
X183771179Y-79985055D01*
X183685055Y-80071179D01*
X183629760Y-80179702D01*
X183610707Y-80300000D01*
X165400000Y-80300000D01*
X165400000Y-79900000D01*
X170110707Y-79900000D01*
X170129760Y-80020298D01*
X170185055Y-80128821D01*
X170271179Y-80214945D01*
X170379702Y-80270240D01*
X170500000Y-80289293D01*
X170620298Y-80270240D01*
X170728821Y-80214945D01*
X170814945Y-80128821D01*
X170870240Y-80020298D01*
X170889293Y-79900000D01*
X170870240Y-79779702D01*
X170814945Y-79671179D01*
X170728821Y-79585055D01*
X170620298Y-79529760D01*
X170500000Y-79510707D01*
X170379702Y-79529760D01*
X170271179Y-79585055D01*
X170185055Y-79671179D01*
X170129760Y-79779702D01*
X170110707Y-79900000D01*
X165400000Y-79900000D01*
X165400000Y-79039774D01*
X167490603Y-79039774D01*
X167519450Y-79207655D01*
X167520885Y-79211027D01*
X167570159Y-79326826D01*
X167586145Y-79364396D01*
X167588313Y-79367342D01*
X167644157Y-79443225D01*
X167687109Y-79501591D01*
X167689895Y-79503958D01*
X167689898Y-79503961D01*
X167767914Y-79570240D01*
X167816927Y-79611880D01*
X167820189Y-79613546D01*
X167820191Y-79613547D01*
X167888233Y-79648291D01*
X167968635Y-79689346D01*
X168007543Y-79698867D01*
X168131370Y-79729167D01*
X168131376Y-79729168D01*
X168134094Y-79729833D01*
X168136893Y-79730007D01*
X168136895Y-79730007D01*
X168143859Y-79730439D01*
X168143865Y-79730439D01*
X168144845Y-79730500D01*
X168817655Y-79730500D01*
X168819472Y-79730288D01*
X168819475Y-79730288D01*
X168940559Y-79716171D01*
X168940560Y-79716171D01*
X168944195Y-79715747D01*
X168947634Y-79714499D01*
X168947637Y-79714498D01*
X169054800Y-79675599D01*
X169104315Y-79657626D01*
X169107377Y-79655619D01*
X169107380Y-79655617D01*
X169208540Y-79589293D01*
X169246769Y-79564229D01*
X169363916Y-79440566D01*
X169370921Y-79428507D01*
X169410115Y-79361029D01*
X169449473Y-79293269D01*
X169498849Y-79130241D01*
X169499212Y-79124401D01*
X169509170Y-78963881D01*
X169509397Y-78960226D01*
X169480550Y-78792345D01*
X169441676Y-78700987D01*
X169415288Y-78638971D01*
X169415287Y-78638969D01*
X169413855Y-78635604D01*
X169357800Y-78559434D01*
X169315060Y-78501356D01*
X169315059Y-78501355D01*
X169312891Y-78498409D01*
X169310105Y-78496042D01*
X169310102Y-78496039D01*
X169185865Y-78390492D01*
X169183073Y-78388120D01*
X169179811Y-78386454D01*
X169179809Y-78386453D01*
X169073196Y-78332014D01*
X169031365Y-78310654D01*
X168992457Y-78301133D01*
X168868630Y-78270833D01*
X168868624Y-78270832D01*
X168865906Y-78270167D01*
X168863107Y-78269993D01*
X168863105Y-78269993D01*
X168856141Y-78269561D01*
X168856135Y-78269561D01*
X168855155Y-78269500D01*
X168182345Y-78269500D01*
X168180528Y-78269712D01*
X168180525Y-78269712D01*
X168059441Y-78283829D01*
X168059440Y-78283829D01*
X168055805Y-78284253D01*
X168052366Y-78285501D01*
X168052363Y-78285502D01*
X167985466Y-78309785D01*
X167895685Y-78342374D01*
X167892623Y-78344381D01*
X167892620Y-78344383D01*
X167830586Y-78385055D01*
X167753231Y-78435771D01*
X167750711Y-78438431D01*
X167750710Y-78438432D01*
X167703264Y-78488517D01*
X167636084Y-78559434D01*
X167634247Y-78562597D01*
X167634246Y-78562598D01*
X167621202Y-78585055D01*
X167550527Y-78706731D01*
X167501151Y-78869759D01*
X167500925Y-78873407D01*
X167500924Y-78873411D01*
X167495076Y-78967673D01*
X167490603Y-79039774D01*
X165400000Y-79039774D01*
X165400000Y-78100000D01*
X171310707Y-78100000D01*
X171329760Y-78220298D01*
X171385055Y-78328821D01*
X171471179Y-78414945D01*
X171577944Y-78469344D01*
X171609257Y-78506008D01*
X171605475Y-78554077D01*
X171577944Y-78581608D01*
X171571179Y-78585055D01*
X171485055Y-78671179D01*
X171429760Y-78779702D01*
X171410707Y-78900000D01*
X171429760Y-79020298D01*
X171485055Y-79128821D01*
X171571179Y-79214945D01*
X171679702Y-79270240D01*
X171800000Y-79289293D01*
X171920298Y-79270240D01*
X172028821Y-79214945D01*
X172114945Y-79128821D01*
X172170240Y-79020298D01*
X172189293Y-78900000D01*
X172510707Y-78900000D01*
X172529760Y-79020298D01*
X172585055Y-79128821D01*
X172671179Y-79214945D01*
X172779702Y-79270240D01*
X172900000Y-79289293D01*
X173020298Y-79270240D01*
X173128821Y-79214945D01*
X173214945Y-79128821D01*
X173270240Y-79020298D01*
X173289293Y-78900000D01*
X173510707Y-78900000D01*
X173529760Y-79020298D01*
X173585055Y-79128821D01*
X173671179Y-79214945D01*
X173779702Y-79270240D01*
X173900000Y-79289293D01*
X174020298Y-79270240D01*
X174128821Y-79214945D01*
X174214945Y-79128821D01*
X174270240Y-79020298D01*
X174289293Y-78900000D01*
X174270240Y-78779702D01*
X174229630Y-78700000D01*
X179510707Y-78700000D01*
X179529760Y-78820298D01*
X179585055Y-78928821D01*
X179671179Y-79014945D01*
X179779702Y-79070240D01*
X179900000Y-79089293D01*
X180020298Y-79070240D01*
X180030832Y-79064873D01*
X180078898Y-79061087D01*
X180115565Y-79092401D01*
X180121657Y-79130860D01*
X180111483Y-79195100D01*
X180110707Y-79200000D01*
X180129760Y-79320298D01*
X180185055Y-79428821D01*
X180271179Y-79514945D01*
X180379702Y-79570240D01*
X180500000Y-79589293D01*
X180620298Y-79570240D01*
X180728821Y-79514945D01*
X180814945Y-79428821D01*
X180870240Y-79320298D01*
X180889293Y-79200000D01*
X180870240Y-79079702D01*
X180814945Y-78971179D01*
X180728821Y-78885055D01*
X180620298Y-78829760D01*
X180500000Y-78810707D01*
X180379702Y-78829760D01*
X180369168Y-78835127D01*
X180321102Y-78838913D01*
X180284435Y-78807599D01*
X180278343Y-78769140D01*
X180288517Y-78704900D01*
X180289293Y-78700000D01*
X180287583Y-78689200D01*
X180275188Y-78610946D01*
X180270240Y-78579702D01*
X180214945Y-78471179D01*
X180128821Y-78385055D01*
X180020298Y-78329760D01*
X179900000Y-78310707D01*
X179779702Y-78329760D01*
X179671179Y-78385055D01*
X179585055Y-78471179D01*
X179529760Y-78579702D01*
X179524812Y-78610946D01*
X179512418Y-78689200D01*
X179510707Y-78700000D01*
X174229630Y-78700000D01*
X174214945Y-78671179D01*
X174128821Y-78585055D01*
X174020298Y-78529760D01*
X173900000Y-78510707D01*
X173779702Y-78529760D01*
X173671179Y-78585055D01*
X173585055Y-78671179D01*
X173529760Y-78779702D01*
X173510707Y-78900000D01*
X173289293Y-78900000D01*
X173270240Y-78779702D01*
X173214945Y-78671179D01*
X173128821Y-78585055D01*
X173020298Y-78529760D01*
X172900000Y-78510707D01*
X172779702Y-78529760D01*
X172671179Y-78585055D01*
X172585055Y-78671179D01*
X172529760Y-78779702D01*
X172510707Y-78900000D01*
X172189293Y-78900000D01*
X172170240Y-78779702D01*
X172114945Y-78671179D01*
X172028821Y-78585055D01*
X171922056Y-78530656D01*
X171890743Y-78493992D01*
X171894525Y-78445923D01*
X171922056Y-78418392D01*
X171928821Y-78414945D01*
X172014945Y-78328821D01*
X172070240Y-78220298D01*
X172089293Y-78100000D01*
X184410707Y-78100000D01*
X184429760Y-78220298D01*
X184485055Y-78328821D01*
X184571179Y-78414945D01*
X184679702Y-78470240D01*
X184800000Y-78489293D01*
X184920298Y-78470240D01*
X185028821Y-78414945D01*
X185114945Y-78328821D01*
X185170240Y-78220298D01*
X185189293Y-78100000D01*
X185170240Y-77979702D01*
X185114945Y-77871179D01*
X185028821Y-77785055D01*
X184920298Y-77729760D01*
X184800000Y-77710707D01*
X184679702Y-77729760D01*
X184571179Y-77785055D01*
X184485055Y-77871179D01*
X184429760Y-77979702D01*
X184410707Y-78100000D01*
X172089293Y-78100000D01*
X172070240Y-77979702D01*
X172014945Y-77871179D01*
X171928821Y-77785055D01*
X171820298Y-77729760D01*
X171700000Y-77710707D01*
X171579702Y-77729760D01*
X171471179Y-77785055D01*
X171385055Y-77871179D01*
X171329760Y-77979702D01*
X171310707Y-78100000D01*
X165400000Y-78100000D01*
X165400000Y-77039774D01*
X167490603Y-77039774D01*
X167519450Y-77207655D01*
X167586145Y-77364396D01*
X167588313Y-77367342D01*
X167644157Y-77443225D01*
X167687109Y-77501591D01*
X167689895Y-77503958D01*
X167689898Y-77503961D01*
X167757706Y-77561568D01*
X167816927Y-77611880D01*
X167820189Y-77613546D01*
X167820191Y-77613547D01*
X167851943Y-77629760D01*
X167968635Y-77689346D01*
X168007543Y-77698867D01*
X168131370Y-77729167D01*
X168131376Y-77729168D01*
X168134094Y-77729833D01*
X168136893Y-77730007D01*
X168136895Y-77730007D01*
X168143859Y-77730439D01*
X168143865Y-77730439D01*
X168144845Y-77730500D01*
X168817655Y-77730500D01*
X168819472Y-77730288D01*
X168819475Y-77730288D01*
X168940559Y-77716171D01*
X168940560Y-77716171D01*
X168944195Y-77715747D01*
X168947634Y-77714499D01*
X168947637Y-77714498D01*
X169021515Y-77687681D01*
X169104315Y-77657626D01*
X169107377Y-77655619D01*
X169107380Y-77655617D01*
X169177707Y-77609508D01*
X169246769Y-77564229D01*
X169363916Y-77440566D01*
X169394149Y-77388517D01*
X169435574Y-77317197D01*
X169449473Y-77293269D01*
X169498849Y-77130241D01*
X169499192Y-77124721D01*
X169506929Y-77000000D01*
X171310707Y-77000000D01*
X171329760Y-77120298D01*
X171385055Y-77228821D01*
X171471179Y-77314945D01*
X171579702Y-77370240D01*
X171700000Y-77389293D01*
X171820298Y-77370240D01*
X171928821Y-77314945D01*
X172014945Y-77228821D01*
X172070240Y-77120298D01*
X172089293Y-77000000D01*
X184410707Y-77000000D01*
X184429760Y-77120298D01*
X184485055Y-77228821D01*
X184571179Y-77314945D01*
X184679702Y-77370240D01*
X184800000Y-77389293D01*
X184920298Y-77370240D01*
X185028821Y-77314945D01*
X185114945Y-77228821D01*
X185170240Y-77120298D01*
X185189293Y-77000000D01*
X185170240Y-76879702D01*
X185114945Y-76771179D01*
X185028821Y-76685055D01*
X184920298Y-76629760D01*
X184800000Y-76610707D01*
X184679702Y-76629760D01*
X184571179Y-76685055D01*
X184485055Y-76771179D01*
X184429760Y-76879702D01*
X184410707Y-77000000D01*
X172089293Y-77000000D01*
X172070240Y-76879702D01*
X172014945Y-76771179D01*
X171928821Y-76685055D01*
X171820298Y-76629760D01*
X171700000Y-76610707D01*
X171579702Y-76629760D01*
X171471179Y-76685055D01*
X171385055Y-76771179D01*
X171329760Y-76879702D01*
X171310707Y-77000000D01*
X169506929Y-77000000D01*
X169509170Y-76963881D01*
X169509397Y-76960226D01*
X169480550Y-76792345D01*
X169413855Y-76635604D01*
X169357800Y-76559434D01*
X169315060Y-76501356D01*
X169315059Y-76501355D01*
X169314062Y-76500000D01*
X174360707Y-76500000D01*
X174379760Y-76620298D01*
X174435055Y-76728821D01*
X174521179Y-76814945D01*
X174629702Y-76870240D01*
X174750000Y-76889293D01*
X174870298Y-76870240D01*
X174978821Y-76814945D01*
X175064945Y-76728821D01*
X175120240Y-76620298D01*
X175139293Y-76500000D01*
X175120240Y-76379702D01*
X175064945Y-76271179D01*
X174978821Y-76185055D01*
X174870298Y-76129760D01*
X174750000Y-76110707D01*
X174629702Y-76129760D01*
X174521179Y-76185055D01*
X174435055Y-76271179D01*
X174379760Y-76379702D01*
X174360707Y-76500000D01*
X169314062Y-76500000D01*
X169312891Y-76498409D01*
X169310105Y-76496042D01*
X169310102Y-76496039D01*
X169185865Y-76390492D01*
X169183073Y-76388120D01*
X169179811Y-76386454D01*
X169179809Y-76386453D01*
X169091037Y-76341124D01*
X169031365Y-76310654D01*
X168944069Y-76289293D01*
X168868630Y-76270833D01*
X168868624Y-76270832D01*
X168865906Y-76270167D01*
X168863107Y-76269993D01*
X168863105Y-76269993D01*
X168856141Y-76269561D01*
X168856135Y-76269561D01*
X168855155Y-76269500D01*
X168182345Y-76269500D01*
X168180528Y-76269712D01*
X168180525Y-76269712D01*
X168059441Y-76283829D01*
X168059440Y-76283829D01*
X168055805Y-76284253D01*
X168052366Y-76285501D01*
X168052363Y-76285502D01*
X167985466Y-76309785D01*
X167895685Y-76342374D01*
X167892623Y-76344381D01*
X167892620Y-76344383D01*
X167838750Y-76379702D01*
X167753231Y-76435771D01*
X167750711Y-76438431D01*
X167750710Y-76438432D01*
X167676154Y-76517135D01*
X167636084Y-76559434D01*
X167634247Y-76562597D01*
X167634246Y-76562598D01*
X167605068Y-76612831D01*
X167550527Y-76706731D01*
X167501151Y-76869759D01*
X167500925Y-76873407D01*
X167500924Y-76873411D01*
X167494458Y-76977633D01*
X167490603Y-77039774D01*
X165400000Y-77039774D01*
X165400000Y-75900000D01*
X184410707Y-75900000D01*
X184429760Y-76020298D01*
X184485055Y-76128821D01*
X184571179Y-76214945D01*
X184679702Y-76270240D01*
X184800000Y-76289293D01*
X184920298Y-76270240D01*
X185028821Y-76214945D01*
X185114945Y-76128821D01*
X185170240Y-76020298D01*
X185189293Y-75900000D01*
X185170240Y-75779702D01*
X185114945Y-75671179D01*
X185028821Y-75585055D01*
X184920298Y-75529760D01*
X184800000Y-75510707D01*
X184679702Y-75529760D01*
X184571179Y-75585055D01*
X184485055Y-75671179D01*
X184429760Y-75779702D01*
X184410707Y-75900000D01*
X165400000Y-75900000D01*
X165400000Y-75039774D01*
X167490603Y-75039774D01*
X167519450Y-75207655D01*
X167586145Y-75364396D01*
X167588313Y-75367342D01*
X167644157Y-75443225D01*
X167687109Y-75501591D01*
X167689895Y-75503958D01*
X167689898Y-75503961D01*
X167722919Y-75532014D01*
X167816927Y-75611880D01*
X167820189Y-75613546D01*
X167820191Y-75613547D01*
X167888233Y-75648291D01*
X167968635Y-75689346D01*
X168007543Y-75698867D01*
X168131370Y-75729167D01*
X168131376Y-75729168D01*
X168134094Y-75729833D01*
X168136893Y-75730007D01*
X168136895Y-75730007D01*
X168143859Y-75730439D01*
X168143865Y-75730439D01*
X168144845Y-75730500D01*
X168817655Y-75730500D01*
X168819472Y-75730288D01*
X168819475Y-75730288D01*
X168940559Y-75716171D01*
X168940560Y-75716171D01*
X168944195Y-75715747D01*
X168947634Y-75714499D01*
X168947637Y-75714498D01*
X169054800Y-75675599D01*
X169104315Y-75657626D01*
X169107377Y-75655619D01*
X169107380Y-75655617D01*
X169177707Y-75609508D01*
X169246769Y-75564229D01*
X169363916Y-75440566D01*
X169449473Y-75293269D01*
X169498849Y-75130241D01*
X169499659Y-75117197D01*
X169509170Y-74963881D01*
X169509397Y-74960226D01*
X169481865Y-74800000D01*
X184410707Y-74800000D01*
X184429760Y-74920298D01*
X184485055Y-75028821D01*
X184571179Y-75114945D01*
X184679702Y-75170240D01*
X184800000Y-75189293D01*
X184920298Y-75170240D01*
X185028821Y-75114945D01*
X185114945Y-75028821D01*
X185170240Y-74920298D01*
X185189293Y-74800000D01*
X185170240Y-74679702D01*
X185114945Y-74571179D01*
X185028821Y-74485055D01*
X184920298Y-74429760D01*
X184800000Y-74410707D01*
X184679702Y-74429760D01*
X184571179Y-74485055D01*
X184485055Y-74571179D01*
X184429760Y-74679702D01*
X184410707Y-74800000D01*
X169481865Y-74800000D01*
X169480550Y-74792345D01*
X169442775Y-74703569D01*
X169415288Y-74638971D01*
X169415287Y-74638969D01*
X169413855Y-74635604D01*
X169365936Y-74570489D01*
X169315060Y-74501356D01*
X169315059Y-74501355D01*
X169312891Y-74498409D01*
X169310105Y-74496042D01*
X169310102Y-74496039D01*
X169185865Y-74390492D01*
X169183073Y-74388120D01*
X169179811Y-74386454D01*
X169179809Y-74386453D01*
X169106165Y-74348849D01*
X169031365Y-74310654D01*
X168990003Y-74300533D01*
X168868630Y-74270833D01*
X168868624Y-74270832D01*
X168865906Y-74270167D01*
X168863107Y-74269993D01*
X168863105Y-74269993D01*
X168856141Y-74269561D01*
X168856135Y-74269561D01*
X168855155Y-74269500D01*
X168182345Y-74269500D01*
X168180528Y-74269712D01*
X168180525Y-74269712D01*
X168059441Y-74283829D01*
X168059440Y-74283829D01*
X168055805Y-74284253D01*
X168052366Y-74285501D01*
X168052363Y-74285502D01*
X168007337Y-74301846D01*
X167895685Y-74342374D01*
X167892623Y-74344381D01*
X167892620Y-74344383D01*
X167828453Y-74386453D01*
X167753231Y-74435771D01*
X167750711Y-74438431D01*
X167750710Y-74438432D01*
X167738212Y-74451625D01*
X167636084Y-74559434D01*
X167634247Y-74562597D01*
X167634246Y-74562598D01*
X167626559Y-74575833D01*
X167550527Y-74706731D01*
X167501151Y-74869759D01*
X167500925Y-74873407D01*
X167500924Y-74873411D01*
X167494458Y-74977633D01*
X167490603Y-75039774D01*
X165400000Y-75039774D01*
X165400000Y-73386062D01*
X167494500Y-73386062D01*
X167494836Y-73388341D01*
X167494836Y-73388348D01*
X167504702Y-73455372D01*
X167505509Y-73460852D01*
X167561337Y-73574560D01*
X167594506Y-73607671D01*
X167647302Y-73660376D01*
X167647304Y-73660377D01*
X167650987Y-73664054D01*
X167655667Y-73666341D01*
X167655666Y-73666341D01*
X167760402Y-73717537D01*
X167760404Y-73717538D01*
X167764793Y-73719683D01*
X167817724Y-73727405D01*
X167836675Y-73730170D01*
X167836677Y-73730170D01*
X167838938Y-73730500D01*
X169161062Y-73730500D01*
X169163341Y-73730164D01*
X169163348Y-73730164D01*
X169231009Y-73720204D01*
X169231010Y-73720204D01*
X169235852Y-73719491D01*
X169240242Y-73717336D01*
X169240244Y-73717335D01*
X169275551Y-73700000D01*
X184410707Y-73700000D01*
X184429760Y-73820298D01*
X184485055Y-73928821D01*
X184571179Y-74014945D01*
X184679702Y-74070240D01*
X184800000Y-74089293D01*
X184920298Y-74070240D01*
X185011566Y-74023737D01*
X186092001Y-74023737D01*
X186092168Y-74026975D01*
X186102613Y-74127639D01*
X186104058Y-74134330D01*
X186157747Y-74295258D01*
X186160833Y-74301846D01*
X186249989Y-74445919D01*
X186254511Y-74451625D01*
X186374414Y-74571320D01*
X186380128Y-74575833D01*
X186524361Y-74664738D01*
X186530949Y-74667810D01*
X186691973Y-74721220D01*
X186698664Y-74722655D01*
X186798037Y-74732836D01*
X186801246Y-74733000D01*
X186933467Y-74733000D01*
X186942329Y-74729329D01*
X186946000Y-74720467D01*
X186946000Y-74720466D01*
X187454000Y-74720466D01*
X187457671Y-74729328D01*
X187466533Y-74732999D01*
X187598736Y-74732999D01*
X187601975Y-74732832D01*
X187702639Y-74722387D01*
X187709330Y-74720942D01*
X187870258Y-74667253D01*
X187876846Y-74664167D01*
X188020919Y-74575011D01*
X188026625Y-74570489D01*
X188146320Y-74450586D01*
X188150833Y-74444872D01*
X188239738Y-74300639D01*
X188242810Y-74294051D01*
X188296220Y-74133027D01*
X188297655Y-74126336D01*
X188307836Y-74026963D01*
X188308000Y-74023754D01*
X188308000Y-73667655D01*
X188469500Y-73667655D01*
X188469712Y-73669472D01*
X188469712Y-73669475D01*
X188475648Y-73720388D01*
X188484253Y-73794195D01*
X188542374Y-73954315D01*
X188544381Y-73957377D01*
X188544383Y-73957380D01*
X188579826Y-74011439D01*
X188635771Y-74096769D01*
X188638431Y-74099289D01*
X188638432Y-74099290D01*
X188717135Y-74173846D01*
X188759434Y-74213916D01*
X188906731Y-74299473D01*
X189069759Y-74348849D01*
X189073407Y-74349075D01*
X189073411Y-74349076D01*
X189177633Y-74355542D01*
X189239774Y-74359397D01*
X189243382Y-74358777D01*
X189243383Y-74358777D01*
X189301160Y-74348849D01*
X189407655Y-74330550D01*
X189477949Y-74300639D01*
X189561029Y-74265288D01*
X189561031Y-74265287D01*
X189564396Y-74263855D01*
X189701591Y-74162891D01*
X189703958Y-74160105D01*
X189703961Y-74160102D01*
X189809508Y-74035865D01*
X189811880Y-74033073D01*
X189889346Y-73881365D01*
X189926343Y-73730170D01*
X189929167Y-73718630D01*
X189929168Y-73718624D01*
X189929833Y-73715906D01*
X189930500Y-73705155D01*
X189930500Y-73667655D01*
X190469500Y-73667655D01*
X190469712Y-73669472D01*
X190469712Y-73669475D01*
X190475648Y-73720388D01*
X190484253Y-73794195D01*
X190542374Y-73954315D01*
X190544381Y-73957377D01*
X190544383Y-73957380D01*
X190579826Y-74011439D01*
X190635771Y-74096769D01*
X190638431Y-74099289D01*
X190638432Y-74099290D01*
X190717135Y-74173846D01*
X190759434Y-74213916D01*
X190906731Y-74299473D01*
X191069759Y-74348849D01*
X191073407Y-74349075D01*
X191073411Y-74349076D01*
X191177633Y-74355542D01*
X191239774Y-74359397D01*
X191243382Y-74358777D01*
X191243383Y-74358777D01*
X191301160Y-74348849D01*
X191407655Y-74330550D01*
X191477949Y-74300639D01*
X191561029Y-74265288D01*
X191561031Y-74265287D01*
X191564396Y-74263855D01*
X191701591Y-74162891D01*
X191703958Y-74160105D01*
X191703961Y-74160102D01*
X191809508Y-74035865D01*
X191811880Y-74033073D01*
X191889346Y-73881365D01*
X191926343Y-73730170D01*
X191929167Y-73718630D01*
X191929168Y-73718624D01*
X191929833Y-73715906D01*
X191930500Y-73705155D01*
X191930500Y-73667655D01*
X192469500Y-73667655D01*
X192469712Y-73669472D01*
X192469712Y-73669475D01*
X192475648Y-73720388D01*
X192484253Y-73794195D01*
X192542374Y-73954315D01*
X192544381Y-73957377D01*
X192544383Y-73957380D01*
X192579826Y-74011439D01*
X192635771Y-74096769D01*
X192638431Y-74099289D01*
X192638432Y-74099290D01*
X192717135Y-74173846D01*
X192759434Y-74213916D01*
X192906731Y-74299473D01*
X193069759Y-74348849D01*
X193073407Y-74349075D01*
X193073411Y-74349076D01*
X193177633Y-74355542D01*
X193239774Y-74359397D01*
X193243382Y-74358777D01*
X193243383Y-74358777D01*
X193301160Y-74348849D01*
X193407655Y-74330550D01*
X193477949Y-74300639D01*
X193561029Y-74265288D01*
X193561031Y-74265287D01*
X193564396Y-74263855D01*
X193701591Y-74162891D01*
X193703958Y-74160105D01*
X193703961Y-74160102D01*
X193809508Y-74035865D01*
X193811880Y-74033073D01*
X193889346Y-73881365D01*
X193926343Y-73730170D01*
X193929167Y-73718630D01*
X193929168Y-73718624D01*
X193929833Y-73715906D01*
X193930500Y-73705155D01*
X193930500Y-73032345D01*
X193915747Y-72905805D01*
X193909754Y-72889293D01*
X193858876Y-72749130D01*
X193857626Y-72745685D01*
X193855619Y-72742623D01*
X193855617Y-72742620D01*
X193778318Y-72624721D01*
X193764229Y-72603231D01*
X193760819Y-72600000D01*
X193643225Y-72488603D01*
X193643226Y-72488603D01*
X193640566Y-72486084D01*
X193493269Y-72400527D01*
X193330241Y-72351151D01*
X193326593Y-72350925D01*
X193326589Y-72350924D01*
X193222367Y-72344458D01*
X193160226Y-72340603D01*
X193156618Y-72341223D01*
X193156617Y-72341223D01*
X193121326Y-72347287D01*
X192992345Y-72369450D01*
X192977894Y-72375599D01*
X192838971Y-72434712D01*
X192838969Y-72434713D01*
X192835604Y-72436145D01*
X192832658Y-72438313D01*
X192748835Y-72500000D01*
X192698409Y-72537109D01*
X192696042Y-72539895D01*
X192696039Y-72539898D01*
X192631177Y-72616246D01*
X192588120Y-72666927D01*
X192586454Y-72670189D01*
X192586453Y-72670191D01*
X192576699Y-72689293D01*
X192510654Y-72818635D01*
X192509785Y-72822187D01*
X192470833Y-72981370D01*
X192470832Y-72981376D01*
X192470167Y-72984094D01*
X192469993Y-72986893D01*
X192469993Y-72986895D01*
X192469844Y-72989293D01*
X192469500Y-72994845D01*
X192469500Y-73667655D01*
X191930500Y-73667655D01*
X191930500Y-73032345D01*
X191915747Y-72905805D01*
X191909754Y-72889293D01*
X191858876Y-72749130D01*
X191857626Y-72745685D01*
X191855619Y-72742623D01*
X191855617Y-72742620D01*
X191778318Y-72624721D01*
X191764229Y-72603231D01*
X191760819Y-72600000D01*
X191643225Y-72488603D01*
X191643226Y-72488603D01*
X191640566Y-72486084D01*
X191493269Y-72400527D01*
X191330241Y-72351151D01*
X191326593Y-72350925D01*
X191326589Y-72350924D01*
X191222367Y-72344458D01*
X191160226Y-72340603D01*
X191156618Y-72341223D01*
X191156617Y-72341223D01*
X191121326Y-72347287D01*
X190992345Y-72369450D01*
X190977894Y-72375599D01*
X190838971Y-72434712D01*
X190838969Y-72434713D01*
X190835604Y-72436145D01*
X190832658Y-72438313D01*
X190748835Y-72500000D01*
X190698409Y-72537109D01*
X190696042Y-72539895D01*
X190696039Y-72539898D01*
X190631177Y-72616246D01*
X190588120Y-72666927D01*
X190586454Y-72670189D01*
X190586453Y-72670191D01*
X190576699Y-72689293D01*
X190510654Y-72818635D01*
X190509785Y-72822187D01*
X190470833Y-72981370D01*
X190470832Y-72981376D01*
X190470167Y-72984094D01*
X190469993Y-72986893D01*
X190469993Y-72986895D01*
X190469844Y-72989293D01*
X190469500Y-72994845D01*
X190469500Y-73667655D01*
X189930500Y-73667655D01*
X189930500Y-73032345D01*
X189915747Y-72905805D01*
X189909754Y-72889293D01*
X189858876Y-72749130D01*
X189857626Y-72745685D01*
X189855619Y-72742623D01*
X189855617Y-72742620D01*
X189778318Y-72624721D01*
X189764229Y-72603231D01*
X189760819Y-72600000D01*
X189643225Y-72488603D01*
X189643226Y-72488603D01*
X189640566Y-72486084D01*
X189493269Y-72400527D01*
X189330241Y-72351151D01*
X189326593Y-72350925D01*
X189326589Y-72350924D01*
X189222367Y-72344458D01*
X189160226Y-72340603D01*
X189156618Y-72341223D01*
X189156617Y-72341223D01*
X189121326Y-72347287D01*
X188992345Y-72369450D01*
X188977894Y-72375599D01*
X188838971Y-72434712D01*
X188838969Y-72434713D01*
X188835604Y-72436145D01*
X188832658Y-72438313D01*
X188748835Y-72500000D01*
X188698409Y-72537109D01*
X188696042Y-72539895D01*
X188696039Y-72539898D01*
X188631177Y-72616246D01*
X188588120Y-72666927D01*
X188586454Y-72670189D01*
X188586453Y-72670191D01*
X188576699Y-72689293D01*
X188510654Y-72818635D01*
X188509785Y-72822187D01*
X188470833Y-72981370D01*
X188470832Y-72981376D01*
X188470167Y-72984094D01*
X188469993Y-72986893D01*
X188469993Y-72986895D01*
X188469844Y-72989293D01*
X188469500Y-72994845D01*
X188469500Y-73667655D01*
X188308000Y-73667655D01*
X188308000Y-73616533D01*
X188304329Y-73607671D01*
X188295467Y-73604000D01*
X187466533Y-73604000D01*
X187457671Y-73607671D01*
X187454000Y-73616533D01*
X187454000Y-74720466D01*
X186946000Y-74720466D01*
X186946000Y-73616533D01*
X186942329Y-73607671D01*
X186933467Y-73604000D01*
X186104534Y-73604000D01*
X186095672Y-73607671D01*
X186092001Y-73616533D01*
X186092001Y-74023737D01*
X185011566Y-74023737D01*
X185028821Y-74014945D01*
X185114945Y-73928821D01*
X185170240Y-73820298D01*
X185189293Y-73700000D01*
X185170240Y-73579702D01*
X185114945Y-73471179D01*
X185028821Y-73385055D01*
X184920298Y-73329760D01*
X184800000Y-73310707D01*
X184679702Y-73329760D01*
X184571179Y-73385055D01*
X184485055Y-73471179D01*
X184429760Y-73579702D01*
X184410707Y-73700000D01*
X169275551Y-73700000D01*
X169344890Y-73665956D01*
X169344891Y-73665956D01*
X169349560Y-73663663D01*
X169409119Y-73604000D01*
X169435376Y-73577698D01*
X169435377Y-73577696D01*
X169439054Y-73574013D01*
X169454633Y-73542141D01*
X169492537Y-73464598D01*
X169492538Y-73464596D01*
X169494683Y-73460207D01*
X169502405Y-73407276D01*
X169505170Y-73388325D01*
X169505170Y-73388323D01*
X169505500Y-73386062D01*
X169505500Y-73083467D01*
X186092000Y-73083467D01*
X186095671Y-73092329D01*
X186104533Y-73096000D01*
X186933467Y-73096000D01*
X186942329Y-73092329D01*
X186946000Y-73083467D01*
X187454000Y-73083467D01*
X187457671Y-73092329D01*
X187466533Y-73096000D01*
X188295466Y-73096000D01*
X188304328Y-73092329D01*
X188307999Y-73083467D01*
X188307999Y-72676264D01*
X188307832Y-72673025D01*
X188297387Y-72572361D01*
X188295942Y-72565670D01*
X188242253Y-72404742D01*
X188239167Y-72398154D01*
X188150011Y-72254081D01*
X188145489Y-72248375D01*
X188025586Y-72128680D01*
X188019872Y-72124167D01*
X187875639Y-72035262D01*
X187869051Y-72032190D01*
X187708027Y-71978780D01*
X187701336Y-71977345D01*
X187601963Y-71967164D01*
X187598754Y-71967000D01*
X187466533Y-71967000D01*
X187457671Y-71970671D01*
X187454000Y-71979533D01*
X187454000Y-73083467D01*
X186946000Y-73083467D01*
X186946000Y-71979534D01*
X186942329Y-71970672D01*
X186933467Y-71967001D01*
X186801264Y-71967001D01*
X186798025Y-71967168D01*
X186697361Y-71977613D01*
X186690670Y-71979058D01*
X186529742Y-72032747D01*
X186523154Y-72035833D01*
X186379081Y-72124989D01*
X186373375Y-72129511D01*
X186253680Y-72249414D01*
X186249167Y-72255128D01*
X186160262Y-72399361D01*
X186157190Y-72405949D01*
X186103780Y-72566973D01*
X186102345Y-72573664D01*
X186092164Y-72673037D01*
X186092000Y-72676246D01*
X186092000Y-73083467D01*
X169505500Y-73083467D01*
X169505500Y-72613938D01*
X169505133Y-72611439D01*
X169495204Y-72543991D01*
X169495204Y-72543990D01*
X169494491Y-72539148D01*
X169475271Y-72500000D01*
X171360707Y-72500000D01*
X171379760Y-72620298D01*
X171435055Y-72728821D01*
X171521179Y-72814945D01*
X171629702Y-72870240D01*
X171750000Y-72889293D01*
X171870298Y-72870240D01*
X171978821Y-72814945D01*
X172064945Y-72728821D01*
X172120240Y-72620298D01*
X172139293Y-72500000D01*
X172120240Y-72379702D01*
X172079630Y-72300000D01*
X176810707Y-72300000D01*
X176829760Y-72420298D01*
X176885055Y-72528821D01*
X176971179Y-72614945D01*
X177079702Y-72670240D01*
X177200000Y-72689293D01*
X177320298Y-72670240D01*
X177428821Y-72614945D01*
X177443766Y-72600000D01*
X184410707Y-72600000D01*
X184429760Y-72720298D01*
X184485055Y-72828821D01*
X184571179Y-72914945D01*
X184679702Y-72970240D01*
X184800000Y-72989293D01*
X184920298Y-72970240D01*
X185028821Y-72914945D01*
X185114945Y-72828821D01*
X185170240Y-72720298D01*
X185189293Y-72600000D01*
X185170240Y-72479702D01*
X185114945Y-72371179D01*
X185028821Y-72285055D01*
X184920298Y-72229760D01*
X184800000Y-72210707D01*
X184679702Y-72229760D01*
X184571179Y-72285055D01*
X184485055Y-72371179D01*
X184429760Y-72479702D01*
X184410707Y-72600000D01*
X177443766Y-72600000D01*
X177514945Y-72528821D01*
X177570240Y-72420298D01*
X177589293Y-72300000D01*
X177570240Y-72179702D01*
X177514945Y-72071179D01*
X177428821Y-71985055D01*
X177320298Y-71929760D01*
X177200000Y-71910707D01*
X177079702Y-71929760D01*
X176971179Y-71985055D01*
X176885055Y-72071179D01*
X176829760Y-72179702D01*
X176810707Y-72300000D01*
X172079630Y-72300000D01*
X172064945Y-72271179D01*
X171978821Y-72185055D01*
X171870298Y-72129760D01*
X171750000Y-72110707D01*
X171629702Y-72129760D01*
X171521179Y-72185055D01*
X171435055Y-72271179D01*
X171379760Y-72379702D01*
X171360707Y-72500000D01*
X169475271Y-72500000D01*
X169440956Y-72430110D01*
X169440956Y-72430109D01*
X169438663Y-72425440D01*
X169388415Y-72375279D01*
X169352698Y-72339624D01*
X169352696Y-72339623D01*
X169349013Y-72335946D01*
X169275475Y-72300000D01*
X169239598Y-72282463D01*
X169239596Y-72282462D01*
X169235207Y-72280317D01*
X169172571Y-72271179D01*
X169163325Y-72269830D01*
X169163323Y-72269830D01*
X169161062Y-72269500D01*
X167838938Y-72269500D01*
X167836659Y-72269836D01*
X167836652Y-72269836D01*
X167768991Y-72279796D01*
X167768990Y-72279796D01*
X167764148Y-72280509D01*
X167759758Y-72282664D01*
X167759756Y-72282665D01*
X167714469Y-72304900D01*
X167650440Y-72336337D01*
X167635652Y-72351151D01*
X167564624Y-72422302D01*
X167564623Y-72422304D01*
X167560946Y-72425987D01*
X167558659Y-72430666D01*
X167512841Y-72524401D01*
X167505317Y-72539793D01*
X167504612Y-72544628D01*
X167494834Y-72611652D01*
X167494500Y-72613938D01*
X167494500Y-73386062D01*
X165400000Y-73386062D01*
X165400000Y-71500000D01*
X171360707Y-71500000D01*
X171379760Y-71620298D01*
X171435055Y-71728821D01*
X171521179Y-71814945D01*
X171629702Y-71870240D01*
X171750000Y-71889293D01*
X171870298Y-71870240D01*
X171978821Y-71814945D01*
X172064945Y-71728821D01*
X172120240Y-71620298D01*
X172139293Y-71500000D01*
X172120240Y-71379702D01*
X172064945Y-71271179D01*
X171978821Y-71185055D01*
X171870298Y-71129760D01*
X171750000Y-71110707D01*
X171629702Y-71129760D01*
X171521179Y-71185055D01*
X171435055Y-71271179D01*
X171379760Y-71379702D01*
X171360707Y-71500000D01*
X165400000Y-71500000D01*
X165400000Y-71000000D01*
X176810707Y-71000000D01*
X176829760Y-71120298D01*
X176885055Y-71228821D01*
X176971179Y-71314945D01*
X177079702Y-71370240D01*
X177200000Y-71389293D01*
X177320298Y-71370240D01*
X177428821Y-71314945D01*
X177514945Y-71228821D01*
X177570240Y-71120298D01*
X177589293Y-71000000D01*
X177570240Y-70879702D01*
X177514945Y-70771179D01*
X177428821Y-70685055D01*
X177320298Y-70629760D01*
X177200000Y-70610707D01*
X177079702Y-70629760D01*
X176971179Y-70685055D01*
X176885055Y-70771179D01*
X176829760Y-70879702D01*
X176810707Y-71000000D01*
X165400000Y-71000000D01*
X165400000Y-70200000D01*
X194810707Y-70200000D01*
X194829760Y-70320298D01*
X194885055Y-70428821D01*
X194971179Y-70514945D01*
X195079702Y-70570240D01*
X195200000Y-70589293D01*
X195320298Y-70570240D01*
X195428821Y-70514945D01*
X195514945Y-70428821D01*
X195570240Y-70320298D01*
X195589293Y-70200000D01*
X195570240Y-70079702D01*
X195514945Y-69971179D01*
X195428821Y-69885055D01*
X195320298Y-69829760D01*
X195200000Y-69810707D01*
X195079702Y-69829760D01*
X194971179Y-69885055D01*
X194885055Y-69971179D01*
X194829760Y-70079702D01*
X194810707Y-70200000D01*
X165400000Y-70200000D01*
X165400000Y-69300000D01*
X182410707Y-69300000D01*
X182429760Y-69420298D01*
X182485055Y-69528821D01*
X182571179Y-69614945D01*
X182679702Y-69670240D01*
X182800000Y-69689293D01*
X182920298Y-69670240D01*
X183028821Y-69614945D01*
X183114945Y-69528821D01*
X183170240Y-69420298D01*
X183189293Y-69300000D01*
X183170240Y-69179702D01*
X183114945Y-69071179D01*
X183028821Y-68985055D01*
X182920298Y-68929760D01*
X182800000Y-68910707D01*
X182679702Y-68929760D01*
X182571179Y-68985055D01*
X182485055Y-69071179D01*
X182429760Y-69179702D01*
X182410707Y-69300000D01*
X165400000Y-69300000D01*
X165400000Y-67134734D01*
X165816047Y-67134734D01*
X165824836Y-67368849D01*
X165872946Y-67598135D01*
X165873926Y-67600616D01*
X165873927Y-67600620D01*
X165920560Y-67718703D01*
X165958999Y-67816038D01*
X165960382Y-67818318D01*
X165960383Y-67818319D01*
X166053141Y-67971179D01*
X166080537Y-68016326D01*
X166082283Y-68018338D01*
X166232340Y-68191264D01*
X166232344Y-68191268D01*
X166234084Y-68193273D01*
X166236139Y-68194958D01*
X166236140Y-68194959D01*
X166413187Y-68340129D01*
X166413193Y-68340133D01*
X166415249Y-68341819D01*
X166417563Y-68343136D01*
X166417567Y-68343139D01*
X166616535Y-68456399D01*
X166616540Y-68456401D01*
X166618853Y-68457718D01*
X166717132Y-68493391D01*
X166836562Y-68536743D01*
X166836567Y-68536744D01*
X166839073Y-68537654D01*
X166841694Y-68538128D01*
X166841698Y-68538129D01*
X167067583Y-68578975D01*
X167067587Y-68578975D01*
X167069614Y-68579342D01*
X167090980Y-68580350D01*
X167093447Y-68580466D01*
X167093449Y-68580466D01*
X167094169Y-68580500D01*
X167258820Y-68580500D01*
X167347562Y-68572970D01*
X167430783Y-68565909D01*
X167430788Y-68565908D01*
X167433441Y-68565683D01*
X167444199Y-68562891D01*
X167554240Y-68534330D01*
X167660206Y-68506827D01*
X167873813Y-68410604D01*
X168068154Y-68279766D01*
X168070202Y-68277813D01*
X168151770Y-68200000D01*
X171310707Y-68200000D01*
X171329760Y-68320298D01*
X171385055Y-68428821D01*
X171471179Y-68514945D01*
X171579702Y-68570240D01*
X171700000Y-68589293D01*
X171820298Y-68570240D01*
X171928821Y-68514945D01*
X171943766Y-68500000D01*
X176810707Y-68500000D01*
X176829760Y-68620298D01*
X176885055Y-68728821D01*
X176971179Y-68814945D01*
X177079702Y-68870240D01*
X177200000Y-68889293D01*
X177320298Y-68870240D01*
X177428821Y-68814945D01*
X177514945Y-68728821D01*
X177570240Y-68620298D01*
X177589293Y-68500000D01*
X177577214Y-68423737D01*
X186092001Y-68423737D01*
X186092168Y-68426975D01*
X186102613Y-68527639D01*
X186104058Y-68534330D01*
X186157747Y-68695258D01*
X186160833Y-68701846D01*
X186249989Y-68845919D01*
X186254511Y-68851625D01*
X186374414Y-68971320D01*
X186380128Y-68975833D01*
X186524361Y-69064738D01*
X186530949Y-69067810D01*
X186691973Y-69121220D01*
X186698664Y-69122655D01*
X186798037Y-69132836D01*
X186801246Y-69133000D01*
X186933467Y-69133000D01*
X186942329Y-69129329D01*
X186946000Y-69120467D01*
X186946000Y-69120466D01*
X187454000Y-69120466D01*
X187457671Y-69129328D01*
X187466533Y-69132999D01*
X187598736Y-69132999D01*
X187601975Y-69132832D01*
X187702639Y-69122387D01*
X187709330Y-69120942D01*
X187870258Y-69067253D01*
X187876846Y-69064167D01*
X188020919Y-68975011D01*
X188026625Y-68970489D01*
X188146320Y-68850586D01*
X188150833Y-68844872D01*
X188239738Y-68700639D01*
X188242810Y-68694051D01*
X188296220Y-68533027D01*
X188297655Y-68526336D01*
X188307836Y-68426963D01*
X188308000Y-68423754D01*
X188308000Y-68067655D01*
X188469500Y-68067655D01*
X188469712Y-68069472D01*
X188469712Y-68069475D01*
X188475376Y-68118054D01*
X188484253Y-68194195D01*
X188485501Y-68197634D01*
X188485502Y-68197637D01*
X188510472Y-68266428D01*
X188542374Y-68354315D01*
X188544381Y-68357377D01*
X188544383Y-68357380D01*
X188559018Y-68379702D01*
X188635771Y-68496769D01*
X188638431Y-68499289D01*
X188638432Y-68499290D01*
X188708518Y-68565683D01*
X188759434Y-68613916D01*
X188906731Y-68699473D01*
X189069759Y-68748849D01*
X189073407Y-68749075D01*
X189073411Y-68749076D01*
X189177633Y-68755542D01*
X189239774Y-68759397D01*
X189243382Y-68758777D01*
X189243383Y-68758777D01*
X189301160Y-68748849D01*
X189407655Y-68730550D01*
X189477949Y-68700639D01*
X189561029Y-68665288D01*
X189561031Y-68665287D01*
X189564396Y-68663855D01*
X189617573Y-68624721D01*
X189698644Y-68565060D01*
X189698645Y-68565059D01*
X189701591Y-68562891D01*
X189703958Y-68560105D01*
X189703961Y-68560102D01*
X189809508Y-68435865D01*
X189811880Y-68433073D01*
X189889346Y-68281365D01*
X189913464Y-68182803D01*
X189929167Y-68118630D01*
X189929168Y-68118624D01*
X189929833Y-68115906D01*
X189930108Y-68111483D01*
X189930439Y-68106141D01*
X189930439Y-68106135D01*
X189930500Y-68105155D01*
X189930500Y-68067655D01*
X190469500Y-68067655D01*
X190469712Y-68069472D01*
X190469712Y-68069475D01*
X190475376Y-68118054D01*
X190484253Y-68194195D01*
X190485501Y-68197634D01*
X190485502Y-68197637D01*
X190510472Y-68266428D01*
X190542374Y-68354315D01*
X190544381Y-68357377D01*
X190544383Y-68357380D01*
X190559018Y-68379702D01*
X190635771Y-68496769D01*
X190638431Y-68499289D01*
X190638432Y-68499290D01*
X190708518Y-68565683D01*
X190759434Y-68613916D01*
X190906731Y-68699473D01*
X191069759Y-68748849D01*
X191073407Y-68749075D01*
X191073411Y-68749076D01*
X191177633Y-68755542D01*
X191239774Y-68759397D01*
X191243382Y-68758777D01*
X191243383Y-68758777D01*
X191301160Y-68748849D01*
X191407655Y-68730550D01*
X191477949Y-68700639D01*
X191561029Y-68665288D01*
X191561031Y-68665287D01*
X191564396Y-68663855D01*
X191617573Y-68624721D01*
X191698644Y-68565060D01*
X191698645Y-68565059D01*
X191701591Y-68562891D01*
X191703958Y-68560105D01*
X191703961Y-68560102D01*
X191809508Y-68435865D01*
X191811880Y-68433073D01*
X191889346Y-68281365D01*
X191913464Y-68182803D01*
X191929167Y-68118630D01*
X191929168Y-68118624D01*
X191929833Y-68115906D01*
X191930108Y-68111483D01*
X191930439Y-68106141D01*
X191930439Y-68106135D01*
X191930500Y-68105155D01*
X191930500Y-68067655D01*
X192469500Y-68067655D01*
X192469712Y-68069472D01*
X192469712Y-68069475D01*
X192475376Y-68118054D01*
X192484253Y-68194195D01*
X192485501Y-68197634D01*
X192485502Y-68197637D01*
X192510472Y-68266428D01*
X192542374Y-68354315D01*
X192544381Y-68357377D01*
X192544383Y-68357380D01*
X192559018Y-68379702D01*
X192635771Y-68496769D01*
X192638431Y-68499289D01*
X192638432Y-68499290D01*
X192708518Y-68565683D01*
X192759434Y-68613916D01*
X192906731Y-68699473D01*
X193069759Y-68748849D01*
X193073407Y-68749075D01*
X193073411Y-68749076D01*
X193177633Y-68755542D01*
X193239774Y-68759397D01*
X193243382Y-68758777D01*
X193243383Y-68758777D01*
X193301160Y-68748849D01*
X193407655Y-68730550D01*
X193477949Y-68700639D01*
X193561029Y-68665288D01*
X193561031Y-68665287D01*
X193564396Y-68663855D01*
X193617573Y-68624721D01*
X193698644Y-68565060D01*
X193698645Y-68565059D01*
X193701591Y-68562891D01*
X193703958Y-68560105D01*
X193703961Y-68560102D01*
X193809508Y-68435865D01*
X193811880Y-68433073D01*
X193889346Y-68281365D01*
X193913464Y-68182803D01*
X193929167Y-68118630D01*
X193929168Y-68118624D01*
X193929833Y-68115906D01*
X193930108Y-68111483D01*
X193930439Y-68106141D01*
X193930439Y-68106135D01*
X193930500Y-68105155D01*
X193930500Y-67432345D01*
X193929096Y-67420298D01*
X193916171Y-67309441D01*
X193916171Y-67309440D01*
X193915747Y-67305805D01*
X193911862Y-67295100D01*
X193871753Y-67184605D01*
X193857626Y-67145685D01*
X193855619Y-67142623D01*
X193855617Y-67142620D01*
X193850447Y-67134734D01*
X196416047Y-67134734D01*
X196424836Y-67368849D01*
X196472946Y-67598135D01*
X196473926Y-67600616D01*
X196473927Y-67600620D01*
X196520560Y-67718703D01*
X196558999Y-67816038D01*
X196560382Y-67818318D01*
X196560383Y-67818319D01*
X196653141Y-67971179D01*
X196680537Y-68016326D01*
X196682283Y-68018338D01*
X196832340Y-68191264D01*
X196832344Y-68191268D01*
X196834084Y-68193273D01*
X196836139Y-68194958D01*
X196836140Y-68194959D01*
X197013187Y-68340129D01*
X197013193Y-68340133D01*
X197015249Y-68341819D01*
X197017563Y-68343136D01*
X197017567Y-68343139D01*
X197216535Y-68456399D01*
X197216540Y-68456401D01*
X197218853Y-68457718D01*
X197317132Y-68493391D01*
X197436562Y-68536743D01*
X197436567Y-68536744D01*
X197439073Y-68537654D01*
X197441694Y-68538128D01*
X197441698Y-68538129D01*
X197667583Y-68578975D01*
X197667587Y-68578975D01*
X197669614Y-68579342D01*
X197690980Y-68580350D01*
X197693447Y-68580466D01*
X197693449Y-68580466D01*
X197694169Y-68580500D01*
X197858820Y-68580500D01*
X197947562Y-68572970D01*
X198030783Y-68565909D01*
X198030788Y-68565908D01*
X198033441Y-68565683D01*
X198044199Y-68562891D01*
X198154240Y-68534330D01*
X198260206Y-68506827D01*
X198473813Y-68410604D01*
X198668154Y-68279766D01*
X198670202Y-68277813D01*
X198835743Y-68119893D01*
X198837671Y-68118054D01*
X198977519Y-67930093D01*
X199083697Y-67721255D01*
X199084488Y-67718709D01*
X199084490Y-67718703D01*
X199152379Y-67500066D01*
X199152380Y-67500061D01*
X199153171Y-67497514D01*
X199153859Y-67492329D01*
X199183603Y-67267908D01*
X199183603Y-67267906D01*
X199183953Y-67265266D01*
X199175164Y-67031151D01*
X199127054Y-66801865D01*
X199125589Y-66798154D01*
X199041981Y-66586444D01*
X199041001Y-66583962D01*
X199004717Y-66524167D01*
X198920846Y-66385953D01*
X198920846Y-66385952D01*
X198919463Y-66383674D01*
X198788131Y-66232327D01*
X198767660Y-66208736D01*
X198767656Y-66208732D01*
X198765916Y-66206727D01*
X198763860Y-66205041D01*
X198586813Y-66059871D01*
X198586807Y-66059867D01*
X198584751Y-66058181D01*
X198582437Y-66056864D01*
X198582433Y-66056861D01*
X198383465Y-65943601D01*
X198383460Y-65943599D01*
X198381147Y-65942282D01*
X198282868Y-65906609D01*
X198163438Y-65863257D01*
X198163433Y-65863256D01*
X198160927Y-65862346D01*
X198158306Y-65861872D01*
X198158302Y-65861871D01*
X197932417Y-65821025D01*
X197932413Y-65821025D01*
X197930386Y-65820658D01*
X197908227Y-65819613D01*
X197906553Y-65819534D01*
X197906551Y-65819534D01*
X197905831Y-65819500D01*
X197741180Y-65819500D01*
X197652438Y-65827030D01*
X197569217Y-65834091D01*
X197569212Y-65834092D01*
X197566559Y-65834317D01*
X197339794Y-65893173D01*
X197126187Y-65989396D01*
X196931846Y-66120234D01*
X196762329Y-66281946D01*
X196622481Y-66469907D01*
X196516303Y-66678745D01*
X196515512Y-66681291D01*
X196515510Y-66681297D01*
X196447621Y-66899934D01*
X196446829Y-66902486D01*
X196446479Y-66905129D01*
X196446478Y-66905132D01*
X196420001Y-67104900D01*
X196416047Y-67134734D01*
X193850447Y-67134734D01*
X193782534Y-67031151D01*
X193764229Y-67003231D01*
X193733018Y-66973664D01*
X193643225Y-66888603D01*
X193643226Y-66888603D01*
X193640566Y-66886084D01*
X193493269Y-66800527D01*
X193330241Y-66751151D01*
X193326593Y-66750925D01*
X193326589Y-66750924D01*
X193222367Y-66744458D01*
X193160226Y-66740603D01*
X193156618Y-66741223D01*
X193156617Y-66741223D01*
X193121326Y-66747287D01*
X192992345Y-66769450D01*
X192947432Y-66788561D01*
X192838971Y-66834712D01*
X192838969Y-66834713D01*
X192835604Y-66836145D01*
X192832658Y-66838313D01*
X192709450Y-66928984D01*
X192698409Y-66937109D01*
X192696042Y-66939895D01*
X192696039Y-66939898D01*
X192642234Y-67003231D01*
X192588120Y-67066927D01*
X192510654Y-67218635D01*
X192509785Y-67222187D01*
X192470833Y-67381370D01*
X192470832Y-67381376D01*
X192470167Y-67384094D01*
X192469500Y-67394845D01*
X192469500Y-68067655D01*
X191930500Y-68067655D01*
X191930500Y-67432345D01*
X191929096Y-67420298D01*
X191916171Y-67309441D01*
X191916171Y-67309440D01*
X191915747Y-67305805D01*
X191911862Y-67295100D01*
X191871753Y-67184605D01*
X191857626Y-67145685D01*
X191855619Y-67142623D01*
X191855617Y-67142620D01*
X191782534Y-67031151D01*
X191764229Y-67003231D01*
X191733018Y-66973664D01*
X191643225Y-66888603D01*
X191643226Y-66888603D01*
X191640566Y-66886084D01*
X191493269Y-66800527D01*
X191330241Y-66751151D01*
X191326593Y-66750925D01*
X191326589Y-66750924D01*
X191222367Y-66744458D01*
X191160226Y-66740603D01*
X191156618Y-66741223D01*
X191156617Y-66741223D01*
X191121326Y-66747287D01*
X190992345Y-66769450D01*
X190947432Y-66788561D01*
X190838971Y-66834712D01*
X190838969Y-66834713D01*
X190835604Y-66836145D01*
X190832658Y-66838313D01*
X190709450Y-66928984D01*
X190698409Y-66937109D01*
X190696042Y-66939895D01*
X190696039Y-66939898D01*
X190642234Y-67003231D01*
X190588120Y-67066927D01*
X190510654Y-67218635D01*
X190509785Y-67222187D01*
X190470833Y-67381370D01*
X190470832Y-67381376D01*
X190470167Y-67384094D01*
X190469500Y-67394845D01*
X190469500Y-68067655D01*
X189930500Y-68067655D01*
X189930500Y-67432345D01*
X189929096Y-67420298D01*
X189916171Y-67309441D01*
X189916171Y-67309440D01*
X189915747Y-67305805D01*
X189911862Y-67295100D01*
X189871753Y-67184605D01*
X189857626Y-67145685D01*
X189855619Y-67142623D01*
X189855617Y-67142620D01*
X189782534Y-67031151D01*
X189764229Y-67003231D01*
X189733018Y-66973664D01*
X189643225Y-66888603D01*
X189643226Y-66888603D01*
X189640566Y-66886084D01*
X189493269Y-66800527D01*
X189330241Y-66751151D01*
X189326593Y-66750925D01*
X189326589Y-66750924D01*
X189222367Y-66744458D01*
X189160226Y-66740603D01*
X189156618Y-66741223D01*
X189156617Y-66741223D01*
X189121326Y-66747287D01*
X188992345Y-66769450D01*
X188947432Y-66788561D01*
X188838971Y-66834712D01*
X188838969Y-66834713D01*
X188835604Y-66836145D01*
X188832658Y-66838313D01*
X188709450Y-66928984D01*
X188698409Y-66937109D01*
X188696042Y-66939895D01*
X188696039Y-66939898D01*
X188642234Y-67003231D01*
X188588120Y-67066927D01*
X188510654Y-67218635D01*
X188509785Y-67222187D01*
X188470833Y-67381370D01*
X188470832Y-67381376D01*
X188470167Y-67384094D01*
X188469500Y-67394845D01*
X188469500Y-68067655D01*
X188308000Y-68067655D01*
X188308000Y-68016533D01*
X188304329Y-68007671D01*
X188295467Y-68004000D01*
X187466533Y-68004000D01*
X187457671Y-68007671D01*
X187454000Y-68016533D01*
X187454000Y-69120466D01*
X186946000Y-69120466D01*
X186946000Y-68016533D01*
X186942329Y-68007671D01*
X186933467Y-68004000D01*
X186104534Y-68004000D01*
X186095672Y-68007671D01*
X186092001Y-68016533D01*
X186092001Y-68423737D01*
X177577214Y-68423737D01*
X177570240Y-68379702D01*
X177514945Y-68271179D01*
X177428821Y-68185055D01*
X177320298Y-68129760D01*
X177200000Y-68110707D01*
X177079702Y-68129760D01*
X176971179Y-68185055D01*
X176885055Y-68271179D01*
X176829760Y-68379702D01*
X176810707Y-68500000D01*
X171943766Y-68500000D01*
X172014945Y-68428821D01*
X172070240Y-68320298D01*
X172089293Y-68200000D01*
X172070240Y-68079702D01*
X172014945Y-67971179D01*
X171928821Y-67885055D01*
X171820298Y-67829760D01*
X171700000Y-67810707D01*
X171579702Y-67829760D01*
X171471179Y-67885055D01*
X171385055Y-67971179D01*
X171329760Y-68079702D01*
X171310707Y-68200000D01*
X168151770Y-68200000D01*
X168235743Y-68119893D01*
X168237671Y-68118054D01*
X168377519Y-67930093D01*
X168483697Y-67721255D01*
X168484488Y-67718709D01*
X168484490Y-67718703D01*
X168552379Y-67500066D01*
X168552380Y-67500061D01*
X168553171Y-67497514D01*
X168553859Y-67492329D01*
X168583603Y-67267908D01*
X168583603Y-67267906D01*
X168583953Y-67265266D01*
X168577749Y-67100000D01*
X171310707Y-67100000D01*
X171329760Y-67220298D01*
X171385055Y-67328821D01*
X171471179Y-67414945D01*
X171579702Y-67470240D01*
X171700000Y-67489293D01*
X171820298Y-67470240D01*
X171928821Y-67414945D01*
X172014945Y-67328821D01*
X172029630Y-67300000D01*
X174410707Y-67300000D01*
X174429760Y-67420298D01*
X174485055Y-67528821D01*
X174571179Y-67614945D01*
X174679702Y-67670240D01*
X174800000Y-67689293D01*
X174920298Y-67670240D01*
X175028821Y-67614945D01*
X175114945Y-67528821D01*
X175138054Y-67483467D01*
X186092000Y-67483467D01*
X186095671Y-67492329D01*
X186104533Y-67496000D01*
X186933467Y-67496000D01*
X186942329Y-67492329D01*
X186946000Y-67483467D01*
X187454000Y-67483467D01*
X187457671Y-67492329D01*
X187466533Y-67496000D01*
X188295466Y-67496000D01*
X188304328Y-67492329D01*
X188307999Y-67483467D01*
X188307999Y-67076264D01*
X188307832Y-67073025D01*
X188297387Y-66972361D01*
X188295942Y-66965670D01*
X188242253Y-66804742D01*
X188239167Y-66798154D01*
X188150011Y-66654081D01*
X188145489Y-66648375D01*
X188025586Y-66528680D01*
X188019872Y-66524167D01*
X187875639Y-66435262D01*
X187869051Y-66432190D01*
X187708027Y-66378780D01*
X187701336Y-66377345D01*
X187601963Y-66367164D01*
X187598754Y-66367000D01*
X187466533Y-66367000D01*
X187457671Y-66370671D01*
X187454000Y-66379533D01*
X187454000Y-67483467D01*
X186946000Y-67483467D01*
X186946000Y-66379534D01*
X186942329Y-66370672D01*
X186933467Y-66367001D01*
X186801264Y-66367001D01*
X186798025Y-66367168D01*
X186697361Y-66377613D01*
X186690670Y-66379058D01*
X186529742Y-66432747D01*
X186523154Y-66435833D01*
X186379081Y-66524989D01*
X186373375Y-66529511D01*
X186253680Y-66649414D01*
X186249167Y-66655128D01*
X186160262Y-66799361D01*
X186157190Y-66805949D01*
X186103780Y-66966973D01*
X186102345Y-66973664D01*
X186092164Y-67073037D01*
X186092000Y-67076246D01*
X186092000Y-67483467D01*
X175138054Y-67483467D01*
X175170240Y-67420298D01*
X175189293Y-67300000D01*
X175170240Y-67179702D01*
X175114945Y-67071179D01*
X175028821Y-66985055D01*
X174920298Y-66929760D01*
X174800000Y-66910707D01*
X174679702Y-66929760D01*
X174571179Y-66985055D01*
X174485055Y-67071179D01*
X174429760Y-67179702D01*
X174410707Y-67300000D01*
X172029630Y-67300000D01*
X172070240Y-67220298D01*
X172089293Y-67100000D01*
X172070240Y-66979702D01*
X172014945Y-66871179D01*
X171928821Y-66785055D01*
X171820298Y-66729760D01*
X171700000Y-66710707D01*
X171579702Y-66729760D01*
X171471179Y-66785055D01*
X171385055Y-66871179D01*
X171329760Y-66979702D01*
X171310707Y-67100000D01*
X168577749Y-67100000D01*
X168575164Y-67031151D01*
X168527054Y-66801865D01*
X168525589Y-66798154D01*
X168441981Y-66586444D01*
X168441001Y-66583962D01*
X168404717Y-66524167D01*
X168320846Y-66385953D01*
X168320846Y-66385952D01*
X168319463Y-66383674D01*
X168188131Y-66232327D01*
X168167660Y-66208736D01*
X168167656Y-66208732D01*
X168165916Y-66206727D01*
X168163860Y-66205041D01*
X167986813Y-66059871D01*
X167986807Y-66059867D01*
X167984751Y-66058181D01*
X167982437Y-66056864D01*
X167982433Y-66056861D01*
X167882543Y-66000000D01*
X171210707Y-66000000D01*
X171229760Y-66120298D01*
X171285055Y-66228821D01*
X171371179Y-66314945D01*
X171479702Y-66370240D01*
X171600000Y-66389293D01*
X171720298Y-66370240D01*
X171828821Y-66314945D01*
X171914945Y-66228821D01*
X171970240Y-66120298D01*
X171989293Y-66000000D01*
X182610707Y-66000000D01*
X182629760Y-66120298D01*
X182685055Y-66228821D01*
X182771179Y-66314945D01*
X182879702Y-66370240D01*
X183000000Y-66389293D01*
X183120298Y-66370240D01*
X183228821Y-66314945D01*
X183314945Y-66228821D01*
X183370240Y-66120298D01*
X183389293Y-66000000D01*
X183370240Y-65879702D01*
X183314945Y-65771179D01*
X183228821Y-65685055D01*
X183120298Y-65629760D01*
X183000000Y-65610707D01*
X182879702Y-65629760D01*
X182771179Y-65685055D01*
X182685055Y-65771179D01*
X182629760Y-65879702D01*
X182610707Y-66000000D01*
X171989293Y-66000000D01*
X171970240Y-65879702D01*
X171914945Y-65771179D01*
X171828821Y-65685055D01*
X171720298Y-65629760D01*
X171600000Y-65610707D01*
X171479702Y-65629760D01*
X171371179Y-65685055D01*
X171285055Y-65771179D01*
X171229760Y-65879702D01*
X171210707Y-66000000D01*
X167882543Y-66000000D01*
X167783465Y-65943601D01*
X167783460Y-65943599D01*
X167781147Y-65942282D01*
X167682868Y-65906609D01*
X167563438Y-65863257D01*
X167563433Y-65863256D01*
X167560927Y-65862346D01*
X167558306Y-65861872D01*
X167558302Y-65861871D01*
X167332417Y-65821025D01*
X167332413Y-65821025D01*
X167330386Y-65820658D01*
X167308227Y-65819613D01*
X167306553Y-65819534D01*
X167306551Y-65819534D01*
X167305831Y-65819500D01*
X167141180Y-65819500D01*
X167052438Y-65827030D01*
X166969217Y-65834091D01*
X166969212Y-65834092D01*
X166966559Y-65834317D01*
X166739794Y-65893173D01*
X166526187Y-65989396D01*
X166331846Y-66120234D01*
X166162329Y-66281946D01*
X166022481Y-66469907D01*
X165916303Y-66678745D01*
X165915512Y-66681291D01*
X165915510Y-66681297D01*
X165847621Y-66899934D01*
X165846829Y-66902486D01*
X165846479Y-66905129D01*
X165846478Y-66905132D01*
X165820001Y-67104900D01*
X165816047Y-67134734D01*
X165400000Y-67134734D01*
X165400000Y-65363000D01*
X165418452Y-65318452D01*
X165463000Y-65300000D01*
X199637000Y-65300000D01*
X199681548Y-65318452D01*
G37*
%TD.AperFunction*%
%TD*%
M02*
