%TF.GenerationSoftware,KiCad,Pcbnew,(6.0.7-1)-1*%
%TF.CreationDate,2022-09-14T15:44:29-04:00*%
%TF.ProjectId,phocuser,70686f63-7573-4657-922e-6b696361645f,rev?*%
%TF.SameCoordinates,Original*%
%TF.FileFunction,Soldermask,Top*%
%TF.FilePolarity,Negative*%
%FSLAX46Y46*%
G04 Gerber Fmt 4.6, Leading zero omitted, Abs format (unit mm)*
G04 Created by KiCad (PCBNEW (6.0.7-1)-1) date 2022-09-14 15:44:29*
%MOMM*%
%LPD*%
G01*
G04 APERTURE LIST*
G04 Aperture macros list*
%AMRoundRect*
0 Rectangle with rounded corners*
0 $1 Rounding radius*
0 $2 $3 $4 $5 $6 $7 $8 $9 X,Y pos of 4 corners*
0 Add a 4 corners polygon primitive as box body*
4,1,4,$2,$3,$4,$5,$6,$7,$8,$9,$2,$3,0*
0 Add four circle primitives for the rounded corners*
1,1,$1+$1,$2,$3*
1,1,$1+$1,$4,$5*
1,1,$1+$1,$6,$7*
1,1,$1+$1,$8,$9*
0 Add four rect primitives between the rounded corners*
20,1,$1+$1,$2,$3,$4,$5,0*
20,1,$1+$1,$4,$5,$6,$7,0*
20,1,$1+$1,$6,$7,$8,$9,0*
20,1,$1+$1,$8,$9,$2,$3,0*%
G04 Aperture macros list end*
%ADD10RoundRect,0.140000X-0.170000X0.140000X-0.170000X-0.140000X0.170000X-0.140000X0.170000X0.140000X0*%
%ADD11RoundRect,0.135000X0.185000X-0.135000X0.185000X0.135000X-0.185000X0.135000X-0.185000X-0.135000X0*%
%ADD12RoundRect,0.135000X-0.135000X-0.185000X0.135000X-0.185000X0.135000X0.185000X-0.135000X0.185000X0*%
%ADD13RoundRect,0.218750X-0.256250X0.218750X-0.256250X-0.218750X0.256250X-0.218750X0.256250X0.218750X0*%
%ADD14RoundRect,0.250000X-0.600000X-0.725000X0.600000X-0.725000X0.600000X0.725000X-0.600000X0.725000X0*%
%ADD15O,1.700000X1.950000*%
%ADD16RoundRect,0.062500X-0.062500X0.362500X-0.062500X-0.362500X0.062500X-0.362500X0.062500X0.362500X0*%
%ADD17RoundRect,0.062500X-0.362500X0.062500X-0.362500X-0.062500X0.362500X-0.062500X0.362500X0.062500X0*%
%ADD18R,4.100000X3.600000*%
%ADD19RoundRect,0.140000X0.140000X0.170000X-0.140000X0.170000X-0.140000X-0.170000X0.140000X-0.170000X0*%
%ADD20R,2.400000X0.740000*%
%ADD21C,1.200000*%
%ADD22RoundRect,0.250000X-0.600000X-0.750000X0.600000X-0.750000X0.600000X0.750000X-0.600000X0.750000X0*%
%ADD23O,1.700000X2.000000*%
%ADD24RoundRect,0.140000X0.170000X-0.140000X0.170000X0.140000X-0.170000X0.140000X-0.170000X-0.140000X0*%
%ADD25RoundRect,0.140000X-0.140000X-0.170000X0.140000X-0.170000X0.140000X0.170000X-0.140000X0.170000X0*%
%ADD26RoundRect,0.147500X-0.172500X0.147500X-0.172500X-0.147500X0.172500X-0.147500X0.172500X0.147500X0*%
%ADD27C,0.630000*%
%ADD28C,0.600000*%
%ADD29R,0.520000X1.000000*%
%ADD30R,0.270000X1.000000*%
%ADD31R,1.000000X2.000000*%
%ADD32O,1.158000X2.316000*%
%ADD33O,1.200000X2.400000*%
%ADD34RoundRect,0.135000X0.135000X0.185000X-0.135000X0.185000X-0.135000X-0.185000X0.135000X-0.185000X0*%
%ADD35RoundRect,0.135000X-0.185000X0.135000X-0.185000X-0.135000X0.185000X-0.135000X0.185000X0.135000X0*%
%ADD36RoundRect,0.062500X-0.350000X-0.062500X0.350000X-0.062500X0.350000X0.062500X-0.350000X0.062500X0*%
%ADD37RoundRect,0.062500X-0.062500X-0.350000X0.062500X-0.350000X0.062500X0.350000X-0.062500X0.350000X0*%
%ADD38R,2.500000X2.500000*%
%ADD39RoundRect,0.250000X-0.350000X-0.625000X0.350000X-0.625000X0.350000X0.625000X-0.350000X0.625000X0*%
%ADD40O,1.200000X1.750000*%
%ADD41RoundRect,0.218750X0.256250X-0.218750X0.256250X0.218750X-0.256250X0.218750X-0.256250X-0.218750X0*%
%ADD42RoundRect,0.250000X-0.625000X0.350000X-0.625000X-0.350000X0.625000X-0.350000X0.625000X0.350000X0*%
%ADD43O,1.750000X1.200000*%
%ADD44R,1.000001X0.599999*%
%ADD45C,3.400000*%
%ADD46C,3.800000*%
%ADD47RoundRect,0.150000X0.150000X-0.587500X0.150000X0.587500X-0.150000X0.587500X-0.150000X-0.587500X0*%
G04 APERTURE END LIST*
D10*
%TO.C,C19*%
X196400000Y-79620000D03*
X196400000Y-80580000D03*
%TD*%
D11*
%TO.C,R21*%
X196400000Y-77690000D03*
X196400000Y-78710000D03*
%TD*%
%TO.C,R20*%
X197400000Y-80610000D03*
X197400000Y-79590000D03*
%TD*%
D12*
%TO.C,R16*%
X178890000Y-81800000D03*
X179910000Y-81800000D03*
%TD*%
%TO.C,R15*%
X180690000Y-82800000D03*
X181710000Y-82800000D03*
%TD*%
D13*
%TO.C,D4*%
X179000000Y-78925000D03*
X179000000Y-80500000D03*
%TD*%
%TO.C,D3*%
X177400000Y-78912500D03*
X177400000Y-80487500D03*
%TD*%
D14*
%TO.C,J1*%
X185250000Y-101000000D03*
D15*
X187750000Y-101000000D03*
X190250000Y-101000000D03*
X192750000Y-101000000D03*
%TD*%
D16*
%TO.C,U2*%
X191000000Y-87800000D03*
X190500000Y-87800000D03*
X190000000Y-87800000D03*
X189500000Y-87800000D03*
X189000000Y-87800000D03*
X188500000Y-87800000D03*
X188000000Y-87800000D03*
X187500000Y-87800000D03*
X187000000Y-87800000D03*
X186500000Y-87800000D03*
D17*
X185800000Y-88500000D03*
X185800000Y-89000000D03*
X185800000Y-89500000D03*
X185800000Y-90000000D03*
X185800000Y-90500000D03*
X185800000Y-91000000D03*
X185800000Y-91500000D03*
X185800000Y-92000000D03*
D16*
X186500000Y-92700000D03*
X187000000Y-92700000D03*
X187500000Y-92700000D03*
X188000000Y-92700000D03*
X188500000Y-92700000D03*
X189000000Y-92700000D03*
X189500000Y-92700000D03*
X190000000Y-92700000D03*
X190500000Y-92700000D03*
X191000000Y-92700000D03*
D17*
X191700000Y-92000000D03*
X191700000Y-91500000D03*
X191700000Y-91000000D03*
X191700000Y-90500000D03*
X191700000Y-90000000D03*
X191700000Y-89500000D03*
X191700000Y-89000000D03*
X191700000Y-88500000D03*
D18*
X188750000Y-90250000D03*
%TD*%
D19*
%TO.C,C10*%
X182180000Y-79200000D03*
X181220000Y-79200000D03*
%TD*%
D20*
%TO.C,J2*%
X178650000Y-73540000D03*
X174750000Y-73540000D03*
X178650000Y-72270000D03*
X174750000Y-72270000D03*
X178650000Y-71000000D03*
X174750000Y-71000000D03*
X178650000Y-69730000D03*
X174750000Y-69730000D03*
X178650000Y-68460000D03*
X174750000Y-68460000D03*
%TD*%
D21*
%TO.C,J3*%
X188600000Y-81675000D03*
D22*
X190200000Y-79675000D03*
D23*
X192700000Y-79675000D03*
%TD*%
D24*
%TO.C,C11*%
X179000000Y-96730000D03*
X179000000Y-95770000D03*
%TD*%
%TO.C,C12*%
X173000000Y-96730000D03*
X173000000Y-95770000D03*
%TD*%
D10*
%TO.C,C13*%
X176000000Y-95840000D03*
X176000000Y-96800000D03*
%TD*%
D19*
%TO.C,C14*%
X176480000Y-94250000D03*
X175520000Y-94250000D03*
%TD*%
D25*
%TO.C,C15*%
X181770000Y-72750000D03*
X182730000Y-72750000D03*
%TD*%
D26*
%TO.C,FB1*%
X178000000Y-95765000D03*
X178000000Y-96735000D03*
%TD*%
D27*
%TO.C,J4*%
X171500000Y-100000000D03*
X177500000Y-100000000D03*
D28*
X177500000Y-100000000D03*
D29*
X171400000Y-98900000D03*
X172150000Y-98900000D03*
D30*
X172750000Y-98900000D03*
X173250000Y-98900000D03*
X173750000Y-98900000D03*
X174250000Y-98900000D03*
X174750000Y-98900000D03*
X175250000Y-98900000D03*
X175750000Y-98900000D03*
X176250000Y-98900000D03*
D29*
X176850000Y-98900000D03*
X177600000Y-98900000D03*
D31*
X173100000Y-103100000D03*
X175900000Y-103100000D03*
D32*
X170180000Y-99275000D03*
X178820000Y-99275000D03*
D33*
X170180000Y-103100000D03*
X178820000Y-103100000D03*
%TD*%
D34*
%TO.C,R4*%
X179760000Y-75500000D03*
X178740000Y-75500000D03*
%TD*%
%TO.C,R5*%
X179760000Y-76500000D03*
X178740000Y-76500000D03*
%TD*%
D11*
%TO.C,R6*%
X177000000Y-96760000D03*
X177000000Y-95740000D03*
%TD*%
%TO.C,R7*%
X172000000Y-96760000D03*
X172000000Y-95740000D03*
%TD*%
D35*
%TO.C,R8*%
X175000000Y-95740000D03*
X175000000Y-96760000D03*
%TD*%
%TO.C,R9*%
X174000000Y-95740000D03*
X174000000Y-96760000D03*
%TD*%
%TO.C,R10*%
X176000000Y-79780000D03*
X176000000Y-80800000D03*
%TD*%
%TO.C,R11*%
X174950000Y-79790000D03*
X174950000Y-80810000D03*
%TD*%
D34*
%TO.C,R12*%
X183910000Y-82800000D03*
X182890000Y-82800000D03*
%TD*%
%TO.C,R13*%
X182760000Y-71750000D03*
X181740000Y-71750000D03*
%TD*%
%TO.C,TH1*%
X182760000Y-70750000D03*
X181740000Y-70750000D03*
%TD*%
D36*
%TO.C,U3*%
X172312500Y-90000000D03*
X172312500Y-90500000D03*
X172312500Y-91000000D03*
X172312500Y-91500000D03*
X172312500Y-92000000D03*
D37*
X173250000Y-92937500D03*
X173750000Y-92937500D03*
X174250000Y-92937500D03*
X174750000Y-92937500D03*
X175250000Y-92937500D03*
D36*
X176187500Y-92000000D03*
X176187500Y-91500000D03*
X176187500Y-91000000D03*
X176187500Y-90500000D03*
X176187500Y-90000000D03*
D37*
X175250000Y-89062500D03*
X174750000Y-89062500D03*
X174250000Y-89062500D03*
X173750000Y-89062500D03*
X173250000Y-89062500D03*
D38*
X174250000Y-91000000D03*
%TD*%
D39*
%TO.C,J5*%
X187200000Y-67750000D03*
D40*
X189200000Y-67750000D03*
X191200000Y-67750000D03*
X193200000Y-67750000D03*
%TD*%
D39*
%TO.C,J6*%
X187200000Y-73350000D03*
D40*
X189200000Y-73350000D03*
X191200000Y-73350000D03*
X193200000Y-73350000D03*
%TD*%
D11*
%TO.C,R17*%
X171800000Y-80810000D03*
X171800000Y-79790000D03*
%TD*%
%TO.C,R18*%
X172850000Y-80820000D03*
X172850000Y-79800000D03*
%TD*%
%TO.C,R19*%
X173900000Y-80810000D03*
X173900000Y-79790000D03*
%TD*%
D41*
%TO.C,D1*%
X181000000Y-100787500D03*
X181000000Y-99212500D03*
%TD*%
D11*
%TO.C,R14*%
X181000000Y-97760000D03*
X181000000Y-96740000D03*
%TD*%
D10*
%TO.C,C16*%
X173900000Y-81820000D03*
X173900000Y-82780000D03*
%TD*%
D42*
%TO.C,J7*%
X168510000Y-84740000D03*
D43*
X168510000Y-86740000D03*
X168510000Y-88740000D03*
X168510000Y-90740000D03*
%TD*%
D44*
%TO.C,U4*%
X177400000Y-84600000D03*
X177400000Y-86499999D03*
X179800000Y-85550001D03*
%TD*%
D19*
%TO.C,C17*%
X176280000Y-86500000D03*
X175320000Y-86500000D03*
%TD*%
D25*
%TO.C,C18*%
X177420000Y-83550001D03*
X178380000Y-83550001D03*
%TD*%
D45*
%TO.C,H3*%
X167200000Y-102800000D03*
%TD*%
D46*
%TO.C,H1*%
X167200000Y-67200000D03*
%TD*%
D47*
%TO.C,D2*%
X177950000Y-90037500D03*
X179850000Y-90037500D03*
X178900000Y-88162500D03*
%TD*%
D45*
%TO.C,H4*%
X197800000Y-102800000D03*
%TD*%
D42*
%TO.C,J8*%
X168500000Y-73000000D03*
D43*
X168500000Y-75000000D03*
X168500000Y-77000000D03*
X168500000Y-79000000D03*
%TD*%
D46*
%TO.C,H2*%
X197800000Y-67200000D03*
%TD*%
M02*
